<svg width="332" height="293" viewBox="0 0 332 293" fill="none" xmlns="http://www.w3.org/2000/svg">
<g clip-path="url(#clip0_948_988)">
<path d="M6.70147 193.292C6.70147 193.292 20.474 249.391 75.1476 276.389C129.821 303.387 195.099 291.301 248.241 282.911C301.383 274.522 335.274 235.372 331.747 188.701C328.221 142.031 285.378 137.882 252.744 91.2954C220.109 44.708 218.453 27.3223 165.787 6.11559C113.121 -15.0907 45.3595 20.8 19.1734 83.7255C-7.01246 146.651 6.70147 193.292 6.70147 193.292Z" fill="#FFDF8F"/>
<path d="M6.70147 193.292C6.70147 193.292 20.474 249.391 75.1476 276.389C129.821 303.387 195.099 291.301 248.241 282.911C301.383 274.522 335.274 235.372 331.747 188.701C328.221 142.031 285.378 137.882 252.744 91.2954C220.109 44.708 218.453 27.3223 165.787 6.11559C113.121 -15.0907 45.3595 20.8 19.1734 83.7255C-7.01246 146.651 6.70147 193.292 6.70147 193.292Z" fill="#FCE8B6" fill-opacity="0.701961"/>
<path d="M247.509 90.7095C247.509 88.5589 245.774 86.8154 243.634 86.8154" stroke="black" stroke-width="1.3335" stroke-miterlimit="10"/>
<path d="M243.634 86.8154H239.567" stroke="black" stroke-width="1.3335" stroke-miterlimit="10"/>
<path d="M239.567 86.8153C239.291 85.047 238.836 83.3415 238.211 81.7153" stroke="black" stroke-width="1.3335" stroke-miterlimit="10"/>
<path d="M238.212 81.7155L241.73 79.6738" stroke="black" stroke-width="1.3335" stroke-miterlimit="10"/>
<path d="M241.73 79.6736C243.584 78.5986 244.219 76.2168 243.149 74.3542" stroke="black" stroke-width="1.3335" stroke-miterlimit="10"/>
<path d="M243.148 74.3546V74.3542" stroke="black" stroke-width="1.3335" stroke-miterlimit="10"/>
<path d="M243.149 74.3541C242.079 72.4915 239.709 71.8536 237.855 72.9289" stroke="black" stroke-width="1.3335" stroke-miterlimit="10"/>
<path d="M237.855 72.929L234.34 74.9683" stroke="black" stroke-width="1.3335" stroke-miterlimit="10"/>
<path d="M234.34 74.9683C233.234 73.596 231.989 72.345 230.623 71.2336" stroke="black" stroke-width="1.3335" stroke-miterlimit="10"/>
<path d="M230.623 71.2338L232.652 67.7009" stroke="black" stroke-width="1.3335" stroke-miterlimit="10"/>
<path d="M232.652 67.7009C233.723 65.8384 233.088 63.4569 231.234 62.3813" stroke="black" stroke-width="1.3335" stroke-miterlimit="10"/>
<path d="M231.235 62.3813C229.381 61.3063 227.011 61.9442 225.941 63.8068" stroke="black" stroke-width="1.3335" stroke-miterlimit="10"/>
<path d="M225.941 63.8066L223.909 67.3433" stroke="black" stroke-width="1.3335" stroke-miterlimit="10"/>
<path d="M223.91 67.3435C222.291 66.7151 220.594 66.2583 218.835 65.9805" stroke="black" stroke-width="1.3335" stroke-miterlimit="10"/>
<path d="M218.835 65.9806V61.8933" stroke="black" stroke-width="1.3335" stroke-miterlimit="10"/>
<path d="M218.835 61.8933C218.835 59.7425 217.1 57.999 214.96 57.999" stroke="black" stroke-width="1.3335" stroke-miterlimit="10"/>
<path d="M214.96 57.999C212.82 57.999 211.085 59.7425 211.085 61.8933" stroke="black" stroke-width="1.3335" stroke-miterlimit="10"/>
<path d="M211.085 61.8933V65.9804" stroke="black" stroke-width="1.3335" stroke-miterlimit="10"/>
<path d="M211.085 65.9805C209.326 66.2582 207.629 66.7149 206.011 67.3433" stroke="black" stroke-width="1.3335" stroke-miterlimit="10"/>
<path d="M206.01 67.3432L203.979 63.8066" stroke="black" stroke-width="1.3335" stroke-miterlimit="10"/>
<path d="M203.979 63.8068C202.909 61.9442 200.539 61.3063 198.686 62.3813" stroke="black" stroke-width="1.3335" stroke-miterlimit="10"/>
<path d="M198.685 62.3813C196.832 63.4567 196.197 65.8384 197.267 67.7009" stroke="black" stroke-width="1.3335" stroke-miterlimit="10"/>
<path d="M197.268 67.7009L199.297 71.2332" stroke="black" stroke-width="1.3335" stroke-miterlimit="10"/>
<path d="M199.297 71.2332C197.931 72.3447 196.685 73.5959 195.58 74.9684" stroke="black" stroke-width="1.3335" stroke-miterlimit="10"/>
<path d="M195.58 74.9683L192.065 72.929" stroke="black" stroke-width="1.3335" stroke-miterlimit="10"/>
<path d="M192.065 72.9289C190.211 71.8536 187.842 72.4915 186.771 74.3541" stroke="black" stroke-width="1.3335" stroke-miterlimit="10"/>
<path d="M186.772 74.3542C185.702 76.2168 186.337 78.5985 188.19 79.6736" stroke="black" stroke-width="1.3335" stroke-miterlimit="10"/>
<path d="M188.19 79.6738L191.71 81.7158" stroke="black" stroke-width="1.3335" stroke-miterlimit="10"/>
<path d="M191.709 81.7158C191.084 83.3416 190.63 85.0473 190.354 86.8154" stroke="black" stroke-width="1.3335" stroke-miterlimit="10"/>
<path d="M190.354 86.8154H186.286" stroke="black" stroke-width="1.3335" stroke-miterlimit="10"/>
<path d="M186.286 94.6035H190.353" stroke="black" stroke-width="1.3335" stroke-miterlimit="10"/>
<path d="M190.354 94.6035C190.63 96.3719 191.085 98.0773 191.71 99.7035" stroke="black" stroke-width="1.3335" stroke-miterlimit="10"/>
<path d="M191.71 99.7036L188.19 101.745" stroke="black" stroke-width="1.3335" stroke-miterlimit="10"/>
<path d="M188.19 101.745C186.337 102.821 185.702 105.202 186.772 107.065" stroke="black" stroke-width="1.3335" stroke-miterlimit="10"/>
<path d="M186.771 107.065C187.842 108.927 190.211 109.565 192.064 108.49" stroke="black" stroke-width="1.3335" stroke-miterlimit="10"/>
<path d="M192.064 108.49L195.579 106.451" stroke="black" stroke-width="1.3335" stroke-miterlimit="10"/>
<path d="M195.58 106.451C196.686 107.823 197.931 109.075 199.297 110.186" stroke="black" stroke-width="1.3335" stroke-miterlimit="10"/>
<path d="M199.297 110.187L197.268 113.718" stroke="black" stroke-width="1.3335" stroke-miterlimit="10"/>
<path d="M197.267 113.718C196.197 115.581 196.832 117.962 198.685 119.038" stroke="black" stroke-width="1.3335" stroke-miterlimit="10"/>
<path d="M198.686 119.038C200.539 120.113 202.909 119.475 203.979 117.613" stroke="black" stroke-width="1.3335" stroke-miterlimit="10"/>
<path d="M203.979 117.613L206.01 114.076" stroke="black" stroke-width="1.3335" stroke-miterlimit="10"/>
<path d="M206.011 114.076C207.628 114.705 209.326 115.161 211.085 115.439" stroke="black" stroke-width="1.3335" stroke-miterlimit="10"/>
<path d="M211.085 115.439V119.526" stroke="black" stroke-width="1.3335" stroke-miterlimit="10"/>
<path d="M211.085 119.526C211.085 121.677 212.82 123.42 214.96 123.42" stroke="black" stroke-width="1.3335" stroke-miterlimit="10"/>
<path d="M214.96 123.42C217.1 123.42 218.835 121.677 218.835 119.526" stroke="black" stroke-width="1.3335" stroke-miterlimit="10"/>
<path d="M218.835 119.526V115.439" stroke="black" stroke-width="1.3335" stroke-miterlimit="10"/>
<path d="M218.835 115.439C220.594 115.161 222.292 114.704 223.91 114.076" stroke="black" stroke-width="1.3335" stroke-miterlimit="10"/>
<path d="M223.909 114.076L225.941 117.612" stroke="black" stroke-width="1.3335" stroke-miterlimit="10"/>
<path d="M225.941 117.612C227.011 119.475 229.381 120.113 231.235 119.038" stroke="black" stroke-width="1.3335" stroke-miterlimit="10"/>
<path d="M231.234 119.038C233.088 117.962 233.723 115.581 232.652 113.718" stroke="black" stroke-width="1.3335" stroke-miterlimit="10"/>
<path d="M232.653 113.718L230.624 110.186" stroke="black" stroke-width="1.3335" stroke-miterlimit="10"/>
<path d="M230.624 110.186C231.99 109.075 233.235 107.823 234.341 106.451" stroke="black" stroke-width="1.3335" stroke-miterlimit="10"/>
<path d="M234.341 106.451L237.855 108.49" stroke="black" stroke-width="1.3335" stroke-miterlimit="10"/>
<path d="M237.855 108.49C239.709 109.565 242.079 108.927 243.149 107.065" stroke="black" stroke-width="1.3335" stroke-miterlimit="10"/>
<path d="M243.149 107.065C244.219 105.202 243.584 102.821 241.73 101.746" stroke="black" stroke-width="1.3335" stroke-miterlimit="10"/>
<path d="M241.73 101.746L238.212 99.7039" stroke="black" stroke-width="1.3335" stroke-miterlimit="10"/>
<path d="M238.212 99.7037C238.837 98.0775 239.292 96.3719 239.568 94.6035" stroke="black" stroke-width="1.3335" stroke-miterlimit="10"/>
<path d="M239.567 94.6035H243.634" stroke="black" stroke-width="1.3335" stroke-miterlimit="10"/>
<path d="M243.635 94.6036C245.775 94.6036 247.51 92.8604 247.51 90.7095" stroke="black" stroke-width="1.3335" stroke-miterlimit="10"/>
<path d="M231.871 90.7096C231.871 100.081 224.286 107.704 214.96 107.704C205.636 107.704 198.051 100.081 198.051 90.7096C198.051 81.3386 205.636 73.7156 214.96 73.7156C224.286 73.7156 231.871 81.3386 231.871 90.7096Z" stroke="black" stroke-width="1.3335" stroke-miterlimit="10"/>
<path d="M277.721 33.8128C277.721 32.5755 276.723 31.5728 275.492 31.5728" stroke="black" stroke-width="1.3335" stroke-miterlimit="10"/>
<path d="M275.493 31.5728H273.153" stroke="black" stroke-width="1.3335" stroke-miterlimit="10"/>
<path d="M273.153 31.5727C272.994 30.5556 272.732 29.5747 272.373 28.6392" stroke="black" stroke-width="1.3335" stroke-miterlimit="10"/>
<path d="M272.373 28.639L274.397 27.4648" stroke="black" stroke-width="1.3335" stroke-miterlimit="10"/>
<path d="M274.397 27.4649C275.464 26.846 275.829 25.4763 275.213 24.4048" stroke="black" stroke-width="1.3335" stroke-miterlimit="10"/>
<path d="M275.213 24.4047C274.597 23.3333 273.234 22.966 272.168 23.5846" stroke="black" stroke-width="1.3335" stroke-miterlimit="10"/>
<path d="M272.168 23.5847L270.146 24.7579" stroke="black" stroke-width="1.3335" stroke-miterlimit="10"/>
<path d="M270.146 24.758C269.51 23.9685 268.793 23.2489 268.008 22.6099" stroke="black" stroke-width="1.3335" stroke-miterlimit="10"/>
<path d="M268.008 22.6097L269.175 20.5776" stroke="black" stroke-width="1.3335" stroke-miterlimit="10"/>
<path d="M269.175 20.5776C269.791 19.5062 269.425 18.1362 268.359 17.5173" stroke="black" stroke-width="1.3335" stroke-miterlimit="10"/>
<path d="M268.359 17.5174C267.293 16.899 265.93 17.2661 265.314 18.3375" stroke="black" stroke-width="1.3335" stroke-miterlimit="10"/>
<path d="M265.315 18.3376L264.146 20.372" stroke="black" stroke-width="1.3335" stroke-miterlimit="10"/>
<path d="M264.147 20.3718C263.216 20.0104 262.24 19.7475 261.228 19.5879" stroke="black" stroke-width="1.3335" stroke-miterlimit="10"/>
<path d="M261.228 19.588V17.2366" stroke="black" stroke-width="1.3335" stroke-miterlimit="10"/>
<path d="M261.227 17.2366C261.227 15.9997 260.229 14.9966 258.998 14.9966" stroke="black" stroke-width="1.3335" stroke-miterlimit="10"/>
<path d="M258.999 14.9966C257.768 14.9966 256.77 15.9997 256.77 17.2366" stroke="black" stroke-width="1.3335" stroke-miterlimit="10"/>
<path d="M256.77 17.2366V19.5876" stroke="black" stroke-width="1.3335" stroke-miterlimit="10"/>
<path d="M256.77 19.5876C255.758 19.7474 254.781 20.0104 253.851 20.3716" stroke="black" stroke-width="1.3335" stroke-miterlimit="10"/>
<path d="M253.85 20.3718L252.682 18.3376" stroke="black" stroke-width="1.3335" stroke-miterlimit="10"/>
<path d="M252.681 18.3375C252.066 17.266 250.703 16.899 249.637 17.5175" stroke="black" stroke-width="1.3335" stroke-miterlimit="10"/>
<path d="M249.637 17.5176C248.57 18.1364 248.205 19.5065 248.821 20.5778" stroke="black" stroke-width="1.3335" stroke-miterlimit="10"/>
<path d="M248.82 20.5776L249.988 22.6092" stroke="black" stroke-width="1.3335" stroke-miterlimit="10"/>
<path d="M249.989 22.6091C249.203 23.2486 248.487 23.9685 247.851 24.7578" stroke="black" stroke-width="1.3335" stroke-miterlimit="10"/>
<path d="M247.85 24.758L245.828 23.585" stroke="black" stroke-width="1.3335" stroke-miterlimit="10"/>
<path d="M245.828 23.5848C244.762 22.966 243.399 23.3333 242.783 24.4046" stroke="black" stroke-width="1.3335" stroke-miterlimit="10"/>
<path d="M242.783 24.4048C242.168 25.4763 242.533 26.846 243.599 27.4649" stroke="black" stroke-width="1.3335" stroke-miterlimit="10"/>
<path d="M243.6 27.4648L245.624 28.6392" stroke="black" stroke-width="1.3335" stroke-miterlimit="10"/>
<path d="M245.624 28.6392C245.264 29.5745 245.003 30.5556 244.844 31.5725" stroke="black" stroke-width="1.3335" stroke-miterlimit="10"/>
<path d="M244.844 31.5728H242.504" stroke="black" stroke-width="1.3335" stroke-miterlimit="10"/>
<path d="M242.504 31.5728C241.273 31.5728 240.275 32.5755 240.275 33.8128" stroke="black" stroke-width="1.3335" stroke-miterlimit="10"/>
<path d="M240.275 33.8127C240.275 35.0498 241.273 36.053 242.504 36.053" stroke="black" stroke-width="1.3335" stroke-miterlimit="10"/>
<path d="M242.504 36.053H244.844" stroke="black" stroke-width="1.3335" stroke-miterlimit="10"/>
<path d="M244.844 36.053C245.003 37.0699 245.264 38.051 245.624 38.9862" stroke="black" stroke-width="1.3335" stroke-miterlimit="10"/>
<path d="M245.624 38.9861L243.6 40.1608" stroke="black" stroke-width="1.3335" stroke-miterlimit="10"/>
<path d="M243.599 40.1609C242.533 40.7795 242.168 42.1492 242.783 43.2208" stroke="black" stroke-width="1.3335" stroke-miterlimit="10"/>
<path d="M242.783 43.2207C243.399 44.2923 244.762 44.6592 245.828 44.0408" stroke="black" stroke-width="1.3335" stroke-miterlimit="10"/>
<path d="M245.828 44.0409L247.85 42.8677" stroke="black" stroke-width="1.3335" stroke-miterlimit="10"/>
<path d="M247.85 42.8677C248.486 43.6573 249.202 44.3773 249.987 45.0163" stroke="black" stroke-width="1.3335" stroke-miterlimit="10"/>
<path d="M249.988 45.0164L248.82 47.0481" stroke="black" stroke-width="1.3335" stroke-miterlimit="10"/>
<path d="M248.82 47.0481C248.205 48.1195 248.57 49.4893 249.636 50.1082" stroke="black" stroke-width="1.3335" stroke-miterlimit="10"/>
<path d="M249.637 50.1081C250.703 50.7268 252.066 50.3595 252.681 49.2881" stroke="black" stroke-width="1.3335" stroke-miterlimit="10"/>
<path d="M252.682 49.2879L253.85 47.2539" stroke="black" stroke-width="1.3335" stroke-miterlimit="10"/>
<path d="M253.85 47.2539C254.78 47.6153 255.757 47.8781 256.769 48.0378" stroke="black" stroke-width="1.3335" stroke-miterlimit="10"/>
<path d="M256.77 48.0378V50.3887" stroke="black" stroke-width="1.3335" stroke-miterlimit="10"/>
<path d="M256.77 50.3889C256.77 51.626 257.768 52.6289 258.999 52.6289" stroke="black" stroke-width="1.3335" stroke-miterlimit="10"/>
<path d="M258.998 52.6289C260.229 52.6289 261.227 51.626 261.227 50.3889" stroke="black" stroke-width="1.3335" stroke-miterlimit="10"/>
<path d="M261.228 50.3887V48.0378" stroke="black" stroke-width="1.3335" stroke-miterlimit="10"/>
<path d="M261.228 48.038C262.24 47.8783 263.216 47.6153 264.147 47.2539" stroke="black" stroke-width="1.3335" stroke-miterlimit="10"/>
<path d="M264.146 47.2539L265.315 49.2881" stroke="black" stroke-width="1.3335" stroke-miterlimit="10"/>
<path d="M265.315 49.2881C265.931 50.3595 267.294 50.7264 268.36 50.1081" stroke="black" stroke-width="1.3335" stroke-miterlimit="10"/>
<path d="M268.359 50.1082C269.425 49.4893 269.791 48.1195 269.175 47.0481" stroke="black" stroke-width="1.3335" stroke-miterlimit="10"/>
<path d="M269.176 47.0481L268.009 45.0164" stroke="black" stroke-width="1.3335" stroke-miterlimit="10"/>
<path d="M268.009 45.0163C268.794 44.3771 269.511 43.657 270.147 42.8677" stroke="black" stroke-width="1.3335" stroke-miterlimit="10"/>
<path d="M270.146 42.8677L272.168 44.0409" stroke="black" stroke-width="1.3335" stroke-miterlimit="10"/>
<path d="M272.168 44.0408C273.234 44.6592 274.597 44.2921 275.213 43.2207" stroke="black" stroke-width="1.3335" stroke-miterlimit="10"/>
<path d="M275.213 43.2205C275.829 42.149 275.464 40.7793 274.397 40.1606" stroke="black" stroke-width="1.3335" stroke-miterlimit="10"/>
<path d="M274.397 40.161L272.373 38.9866" stroke="black" stroke-width="1.3335" stroke-miterlimit="10"/>
<path d="M272.373 38.9865C272.732 38.0512 272.994 37.0699 273.153 36.053" stroke="black" stroke-width="1.3335" stroke-miterlimit="10"/>
<path d="M273.153 36.053H275.493" stroke="black" stroke-width="1.3335" stroke-miterlimit="10"/>
<path d="M275.492 36.053C276.723 36.053 277.721 35.0498 277.721 33.8127" stroke="black" stroke-width="1.3335" stroke-miterlimit="10"/>
<path d="M268.726 33.8129C268.726 39.2032 264.362 43.5883 258.998 43.5883C253.635 43.5883 249.271 39.2032 249.271 33.8129C249.271 28.4223 253.635 24.0376 258.998 24.0376C264.362 24.0376 268.726 28.4225 268.726 33.8129Z" stroke="black" stroke-width="1.3335" stroke-miterlimit="10"/>
<path d="M57.7746 144.304C57.7746 143.39 57.0375 142.649 56.1279 142.649" stroke="black" stroke-width="1.3335" stroke-miterlimit="10"/>
<path d="M56.1273 142.649H54.3994" stroke="black" stroke-width="1.3335" stroke-miterlimit="10"/>
<path d="M54.3995 142.649C54.2821 141.898 54.0889 141.173 53.8232 140.482" stroke="black" stroke-width="1.3335" stroke-miterlimit="10"/>
<path d="M53.8232 140.482L55.3185 139.615" stroke="black" stroke-width="1.3335" stroke-miterlimit="10"/>
<path d="M55.3184 139.615C56.1057 139.158 56.3755 138.146 55.9206 137.354" stroke="black" stroke-width="1.3335" stroke-miterlimit="10"/>
<path d="M55.921 137.354C55.4665 136.563 54.4595 136.292 53.6719 136.749" stroke="black" stroke-width="1.3335" stroke-miterlimit="10"/>
<path d="M53.6723 136.749L52.1787 137.615" stroke="black" stroke-width="1.3335" stroke-miterlimit="10"/>
<path d="M52.1782 137.615C51.7083 137.032 51.1788 136.5 50.5986 136.028" stroke="black" stroke-width="1.3335" stroke-miterlimit="10"/>
<path d="M50.5986 136.028L51.461 134.527" stroke="black" stroke-width="1.3335" stroke-miterlimit="10"/>
<path d="M51.461 134.527C51.9157 133.736 51.6461 132.724 50.8584 132.267" stroke="black" stroke-width="1.3335" stroke-miterlimit="10"/>
<path d="M50.8587 132.267C50.071 131.81 49.0643 132.081 48.6094 132.872" stroke="black" stroke-width="1.3335" stroke-miterlimit="10"/>
<path d="M48.6093 132.872L47.7461 134.375" stroke="black" stroke-width="1.3335" stroke-miterlimit="10"/>
<path d="M47.7463 134.375C47.0587 134.108 46.3378 133.914 45.5898 133.796" stroke="black" stroke-width="1.3335" stroke-miterlimit="10"/>
<path d="M45.5898 133.796V132.059" stroke="black" stroke-width="1.3335" stroke-miterlimit="10"/>
<path d="M45.5898 132.059C45.5898 131.145 44.8527 130.405 43.9434 130.405" stroke="black" stroke-width="1.3335" stroke-miterlimit="10"/>
<path d="M43.9435 130.405C43.0342 130.405 42.2969 131.145 42.2969 132.059" stroke="black" stroke-width="1.3335" stroke-miterlimit="10"/>
<path d="M42.2969 132.059V133.796" stroke="black" stroke-width="1.3335" stroke-miterlimit="10"/>
<path d="M42.2969 133.796C41.5494 133.914 40.8281 134.108 40.1406 134.375" stroke="black" stroke-width="1.3335" stroke-miterlimit="10"/>
<path d="M40.1409 134.375L39.2773 132.872" stroke="black" stroke-width="1.3335" stroke-miterlimit="10"/>
<path d="M39.2774 132.872C38.8226 132.081 37.8158 131.81 37.0283 132.267" stroke="black" stroke-width="1.3335" stroke-miterlimit="10"/>
<path d="M37.0277 132.267C36.2401 132.724 35.9702 133.736 36.4251 134.527" stroke="black" stroke-width="1.3335" stroke-miterlimit="10"/>
<path d="M36.4248 134.527L37.2872 136.028" stroke="black" stroke-width="1.3335" stroke-miterlimit="10"/>
<path d="M37.2875 136.028C36.7071 136.5 36.1779 137.032 35.708 137.615" stroke="black" stroke-width="1.3335" stroke-miterlimit="10"/>
<path d="M35.7084 137.615L34.2148 136.749" stroke="black" stroke-width="1.3335" stroke-miterlimit="10"/>
<path d="M34.2149 136.748C33.4276 136.291 32.4203 136.563 31.9658 137.354" stroke="black" stroke-width="1.3335" stroke-miterlimit="10"/>
<path d="M31.9651 137.354C31.5103 138.146 31.7801 139.158 32.5678 139.615" stroke="black" stroke-width="1.3335" stroke-miterlimit="10"/>
<path d="M32.5684 139.615L34.0636 140.482" stroke="black" stroke-width="1.3335" stroke-miterlimit="10"/>
<path d="M34.0635 140.482C33.798 141.173 33.6046 141.898 33.4873 142.649" stroke="black" stroke-width="1.3335" stroke-miterlimit="10"/>
<path d="M33.487 142.649H31.7588" stroke="black" stroke-width="1.3335" stroke-miterlimit="10"/>
<path d="M31.759 142.649C30.8496 142.649 30.1123 143.39 30.1123 144.304" stroke="black" stroke-width="1.3335" stroke-miterlimit="10"/>
<path d="M30.1123 144.304C30.1123 145.218 30.8496 145.959 31.759 145.959" stroke="black" stroke-width="1.3335" stroke-miterlimit="10"/>
<path d="M31.7588 145.959H33.487" stroke="black" stroke-width="1.3335" stroke-miterlimit="10"/>
<path d="M33.4873 145.959C33.6048 146.71 33.798 147.434 34.0635 148.126" stroke="black" stroke-width="1.3335" stroke-miterlimit="10"/>
<path d="M34.0636 148.126L32.5684 148.993" stroke="black" stroke-width="1.3335" stroke-miterlimit="10"/>
<path d="M32.5688 148.993C31.7811 149.45 31.5112 150.462 31.9661 151.254" stroke="black" stroke-width="1.3335" stroke-miterlimit="10"/>
<path d="M31.9658 151.254C32.4203 152.045 33.4274 152.316 34.2149 151.859" stroke="black" stroke-width="1.3335" stroke-miterlimit="10"/>
<path d="M34.2148 151.859L35.7084 150.992" stroke="black" stroke-width="1.3335" stroke-miterlimit="10"/>
<path d="M35.708 150.992C36.1777 151.576 36.7071 152.108 37.2874 152.58" stroke="black" stroke-width="1.3335" stroke-miterlimit="10"/>
<path d="M37.287 152.58L36.4248 154.081" stroke="black" stroke-width="1.3335" stroke-miterlimit="10"/>
<path d="M36.4251 154.081C35.9702 154.872 36.2401 155.884 37.0277 156.341" stroke="black" stroke-width="1.3335" stroke-miterlimit="10"/>
<path d="M37.0283 156.341C37.8158 156.798 38.8226 156.527 39.2774 155.736" stroke="black" stroke-width="1.3335" stroke-miterlimit="10"/>
<path d="M39.2773 155.735L40.1409 154.233" stroke="black" stroke-width="1.3335" stroke-miterlimit="10"/>
<path d="M40.1406 154.233C40.8281 154.5 41.5494 154.694 42.2969 154.812" stroke="black" stroke-width="1.3335" stroke-miterlimit="10"/>
<path d="M42.2969 154.812V156.548" stroke="black" stroke-width="1.3335" stroke-miterlimit="10"/>
<path d="M42.2969 156.549C42.2969 157.462 43.0342 158.203 43.9435 158.203" stroke="black" stroke-width="1.3335" stroke-miterlimit="10"/>
<path d="M43.9434 158.203C44.8527 158.203 45.5898 157.462 45.5898 156.549" stroke="black" stroke-width="1.3335" stroke-miterlimit="10"/>
<path d="M45.5898 156.548V154.812" stroke="black" stroke-width="1.3335" stroke-miterlimit="10"/>
<path d="M45.5898 154.812C46.3378 154.694 47.0587 154.5 47.7463 154.233" stroke="black" stroke-width="1.3335" stroke-miterlimit="10"/>
<path d="M47.7461 154.233L48.6093 155.736" stroke="black" stroke-width="1.3335" stroke-miterlimit="10"/>
<path d="M48.6094 155.736C49.0643 156.527 50.071 156.798 50.8587 156.341" stroke="black" stroke-width="1.3335" stroke-miterlimit="10"/>
<path d="M50.8584 156.341C51.6461 155.884 51.9157 154.872 51.461 154.081" stroke="black" stroke-width="1.3335" stroke-miterlimit="10"/>
<path d="M51.4618 154.081L50.5996 152.58" stroke="black" stroke-width="1.3335" stroke-miterlimit="10"/>
<path d="M50.5996 152.58C51.1798 152.108 51.7092 151.576 52.179 150.992" stroke="black" stroke-width="1.3335" stroke-miterlimit="10"/>
<path d="M52.1787 150.992L53.6723 151.859" stroke="black" stroke-width="1.3335" stroke-miterlimit="10"/>
<path d="M53.6719 151.859C54.4595 152.316 55.4665 152.045 55.921 151.254" stroke="black" stroke-width="1.3335" stroke-miterlimit="10"/>
<path d="M55.9208 151.254C56.3757 150.462 56.1058 149.45 55.3184 148.993" stroke="black" stroke-width="1.3335" stroke-miterlimit="10"/>
<path d="M55.3183 148.993L53.8232 148.126" stroke="black" stroke-width="1.3335" stroke-miterlimit="10"/>
<path d="M53.8232 148.126C54.0889 147.434 54.2821 146.71 54.3995 145.959" stroke="black" stroke-width="1.3335" stroke-miterlimit="10"/>
<path d="M54.3994 145.959H56.1273" stroke="black" stroke-width="1.3335" stroke-miterlimit="10"/>
<path d="M56.1279 145.959C57.0373 145.959 57.7746 145.218 57.7746 144.304" stroke="black" stroke-width="1.3335" stroke-miterlimit="10"/>
<path d="M51.1288 144.304C51.1288 148.286 47.9056 151.525 43.9425 151.525C39.981 151.525 36.7578 148.286 36.7578 144.304C36.7578 140.322 39.981 137.083 43.9425 137.083C47.9054 137.083 51.1288 140.322 51.1288 144.304Z" stroke="black" stroke-width="1.3335" stroke-miterlimit="10"/>
<path d="M294.082 60.0826C294.082 59.1687 293.345 58.428 292.436 58.428" stroke="black" stroke-width="1.3335" stroke-miterlimit="10"/>
<path d="M292.435 58.428H290.707" stroke="black" stroke-width="1.3335" stroke-miterlimit="10"/>
<path d="M290.707 58.4279C290.59 57.6767 290.396 56.9518 290.131 56.2607" stroke="black" stroke-width="1.3335" stroke-miterlimit="10"/>
<path d="M290.131 56.2608L291.626 55.3933" stroke="black" stroke-width="1.3335" stroke-miterlimit="10"/>
<path d="M291.626 55.3931C292.414 54.9362 292.684 53.9243 292.229 53.1331" stroke="black" stroke-width="1.3335" stroke-miterlimit="10"/>
<path d="M292.229 53.1336V53.1328" stroke="black" stroke-width="1.3335" stroke-miterlimit="10"/>
<path d="M292.229 53.1329C291.774 52.3417 290.767 52.0705 289.979 52.5273" stroke="black" stroke-width="1.3335" stroke-miterlimit="10"/>
<path d="M289.98 52.5269L288.486 53.3937" stroke="black" stroke-width="1.3335" stroke-miterlimit="10"/>
<path d="M288.486 53.3938C288.016 52.8107 287.486 52.2791 286.906 51.8066" stroke="black" stroke-width="1.3335" stroke-miterlimit="10"/>
<path d="M286.906 51.8067L287.768 50.3057" stroke="black" stroke-width="1.3335" stroke-miterlimit="10"/>
<path d="M287.769 50.3057C288.224 49.5145 287.954 48.5022 287.166 48.0454" stroke="black" stroke-width="1.3335" stroke-miterlimit="10"/>
<path d="M287.166 48.0453C286.379 47.5882 285.372 47.8594 284.917 48.6508" stroke="black" stroke-width="1.3335" stroke-miterlimit="10"/>
<path d="M284.917 48.6509L284.054 50.154" stroke="black" stroke-width="1.3335" stroke-miterlimit="10"/>
<path d="M284.054 50.154C283.366 49.887 282.645 49.6928 281.897 49.5747" stroke="black" stroke-width="1.3335" stroke-miterlimit="10"/>
<path d="M281.897 49.5747V47.8379" stroke="black" stroke-width="1.3335" stroke-miterlimit="10"/>
<path d="M281.898 47.8379C281.898 46.924 281.16 46.1831 280.251 46.1831" stroke="black" stroke-width="1.3335" stroke-miterlimit="10"/>
<path d="M280.251 46.1831C279.342 46.1831 278.604 46.924 278.604 47.8379" stroke="black" stroke-width="1.3335" stroke-miterlimit="10"/>
<path d="M278.604 47.8379V49.5747" stroke="black" stroke-width="1.3335" stroke-miterlimit="10"/>
<path d="M278.605 49.5747C277.857 49.6928 277.136 49.8866 276.448 50.1538" stroke="black" stroke-width="1.3335" stroke-miterlimit="10"/>
<path d="M276.448 50.1538L275.585 48.6509" stroke="black" stroke-width="1.3335" stroke-miterlimit="10"/>
<path d="M275.584 48.6508C275.13 47.8594 274.123 47.5882 273.335 48.0453" stroke="black" stroke-width="1.3335" stroke-miterlimit="10"/>
<path d="M273.335 48.0454C272.548 48.5022 272.278 49.5145 272.733 50.3057" stroke="black" stroke-width="1.3335" stroke-miterlimit="10"/>
<path d="M272.732 50.3057L273.595 51.8065" stroke="black" stroke-width="1.3335" stroke-miterlimit="10"/>
<path d="M273.595 51.8064C273.015 52.2786 272.486 52.8105 272.016 53.3938" stroke="black" stroke-width="1.3335" stroke-miterlimit="10"/>
<path d="M272.016 53.3937L270.522 52.5269" stroke="black" stroke-width="1.3335" stroke-miterlimit="10"/>
<path d="M270.523 52.527C269.735 52.0703 268.728 52.3414 268.273 53.1326" stroke="black" stroke-width="1.3335" stroke-miterlimit="10"/>
<path d="M268.273 53.1328V53.1336" stroke="black" stroke-width="1.3335" stroke-miterlimit="10"/>
<path d="M268.273 53.1331C267.818 53.9243 268.088 54.9362 268.875 55.3931" stroke="black" stroke-width="1.3335" stroke-miterlimit="10"/>
<path d="M268.876 55.3933L270.371 56.2608" stroke="black" stroke-width="1.3335" stroke-miterlimit="10"/>
<path d="M270.371 56.2607C270.105 56.9518 269.912 57.6767 269.795 58.4279" stroke="black" stroke-width="1.3335" stroke-miterlimit="10"/>
<path d="M269.795 58.428H268.066" stroke="black" stroke-width="1.3335" stroke-miterlimit="10"/>
<path d="M268.067 58.428C267.157 58.428 266.42 59.1687 266.42 60.0826" stroke="black" stroke-width="1.3335" stroke-miterlimit="10"/>
<path d="M266.42 60.0825C266.42 60.9966 267.157 61.7373 268.067 61.7373" stroke="black" stroke-width="1.3335" stroke-miterlimit="10"/>
<path d="M268.066 61.7373H269.795" stroke="black" stroke-width="1.3335" stroke-miterlimit="10"/>
<path d="M269.795 61.7373C269.912 62.4888 270.105 63.2135 270.371 63.9043" stroke="black" stroke-width="1.3335" stroke-miterlimit="10"/>
<path d="M270.371 63.9043L268.876 64.7719" stroke="black" stroke-width="1.3335" stroke-miterlimit="10"/>
<path d="M268.875 64.772C268.088 65.2291 267.818 66.241 268.273 67.0322" stroke="black" stroke-width="1.3335" stroke-miterlimit="10"/>
<path d="M268.273 67.0322V67.033" stroke="black" stroke-width="1.3335" stroke-miterlimit="10"/>
<path d="M268.273 67.0325C268.728 67.8237 269.735 68.0949 270.523 67.6377" stroke="black" stroke-width="1.3335" stroke-miterlimit="10"/>
<path d="M270.522 67.638L272.016 66.7715" stroke="black" stroke-width="1.3335" stroke-miterlimit="10"/>
<path d="M272.016 66.7715C272.485 67.3548 273.014 67.8866 273.595 68.3589" stroke="black" stroke-width="1.3335" stroke-miterlimit="10"/>
<path d="M273.595 68.3589L272.732 69.8595" stroke="black" stroke-width="1.3335" stroke-miterlimit="10"/>
<path d="M272.733 69.8594C272.278 70.6508 272.548 71.6629 273.335 72.1198" stroke="black" stroke-width="1.3335" stroke-miterlimit="10"/>
<path d="M273.335 72.1198C274.123 72.5768 275.13 72.3058 275.584 71.5144" stroke="black" stroke-width="1.3335" stroke-miterlimit="10"/>
<path d="M275.585 71.5144L276.448 70.0115" stroke="black" stroke-width="1.3335" stroke-miterlimit="10"/>
<path d="M276.448 70.0115C277.136 70.2786 277.857 70.4726 278.605 70.5907" stroke="black" stroke-width="1.3335" stroke-miterlimit="10"/>
<path d="M278.604 70.5908V72.3275" stroke="black" stroke-width="1.3335" stroke-miterlimit="10"/>
<path d="M278.604 72.3274C278.604 73.2413 279.342 73.9822 280.251 73.9822" stroke="black" stroke-width="1.3335" stroke-miterlimit="10"/>
<path d="M280.251 73.9822C281.16 73.9822 281.898 73.2413 281.898 72.3274" stroke="black" stroke-width="1.3335" stroke-miterlimit="10"/>
<path d="M281.897 72.3275V70.5908" stroke="black" stroke-width="1.3335" stroke-miterlimit="10"/>
<path d="M281.897 70.5907C282.645 70.4726 283.366 70.2785 284.054 70.0115" stroke="black" stroke-width="1.3335" stroke-miterlimit="10"/>
<path d="M284.054 70.0115L284.917 71.5144" stroke="black" stroke-width="1.3335" stroke-miterlimit="10"/>
<path d="M284.917 71.5144C285.372 72.3058 286.379 72.5768 287.166 72.1198" stroke="black" stroke-width="1.3335" stroke-miterlimit="10"/>
<path d="M287.166 72.1198C287.954 71.6629 288.224 70.6508 287.769 69.8594" stroke="black" stroke-width="1.3335" stroke-miterlimit="10"/>
<path d="M287.769 69.8594L286.907 68.3586" stroke="black" stroke-width="1.3335" stroke-miterlimit="10"/>
<path d="M286.907 68.3587C287.487 67.8866 288.017 67.3546 288.487 66.7715" stroke="black" stroke-width="1.3335" stroke-miterlimit="10"/>
<path d="M288.486 66.7715L289.98 67.638" stroke="black" stroke-width="1.3335" stroke-miterlimit="10"/>
<path d="M289.979 67.638C290.767 68.0951 291.774 67.8239 292.229 67.0327" stroke="black" stroke-width="1.3335" stroke-miterlimit="10"/>
<path d="M292.229 67.033V67.0322" stroke="black" stroke-width="1.3335" stroke-miterlimit="10"/>
<path d="M292.229 67.0322C292.684 66.241 292.414 65.2291 291.626 64.772" stroke="black" stroke-width="1.3335" stroke-miterlimit="10"/>
<path d="M291.626 64.7718L290.131 63.9045" stroke="black" stroke-width="1.3335" stroke-miterlimit="10"/>
<path d="M290.131 63.9047C290.396 63.2136 290.59 62.4888 290.707 61.7373" stroke="black" stroke-width="1.3335" stroke-miterlimit="10"/>
<path d="M290.707 61.7373H292.435" stroke="black" stroke-width="1.3335" stroke-miterlimit="10"/>
<path d="M292.436 61.7371C293.345 61.7371 294.082 60.9966 294.082 60.0823" stroke="black" stroke-width="1.3335" stroke-miterlimit="10"/>
<path d="M287.436 60.0827C287.436 64.0647 284.213 67.3039 280.25 67.3039C276.289 67.3039 273.065 64.0647 273.065 60.0827C273.065 56.1007 276.289 52.8616 280.25 52.8616C284.213 52.8616 287.436 56.1007 287.436 60.0827Z" stroke="black" stroke-width="1.3335" stroke-miterlimit="10"/>
<path d="M16.7533 179.962C11.4176 176.57 10.5489 170.724 10.2091 163.541C9.92913 157.631 13.9417 146.997 20.8586 143.798C22.0217 143.261 22.0723 143.372 22.2967 144.342C23.6666 150.263 24.9708 159.398 23.9163 164.955C22.6464 171.649 19.9055 174.57 16.7533 179.962Z" stroke="#263138" stroke-width="1.3335" stroke-miterlimit="10" stroke-linecap="round" stroke-linejoin="round"/>
<path d="M54.508 235.654C52.6438 232.857 52.6234 229.333 52.8065 226.18C52.9895 223.026 58.848 209.138 62.9894 212.417C67.1305 215.696 63.1302 227.814 61.574 231.454C60.0179 235.094 57.5145 235.201 54.508 235.654V235.654Z" stroke="#263138" stroke-width="1.3335" stroke-miterlimit="10" stroke-linecap="round" stroke-linejoin="round"/>
<path d="M66.1859 259.745C64.4052 256.878 64.3744 253.215 64.5925 250.054C64.8106 246.893 70.771 233.313 74.8657 236.618C78.9604 239.923 74.9576 252.093 73.3335 255.72C71.7099 259.347 69.2164 259.404 66.1859 259.745Z" stroke="#263138" stroke-width="1.3335" stroke-miterlimit="10" stroke-linecap="round" stroke-linejoin="round"/>
<path d="M71.1565 275.774C71.0531 272.355 72.8963 269.192 74.6843 266.543C76.4725 263.893 88.4171 255.27 90.2946 260.22C92.1721 265.17 82.6076 273.559 79.3868 275.872C76.1661 278.185 73.955 277.016 71.1565 275.773V275.774Z" stroke="#263138" stroke-width="1.3335" stroke-miterlimit="10" stroke-linecap="round" stroke-linejoin="round"/>
<path d="M53.8342 249.986C50.9163 251.733 47.3725 251.537 44.2151 251.229C41.058 250.921 28.0102 244.273 31.4467 240.391C34.8828 236.51 46.6284 241.085 50.1476 242.739C53.6668 244.394 53.6176 247.008 53.834 249.986H53.8342Z" stroke="#263138" stroke-width="1.3335" stroke-miterlimit="10" stroke-linecap="round" stroke-linejoin="round"/>
<path d="M62.1244 274.973C59.1635 276.594 55.5986 276.346 52.4694 275.883C49.34 275.42 36.3995 268.371 39.9817 264.531C43.5639 260.691 55.212 265.641 58.6816 267.521C62.1514 269.4 62.0192 271.919 62.1242 274.973H62.1244Z" stroke="#263138" stroke-width="1.3335" stroke-miterlimit="10" stroke-linecap="round" stroke-linejoin="round"/>
<path d="M39.731 209.323C36.6385 209.19 36.8724 202.161 36.7486 199.933C36.6248 197.705 41.1456 182.576 44.9811 186.183C48.817 189.789 46.9163 200.827 45.675 204.301C44.4338 207.775 42.8235 209.457 39.731 209.323Z" stroke="#263138" stroke-width="1.3335" stroke-miterlimit="10" stroke-linecap="round" stroke-linejoin="round"/>
<path d="M20.9085 202.721C21.4667 199.087 19.5222 195.692 16.8572 193.377C14.192 191.063 2.75837 186.714 0.639904 190.448C-1.47875 194.183 7.30566 199.512 10.0209 201.152C12.7363 202.791 17.7544 204.782 20.9085 202.72V202.721Z" stroke="#263138" stroke-width="1.3335" stroke-miterlimit="10" stroke-linecap="round" stroke-linejoin="round"/>
<path d="M38.7476 229.113C39.0733 226.003 34.9528 223.079 33.3369 221.249C31.7213 219.419 20.7796 213.747 19.9653 217.627C19.1508 221.507 27.927 225.921 30.3427 227.895C32.7588 229.868 36.1801 230.664 38.7474 229.113H38.7476Z" stroke="#263138" stroke-width="1.3335" stroke-miterlimit="10" stroke-linecap="round" stroke-linejoin="round"/>
<path d="M24.0916 189.649C22.4554 186.683 22.6526 183.098 23.0898 179.942C23.5266 176.785 30.4222 163.753 34.2828 167.308C38.144 170.863 33.3124 182.582 31.4725 186.072C29.6325 189.563 27.1257 189.482 24.0916 189.649Z" stroke="#263138" stroke-width="1.3335" stroke-miterlimit="10" stroke-linecap="round" stroke-linejoin="round"/>
<path d="M65.947 292.268C67.95 274.32 68.739 273.814 59.1719 252.629C49.6049 231.444 12.114 197.031 16.5994 166.592" stroke="#263138" stroke-width="1.3335" stroke-miterlimit="10" stroke-linecap="round" stroke-linejoin="round"/>
<path d="M28.0453 206.024C21.9343 202.919 16.0298 199.473 10.1133 196.012" stroke="#263138" stroke-width="1.3335" stroke-miterlimit="10" stroke-linecap="round" stroke-linejoin="round"/>
<path d="M37.4385 220.784C38.5905 213.394 39.9947 206.041 41.2198 198.663" stroke="#263138" stroke-width="1.3335" stroke-miterlimit="10" stroke-linecap="round" stroke-linejoin="round"/>
<path d="M48.2044 234.609C41.8996 230.754 35.3706 227.315 29.0703 223.434" stroke="#263138" stroke-width="1.3335" stroke-miterlimit="10" stroke-linecap="round" stroke-linejoin="round"/>
<path d="M22.126 194.605C24.1891 189.28 26.2553 183.957 28.3194 178.633" stroke="#263138" stroke-width="1.3335" stroke-miterlimit="10" stroke-linecap="round" stroke-linejoin="round"/>
<path d="M52.918 240.689C54.5734 235.244 56.2748 229.813 57.9034 224.36" stroke="#263138" stroke-width="1.3335" stroke-miterlimit="10" stroke-linecap="round" stroke-linejoin="round"/>
<path d="M64.4785 264.84C66.3064 259.382 68.0156 253.886 69.7131 248.386" stroke="#263138" stroke-width="1.3335" stroke-miterlimit="10" stroke-linecap="round" stroke-linejoin="round"/>
<path d="M67.1455 279.337C71.4235 275.486 75.6907 271.623 79.9307 267.73" stroke="#263138" stroke-width="1.3335" stroke-miterlimit="10" stroke-linecap="round" stroke-linejoin="round"/>
<path d="M58.8014 251.864C53.4938 249.878 48.1641 247.955 42.8105 246.099" stroke="#263138" stroke-width="1.3335" stroke-miterlimit="10" stroke-linecap="round" stroke-linejoin="round"/>
<path d="M67.0206 277.002C61.7648 274.85 56.4937 272.734 51.2227 270.62" stroke="#263138" stroke-width="1.3335" stroke-miterlimit="10" stroke-linecap="round" stroke-linejoin="round"/>
<path d="M300.237 139.551C306.557 134.538 306.888 127.008 306.371 117.852C305.946 110.319 299.454 97.366 290.258 94.2299C288.712 93.7026 288.663 93.8505 288.506 95.1109C287.55 102.804 287.101 114.564 289.172 121.472C291.666 129.794 295.527 133.133 300.237 139.551Z" stroke="#263138" stroke-width="1.3335" stroke-miterlimit="10" stroke-linecap="round" stroke-linejoin="round"/>
<path d="M259.698 215.22C261.694 211.425 261.255 206.952 260.607 202.977C259.958 199.001 250.695 182.167 245.875 186.878C241.055 191.589 247.728 206.425 250.182 210.834C252.636 215.244 255.825 215.046 259.698 215.22Z" stroke="#263138" stroke-width="1.3335" stroke-miterlimit="10" stroke-linecap="round" stroke-linejoin="round"/>
<path d="M248.065 247.333C249.946 243.46 249.501 238.809 248.807 234.829C248.114 230.849 238.762 214.418 234.005 219.156C229.247 223.893 235.93 238.797 238.468 243.181C241.006 247.565 244.176 247.305 248.065 247.333Z" stroke="#263138" stroke-width="1.3335" stroke-miterlimit="10" stroke-linecap="round" stroke-linejoin="round"/>
<path d="M243.875 268.325C243.555 263.976 240.8 260.21 238.182 257.088C235.565 253.966 219.277 244.62 217.548 251.148C215.82 257.677 229.059 267.043 233.449 269.548C237.839 272.052 240.489 270.275 243.875 268.325Z" stroke="#263138" stroke-width="1.3335" stroke-miterlimit="10" stroke-linecap="round" stroke-linejoin="round"/>
<path d="M262.444 233.309C266.375 235.136 270.844 234.415 274.808 233.604C278.772 232.793 294.444 222.622 289.573 218.157C284.703 213.691 270.408 221.059 266.163 223.626C261.918 226.193 262.325 229.503 262.444 233.309Z" stroke="#263138" stroke-width="1.3335" stroke-miterlimit="10" stroke-linecap="round" stroke-linejoin="round"/>
<path d="M255.225 266.107C259.195 267.768 263.684 266.978 267.592 265.974C271.5 264.97 286.983 254.305 281.933 249.912C276.882 245.518 262.762 253.35 258.609 256.196C254.456 259.042 254.956 262.22 255.225 266.107V266.107Z" stroke="#263138" stroke-width="1.3335" stroke-miterlimit="10" stroke-linecap="round" stroke-linejoin="round"/>
<path d="M274.968 179.854C278.872 179.273 277.648 170.389 277.511 167.547C277.374 164.705 269.644 146.119 265.255 151.203C260.866 156.288 264.733 170.036 266.766 174.277C268.798 178.517 271.063 180.436 274.968 179.854Z" stroke="#263138" stroke-width="1.3335" stroke-miterlimit="10" stroke-linecap="round" stroke-linejoin="round"/>
<path d="M297.969 168.971C296.782 164.438 298.8 159.871 301.875 156.581C304.95 153.29 318.878 146.25 322.058 150.705C325.238 155.16 314.799 163.09 311.572 165.531C308.344 167.972 302.242 171.166 297.969 168.971Z" stroke="#263138" stroke-width="1.3335" stroke-miterlimit="10" stroke-linecap="round" stroke-linejoin="round"/>
<path d="M278.824 204.825C278 200.923 282.841 196.665 284.649 194.129C286.457 191.592 299.587 182.94 301.131 187.752C302.676 192.566 292.127 199.334 289.324 202.159C286.52 204.984 282.285 206.449 278.824 204.824V204.825Z" stroke="#263138" stroke-width="1.3335" stroke-miterlimit="10" stroke-linecap="round" stroke-linejoin="round"/>
<path d="M292.207 152.817C293.891 148.836 293.168 144.315 292.197 140.37C291.227 136.425 280.761 120.815 276.333 125.838C271.905 130.861 279.579 145.081 282.373 149.263C285.168 153.445 288.337 153.008 292.207 152.817V152.817Z" stroke="#263138" stroke-width="1.3335" stroke-miterlimit="10" stroke-linecap="round" stroke-linejoin="round"/>
<path d="M252.66 288.552C247.751 266.054 246.683 265.518 256.023 237.373C265.362 209.228 308.374 160.583 298.668 122.573" stroke="#263138" stroke-width="1.3335" stroke-miterlimit="10" stroke-linecap="round" stroke-linejoin="round"/>
<path d="M289.353 174.112C296.694 169.36 303.729 164.202 310.776 159.024" stroke="#263138" stroke-width="1.3335" stroke-miterlimit="10" stroke-linecap="round" stroke-linejoin="round"/>
<path d="M279.385 194.085C276.95 184.866 274.198 175.726 271.671 166.532" stroke="#263138" stroke-width="1.3335" stroke-miterlimit="10" stroke-linecap="round" stroke-linejoin="round"/>
<path d="M267.556 213.055C275.044 207.326 282.871 202.093 290.35 196.332" stroke="#263138" stroke-width="1.3335" stroke-miterlimit="10" stroke-linecap="round" stroke-linejoin="round"/>
<path d="M295.354 158.84C292.035 152.362 288.712 145.886 285.392 139.408" stroke="#263138" stroke-width="1.3335" stroke-miterlimit="10" stroke-linecap="round" stroke-linejoin="round"/>
<path d="M262.378 221.396C259.56 214.71 256.686 208.048 253.9 201.348" stroke="#263138" stroke-width="1.3335" stroke-miterlimit="10" stroke-linecap="round" stroke-linejoin="round"/>
<path d="M250.902 253.568C247.864 246.889 244.971 240.145 242.092 233.396" stroke="#263138" stroke-width="1.3335" stroke-miterlimit="10" stroke-linecap="round" stroke-linejoin="round"/>
<path d="M249.432 272.311C243.498 267.997 237.576 263.665 231.685 259.293" stroke="#263138" stroke-width="1.3335" stroke-miterlimit="10" stroke-linecap="round" stroke-linejoin="round"/>
<path d="M256.392 236.354C262.861 233.127 269.368 229.977 275.913 226.91" stroke="#263138" stroke-width="1.3335" stroke-miterlimit="10" stroke-linecap="round" stroke-linejoin="round"/>
<path d="M249.283 269.333C255.665 265.903 262.072 262.517 268.479 259.133" stroke="#263138" stroke-width="1.3335" stroke-miterlimit="10" stroke-linecap="round" stroke-linejoin="round"/>
<path d="M195.51 17.3352H77.1987C73.4711 17.3352 70.4385 20.3829 70.4385 24.1284V260.053C70.4385 263.8 73.4711 266.847 77.1982 266.847H195.51C199.237 266.847 202.27 263.8 202.27 260.053V24.1284C202.27 20.3829 199.237 17.3352 195.51 17.3352Z" fill="#263138" fill-opacity="0.2"/>
<path d="M187.651 259.19H69.3394C65.8345 259.19 62.9932 256.335 62.9932 252.813V16.8881C62.9932 13.3657 65.8346 10.5105 69.3396 10.5105H187.651C191.156 10.5105 193.997 13.3659 193.997 16.8881V252.813C193.997 256.335 191.156 259.19 187.651 259.19Z" fill="#263138"/>
<path d="M146.684 10.5105H69.3396C65.8343 10.5105 62.9932 13.3659 62.9932 16.8881V94.6171L146.684 10.5105Z" fill="white" fill-opacity="0.2"/>
<path d="M101.787 237.935L86.3438 253.454" stroke="white" stroke-width="1.3335" stroke-miterlimit="10" stroke-linecap="round" stroke-linejoin="round"/>
<path d="M104.949 234.756L103.539 236.173" stroke="white" stroke-width="1.3335" stroke-miterlimit="10" stroke-linecap="round" stroke-linejoin="round"/>
<path d="M141.47 24.2334H115.519C114.542 24.2334 113.75 23.4376 113.75 22.4553C113.75 21.4734 114.542 20.677 115.519 20.677H141.47C142.447 20.677 143.239 21.4734 143.239 22.4553C143.239 23.4376 142.447 24.2334 141.47 24.2334Z" fill="white"/>
<path d="M135.572 242.843C135.572 238.914 132.404 235.73 128.495 235.73C124.586 235.73 121.418 238.914 121.418 242.843C121.418 246.771 124.587 249.955 128.495 249.955C132.404 249.955 135.572 246.771 135.572 242.843Z" fill="white"/>
<path d="M132.082 246.447H124.908V239.237H132.082V246.447Z" fill="#263138"/>
<path d="M188.175 231.884H68.8154V37.8167H188.175V231.884Z" fill="white" stroke="#263138" stroke-width="1.3335" stroke-miterlimit="22.9256" stroke-linejoin="round"/>
<path d="M71.5527 211.823H185.953" stroke="#D6D8D9" stroke-width="1.3335" stroke-miterlimit="10" stroke-linecap="round" stroke-linejoin="round"/>
<path d="M130.777 222.042C130.777 220.205 129.294 218.715 127.466 218.715C125.637 218.715 124.155 220.205 124.155 222.042C124.155 223.88 125.637 225.369 127.466 225.369C129.294 225.369 130.777 223.88 130.777 222.042Z" fill="white" stroke="#D6D8D9" stroke-width="1.3335" stroke-miterlimit="22.9256" stroke-linejoin="round"/>
<path d="M102.352 222.648L106.749 225.199C107.3 225.519 107.99 225.119 107.99 224.479V219.377C107.99 218.737 107.3 218.337 106.749 218.657L102.352 221.208C101.801 221.528 101.801 222.328 102.352 222.648Z" fill="white" stroke="#D6D8D9" stroke-width="1.3335" stroke-miterlimit="22.9256" stroke-linejoin="round"/>
<path d="M151.376 225.739H144.387V218.715H151.376V225.739Z" fill="white" stroke="#D6D8D9" stroke-width="1.3335" stroke-miterlimit="22.9256" stroke-linejoin="round"/>
<path d="M314.025 292.268H7.24707" stroke="#263138" stroke-width="1.3335" stroke-miterlimit="10" stroke-linecap="round" stroke-linejoin="round"/>
<path d="M93.3467 60.0541L96.5896 52.8576H97.6024L100.855 60.0541H99.7814L96.8865 53.4333H97.2955L94.4006 60.0541H93.3469H93.3467ZM94.7277 58.2548L95.0038 57.4324H99.0344L99.3311 58.2548H94.7275H94.7277ZM104.651 60.1157C104.201 60.1157 103.79 60.0111 103.418 59.802C103.046 59.593 102.75 59.2828 102.528 58.8715C102.306 58.4604 102.196 57.9463 102.196 57.3294C102.196 56.7125 102.303 56.1984 102.518 55.7874C102.733 55.3763 103.026 55.0678 103.398 54.8622C103.769 54.6564 104.187 54.5537 104.651 54.5537C105.183 54.5537 105.653 54.6701 106.062 54.9033C106.471 55.1364 106.796 55.4602 107.034 55.8747C107.273 56.2894 107.392 56.7745 107.392 57.3294C107.392 57.8846 107.273 58.3712 107.034 58.7893C106.796 59.2075 106.472 59.533 106.062 59.7661C105.653 59.9993 105.183 60.1157 104.651 60.1157H104.651ZM101.776 62.0485V54.6051H102.717V56.0754L102.656 57.34L102.758 58.6045V62.0485H101.776H101.776ZM104.569 59.2522C104.917 59.2522 105.229 59.1735 105.505 59.0158C105.781 58.8581 105.999 58.6338 106.16 58.3425C106.32 58.0513 106.4 57.7138 106.4 57.3298C106.4 56.9392 106.32 56.6017 106.16 56.3171C105.999 56.0327 105.781 55.8118 105.505 55.6542C105.229 55.4965 104.916 55.4178 104.569 55.4178C104.228 55.4178 103.919 55.4965 103.643 55.6542C103.367 55.8118 103.148 56.0327 102.988 56.3171C102.828 56.6017 102.748 56.9392 102.748 57.3298C102.748 57.7138 102.828 58.0513 102.988 58.3425C103.148 58.6338 103.367 58.8581 103.643 59.0158C103.919 59.1735 104.228 59.2522 104.569 59.2522ZM111.628 60.1158C111.178 60.1158 110.767 60.0113 110.395 59.8022C110.023 59.5932 109.726 59.283 109.505 58.8717C109.283 58.4606 109.173 57.9465 109.173 57.3296C109.173 56.7127 109.28 56.1986 109.495 55.7876C109.71 55.3765 110.003 55.068 110.374 54.8624C110.746 54.6566 111.164 54.5539 111.627 54.5539C112.16 54.5539 112.63 54.6703 113.039 54.9035C113.448 55.1366 113.772 55.4604 114.011 55.8749C114.25 56.2896 114.369 56.7746 114.369 57.3296C114.369 57.8848 114.25 58.3714 114.011 58.7895C113.772 59.2077 113.449 59.5331 113.039 59.7663C112.63 59.9995 112.16 60.1158 111.627 60.1158H111.628ZM108.753 62.0487V54.6053H109.694V56.0756L109.633 57.3401L109.735 58.6047V62.0487H108.753H108.753ZM111.546 59.2524C111.894 59.2524 112.206 59.1737 112.482 59.016C112.758 58.8583 112.976 58.634 113.136 58.3427C113.297 58.0515 113.377 57.714 113.377 57.33C113.377 56.9394 113.297 56.6019 113.136 56.3173C112.976 56.0329 112.758 55.812 112.482 55.6543C112.206 55.4967 111.893 55.4179 111.546 55.4179C111.205 55.4179 110.896 55.4967 110.62 55.6543C110.344 55.812 110.125 56.0329 109.965 56.3173C109.805 56.6019 109.725 56.9394 109.725 57.33C109.725 57.714 109.805 58.0515 109.965 58.3427C110.125 58.634 110.344 58.8583 110.62 59.016C110.896 59.1737 111.205 59.2524 111.546 59.2524ZM115.73 60.0543V52.4261H116.712V60.0543H115.73ZM118.584 60.0543V54.6055H119.566V60.0543H118.584ZM119.075 53.5567C118.884 53.5567 118.726 53.495 118.6 53.3717C118.473 53.2484 118.41 53.0977 118.41 52.9194C118.41 52.7344 118.473 52.5801 118.6 52.4567C118.726 52.3334 118.884 52.2717 119.075 52.2717C119.266 52.2717 119.425 52.3317 119.551 52.4515C119.677 52.5713 119.74 52.7206 119.74 52.8987C119.74 53.0839 119.678 53.2397 119.556 53.3666C119.433 53.4933 119.273 53.5565 119.075 53.5565L119.075 53.5567ZM123.801 60.1158C123.249 60.1158 122.756 59.996 122.323 59.756C121.89 59.5161 121.551 59.1872 121.305 58.7689C121.06 58.3509 120.937 57.8712 120.937 57.3296C120.937 56.788 121.06 56.3085 121.305 55.8904C121.551 55.4722 121.89 55.1448 122.323 54.9086C122.756 54.6722 123.249 54.5539 123.801 54.5539C124.292 54.5539 124.731 54.6516 125.116 54.8469C125.501 55.0424 125.8 55.3318 126.011 55.7157L125.264 56.1988C125.087 55.9316 124.871 55.7344 124.615 55.6077C124.359 55.481 124.085 55.4176 123.791 55.4176C123.437 55.4176 123.12 55.4963 122.84 55.654C122.56 55.8116 122.339 56.0326 122.175 56.3169C122.011 56.6015 121.93 56.939 121.93 57.3296C121.93 57.7203 122.011 58.0595 122.175 58.3475C122.339 58.6353 122.56 58.8581 122.84 59.0158C123.12 59.1735 123.437 59.2522 123.791 59.2522C124.085 59.2522 124.359 59.1888 124.615 59.0621C124.871 58.9353 125.087 58.7383 125.264 58.4709L126.011 58.9438C125.8 59.3208 125.501 59.6104 125.116 59.8125C124.731 60.0147 124.292 60.1158 123.801 60.1158ZM130.645 60.0541V58.9027L130.594 58.6867V56.723C130.594 56.3051 130.473 55.9811 130.231 55.7516C129.989 55.5219 129.626 55.4072 129.141 55.4072C128.821 55.4072 128.507 55.4604 128.2 55.5666C127.893 55.6727 127.634 55.8151 127.423 55.9932L127.014 55.253C127.293 55.0267 127.629 54.8538 128.021 54.734C128.413 54.6141 128.824 54.5541 129.254 54.5541C129.997 54.5541 130.57 54.7357 130.973 55.099C131.375 55.4625 131.576 56.0175 131.576 56.7645V60.0543H130.645V60.0541ZM128.865 60.1158C128.463 60.1158 128.11 60.0472 127.806 59.9102C127.503 59.7732 127.269 59.583 127.106 59.3395C126.942 59.0965 126.86 58.8205 126.86 58.512C126.86 58.2173 126.93 57.9502 127.07 57.7101C127.21 57.4703 127.438 57.2784 127.755 57.1345C128.072 56.9906 128.5 56.9186 129.039 56.9186H130.758V57.6278H129.08C128.589 57.6278 128.258 57.7099 128.088 57.8745C127.917 58.0388 127.832 58.2378 127.832 58.4708C127.832 58.7379 127.938 58.9522 128.149 59.1131C128.361 59.2742 128.654 59.3548 129.029 59.3548C129.397 59.3548 129.719 59.2727 129.996 59.1081C130.272 58.9436 130.471 58.7037 130.594 58.3886L130.788 59.067C130.659 59.3892 130.43 59.6446 130.103 59.8332C129.776 60.0216 129.363 60.1158 128.865 60.1158ZM135.259 60.1158C134.713 60.1158 134.29 59.9685 133.99 59.6738C133.69 59.3791 133.54 58.9577 133.54 58.4092V53.4128H134.522V58.3681C134.522 58.6628 134.596 58.8891 134.742 59.0468C134.889 59.2044 135.099 59.2832 135.371 59.2832C135.678 59.2832 135.934 59.1977 136.139 59.0263L136.446 59.7355C136.295 59.8659 136.117 59.9618 135.908 60.0233C135.7 60.0853 135.484 60.1158 135.259 60.1158ZM132.62 55.4176V54.6053H136.077V55.4176H132.62ZM137.632 60.0541V54.6053H138.614V60.0541H137.632ZM138.123 53.5565C137.932 53.5565 137.774 53.4948 137.648 53.3715C137.521 53.2483 137.459 53.0975 137.459 52.9192C137.459 52.7342 137.521 52.5799 137.648 52.4565C137.774 52.3332 137.932 52.2715 138.123 52.2715C138.314 52.2715 138.473 52.3315 138.599 52.4513C138.725 52.5711 138.788 52.7204 138.788 52.8985C138.788 53.0837 138.727 53.2395 138.604 53.3664C138.481 53.4931 138.321 53.5563 138.123 53.5563L138.123 53.5565ZM142.809 60.1157C142.263 60.1157 141.779 59.9958 141.356 59.7558C140.933 59.5159 140.599 59.1851 140.353 58.7637C140.108 58.3423 139.985 57.8642 139.985 57.3296C139.985 56.788 140.108 56.3085 140.353 55.8904C140.599 55.4722 140.933 55.1448 141.356 54.9086C141.779 54.6722 142.263 54.5539 142.809 54.5539C143.347 54.5539 143.83 54.6722 144.256 54.9086C144.682 55.145 145.017 55.4705 145.259 55.8852C145.501 56.2999 145.622 56.7815 145.622 57.3296C145.622 57.8712 145.501 58.3507 145.259 58.7689C145.017 59.187 144.682 59.5159 144.256 59.756C143.83 59.9958 143.347 60.1158 142.809 60.1158V60.1157ZM142.809 59.252C143.157 59.252 143.468 59.1733 143.745 59.0156C144.021 58.8579 144.237 58.6336 144.394 58.3423C144.551 58.0511 144.629 57.7136 144.629 57.3296C144.629 56.939 144.551 56.6015 144.394 56.3169C144.237 56.0326 144.021 55.8116 143.745 55.654C143.468 55.4963 143.156 55.4176 142.809 55.4176C142.461 55.4176 142.15 55.4963 141.878 55.654C141.605 55.8116 141.387 56.0326 141.223 56.3169C141.059 56.6015 140.978 56.939 140.978 57.3296C140.978 57.7136 141.059 58.0511 141.223 58.3423C141.387 58.6336 141.605 58.8579 141.878 59.0156C142.15 59.1733 142.461 59.252 142.809 59.252ZM149.878 54.5537C150.321 54.5537 150.711 54.6394 151.049 54.8106C151.386 54.982 151.651 55.2425 151.842 55.592C152.033 55.9416 152.128 56.3836 152.128 56.9184V60.0539H151.146V57.0313C151.146 56.5035 151.018 56.1061 150.762 55.8388C150.507 55.5716 150.147 55.438 149.683 55.438C149.335 55.438 149.032 55.5066 148.773 55.6436C148.513 55.7807 148.314 55.9829 148.174 56.2502C148.034 56.5174 147.964 56.8499 147.964 57.2475V60.0541H146.982V54.6053H147.923V56.0756L147.77 55.6849C147.947 55.3285 148.22 55.051 148.588 54.8523C148.957 54.6535 149.386 54.5541 149.877 54.5541L149.878 54.5537Z" fill="black"/>
<path d="M170.147 71.1062H83.8833C81.2699 71.1062 79.1514 73.2353 79.1514 75.8616V79.5191C79.1514 82.1455 81.2699 84.2745 83.8833 84.2745H170.147C172.76 84.2745 174.879 82.1455 174.879 79.5191V75.8616C174.879 73.2353 172.76 71.1062 170.147 71.1062Z" fill="white" stroke="#CCCCCC" stroke-width="0.999523" stroke-miterlimit="22.9256"/>
<path d="M170.147 90.9634H83.8833C81.2699 90.9634 79.1514 93.0924 79.1514 95.7188V99.3763C79.1514 102.003 81.2699 104.132 83.8833 104.132H170.147C172.76 104.132 174.879 102.003 174.879 99.3763V95.7188C174.879 93.0924 172.76 90.9634 170.147 90.9634Z" fill="white" stroke="#CCCCCC" stroke-width="0.999523" stroke-miterlimit="22.9256"/>
<path d="M170.147 111.749H83.8833C81.2699 111.749 79.1514 113.878 79.1514 116.505V120.162C79.1514 122.789 81.2699 124.918 83.8833 124.918H170.147C172.76 124.918 174.879 122.789 174.879 120.162V116.505C174.879 113.878 172.76 111.749 170.147 111.749Z" fill="white" stroke="#CCCCCC" stroke-width="0.999523" stroke-miterlimit="22.9256"/>
<path d="M170.147 71.1062H83.8833C81.2699 71.1062 79.1514 73.2353 79.1514 75.8616V79.5191C79.1514 82.1455 81.2699 84.2745 83.8833 84.2745H170.147C172.76 84.2745 174.879 82.1455 174.879 79.5191V75.8616C174.879 73.2353 172.76 71.1062 170.147 71.1062Z" fill="white" stroke="#CCCCCC" stroke-width="0.999523" stroke-miterlimit="22.9256"/>
<path d="M170.147 173.069H83.8833C81.2699 173.069 79.1514 175.198 79.1514 177.824V181.482C79.1514 184.108 81.2699 186.237 83.8833 186.237H170.147C172.76 186.237 174.879 184.108 174.879 181.482V177.824C174.879 175.198 172.76 173.069 170.147 173.069Z" fill="white" stroke="#CCCCCC" stroke-width="0.999523" stroke-miterlimit="22.9256"/>
<path d="M170.147 90.9634H83.8833C81.2699 90.9634 79.1514 93.0924 79.1514 95.7188V99.3763C79.1514 102.003 81.2699 104.132 83.8833 104.132H170.147C172.76 104.132 174.879 102.003 174.879 99.3763V95.7188C174.879 93.0924 172.76 90.9634 170.147 90.9634Z" fill="white" stroke="#CCCCCC" stroke-width="0.999523" stroke-miterlimit="22.9256"/>
<path d="M170.147 111.749H83.8833C81.2699 111.749 79.1514 113.878 79.1514 116.505V120.162C79.1514 122.789 81.2699 124.918 83.8833 124.918H170.147C172.76 124.918 174.879 122.789 174.879 120.162V116.505C174.879 113.878 172.76 111.749 170.147 111.749Z" fill="white" stroke="#CCCCCC" stroke-width="0.999523" stroke-miterlimit="22.9256"/>
<path d="M170.147 132.426H83.8833C81.2699 132.426 79.1514 134.555 79.1514 137.181V140.838C79.1514 143.465 81.2699 145.594 83.8833 145.594H170.147C172.76 145.594 174.879 143.465 174.879 140.838V137.181C174.879 134.555 172.76 132.426 170.147 132.426Z" fill="white" stroke="#CCCCCC" stroke-width="0.999523" stroke-miterlimit="22.9256"/>
<path d="M170.147 152.283H83.8833C81.2699 152.283 79.1514 154.412 79.1514 157.038V160.696C79.1514 163.322 81.2699 165.451 83.8833 165.451H170.147C172.76 165.451 174.879 163.322 174.879 160.696V157.038C174.879 154.412 172.76 152.283 170.147 152.283Z" fill="white" stroke="#CCCCCC" stroke-width="0.999523" stroke-miterlimit="22.9256"/>
<path d="M268.076 292.268V277.034H193.541V292.268H268.076Z" fill="#263138" stroke="#263138" stroke-width="1.3335" stroke-miterlimit="22.9256" stroke-linejoin="round"/>
<path d="M227.042 162.633C227.042 162.633 216.339 164.737 214.245 165.205C212.151 165.672 210.988 194.899 212.151 205.655C213.314 216.411 214.478 282.113 214.478 282.113H248.679C248.679 282.113 249.843 195.835 251.006 187.183C252.169 178.532 254.496 166.607 254.496 166.607C254.496 166.607 234.487 161.464 227.042 162.633Z" fill="#263138" stroke="#263138" stroke-width="1.3335" stroke-miterlimit="22.9256" stroke-linejoin="round"/>
<path d="M227.042 162.633C227.042 162.633 216.339 164.737 214.245 165.205C212.151 165.672 210.988 194.899 212.151 205.655C213.314 216.411 214.478 282.113 214.478 282.113H248.679C248.679 282.113 249.843 195.835 251.006 187.183C252.169 178.532 254.496 166.607 254.496 166.607C254.496 166.607 234.487 161.464 227.042 162.633Z" stroke="#263138" stroke-width="1.3335" stroke-miterlimit="22.9256" stroke-linejoin="round"/>
<path d="M222.907 241.47C222.907 219.972 225.732 169.676 225.732 169.676L220.478 163.933L220.478 163.933L220.354 163.957L220.042 164.02L219.982 164.032L219.858 164.056L219.765 164.075L219.735 164.081L219.611 164.106L219.489 164.131H219.488L219.365 164.155L219.243 164.18L219.214 164.185L219.121 164.204L219 164.228L218.942 164.24L218.879 164.252L218.758 164.277L218.519 164.325L218.405 164.348L218.4 164.349L218.282 164.373L218.164 164.396L218.141 164.401L218.047 164.42L217.931 164.443L217.476 164.535L217.374 164.556L217.365 164.558L217.037 164.624L216.93 164.646L216.888 164.655L216.824 164.667L216.719 164.689L216.653 164.702L216.616 164.71L216.514 164.731L216.425 164.749L216.413 164.751L216.314 164.772L216.215 164.792L216.204 164.794L216.119 164.812L216.024 164.831L215.99 164.838L215.93 164.85L215.838 164.869L215.784 164.88L215.748 164.887L215.659 164.906L215.403 164.959L215.397 164.96L215.322 164.976L215.242 164.992L215.217 164.998L215.164 165.009L214.885 165.067L214.871 165.07L214.803 165.085L214.737 165.099L214.735 165.099L214.674 165.112L214.612 165.125L214.595 165.129L214.552 165.138L214.496 165.15L214.467 165.156L214.441 165.162L214.389 165.173L214.35 165.182L214.339 165.184L214.291 165.195L214.246 165.205C214.213 165.212 214.181 165.227 214.148 165.248C214.116 165.269 214.084 165.297 214.052 165.332C213.989 165.401 213.926 165.497 213.864 165.618C213.834 165.679 213.803 165.746 213.773 165.819C213.743 165.892 213.712 165.971 213.682 166.056C213.653 166.141 213.623 166.232 213.594 166.329C213.565 166.425 213.536 166.528 213.507 166.636C213.478 166.744 213.45 166.858 213.422 166.977C213.393 167.096 213.365 167.22 213.338 167.35C213.31 167.48 213.283 167.615 213.256 167.755C213.229 167.895 213.202 168.04 213.175 168.19C213.149 168.34 213.123 168.494 213.097 168.654H213.097C213.071 168.813 213.045 168.977 213.02 169.146C212.995 169.314 212.97 169.488 212.945 169.665H212.945C212.92 169.842 212.896 170.024 212.872 170.21H212.872C212.847 170.396 212.824 170.586 212.8 170.78C212.777 170.974 212.754 171.172 212.731 171.373C212.708 171.575 212.686 171.781 212.664 171.99H212.663C212.641 172.199 212.62 172.411 212.598 172.627C212.576 172.844 212.556 173.063 212.535 173.286L212.473 173.964L212.414 174.66H212.413C212.394 174.895 212.375 175.133 212.356 175.373L212.301 176.102H212.301L212.248 176.847H212.248L212.197 177.606L212.149 178.377H212.149L212.102 179.161L212.058 179.955L212.017 180.759L211.978 181.572H211.977L211.941 182.392H211.94L211.906 183.219L211.874 184.051L211.844 184.887L211.817 185.727L211.793 186.568H211.792L211.771 187.411H211.77L211.751 188.253L211.735 189.095H211.734L211.721 189.934H211.72L211.709 190.77L211.7 191.602L211.694 192.428L211.691 193.248V194.06L211.694 194.863H211.694L211.699 195.657L211.708 196.44H211.708C211.711 196.699 211.715 196.956 211.719 197.211L211.734 197.969H211.734L211.751 198.712L211.772 199.441H211.772C211.779 199.681 211.787 199.919 211.795 200.154H211.796L211.822 200.849H211.822C211.832 201.078 211.841 201.303 211.852 201.525H211.852C211.863 201.748 211.873 201.967 211.885 202.183H211.885C211.897 202.398 211.909 202.61 211.921 202.819H211.921C211.934 203.028 211.947 203.233 211.961 203.434H211.961C211.974 203.635 211.989 203.832 212.003 204.026H212.004C212.018 204.219 212.034 204.409 212.049 204.594H212.05C212.065 204.78 212.082 204.961 212.099 205.138H212.099C212.116 205.315 212.133 205.487 212.152 205.656H212.152C212.17 205.823 212.188 206.005 212.206 206.2H212.207C212.225 206.394 212.243 206.601 212.261 206.821H212.261C212.279 207.041 212.297 207.274 212.315 207.518H212.315C212.334 207.762 212.351 208.019 212.37 208.287H212.37C212.388 208.555 212.406 208.834 212.424 209.125H212.424C212.442 209.416 212.46 209.718 212.478 210.03C212.496 210.342 212.514 210.665 212.532 210.999H212.533C212.551 211.332 212.568 211.676 212.586 212.029H212.586L212.64 213.117L212.64 213.117L212.693 214.261H212.693L212.746 215.458L212.799 216.706H212.799L212.851 218V218L212.903 219.339V219.339L212.955 220.72L213.006 222.14V222.14L213.057 223.596L213.108 225.086L213.157 226.606L213.158 226.606L213.207 228.155H213.207L213.256 229.729L213.304 231.325L213.352 232.941L213.352 232.941L213.399 234.574V234.574L213.446 236.221V236.222L213.492 237.88V237.88L213.537 239.548V239.548L213.581 241.221L213.581 241.221L213.625 242.897V242.898L213.668 244.574V244.575L213.71 246.249V246.249L213.751 247.918V247.919L213.792 249.58V249.58L213.832 251.231V251.231L213.87 252.868V252.869L213.908 254.49V254.49L213.945 256.092V256.093L213.98 257.673L213.98 257.673L214.015 259.229V259.23L214.049 260.758V260.759L214.082 262.258V262.258L214.113 263.724V263.724L214.144 265.155V265.155L214.173 266.548V266.548L214.201 267.899V267.899L214.228 269.207V269.207L214.254 270.468L214.254 270.468L214.278 271.68V271.681L214.302 272.84V272.84L214.323 273.945V273.946L214.344 274.993V274.993L214.363 275.98V275.981L214.381 276.904V276.905L214.397 277.763V277.763L214.413 278.552V278.553L214.426 279.271V279.271L214.438 279.915V279.915L214.449 280.482V280.482L214.458 280.969V280.97L214.465 281.375V281.375L214.471 281.694V281.694L214.475 281.926V281.926L214.477 282.067V282.068L214.479 282.115H221.638C222.212 270.612 222.908 254.087 222.908 241.472L222.907 241.47Z" fill="black" fill-opacity="0.301961"/>
<path d="M240.071 244.937C239.873 250.494 239.843 282.67 239.839 292.268H273.729L266.129 225.997C266.129 225.997 269.386 227.4 274.97 231.375C280.554 235.35 282.881 240.728 290.791 240.962C298.702 241.195 300.097 235.818 300.33 232.778C300.563 229.738 297.771 220.853 295.212 215.242C292.653 209.63 287.767 192.094 287.767 188.353C287.767 184.612 285.487 182.494 284.091 182.26C282.695 182.026 263.57 169.647 263.57 169.647L254.496 166.608L252.169 169.647C252.169 169.647 244.956 187.184 244.026 196.536C243.095 205.889 239.838 230.674 239.838 230.674C239.838 230.674 240.303 238.389 240.071 244.937H240.071Z" fill="white" stroke="#263138" stroke-width="1.3335" stroke-miterlimit="22.9256" stroke-linejoin="round"/>
<path d="M240.071 244.937C239.873 250.494 239.843 282.67 239.839 292.268H273.729L266.129 225.997C266.129 225.997 269.386 227.4 274.97 231.375C280.554 235.35 282.881 240.728 290.791 240.962C298.702 241.195 300.097 235.818 300.33 232.778C300.563 229.738 297.771 220.853 295.212 215.242C292.653 209.63 287.767 192.094 287.767 188.353C287.767 184.612 285.487 182.494 284.091 182.26C282.695 182.026 263.57 169.647 263.57 169.647L254.496 166.608L252.169 169.647C252.169 169.647 244.956 187.184 244.026 196.536C243.095 205.889 239.838 230.674 239.838 230.674C239.838 230.674 240.303 238.389 240.071 244.937H240.071Z" stroke="#263138" stroke-width="1.3335" stroke-miterlimit="22.9256" stroke-linejoin="round"/>
<path d="M241.83 215.156C242.374 212.363 243.052 209.535 243.895 206.992C247.124 197.258 254.389 189.957 261.25 182.656C265.724 177.895 267.617 174.525 268.397 172.748V172.748L268.267 172.665L268.138 172.583L268.049 172.525L268.01 172.501L267.883 172.42L267.758 172.34L267.663 172.279L267.634 172.26L267.511 172.181L267.389 172.103L267.289 172.039L267.269 172.026L267.15 171.95L267.032 171.875L266.928 171.808L266.916 171.8L266.802 171.727L266.688 171.654L266.58 171.585L266.576 171.583L266.466 171.512L266.358 171.442L266.251 171.374L266.247 171.372L266.146 171.306L266.042 171.24L265.94 171.174L265.93 171.168L265.84 171.11L265.741 171.046L265.644 170.984L265.629 170.974L265.55 170.923L265.456 170.863L265.365 170.805L265.345 170.792L265.276 170.747L265.189 170.691L265.103 170.636L265.078 170.62L265.02 170.582L264.938 170.53L264.859 170.479L264.831 170.46L264.781 170.428L264.706 170.38L264.633 170.333L264.603 170.314L264.562 170.287L264.493 170.243L264.427 170.2L264.3 170.119L264.241 170.08L264.209 170.06L264.184 170.043L264.129 170.008L264.076 169.974L264.045 169.954L264.026 169.941L263.978 169.911L263.933 169.881L263.903 169.863L263.89 169.854L263.85 169.828L263.812 169.804L263.786 169.787L263.777 169.781L263.745 169.76L263.715 169.741L263.693 169.727L263.688 169.724L263.664 169.708L263.642 169.694L263.626 169.683L263.623 169.682L263.608 169.671L263.595 169.663L263.585 169.657L263.584 169.656L263.577 169.651L263.572 169.649L263.571 169.648L254.497 166.608L252.17 169.648H252.17L252.165 169.66H252.165L252.15 169.698H252.149L252.124 169.76H252.124L252.089 169.847H252.089L252.045 169.956H252.044L251.991 170.089H251.991L251.929 170.243H251.929L251.859 170.419H251.858L251.78 170.616H251.78L251.693 170.834H251.693L251.599 171.071L251.498 171.327H251.498L251.39 171.603H251.39L251.276 171.896H251.276L251.155 172.206H251.155L251.028 172.534H251.028L250.896 172.878H250.896L250.759 173.237H250.758L250.616 173.611H250.616L250.469 174L250.317 174.403L250.161 174.819H250.161L250.002 175.248L249.839 175.689H249.839L249.673 176.142L249.504 176.606H249.504L249.332 177.079H249.332L249.159 177.563H249.158L248.983 178.056L248.806 178.558H248.805L248.627 179.068L248.447 179.585L248.267 180.109L248.087 180.639H248.086L247.906 181.175L247.725 181.716L247.546 182.261L247.366 182.811L247.189 183.363H247.188L247.012 183.918L246.838 184.476H246.838L246.665 185.035H246.665L246.495 185.595L246.328 186.156L246.163 186.716L246.002 187.275L245.845 187.833L245.692 188.389L245.543 188.943H245.542L245.398 189.493L245.258 190.04L245.124 190.582C245.08 190.762 245.037 190.941 244.995 191.119C244.953 191.297 244.912 191.475 244.871 191.651C244.831 191.827 244.793 192.003 244.754 192.177C244.716 192.351 244.68 192.524 244.644 192.696H244.644C244.608 192.867 244.573 193.038 244.54 193.207C244.506 193.376 244.474 193.544 244.443 193.711C244.412 193.878 244.382 194.043 244.353 194.206C244.325 194.37 244.298 194.532 244.271 194.693C244.245 194.854 244.221 195.012 244.198 195.169C244.174 195.327 244.152 195.483 244.132 195.636C244.112 195.79 244.093 195.942 244.075 196.092C244.057 196.242 244.042 196.39 244.027 196.536L244.007 196.739L243.985 196.946L243.981 196.986L243.964 197.157L243.942 197.373L243.933 197.457L243.895 197.818L243.881 197.949L243.87 198.047L243.845 198.28L243.826 198.461L243.82 198.517L243.794 198.758L243.768 198.992L243.767 199.002L243.74 199.251L243.712 199.503L243.708 199.541L243.684 199.759L243.655 200.018L243.645 200.107L243.625 200.281L243.595 200.546L243.579 200.689L243.565 200.816L243.534 201.088L243.511 201.286L243.503 201.363L243.471 201.641L243.441 201.898L243.439 201.922L243.406 202.206L243.372 202.493L243.369 202.523L243.339 202.782L243.305 203.074L243.295 203.16L243.27 203.368L243.235 203.664L243.218 203.809L243.2 203.963L243.164 204.264L243.14 204.469L243.128 204.567L243.092 204.872L243.061 205.138L243.056 205.179L243.019 205.488L242.982 205.798L242.98 205.816L242.944 206.11L242.906 206.423L242.897 206.502L242.869 206.739L242.83 207.055L242.813 207.196L242.792 207.373L242.753 207.692L242.729 207.895L242.714 208.012L242.675 208.333L242.643 208.599L242.636 208.655L242.596 208.978L242.557 209.302L242.556 209.307L242.517 209.626L242.477 209.951L242.469 210.019L242.437 210.277L242.357 210.929L242.316 211.256L242.292 211.448L242.276 211.582L242.235 211.909L242.154 212.562L242.115 212.88L242.113 212.889L242.073 213.215L242.032 213.541L242.025 213.594L241.83 215.156L241.83 215.156Z" fill="black" fill-opacity="0.301961"/>
<path d="M266.129 225.997L266.131 225.998H266.131L266.138 226.001L266.139 226.001L266.149 226.006L266.151 226.007L266.164 226.013L266.167 226.014L266.184 226.022L266.208 226.033L266.214 226.035L266.28 226.065L266.306 226.077L266.32 226.084C267.058 226.427 269.911 227.831 274.36 230.944C273.56 228.976 272.955 228.085 272.955 228.085L266.093 212.266C266.093 212.266 255.6 229.707 254.389 239.442C253.392 247.453 256.496 280.734 257.626 292.267H273.729L266.129 225.997V225.997Z" fill="black" fill-opacity="0.301961"/>
<path d="M290.792 240.961C298.702 241.195 300.098 235.817 300.331 232.778C300.335 232.73 300.338 232.682 300.339 232.631L300.344 232.476C300.345 232.423 300.345 232.368 300.344 232.313L300.34 232.141L300.331 231.963L300.319 231.776L300.303 231.583L300.283 231.382H300.283L300.259 231.174L300.231 230.96L300.199 230.739L300.164 230.512L300.126 230.279C300.099 230.121 300.069 229.96 300.038 229.795H300.038L299.989 229.545L299.937 229.289L299.882 229.029H299.882L299.824 228.764L299.762 228.494H299.762L299.698 228.22V228.22L299.631 227.942C299.585 227.755 299.537 227.565 299.488 227.373L299.413 227.084L299.335 226.791L299.255 226.494L299.172 226.196L299.087 225.894C299.03 225.692 298.971 225.488 298.91 225.283H298.91L298.818 224.974H298.818L298.725 224.664H298.725C298.661 224.456 298.597 224.248 298.531 224.038L298.432 223.723L298.331 223.407L298.228 223.09C298.159 222.879 298.089 222.667 298.018 222.455L297.91 222.137H297.91C297.838 221.925 297.765 221.713 297.692 221.501L297.58 221.184V221.183L297.468 220.867V220.866L297.354 220.55H297.354L297.24 220.235L297.124 219.922H297.124L297.008 219.61V219.609L296.891 219.299L296.773 218.99L296.655 218.684V218.683L296.536 218.379V218.379L296.417 218.077H296.416L296.297 217.778L296.177 217.482V217.481L296.056 217.188L295.935 216.899L295.815 216.612L295.694 216.33L295.573 216.051L295.453 215.777L295.332 215.507L295.212 215.241C295.172 215.154 295.132 215.063 295.09 214.97L294.965 214.681L294.838 214.377H294.837L294.706 214.056L294.573 213.72L294.437 213.37L294.298 213.006L294.157 212.629L294.014 212.238L293.869 211.836L293.723 211.422L293.574 210.997L293.425 210.562H293.425L293.274 210.116H293.274L293.122 209.662L292.969 209.199H292.969L292.815 208.727L292.661 208.249H292.661L292.506 207.764L292.351 207.272L292.196 206.774L292.041 206.272H292.04L291.886 205.765L291.731 205.254L291.577 204.74H291.577L291.424 204.223L291.272 203.703L291.121 203.183L290.97 202.661H290.97L290.822 202.139H290.821L290.674 201.617L290.529 201.096H290.529L290.385 200.576L290.244 200.058H290.244L290.105 199.542L289.968 199.03L289.833 198.522L289.702 198.018V198.018L289.573 197.518H289.573L289.447 197.025V197.025L289.325 196.537L289.206 196.056V196.056L289.09 195.582V195.582L288.978 195.116H288.977L288.869 194.659L288.765 194.21L288.665 193.772V193.771L288.57 193.343L288.479 192.925L288.392 192.519L288.311 192.124L288.234 191.742H288.234L288.162 191.374V191.373L288.096 191.019L288.036 190.678V190.678L287.981 190.352V190.352L287.932 190.042C287.917 189.941 287.902 189.842 287.889 189.747C287.876 189.652 287.863 189.559 287.852 189.47V189.47C287.841 189.38 287.831 189.294 287.822 189.21V189.209C287.813 189.126 287.805 189.045 287.798 188.967V188.967C287.791 188.889 287.785 188.815 287.78 188.743V188.743C287.775 188.671 287.772 188.603 287.77 188.538V188.538C287.767 188.473 287.766 188.412 287.766 188.353V188.353L287.764 188.179V188.179L287.759 188.007V188.007L287.751 187.837V187.837L287.74 187.67L287.725 187.506V187.506L287.708 187.343V187.343L287.688 187.184V187.183L287.665 187.026V187.026L287.639 186.871V186.871L287.611 186.719V186.719L287.58 186.569V186.569L287.546 186.421V186.421L287.51 186.276V186.276L287.472 186.133V186.133L287.431 185.993L287.388 185.855L287.342 185.72L287.295 185.587L287.246 185.457V185.456L287.194 185.329L287.141 185.203V185.203L287.086 185.08L287.029 184.96L286.971 184.842L286.911 184.727L286.849 184.614V184.614L286.786 184.504V184.504L286.722 184.396L286.656 184.291L286.589 184.188L286.521 184.088L286.451 183.991V183.991L286.381 183.896L286.31 183.803L286.238 183.714L286.165 183.627L286.091 183.542L286.017 183.46L285.942 183.381L285.866 183.304L285.791 183.229L285.714 183.158L285.638 183.089L285.561 183.023L285.484 182.959L285.407 182.898L285.33 182.839L285.253 182.784L285.177 182.731L285.1 182.681L285.024 182.633L284.948 182.588L284.872 182.545L284.797 182.506L284.722 182.469L284.649 182.435L284.576 182.403L284.503 182.374L284.432 182.349L284.361 182.325L284.292 182.304L284.223 182.286L284.156 182.271L284.09 182.259C284.068 182.256 284.042 182.249 284.012 182.24L284.011 182.239C283.982 182.23 283.948 182.218 283.91 182.203L283.908 182.202L283.906 182.201C283.869 182.187 283.828 182.17 283.784 182.15L283.781 182.148C283.736 182.129 283.687 182.107 283.635 182.082L283.635 182.081L283.629 182.079L283.618 182.073L283.467 181.999L283.463 181.997L283.456 181.994L283.401 181.966L283.27 181.899L283.26 181.893L283.202 181.862L283.13 181.825L283.057 181.786L283.044 181.779L282.981 181.745L282.904 181.702L282.823 181.659L282.807 181.65L282.742 181.614L282.657 181.567L282.571 181.519L282.552 181.508L282.483 181.469L282.393 181.419L282.301 181.366L282.278 181.354L282.207 181.313L282.111 181.258L282.013 181.202L281.914 181.145L281.812 181.086L281.709 181.026L281.604 180.965L281.498 180.903C280.567 180.358 279.447 179.683 278.227 178.933C281.447 182.478 284.658 187.129 284.658 191.579C284.658 200.502 293.538 230.517 293.538 230.517C293.538 230.517 290.92 235.644 289.63 240.877C289.929 240.907 290.232 240.935 290.547 240.951L290.565 240.952L290.584 240.953C290.652 240.956 290.721 240.959 290.79 240.961L290.792 240.961Z" fill="black" fill-opacity="0.301961"/>
<path d="M267.758 214.073C267.758 214.073 269.619 201.446 273.807 193.73" stroke="#263138" stroke-width="1.3335" stroke-miterlimit="10" stroke-linecap="round" stroke-linejoin="round"/>
<path d="M169.423 233.817C171.284 231.245 189.583 197.004 189.583 197.004L188.678 292.267H220.406L217.735 232.544C217.735 232.544 217.735 208.695 217.735 195.601C217.735 182.507 218.433 161.463 218.433 161.463C218.433 161.463 215.408 160.294 213.082 161.697C213.082 161.697 187.954 168.244 184.697 169.18C181.44 170.115 178.415 171.518 178.183 172.921C177.95 174.324 154.567 213.886 151.775 218.563C148.983 223.239 146.424 227.915 146.889 230.721C147.355 233.527 155.463 239.194 160.116 238.96C164.769 238.727 167.561 236.388 169.422 233.817H169.423Z" fill="#C6FF00" stroke="#263138" stroke-width="1.3335" stroke-miterlimit="22.9256" stroke-linejoin="round"/>
<path d="M169.423 233.817C171.284 231.245 189.583 197.004 189.583 197.004L188.678 292.267H220.406L217.735 232.544C217.735 232.544 217.735 208.695 217.735 195.601C217.735 182.507 218.433 161.463 218.433 161.463C218.433 161.463 215.408 160.294 213.082 161.697C213.082 161.697 187.954 168.244 184.697 169.18C181.44 170.115 178.415 171.518 178.183 172.921C177.95 174.324 154.567 213.886 151.775 218.563C148.983 223.239 146.424 227.915 146.889 230.721C147.355 233.527 155.463 239.194 160.116 238.96C164.769 238.727 167.561 236.388 169.422 233.817H169.423Z" fill="#F2C85D" stroke="#263138" stroke-width="1.3335" stroke-miterlimit="22.9256" stroke-linejoin="round"/>
<path d="M217.735 195.601V195.489V195.376L217.735 195.263V195.15L217.735 195.035V194.982L217.736 194.921L217.736 194.807L217.736 194.691L217.736 194.576L217.737 194.46L217.737 194.351V194.345L217.737 194.228L217.738 194.111L217.738 193.994L217.739 193.877L217.739 193.759L217.74 193.711L217.74 193.641L217.74 193.523L217.741 193.404L217.742 193.285L217.743 193.166L217.743 193.06L217.743 193.046L217.744 192.926L217.745 192.806L217.746 192.685L217.747 192.564L217.747 192.443L217.748 192.401L217.748 192.322L217.749 192.2L217.75 192.078L217.751 191.956L217.752 191.833L217.753 191.733L217.753 191.711L217.755 191.588L217.756 191.464L217.757 191.341L217.758 191.217L217.759 191.093L217.759 191.058L217.76 190.969L217.762 190.845L217.763 190.72L217.764 190.595L217.766 190.375L217.767 190.345L217.768 190.219L217.77 190.093L217.783 188.953L217.785 188.826L217.786 188.698L217.788 188.57L217.79 188.442L217.791 188.314L217.792 188.292L217.793 188.186L217.795 188.057L217.797 187.928L217.798 187.8C216.886 188.511 215.66 189.534 214.433 190.768C212.661 192.549 197.492 202.581 189.482 207.835L189.088 249.336L217.737 210.948V210.742V210.692V210.436V210.18V209.971V209.924V209.667V209.411V209.201V209.155V208.9V208.644V208.431V208.388V208.133V207.878V207.663V207.623V207.368V207.113V206.897V206.859V206.605V206.352V206.134V206.099V205.846V205.594V205.375V205.342V205.091V204.841V204.621V204.591V204.341V204.093V203.872V203.844V203.597V203.351V203.13V203.105V202.859V202.615V202.394V202.372V202.129V201.887V201.666V201.647V201.407V201.168V200.947V200.93V200.693V200.457V200.238V200.223V199.989V199.757V199.538V199.525V199.296V199.067V198.85V198.839V198.613V198.388V198.173V198.165V197.943V197.722V197.509V197.503V197.285V197.069V196.858V196.854V196.642V196.43V196.222V196.22V196.012V195.805V195.601L217.735 195.601Z" fill="black" fill-opacity="0.301961"/>
<path d="M247.051 164.269C247.051 164.269 247.982 173.856 244.492 188.82C241.002 203.784 240.071 211.033 239.606 216.878C239.141 222.724 240.071 234.415 240.071 234.415C240.071 234.415 244.027 200.511 245.888 195.367C247.749 190.223 248.68 185.78 255.427 181.338C262.174 176.895 266.362 171.518 266.595 170.582C266.827 169.647 266.129 165.672 263.803 163.334C261.476 160.996 257.288 161.697 255.66 160.294C254.031 158.891 251.472 154.917 250.076 154.917C248.68 154.917 247.051 158.19 247.051 158.19V164.269V164.269Z" fill="#C6FF00" stroke="#263138" stroke-width="1.3335" stroke-miterlimit="22.9256" stroke-linejoin="round"/>
<path d="M247.051 164.269C247.051 164.269 247.982 173.856 244.492 188.82C241.002 203.784 240.071 211.033 239.606 216.878C239.141 222.724 240.071 234.415 240.071 234.415C240.071 234.415 244.027 200.511 245.888 195.367C247.749 190.223 248.68 185.78 255.427 181.338C262.174 176.895 266.362 171.518 266.595 170.582C266.827 169.647 266.129 165.672 263.803 163.334C261.476 160.996 257.288 161.697 255.66 160.294C254.031 158.891 251.472 154.917 250.076 154.917C248.68 154.917 247.051 158.19 247.051 158.19V164.269V164.269Z" fill="#F2C85D" stroke="#263138" stroke-width="1.3335" stroke-miterlimit="22.9256" stroke-linejoin="round"/>
<path d="M250.076 154.917C250.054 154.917 250.032 154.918 250.011 154.919C249.988 154.921 249.967 154.923 249.945 154.926C249.923 154.929 249.901 154.933 249.879 154.938C249.857 154.942 249.834 154.948 249.812 154.953C249.79 154.959 249.768 154.966 249.746 154.974C249.724 154.981 249.701 154.989 249.679 154.998L249.612 155.026L249.546 155.058L249.479 155.093L249.412 155.132L249.345 155.173L249.279 155.219L249.212 155.267L249.146 155.318L249.08 155.372L249.015 155.428L248.95 155.487L248.885 155.548L248.82 155.611L248.756 155.676L248.693 155.743V155.743L248.63 155.812L248.568 155.881L248.506 155.953V155.953L248.445 156.025V156.025L248.385 156.099V156.099L248.325 156.173V156.173L248.266 156.249L248.208 156.324V156.324L248.151 156.401L248.096 156.477L248.04 156.554L247.986 156.63V156.631L247.934 156.707V156.707L247.882 156.783L247.831 156.859V156.859L247.781 156.934L247.733 157.009L247.686 157.082L247.64 157.154L247.596 157.226V157.226L247.553 157.296V157.296L247.512 157.364L247.472 157.431V157.431L247.433 157.496V157.496L247.396 157.559V157.559L247.361 157.62V157.62L247.328 157.679V157.679L247.296 157.735V157.735L247.266 157.789V157.789L247.237 157.84V157.84L247.211 157.889V157.889L247.186 157.934V157.934L247.164 157.976V157.976L247.143 158.015V158.015L247.124 158.05V158.05L247.108 158.082V158.082L247.093 158.11V158.11L247.08 158.134V158.134L247.07 158.154V158.154L247.062 158.17V158.17L247.056 158.181V158.182L247.053 158.189V158.189L247.052 158.191V158.191V164.27C247.052 164.27 247.982 173.857 244.492 188.821L244.491 188.825L244.49 188.83L244.489 188.834L244.488 188.838L244.487 188.843L244.486 188.847L244.485 188.852L244.484 188.856L244.483 188.86L244.482 188.864L244.481 188.869L244.48 188.873L244.479 188.877L244.478 188.882L244.477 188.886L244.476 188.89L244.475 188.894L244.473 188.899L244.472 188.903L244.471 188.907L244.47 188.911L244.469 188.915L244.468 188.92L244.468 188.924L244.467 188.928L244.459 188.961L244.458 188.966L244.429 189.092C245.678 186.495 247.056 183.845 248.334 181.847C251.966 176.168 255.195 175.357 256.809 168.461C257.438 165.78 257.024 163.043 256.288 160.692C256.103 160.605 255.933 160.506 255.781 160.393L255.772 160.387L255.763 160.38L255.754 160.373L255.745 160.366L255.737 160.361L255.736 160.36L255.728 160.353C255.704 160.334 255.681 160.316 255.659 160.296C254.03 158.893 251.471 154.919 250.075 154.919L250.076 154.917Z" fill="black" fill-opacity="0.301961"/>
<path d="M220.295 156.553C220.295 156.553 214.246 158.892 213.548 159.593C212.85 160.294 204.939 160.528 204.241 164.035C203.543 167.543 200.751 168.01 202.613 171.985C204.474 175.96 212.152 186.248 214.013 188.119C215.874 189.989 212.617 203.785 212.385 211.267C212.152 218.749 217.736 234.648 217.736 234.648L220.993 166.374L220.295 156.553H220.295Z" fill="white" stroke="#263138" stroke-width="1.3335" stroke-miterlimit="22.9256" stroke-linejoin="round"/>
<path d="M220.295 156.553C220.295 156.553 214.246 158.892 213.548 159.593C212.85 160.294 204.939 160.528 204.241 164.035C203.543 167.543 200.751 168.01 202.613 171.985C204.474 175.96 212.152 186.248 214.013 188.119C215.874 189.989 212.617 203.785 212.385 211.267C212.152 218.749 217.736 234.648 217.736 234.648L220.993 166.374L220.295 156.553H220.295Z" stroke="#263138" stroke-width="1.3335" stroke-miterlimit="22.9256" stroke-linejoin="round"/>
<path d="M219.787 191.647L219.829 185.313L214.582 190.616C214.649 194.439 213.312 201.593 212.686 207.344L212.68 207.395L212.641 207.769L212.638 207.796L212.597 208.201L212.595 208.221L212.564 208.546L212.558 208.609L212.552 208.675L212.526 208.969L212.518 209.065L212.499 209.292L212.485 209.47L212.483 209.496L212.461 209.794L212.46 209.804L212.437 210.153L212.432 210.235L212.417 210.501L212.413 210.587L212.4 210.858L212.396 210.938L212.384 211.267C212.38 211.376 212.379 211.488 212.378 211.601L212.377 211.623V211.648C212.376 211.751 212.377 211.856 212.379 211.962L212.379 211.992L212.38 212.01C212.381 212.122 212.384 212.234 212.388 212.349L212.388 212.367V212.372L212.39 212.394C212.393 212.496 212.398 212.6 212.403 212.704L212.41 212.826L212.427 213.097L212.436 213.233L212.453 213.451L212.47 213.651L212.478 213.74L212.487 213.83C212.498 213.95 212.511 214.07 212.523 214.192L212.533 214.283C212.627 215.138 212.76 216.041 212.921 216.971L218.97 208.763L219.188 204.196L219.787 191.646L219.787 191.647Z" fill="black" fill-opacity="0.301961"/>
<path d="M218.666 149.539C218.666 149.539 220.76 165.205 220.76 168.244C220.76 171.284 230.067 186.014 232.161 186.949C234.254 187.885 242.165 178.298 244.492 174.557C246.818 170.816 247.051 168.478 247.516 166.607C247.982 164.737 248.214 151.643 248.214 151.643C248.214 151.643 242.398 154.682 233.789 154.682C225.181 154.682 218.666 149.539 218.666 149.539L218.666 149.539Z" fill="white" stroke="#263138" stroke-width="1.3335" stroke-miterlimit="22.9256" stroke-linejoin="round"/>
<path d="M213.78 131.068L210.988 130.834C210.988 130.834 209.592 133.64 211.221 138.082C212.85 142.525 216.107 144.629 216.107 144.629C216.107 144.629 217.735 151.877 220.062 154.215C222.389 156.554 227.74 163.802 230.299 164.27C232.859 164.737 238.443 165.439 241.933 164.27C245.422 163.101 249.145 155.618 251.006 152.345C252.868 149.072 252.868 142.993 252.868 142.993C252.868 142.993 256.823 140.187 258.219 136.446C259.615 132.705 259.382 129.665 258.451 128.496C257.521 127.327 254.729 128.262 254.729 128.262C254.729 128.262 254.729 123.118 254.496 118.208C254.264 113.298 249.61 110.96 239.606 112.596C229.602 114.233 218.201 119.377 215.874 123.118C213.548 126.859 213.78 131.068 213.78 131.068L213.78 131.068Z" fill="white" stroke="#263138" stroke-width="1.3335" stroke-miterlimit="22.9256" stroke-linejoin="round"/>
<path d="M213.78 131.068L210.988 130.834C210.988 130.834 209.592 133.64 211.221 138.082C212.85 142.525 216.107 144.629 216.107 144.629C216.107 144.629 217.735 151.877 220.062 154.215C222.389 156.554 227.74 163.802 230.299 164.27C232.859 164.737 238.443 165.439 241.933 164.27C245.422 163.101 249.145 155.618 251.006 152.345C252.868 149.072 252.868 142.993 252.868 142.993C252.868 142.993 256.823 140.187 258.219 136.446C259.615 132.705 259.382 129.665 258.451 128.496C257.521 127.327 254.729 128.262 254.729 128.262C254.729 128.262 254.729 123.118 254.496 118.208C254.264 113.298 249.61 110.96 239.606 112.596C229.602 114.233 218.201 119.377 215.874 123.118C213.548 126.859 213.78 131.068 213.78 131.068L213.78 131.068Z" stroke="#263138" stroke-width="1.3335" stroke-miterlimit="22.9256" stroke-linejoin="round"/>
<path d="M258.451 128.496C257.521 127.327 254.729 128.262 254.729 128.262C254.729 128.262 254.729 123.118 254.496 118.208C254.493 118.137 254.488 118.066 254.483 117.996L254.479 117.949C254.475 117.893 254.47 117.837 254.464 117.781L254.457 117.718L254.44 117.576L254.427 117.489L254.427 117.487L254.412 117.388L254.411 117.383C254.401 117.321 254.39 117.26 254.378 117.199L254.376 117.19C254.035 115.435 253.014 114.086 251.274 113.214L248.738 116.135C248.738 116.135 249.545 135.605 246.72 146.962C244.538 155.735 240.669 161.831 236.604 164.906C236.958 164.911 237.314 164.909 237.667 164.901L237.756 164.898L237.844 164.896L237.932 164.893L238.021 164.889L238.109 164.886L238.284 164.877L238.372 164.873L238.405 164.871L238.459 164.867L238.546 164.862L238.633 164.857L238.72 164.85L238.893 164.837L238.98 164.83L239.003 164.828L239.066 164.823L239.152 164.815L239.2 164.81L239.237 164.806L239.323 164.798L239.395 164.79L239.407 164.789L239.492 164.779L239.577 164.769L239.59 164.768L239.615 164.765L239.745 164.748L239.783 164.743L239.829 164.737L239.912 164.726L239.937 164.722L239.995 164.714L240.078 164.701L240.16 164.689L240.163 164.688L240.241 164.675L240.323 164.662L240.351 164.657L240.376 164.653C240.489 164.633 240.601 164.612 240.713 164.59L240.72 164.588L240.725 164.587L240.883 164.554L240.901 164.55L240.913 164.547L241.075 164.511L241.083 164.509L241.252 164.467L241.255 164.467L241.269 164.463L241.407 164.427L241.421 164.423L241.429 164.421L241.452 164.415L241.57 164.382L241.6 164.373L241.606 164.372L241.749 164.328L241.768 164.323L241.789 164.316L241.933 164.269C245.423 163.1 249.146 155.618 251.007 152.344C252.868 149.071 252.868 142.992 252.868 142.992L252.871 142.99L252.88 142.984L252.893 142.974L252.913 142.96L252.938 142.942L252.967 142.92V142.92L253.002 142.894L253.041 142.864L253.085 142.831V142.831L253.133 142.794L253.185 142.753L253.242 142.709L253.303 142.66L253.368 142.609L253.436 142.554V142.554L253.508 142.495L253.583 142.433L253.662 142.368L253.743 142.299V142.299L253.828 142.227L253.916 142.152V142.151L254.006 142.073L254.098 141.991L254.193 141.906L254.29 141.818L254.39 141.727L254.491 141.634L254.594 141.537L254.699 141.437L254.804 141.335L254.912 141.229L255.02 141.121V141.121L255.13 141.01V141.01L255.24 140.896L255.351 140.78V140.78L255.463 140.661V140.661L255.575 140.54L255.688 140.416V140.415L255.8 140.289V140.289L255.913 140.16L256.025 140.029V140.029L256.137 139.895L256.249 139.759V139.759L256.36 139.621V139.62L256.47 139.48L256.579 139.338V139.337L256.687 139.193V139.193L256.794 139.046L256.9 138.897V138.897L257.004 138.746V138.746L257.106 138.593L257.207 138.438L257.306 138.281L257.402 138.123L257.496 137.962L257.588 137.8V137.8L257.678 137.636L257.764 137.47L257.848 137.303V137.303L257.929 137.135L258.007 136.964C258.032 136.907 258.057 136.85 258.081 136.792L258.152 136.619L258.219 136.444C259.616 132.703 259.383 129.664 258.452 128.495L258.451 128.496Z" fill="black" fill-opacity="0.301961"/>
<path d="M231.695 145.565C231.695 145.565 233.557 147.201 235.651 147.435C237.745 147.668 239.838 145.097 239.838 145.097" stroke="#263138" stroke-width="1.3335" stroke-miterlimit="10" stroke-linecap="round" stroke-linejoin="round"/>
<path d="M229.136 150.942C229.136 150.942 235.185 153.981 242.397 150.24" stroke="#263138" stroke-width="1.3335" stroke-miterlimit="10" stroke-linecap="round" stroke-linejoin="round"/>
<path d="M227.741 137.03C227.741 138.128 227.22 139.017 226.577 139.017C225.935 139.017 225.414 138.127 225.414 137.03C225.414 135.932 225.935 135.042 226.577 135.042C227.22 135.042 227.741 135.932 227.741 137.03Z" fill="#263138"/>
<path d="M244.259 137.03C244.259 138.128 243.738 139.017 243.096 139.017C242.453 139.017 241.933 138.127 241.933 137.03C241.933 135.932 242.453 135.042 243.096 135.042C243.738 135.042 244.259 135.932 244.259 137.03Z" fill="#263138"/>
<path d="M239.839 131.301C239.839 131.301 242.398 128.729 245.888 128.262C249.378 127.794 249.611 128.963 249.611 128.963" stroke="#263138" stroke-width="2.66699" stroke-miterlimit="10" stroke-linecap="round" stroke-linejoin="round"/>
<path d="M230.299 131.301C230.299 131.301 224.948 127.56 220.993 130.366" stroke="#263138" stroke-width="2.66699" stroke-miterlimit="10" stroke-linecap="round" stroke-linejoin="round"/>
<path d="M230.729 140.42H220.331" stroke="#263138" stroke-width="1.3335" stroke-miterlimit="10" stroke-linecap="round" stroke-linejoin="round"/>
<path d="M220.331 140.42C219.154 140.42 218.201 139.462 218.201 138.28" stroke="#263138" stroke-width="1.3335" stroke-miterlimit="10" stroke-linecap="round" stroke-linejoin="round"/>
<path d="M218.201 138.28V132.237H232.859V138.28" stroke="#263138" stroke-width="1.3335" stroke-miterlimit="10" stroke-linecap="round" stroke-linejoin="round"/>
<path d="M232.859 138.28C232.859 139.462 231.906 140.42 230.729 140.42" stroke="#263138" stroke-width="1.3335" stroke-miterlimit="10" stroke-linecap="round" stroke-linejoin="round"/>
<path d="M250.273 140.42H239.874" stroke="#263138" stroke-width="1.3335" stroke-miterlimit="10" stroke-linecap="round" stroke-linejoin="round"/>
<path d="M239.875 140.42C238.698 140.42 237.745 139.462 237.745 138.28" stroke="#263138" stroke-width="1.3335" stroke-miterlimit="10" stroke-linecap="round" stroke-linejoin="round"/>
<path d="M237.745 138.28V132.237H252.403V138.28" stroke="#263138" stroke-width="1.3335" stroke-miterlimit="10" stroke-linecap="round" stroke-linejoin="round"/>
<path d="M252.402 138.28C252.402 139.462 251.449 140.42 250.272 140.42" stroke="#263138" stroke-width="1.3335" stroke-miterlimit="10" stroke-linecap="round" stroke-linejoin="round"/>
<path d="M224.716 135.744C224.716 135.744 226.112 134.575 228.206 135.978" stroke="#263138" stroke-width="1.3335" stroke-miterlimit="10" stroke-linecap="round" stroke-linejoin="round"/>
<path d="M241.583 135.744C241.583 135.744 242.979 134.575 245.073 135.978" stroke="#263138" stroke-width="1.3335" stroke-miterlimit="10" stroke-linecap="round" stroke-linejoin="round"/>
<path d="M232.858 132.237H237.745" stroke="#263138" stroke-width="1.3335" stroke-miterlimit="10" stroke-linecap="round" stroke-linejoin="round"/>
<path d="M218.201 132.237H214.752" stroke="#263138" stroke-width="1.3335" stroke-miterlimit="10" stroke-linecap="round" stroke-linejoin="round"/>
<path d="M252.402 132.237H254.496" stroke="#263138" stroke-width="1.3335" stroke-miterlimit="10" stroke-linecap="round" stroke-linejoin="round"/>
<path d="M212.849 130.6C212.849 130.6 215.874 139.485 216.572 139.485C217.27 139.485 216.339 129.431 216.339 129.431C216.339 129.431 231.23 122.884 237.279 121.715C243.328 120.546 245.887 118.675 245.887 118.675L235.883 124.989C235.883 124.989 241.467 125.924 245.189 124.053C248.912 122.183 251.471 119.611 251.471 119.611C251.471 119.611 252.169 137.615 253.332 137.381C254.496 137.147 254.496 132.939 254.496 132.003C254.496 131.068 254.263 127.561 257.287 121.949C260.312 116.337 261.01 112.596 259.382 107.218C257.753 101.841 251.936 96.9307 250.308 96.9307C248.679 96.9307 247.516 96.9307 247.516 96.9307C247.516 96.9307 246.12 93.1897 238.675 93.6571C231.229 94.1248 215.176 97.632 211.221 104.179C207.265 110.726 206.8 113.532 207.033 115.87C207.265 118.208 212.849 130.6 212.849 130.6L212.849 130.6Z" fill="#263138" stroke="#263138" stroke-width="1.3335" stroke-miterlimit="22.9256" stroke-linejoin="round"/>
<path d="M212.341 124.908C212.341 124.908 213.094 126.927 226.149 119.105C239.204 111.284 252.008 108.256 252.259 114.564" stroke="white" stroke-width="1.3335" stroke-miterlimit="10" stroke-linecap="round" stroke-linejoin="round"/>
<path d="M251.506 109.518C251.506 109.518 251.506 100.182 244.476 99.9301C237.447 99.6778 230.668 103.462 221.881 109.518C213.094 115.573 211.337 117.591 209.077 115.573" stroke="white" stroke-width="1.3335" stroke-miterlimit="10" stroke-linecap="round" stroke-linejoin="round"/>
<path d="M253.514 115.573C253.514 115.573 257.823 114.49 256.275 121.376" stroke="white" stroke-width="1.3335" stroke-miterlimit="10" stroke-linecap="round" stroke-linejoin="round"/>
<path d="M251.255 104.471C251.255 104.471 254.268 100.182 257.782 108.761" stroke="white" stroke-width="1.3335" stroke-miterlimit="10" stroke-linecap="round" stroke-linejoin="round"/>
<path d="M181.207 189.522L187.256 179.701C187.256 179.701 189.35 165.906 190.281 164.737C191.212 163.568 205.171 158.891 206.567 158.424C207.963 157.956 212.384 151.643 213.547 151.643C214.71 151.643 216.572 153.046 217.037 155.15C217.502 157.255 220.992 161.23 220.992 163.1C220.992 164.971 220.527 165.438 219.364 164.971C218.201 164.503 216.339 162.632 215.874 161.23C215.408 159.826 213.547 159.593 213.547 159.593L208.894 163.568C208.894 163.568 210.057 168.244 210.057 169.179C210.057 170.115 211.918 169.881 213.082 168.244C214.245 166.607 218.898 165.906 219.596 166.14C220.294 166.373 221.225 167.543 218.433 169.413C215.641 171.284 211.918 173.855 210.057 177.83C208.196 181.805 207.266 184.611 203.775 185.546C200.285 186.482 197.726 186.715 197.726 186.715L189.118 195.834L181.207 189.521V189.522Z" fill="white" stroke="#263138" stroke-width="1.3335" stroke-miterlimit="22.9256" stroke-linejoin="round"/>
<path d="M191.909 167.776L196.563 172.453" stroke="#263138" stroke-width="1.3335" stroke-miterlimit="10" stroke-linecap="round" stroke-linejoin="round"/>
<path d="M196.562 172.453C196.562 172.453 194.701 177.597 194.701 179.935C194.701 182.274 196.795 181.572 197.726 179.935C198.656 178.299 200.285 174.324 200.052 171.985C199.82 169.647 198.424 167.075 198.424 167.075" stroke="#263138" stroke-width="1.3335" stroke-miterlimit="10" stroke-linecap="round" stroke-linejoin="round"/>
<path d="M200.053 174.791C200.053 174.791 199.122 180.87 200.518 180.87C201.914 180.87 202.379 179.935 203.543 177.363C204.706 174.791 205.172 170.115 205.172 168.946C205.172 167.777 202.147 164.269 202.147 164.269" stroke="#263138" stroke-width="1.3335" stroke-miterlimit="10" stroke-linecap="round" stroke-linejoin="round"/>
<path d="M207.033 160.996C207.033 160.996 210.755 168.01 210.988 169.881C211.221 171.752 207.265 178.065 206.567 178.532C205.869 179 204.706 179.467 204.706 177.83C204.706 176.194 204.706 174.791 204.706 174.791" stroke="#263138" stroke-width="1.3335" stroke-miterlimit="10" stroke-linecap="round" stroke-linejoin="round"/>
<path d="M179.579 186.482L192.608 196.068C192.608 196.068 173.378 236.856 170.586 240.831C167.794 244.806 161.745 245.741 155.696 245.273C149.647 244.806 143.865 234.93 145.028 231.422C146.192 227.915 179.579 186.482 179.579 186.482L179.579 186.482Z" fill="#F2C85D" stroke="#263138" stroke-width="1.3335" stroke-miterlimit="22.9256" stroke-linejoin="round"/>
<path d="M240.966 196.536H223.82C222.644 196.536 221.69 195.578 221.69 194.396V159.863C221.69 158.681 222.644 157.723 223.82 157.723H240.966C242.142 157.723 243.096 158.681 243.096 159.863V194.396C243.096 195.578 242.142 196.536 240.966 196.536Z" fill="#263138" stroke="#263138" stroke-width="1.3335" stroke-miterlimit="22.9256" stroke-linejoin="round"/>
<path d="M226.577 164.971H224.018V160.996H226.577V164.971Z" fill="white"/>
<path d="M260.778 207.993C260.778 207.993 253.799 200.043 251.705 196.77C249.61 193.497 247.517 183.442 246.353 181.338C245.19 179.234 235.651 174.09 233.092 173.388C230.532 172.687 221.924 173.622 220.76 174.09C219.597 174.557 218.434 175.025 219.597 176.194C220.76 177.363 221.458 177.831 221.458 177.831C221.458 177.831 218.667 178.299 219.364 180.169C220.062 182.04 221.924 182.274 221.924 182.274C221.924 182.274 218.899 183.91 219.829 185.313C220.76 186.716 228.671 188.119 228.671 188.119L231.696 190.457C231.696 190.457 221.924 190.224 220.528 190.457C219.132 190.691 218.667 192.328 220.062 192.562C221.458 192.796 231.23 193.263 231.23 193.263C231.23 193.263 237.512 200.979 238.908 202.382C240.304 203.785 243.794 204.253 243.794 204.253L255.195 217.58L260.778 207.993V207.993Z" fill="white" stroke="#263138" stroke-width="1.3335" stroke-miterlimit="22.9256" stroke-linejoin="round"/>
<path d="M221.924 182.273C221.924 182.273 229.296 183.027 230.949 183.359C232.602 183.691 236.734 186.681 236.734 186.681" stroke="#263138" stroke-width="1.3335" stroke-miterlimit="10" stroke-linecap="round" stroke-linejoin="round"/>
<path d="M221.458 177.831C221.458 177.831 230.452 177.379 232.932 178.21C235.411 179.04 239.378 181.366 239.378 181.366" stroke="#263138" stroke-width="1.3335" stroke-miterlimit="10" stroke-linecap="round" stroke-linejoin="round"/>
<path d="M257.986 199.81L248.912 216.411C248.912 216.411 281.485 241.897 285.906 244.001C290.326 246.105 295.212 243.533 298.702 240.494C302.192 237.454 301.727 230.206 300.563 227.4C299.4 224.594 294.049 219.45 287.534 216.177C281.02 212.903 257.986 199.81 257.986 199.81H257.986Z" fill="#F2C85D" stroke="#263138" stroke-width="1.3335" stroke-miterlimit="22.9256" stroke-linejoin="round"/>
</g>
<defs>
<clipPath id="clip0_948_988">
<rect width="332" height="293" fill="white"/>
</clipPath>
</defs>
</svg>
