<svg width="21" height="20" viewBox="0 0 21 20" fill="none" xmlns="http://www.w3.org/2000/svg">
<g clip-path="url(#clip0_274_631)">
<path d="M11.168 19.9996H10.0892C9.80941 19.9678 9.52861 19.9428 9.24975 19.9017C7.8602 19.7129 6.52803 19.219 5.34613 18.4545C5.29311 18.4151 5.23125 18.3898 5.16613 18.3807C5.10102 18.3717 5.03471 18.3792 4.97319 18.4027C3.84664 18.7749 2.71719 19.1363 1.5887 19.5041C1.52695 19.5242 1.46423 19.5427 1.37642 19.5696C1.77059 18.3807 2.14836 17.2293 2.53433 16.0809C2.58644 15.9264 2.58258 15.811 2.48271 15.6706C1.66373 14.4926 1.11587 13.1433 0.879481 11.7221C0.809041 11.3079 0.775268 10.8868 0.724609 10.4691V9.41459C0.736671 9.34514 0.75018 9.27618 0.760312 9.20722C0.823515 8.77046 0.860182 8.32685 0.953298 7.89743C1.47339 5.48131 2.70561 3.50733 4.6538 2.02831C7.04537 0.213282 9.73463 -0.386344 12.6627 0.233337C15.022 0.732701 16.9407 1.98478 18.4079 3.91816C19.9913 6.0061 20.6504 8.3831 20.4029 10.9997C20.2027 13.1121 19.396 14.9795 18.0099 16.5754C16.4809 18.3361 14.5733 19.4312 12.2912 19.8421C11.9187 19.9115 11.5424 19.9487 11.168 19.9996ZM13.769 15.6354C14.0889 15.5733 14.3692 15.5532 14.6258 15.4642C16.0207 14.9795 16.4939 14.2972 16.5345 12.9913C16.5407 12.7835 16.4631 12.646 16.2783 12.557C15.5493 12.2054 14.8251 11.8434 14.0932 11.4972C13.7048 11.3137 13.4834 11.3847 13.2291 11.7319C13.0361 11.9931 12.8504 12.2567 12.6526 12.5145C12.3583 12.8965 12.1412 12.9502 11.6992 12.7678C10.0888 12.1026 8.88308 10.9655 7.97701 9.48111C7.75604 9.11967 7.76714 9.01256 8.04986 8.68878C8.22837 8.48434 8.41461 8.28577 8.58057 8.07204C8.73737 7.87102 8.88308 7.65141 8.77018 7.37654C8.43246 6.549 8.08701 5.72292 7.73337 4.90173C7.68898 4.79902 7.58477 4.67675 7.48683 4.65229C6.96914 4.52171 6.4283 4.49285 5.99601 4.84793C5.03108 5.64173 4.73003 6.70991 4.91529 7.92384C5.04556 8.77388 5.44021 9.51877 5.91689 10.2226C6.68256 11.3543 7.54762 12.3951 8.57913 13.2907C9.72643 14.2874 11.0585 14.9203 12.4934 15.3478C12.9218 15.4749 13.3657 15.5459 13.769 15.6354Z" fill="white"/>
<path d="M13.7691 15.6355C13.3658 15.546 12.9219 15.4751 12.4944 15.3475C11.0596 14.92 9.72751 14.2871 8.58021 13.2903C7.54871 12.3948 6.68365 11.3525 5.92039 10.2223C5.44371 9.51845 5.04906 8.77356 4.91879 7.92352C4.73353 6.70959 5.03651 5.64141 5.99951 4.84761C6.43373 4.49106 6.97264 4.51991 7.49033 4.65197C7.58682 4.67642 7.69248 4.7987 7.73687 4.90141C8.09051 5.72259 8.43354 6.54867 8.77368 7.37622C8.88658 7.65109 8.74087 7.87069 8.58407 8.07171C8.41714 8.28545 8.23091 8.48402 8.05336 8.68846C7.77064 9.01224 7.75954 9.11935 7.98051 9.48079C8.88658 10.9652 10.0923 12.1023 11.7027 12.7675C12.1447 12.9499 12.3618 12.8961 12.6561 12.5141C12.8539 12.2583 13.042 11.9947 13.2326 11.7316C13.4869 11.3843 13.7083 11.3134 14.0967 11.4968C14.8286 11.8431 15.5528 12.205 16.2818 12.5567C16.4666 12.6457 16.5442 12.7831 16.538 12.991C16.4975 14.2969 16.0242 14.9792 14.6293 15.4639C14.3693 15.5534 14.089 15.5734 13.7691 15.6355Z" fill="#760371"/>
</g>
<defs>
<clipPath id="clip0_274_631">
<rect width="19.726" height="20" fill="white" transform="translate(0.726074)"/>
</clipPath>
</defs>
</svg>
