<svg width="20" height="20" viewBox="0 0 20 20" fill="none" xmlns="http://www.w3.org/2000/svg">
<g clip-path="url(#clip0_274_660)">
<path d="M10.128 0.00545302C4.63273 0.0233836 0.233065 4.51025 0.275698 10.1035C0.317264 15.6515 4.79154 20.0814 10.2773 20.0044C15.6905 19.9285 20.0124 15.469 20.0007 9.96221C19.9889 4.45541 15.5434 -0.0166965 10.128 0.00545302Z" fill="white"/>
<path d="M10.128 0.00541862C15.5434 -0.0114572 19.9889 4.46803 20.0007 9.96218C20.0124 15.4563 15.6905 19.9284 10.2773 20.0044C4.79154 20.0814 0.317264 15.6514 0.275698 10.1035C0.233065 4.50494 4.63273 0.0180755 10.128 0.00541862ZM13.269 16.0122C13.3461 15.9922 13.4206 15.9632 13.4907 15.9257C14.3852 15.3628 15.1914 14.673 15.8834 13.8784C16.135 13.5852 16.1222 13.4154 15.8163 13.1833C15.012 12.5618 14.1401 12.0312 13.2168 11.6012C12.913 11.462 12.815 11.4905 12.5858 11.7426C12.3353 12.0179 12.0923 12.2995 11.8483 12.5864C11.8209 12.6299 11.7776 12.6614 11.7275 12.6744C11.6773 12.6873 11.624 12.6807 11.5786 12.656C11.0894 12.426 10.5704 12.2478 10.1174 11.9609C8.86969 11.1813 7.95136 9.97896 7.53387 8.57836C7.5089 8.52228 7.50395 8.45947 7.51983 8.40024C7.53571 8.34101 7.57148 8.28888 7.62126 8.25243C7.88558 8.02145 8.15416 7.78836 8.40569 7.54893C8.67961 7.29474 8.70413 7.20297 8.54959 6.85807C8.13133 5.9474 7.61877 5.0821 7.02014 4.27606C6.7782 3.94488 6.60874 3.92589 6.30499 4.19485C5.52193 4.89828 4.84753 5.71173 4.30339 6.60915C4.23693 6.72909 4.21363 6.86781 4.23731 7.00257C4.31054 7.41772 4.41058 7.8278 4.53681 8.23029C5.03241 9.69216 5.87653 10.942 6.88159 12.0822C8.17975 13.5504 9.67189 14.7623 11.4795 15.5354C12.0482 15.7821 12.6517 15.9411 13.269 16.0069V16.0122ZM10.565 4.82137C13.4065 5.13779 14.9487 6.71358 15.2546 9.56771H16.0465C16.0795 6.33281 13.2892 3.91112 10.5693 4.03452L10.565 4.82137ZM13.9255 9.57297C13.9628 7.43607 11.9964 6.01955 10.5682 6.19042V7.00046C11.2397 7.01142 11.8796 7.2848 12.3481 7.76093C12.8244 8.24743 13.0947 8.89567 13.1038 9.57297H13.9255Z" fill="white"/>
<path d="M13.2688 16.0067C12.6524 15.9371 12.0504 15.7745 11.4836 15.5246C9.67173 14.7515 8.1796 13.5396 6.8857 12.0714C5.87638 10.9312 5.03226 9.68138 4.54092 8.2195C4.41469 7.81702 4.31466 7.40693 4.24143 6.99178C4.21776 6.85702 4.24106 6.7183 4.30751 6.59837C4.85165 5.70095 5.52605 4.8875 6.30911 4.18406C6.61287 3.91511 6.78233 3.93409 7.02426 4.26528C7.62289 5.07132 8.13544 5.93661 8.5537 6.84729C8.70824 7.19219 8.68373 7.28395 8.40982 7.53815C8.15296 7.77757 7.8897 8.01066 7.62538 8.24165C7.57561 8.2781 7.53984 8.33022 7.52395 8.38944C7.50807 8.44867 7.51301 8.5115 7.53798 8.56757C7.95547 9.96817 8.87381 11.1705 10.1215 11.9501C10.5745 12.237 11.0935 12.4153 11.5827 12.6452C11.6281 12.67 11.6814 12.6765 11.7316 12.6636C11.7818 12.6506 11.825 12.6191 11.8524 12.5756C12.0965 12.2929 12.3395 12.0113 12.5899 11.7318C12.8191 11.4797 12.9171 11.4512 13.2209 11.5905C14.1442 12.0204 15.0161 12.5511 15.8204 13.1726C16.1263 13.4046 16.1401 13.5744 15.8876 13.8676C15.1955 14.6623 14.3893 15.352 13.4948 15.9149C13.4236 15.9545 13.3477 15.9854 13.2688 16.0067Z" fill="#2F383B"/>
<path d="M10.5645 4.81576V4.02893C13.2844 3.90552 16.0747 6.3272 16.0417 9.56209H15.2498C14.9481 6.70797 13.4059 5.13113 10.5645 4.81576Z" fill="#2F383B"/>
<path d="M13.9257 9.56742H13.1039C13.0949 8.89012 12.8245 8.24187 12.3483 7.75537C11.8797 7.27924 11.2399 7.00586 10.5684 6.99491V6.18486C11.9965 6.01715 13.963 7.43052 13.9257 9.56742Z" fill="#2F383B"/>
</g>
<defs>
<clipPath id="clip0_274_660">
<rect width="19.726" height="20" fill="white" transform="translate(0.274414)"/>
</clipPath>
</defs>
</svg>
