<svg width="305" height="294" viewBox="0 0 305 294" fill="none" xmlns="http://www.w3.org/2000/svg">
<g clip-path="url(#clip0_948_1403)">
<path d="M76.4556 278.673C76.4556 278.673 16.3585 233.178 2.18189 162.209C-11.9945 91.2397 46.2526 76.9308 80.4165 52.8795C114.58 28.8284 127.155 1.76518 176.658 0.104196C226.161 -1.55658 251.769 16.7216 269.643 52.1381C287.516 87.5546 297.06 123.924 302.678 159.417C308.296 194.911 305.534 223.262 273.758 237.404C241.983 251.546 227.237 245.342 212.143 261.628C197.048 277.913 128.159 314.776 76.4556 278.673V278.673Z" fill="#F2C85D"/>
<path d="M76.4556 278.673C76.4556 278.673 16.3585 233.178 2.18189 162.209C-11.9945 91.2397 46.2526 76.9308 80.4165 52.8795C114.58 28.8284 127.155 1.76518 176.658 0.104196C226.161 -1.55658 251.769 16.7216 269.643 52.1381C287.516 87.5546 297.06 123.924 302.678 159.417C308.296 194.911 305.534 223.262 273.758 237.404C241.983 251.546 227.237 245.342 212.143 261.628C197.048 277.913 128.159 314.776 76.4556 278.673V278.673Z" fill="white" fill-opacity="0.701961"/>
<path d="M288.089 277.548H298.363" stroke="#263138" stroke-width="1.33356" stroke-miterlimit="10" stroke-linecap="round" stroke-linejoin="round"/>
<path d="M17.5029 277.548H282.282" stroke="#263138" stroke-width="1.33356" stroke-miterlimit="10" stroke-linecap="round" stroke-linejoin="round"/>
<path d="M4.88184 277.548H13.9012" stroke="#263138" stroke-width="1.33356" stroke-miterlimit="10" stroke-linecap="round" stroke-linejoin="round"/>
<path d="M49.7321 123.7C49.7321 123.7 42.3181 119.596 41.7688 128.899C41.2196 138.203 39.8467 228.546 39.8467 228.546" stroke="#263138" stroke-width="1.33356" stroke-miterlimit="10" stroke-linecap="round" stroke-linejoin="round"/>
<path d="M37.9189 129.719C37.9189 129.719 43.9664 172.997 41.2204 227.725" stroke="#263138" stroke-width="1.33356" stroke-miterlimit="10" stroke-linecap="round" stroke-linejoin="round"/>
<path d="M43.8597 125.573C43.8597 125.573 41.0237 127.384 39.41 125.311C37.7962 123.239 40.5017 119.443 38.1171 117.819C35.7326 116.196 31.6167 118.673 31.6167 118.673C31.6167 118.673 34.7866 119.601 34.6846 121.325C34.5825 123.05 33.0555 123.701 32.8522 122.948C32.6486 122.194 31.1369 118.397 28.5629 119.976C25.9886 121.556 25.5954 124.004 25.5954 124.004C25.5954 124.004 31.587 123.368 31.9501 125.614C32.3132 127.86 29.4924 125.222 27.0206 125.077C24.5486 124.931 22.2942 125.293 22.454 126.786C22.6137 128.279 22.2207 130.728 22.2207 130.728C22.2207 130.728 24.3151 128.873 27.0345 129.033C29.7537 129.193 29.6517 130.917 27.1795 130.772C24.7075 130.627 22.584 132.974 22.584 132.974C22.584 132.974 24.8373 136.814 27.7017 138.713C30.5661 140.612 31.5985 139.931 31.9333 138.468C32.2681 137.004 31.4979 133.251 33.2284 133.352C34.9591 133.454 30.3628 139.858 32.5729 140.236C34.7834 140.613 36.5575 139.975 37.1395 138.526C37.7213 137.077 37.7213 137.077 37.7213 137.077C37.7213 137.077 36.9513 133.324 37.2859 131.86C37.6207 130.397 38.0276 131.904 38.4198 133.657C38.8122 135.411 39.0586 139.628 39.8148 139.425C40.5709 139.222 42.9854 136.151 43.5527 134.948C44.1202 133.745 40.3688 130.064 40.4128 129.325C40.4567 128.586 43.3501 129.992 43.8009 130.76C44.2514 131.528 44.6876 132.542 44.6876 132.542C44.6876 132.542 46.491 131.413 46.448 127.949C46.405 124.486 43.8599 125.572 43.8599 125.572L43.8597 125.573Z" fill="#F2C85D"/>
<path d="M43.8597 125.573C43.8597 125.573 41.0237 127.384 39.41 125.311C37.7962 123.239 40.5017 119.443 38.1171 117.819C35.7326 116.196 31.6167 118.673 31.6167 118.673C31.6167 118.673 34.7866 119.601 34.6846 121.325C34.5825 123.05 33.0555 123.701 32.8522 122.948C32.6486 122.194 31.1369 118.397 28.5629 119.976C25.9886 121.556 25.5954 124.004 25.5954 124.004C25.5954 124.004 31.587 123.368 31.9501 125.614C32.3132 127.86 29.4924 125.222 27.0206 125.077C24.5486 124.931 22.2942 125.293 22.454 126.786C22.6137 128.279 22.2207 130.728 22.2207 130.728C22.2207 130.728 24.3151 128.873 27.0345 129.033C29.7537 129.193 29.6517 130.917 27.1795 130.772C24.7075 130.627 22.584 132.974 22.584 132.974C22.584 132.974 24.8373 136.814 27.7017 138.713C30.5661 140.612 31.5985 139.931 31.9333 138.468C32.2681 137.004 31.4979 133.251 33.2284 133.352C34.9591 133.454 30.3628 139.858 32.5729 140.236C34.7834 140.613 36.5575 139.975 37.1395 138.526C37.7213 137.077 37.7213 137.077 37.7213 137.077C37.7213 137.077 36.9513 133.324 37.2859 131.86C37.6207 130.397 38.0276 131.904 38.4198 133.657C38.8122 135.411 39.0586 139.628 39.8148 139.425C40.5709 139.222 42.9854 136.151 43.5527 134.948C44.1202 133.745 40.3688 130.064 40.4128 129.325C40.4567 128.586 43.3501 129.992 43.8009 130.76C44.2514 131.528 44.6876 132.542 44.6876 132.542C44.6876 132.542 46.491 131.413 46.448 127.949C46.405 124.486 43.8599 125.572 43.8599 125.572L43.8597 125.573Z" fill="#263138" fill-opacity="0.301961"/>
<path d="M29.4824 133.694C31.3319 131.416 34.0574 128.333 36.3415 126.862" stroke="#263138" stroke-width="1.33356" stroke-miterlimit="10" stroke-linecap="round" stroke-linejoin="round"/>
<path d="M27.3389 136.468C27.3389 136.468 27.8138 135.81 28.5834 134.824" stroke="#263138" stroke-width="1.33356" stroke-miterlimit="10" stroke-linecap="round" stroke-linejoin="round"/>
<path d="M37.5488 127.427C37.5488 127.427 40.2967 131.296 40.805 135.282" stroke="#263138" stroke-width="1.33356" stroke-miterlimit="10" stroke-linecap="round" stroke-linejoin="round"/>
<path d="M34.4365 129.716C34.4365 129.716 35.2071 129.267 34.9155 134.194" stroke="#263138" stroke-width="1.33356" stroke-miterlimit="10" stroke-linecap="round" stroke-linejoin="round"/>
<path d="M36.4434 125.137C36.4434 125.137 38.0141 123.746 37.1857 120.978" stroke="#263138" stroke-width="1.33356" stroke-miterlimit="10" stroke-linecap="round" stroke-linejoin="round"/>
<path d="M34.3206 127.484L33.2012 125.441" stroke="#263138" stroke-width="1.33356" stroke-miterlimit="10" stroke-linecap="round" stroke-linejoin="round"/>
<path d="M31.9639 129.571C31.9639 129.571 28.4018 126.889 26.1768 126.758" stroke="#263138" stroke-width="1.33356" stroke-miterlimit="10" stroke-linecap="round" stroke-linejoin="round"/>
<path d="M53.9686 118.272C53.9686 118.272 53.8549 122.336 50.6727 122.533C47.4904 122.731 45.5204 117.444 42.264 118.716C39.0076 119.989 38.6912 125.784 38.6912 125.784C38.6912 125.784 41.7842 123.254 43.4471 124.531C45.1102 125.808 44.7243 127.776 43.8284 127.465C42.9328 127.155 38.0875 126.075 37.9194 129.72C37.7512 133.364 39.9439 135.426 39.9439 135.426C39.9439 135.426 43.3881 129.014 45.8925 130.183C48.3968 131.351 43.8239 132.368 41.9928 134.735C40.1618 137.103 38.989 139.598 40.5976 140.456C42.206 141.314 44.3987 143.375 44.3987 143.375C44.3987 143.375 43.9629 140.022 45.977 137.418C47.9911 134.814 49.6542 136.091 47.8232 138.458C45.992 140.826 46.9031 144.544 46.9031 144.544C46.9031 144.544 52.2975 144.914 56.1578 143.35C60.0179 141.787 60.0377 140.292 58.7953 138.961C57.553 137.629 53.2571 135.839 54.5387 134.182C55.8205 132.525 59.1221 141.476 61.0074 139.528C62.8929 137.579 63.462 135.375 62.4028 133.807C61.3437 132.238 61.3437 132.238 61.3437 132.238C61.3437 132.238 57.0478 130.448 55.8055 129.117C54.5633 127.785 56.3548 128.406 58.3838 129.21C60.4131 130.014 64.8179 132.642 65.1296 131.75C65.4413 130.857 64.001 126.354 63.1792 124.968C62.3576 123.583 56.1019 124.816 55.3894 124.269C54.6767 123.721 58.0617 121.793 59.1407 121.867C60.2198 121.941 61.5362 122.197 61.5362 122.197C61.5362 122.197 61.6302 119.628 58.1209 117.31C54.612 114.992 53.9688 118.271 53.9688 118.271L53.9686 118.272Z" fill="#F2C85D"/>
<path d="M53.9686 118.272C53.9686 118.272 53.8549 122.336 50.6727 122.533C47.4904 122.731 45.5204 117.444 42.264 118.716C39.0076 119.989 38.6912 125.784 38.6912 125.784C38.6912 125.784 41.7842 123.254 43.4471 124.531C45.1102 125.808 44.7243 127.776 43.8284 127.465C42.9328 127.155 38.0875 126.075 37.9194 129.72C37.7512 133.364 39.9439 135.426 39.9439 135.426C39.9439 135.426 43.3881 129.014 45.8925 130.183C48.3968 131.351 43.8239 132.368 41.9928 134.735C40.1618 137.103 38.989 139.598 40.5976 140.456C42.206 141.314 44.3987 143.375 44.3987 143.375C44.3987 143.375 43.9629 140.022 45.977 137.418C47.9911 134.814 49.6542 136.091 47.8232 138.458C45.992 140.826 46.9031 144.544 46.9031 144.544C46.9031 144.544 52.2975 144.914 56.1578 143.35C60.0179 141.787 60.0377 140.292 58.7953 138.961C57.553 137.629 53.2571 135.839 54.5387 134.182C55.8205 132.525 59.1221 141.476 61.0074 139.528C62.8929 137.579 63.462 135.375 62.4028 133.807C61.3437 132.238 61.3437 132.238 61.3437 132.238C61.3437 132.238 57.0478 130.448 55.8055 129.117C54.5633 127.785 56.3548 128.406 58.3838 129.21C60.4131 130.014 64.8179 132.642 65.1296 131.75C65.4413 130.857 64.001 126.354 63.1792 124.968C62.3576 123.583 56.1019 124.816 55.3894 124.269C54.6767 123.721 58.0617 121.793 59.1407 121.867C60.2198 121.941 61.5362 122.197 61.5362 122.197C61.5362 122.197 61.6302 119.628 58.1209 117.31C54.612 114.992 53.9688 118.271 53.9688 118.271L53.9686 118.272Z" fill="#263138" fill-opacity="0.2"/>
<path d="M52.3278 138.152C51.2991 134.754 50.0595 129.933 50.1383 126.651" stroke="#263138" stroke-width="1.33356" stroke-miterlimit="10" stroke-linecap="round" stroke-linejoin="round"/>
<path d="M53.6528 142.181C53.6528 142.181 53.3153 141.259 52.8496 139.819" stroke="#263138" stroke-width="1.33356" stroke-miterlimit="10" stroke-linecap="round" stroke-linejoin="round"/>
<path d="M51.5283 125.832C51.5283 125.832 57.2891 125.729 61.6394 127.938" stroke="#263138" stroke-width="1.33356" stroke-miterlimit="10" stroke-linecap="round" stroke-linejoin="round"/>
<path d="M51.707 130.498C51.707 130.498 51.781 129.423 56.5325 133.072" stroke="#263138" stroke-width="1.33356" stroke-miterlimit="10" stroke-linecap="round" stroke-linejoin="round"/>
<path d="M48.4752 125.374C48.4752 125.374 48.1484 122.859 44.8027 121.798" stroke="#263138" stroke-width="1.33356" stroke-miterlimit="10" stroke-linecap="round" stroke-linejoin="round"/>
<path d="M49.3856 129.093L46.5693 128.817" stroke="#263138" stroke-width="1.33356" stroke-miterlimit="10" stroke-linecap="round" stroke-linejoin="round"/>
<path d="M49.8764 132.865C49.8764 132.865 44.7542 134.592 43.1064 136.722" stroke="#263138" stroke-width="1.33356" stroke-miterlimit="10" stroke-linecap="round" stroke-linejoin="round"/>
<path d="M19.8018 145.318C19.8018 145.318 37.5343 159.672 35.7283 227.178" stroke="#263138" stroke-width="1.33356" stroke-miterlimit="10" stroke-linecap="round" stroke-linejoin="round"/>
<path d="M39.7766 142.498C39.7766 142.498 39.2605 147.177 35.5698 147.105C31.8791 147.034 30.1066 140.748 26.2283 141.91C22.3502 143.073 21.436 149.73 21.436 149.73C21.436 149.73 25.2449 147.101 27.0429 148.731C28.8408 150.362 28.2092 152.596 27.2047 152.153C26.2004 151.71 20.7118 150.009 20.1726 154.199C19.6334 158.388 21.9684 160.974 21.9684 160.974C21.9684 160.974 26.55 153.899 29.329 155.483C32.1082 157.067 26.7351 157.81 24.3981 160.369C22.061 162.929 20.4712 165.698 22.2461 166.84C24.021 167.981 26.3559 170.566 26.3559 170.566C26.3559 170.566 26.1707 166.655 28.7415 163.84C31.3124 161.024 33.1103 162.654 30.773 165.214C28.4359 167.774 29.1349 172.15 29.1349 172.15C29.1349 172.15 35.3249 173.084 39.9271 171.643C44.5296 170.202 44.694 168.479 43.3864 166.826C42.079 165.172 37.2915 162.703 38.9273 160.911C40.5634 159.119 43.5253 169.759 45.8855 167.688C48.2457 165.617 49.1113 163.127 48.0376 161.218C46.9639 159.308 46.9639 159.308 46.9639 159.308C46.9639 159.308 42.1763 156.839 40.8689 155.185C39.5616 153.532 41.5699 154.418 43.8353 155.536C46.1007 156.654 50.9344 160.102 51.379 159.101C51.8232 158.1 50.5875 152.769 49.7708 151.093C48.9539 149.416 41.6187 150.251 40.8481 149.552C40.0776 148.853 44.1663 146.946 45.4042 147.133C46.6422 147.32 48.1369 147.74 48.1369 147.74C48.1369 147.74 48.4888 144.783 44.6592 141.779C40.8294 138.774 39.7766 142.498 39.7766 142.498V142.498Z" fill="#F2C85D"/>
<path d="M39.7766 142.498C39.7766 142.498 39.2605 147.177 35.5698 147.105C31.8791 147.034 30.1066 140.748 26.2283 141.91C22.3502 143.073 21.436 149.73 21.436 149.73C21.436 149.73 25.2449 147.101 27.0429 148.731C28.8408 150.362 28.2092 152.596 27.2047 152.153C26.2004 151.71 20.7118 150.009 20.1726 154.199C19.6334 158.388 21.9684 160.974 21.9684 160.974C21.9684 160.974 26.55 153.899 29.329 155.483C32.1082 157.067 26.7351 157.81 24.3981 160.369C22.061 162.929 20.4712 165.698 22.2461 166.84C24.021 167.981 26.3559 170.566 26.3559 170.566C26.3559 170.566 26.1707 166.655 28.7415 163.84C31.3124 161.024 33.1103 162.654 30.773 165.214C28.4359 167.774 29.1349 172.15 29.1349 172.15C29.1349 172.15 35.3249 173.084 39.9271 171.643C44.5296 170.202 44.694 168.479 43.3864 166.826C42.079 165.172 37.2915 162.703 38.9273 160.911C40.5634 159.119 43.5253 169.759 45.8855 167.688C48.2457 165.617 49.1113 163.127 48.0376 161.218C46.9639 159.308 46.9639 159.308 46.9639 159.308C46.9639 159.308 42.1763 156.839 40.8689 155.185C39.5616 153.532 41.5699 154.418 43.8353 155.536C46.1007 156.654 50.9344 160.102 51.379 159.101C51.8232 158.1 50.5875 152.769 49.7708 151.093C48.9539 149.416 41.6187 150.251 40.8481 149.552C40.0776 148.853 44.1663 146.946 45.4042 147.133C46.6422 147.32 48.1369 147.74 48.1369 147.74C48.1369 147.74 48.4888 144.783 44.6592 141.779C40.8294 138.774 39.7766 142.498 39.7766 142.498V142.498Z" fill="#263138" fill-opacity="0.301961"/>
<path d="M36.001 165.284C35.136 161.266 34.1622 155.587 34.564 151.807" stroke="#263138" stroke-width="1.33356" stroke-miterlimit="10" stroke-linecap="round" stroke-linejoin="round"/>
<path d="M37.1484 170.058C37.1484 170.058 36.8463 168.963 36.4453 167.257" stroke="#263138" stroke-width="1.33356" stroke-miterlimit="10" stroke-linecap="round" stroke-linejoin="round"/>
<path d="M36.2461 150.993C36.2461 150.993 42.9032 151.415 47.7141 154.374" stroke="#263138" stroke-width="1.33356" stroke-miterlimit="10" stroke-linecap="round" stroke-linejoin="round"/>
<path d="M36.0098 156.394C36.0098 156.394 36.1971 155.16 41.3341 159.818" stroke="#263138" stroke-width="1.33356" stroke-miterlimit="10" stroke-linecap="round" stroke-linejoin="round"/>
<path d="M32.7664 150.177C32.7664 150.177 32.6275 147.244 28.8672 145.706" stroke="#263138" stroke-width="1.33356" stroke-miterlimit="10" stroke-linecap="round" stroke-linejoin="round"/>
<path d="M33.4646 154.554L30.2412 153.97" stroke="#263138" stroke-width="1.33356" stroke-miterlimit="10" stroke-linecap="round" stroke-linejoin="round"/>
<path d="M33.6724 158.953C33.6724 158.953 27.5983 160.464 25.4951 162.767" stroke="#263138" stroke-width="1.33356" stroke-miterlimit="10" stroke-linecap="round" stroke-linejoin="round"/>
<path d="M39.7766 188.08C39.7766 188.08 39.2605 192.759 35.5698 192.687C31.8791 192.616 30.1066 186.33 26.2283 187.492C22.3502 188.654 21.436 195.312 21.436 195.312C21.436 195.312 25.2449 192.683 27.0429 194.313C28.8408 195.943 28.2092 198.178 27.2047 197.735C26.2004 197.292 20.7118 195.591 20.1726 199.781C19.6334 203.97 21.9684 206.555 21.9684 206.555C21.9684 206.555 26.55 199.481 29.329 201.065C32.1082 202.649 26.7351 203.392 24.3981 205.951C22.061 208.511 20.4712 211.28 22.2461 212.422C24.021 213.563 26.3559 216.148 26.3559 216.148C26.3559 216.148 26.1707 212.237 28.7415 209.422C31.3124 206.606 33.1103 208.236 30.773 210.796C28.4359 213.355 29.1349 217.732 29.1349 217.732C29.1349 217.732 35.3249 218.666 39.9271 217.225C44.5296 215.784 44.694 214.061 43.3864 212.408C42.079 210.754 37.2915 208.285 38.9273 206.493C40.5634 204.702 43.5253 215.341 45.8855 213.27C48.2457 211.2 49.1113 208.709 48.0376 206.8C46.9639 204.891 46.9639 204.891 46.9639 204.891C46.9639 204.891 42.1763 202.421 40.8689 200.768C39.5616 199.114 41.5699 200 43.8353 201.118C46.1007 202.236 50.9344 205.684 51.379 204.683C51.8232 203.682 50.5875 198.351 49.7708 196.675C48.9539 194.998 41.6187 195.833 40.8481 195.134C40.0776 194.435 44.1663 192.529 45.4042 192.715C46.6422 192.902 48.1369 193.322 48.1369 193.322C48.1369 193.322 48.4888 190.366 44.6592 187.361C40.8294 184.356 39.7766 188.08 39.7766 188.08Z" fill="#F2C85D"/>
<path d="M39.7766 188.08C39.7766 188.08 39.2605 192.759 35.5698 192.687C31.8791 192.616 30.1066 186.33 26.2283 187.492C22.3502 188.654 21.436 195.312 21.436 195.312C21.436 195.312 25.2449 192.683 27.0429 194.313C28.8408 195.943 28.2092 198.178 27.2047 197.735C26.2004 197.292 20.7118 195.591 20.1726 199.781C19.6334 203.97 21.9684 206.555 21.9684 206.555C21.9684 206.555 26.55 199.481 29.329 201.065C32.1082 202.649 26.7351 203.392 24.3981 205.951C22.061 208.511 20.4712 211.28 22.2461 212.422C24.021 213.563 26.3559 216.148 26.3559 216.148C26.3559 216.148 26.1707 212.237 28.7415 209.422C31.3124 206.606 33.1103 208.236 30.773 210.796C28.4359 213.355 29.1349 217.732 29.1349 217.732C29.1349 217.732 35.3249 218.666 39.9271 217.225C44.5296 215.784 44.694 214.061 43.3864 212.408C42.079 210.754 37.2915 208.285 38.9273 206.493C40.5634 204.702 43.5253 215.341 45.8855 213.27C48.2457 211.2 49.1113 208.709 48.0376 206.8C46.9639 204.891 46.9639 204.891 46.9639 204.891C46.9639 204.891 42.1763 202.421 40.8689 200.768C39.5616 199.114 41.5699 200 43.8353 201.118C46.1007 202.236 50.9344 205.684 51.379 204.683C51.8232 203.682 50.5875 198.351 49.7708 196.675C48.9539 194.998 41.6187 195.833 40.8481 195.134C40.0776 194.435 44.1663 192.529 45.4042 192.715C46.6422 192.902 48.1369 193.322 48.1369 193.322C48.1369 193.322 48.4888 190.366 44.6592 187.361C40.8294 184.356 39.7766 188.08 39.7766 188.08Z" fill="#263138" fill-opacity="0.301961"/>
<path d="M36.001 210.866C35.136 206.848 34.1622 201.169 34.564 197.389" stroke="#263138" stroke-width="1.33356" stroke-miterlimit="10" stroke-linecap="round" stroke-linejoin="round"/>
<path d="M37.1484 215.64C37.1484 215.64 36.8463 214.544 36.4453 212.839" stroke="#263138" stroke-width="1.33356" stroke-miterlimit="10" stroke-linecap="round" stroke-linejoin="round"/>
<path d="M36.2461 196.575C36.2461 196.575 42.9032 196.997 47.7141 199.955" stroke="#263138" stroke-width="1.33356" stroke-miterlimit="10" stroke-linecap="round" stroke-linejoin="round"/>
<path d="M36.0098 201.976C36.0098 201.976 36.1971 200.742 41.3341 205.4" stroke="#263138" stroke-width="1.33356" stroke-miterlimit="10" stroke-linecap="round" stroke-linejoin="round"/>
<path d="M32.7664 195.759C32.7664 195.759 32.6275 192.826 28.8672 191.288" stroke="#263138" stroke-width="1.33356" stroke-miterlimit="10" stroke-linecap="round" stroke-linejoin="round"/>
<path d="M33.4646 200.135L30.2412 199.552" stroke="#263138" stroke-width="1.33356" stroke-miterlimit="10" stroke-linecap="round" stroke-linejoin="round"/>
<path d="M33.6724 204.535C33.6724 204.535 27.5983 206.046 25.4951 208.349" stroke="#263138" stroke-width="1.33356" stroke-miterlimit="10" stroke-linecap="round" stroke-linejoin="round"/>
<path d="M26.1172 177.881C26.1172 177.881 36.5519 215.685 37.6502 227.452" stroke="#263138" stroke-width="1.33356" stroke-miterlimit="10" stroke-linecap="round" stroke-linejoin="round"/>
<path d="M37.6507 227.451L35.4541 158.179" stroke="#263138" stroke-width="1.33356" stroke-miterlimit="10" stroke-linecap="round" stroke-linejoin="round"/>
<path d="M51.3803 172.134C37.6504 169.672 37.6504 227.452 37.6504 227.452" stroke="#263138" stroke-width="1.33356" stroke-miterlimit="10" stroke-linecap="round" stroke-linejoin="round"/>
<path d="M39.2982 227.178C39.2982 227.178 31.335 139.571 54.4011 139.571" stroke="#263138" stroke-width="1.33356" stroke-miterlimit="10" stroke-linecap="round" stroke-linejoin="round"/>
<path d="M46.1482 170.474C44.2727 168.372 40.2873 168.372 37.9433 173.745C35.599 179.118 37.7088 178.184 37.7088 178.184C37.7088 178.184 42.1628 176.782 44.976 175.848C47.7892 174.913 51.5401 172.577 51.7744 173.978C52.0089 175.38 49.8991 176.782 47.3204 177.249C44.7417 177.716 37.9433 179.585 38.6463 180.987C39.3498 182.388 40.9905 186.594 40.9905 186.594C40.9905 186.594 44.2725 183.79 47.3202 181.921C50.3677 180.052 52.2434 180.753 50.6022 182.856C48.9612 184.958 44.2725 187.294 45.2102 190.098C46.148 192.901 51.7742 196.405 51.7742 196.405C51.7742 196.405 52.4774 190.565 54.1186 188.696C55.7594 186.827 55.7594 188.93 55.2906 192.2C54.8219 195.471 54.8219 196.405 54.8219 196.405L61.386 198.741C61.386 198.741 63.7302 195.237 64.9025 194.069C66.0745 192.901 66.0745 192.901 66.0745 192.901C66.0745 192.901 60.917 188.462 60.6828 185.659C60.4481 182.856 64.1992 185.659 65.3712 186.126C66.5435 186.593 68.4189 189.864 68.4189 189.864C68.4189 189.864 69.5911 184.491 69.8254 182.622C70.0599 180.753 70.0599 180.753 70.0599 180.753C70.0599 180.753 65.137 178.884 63.2615 178.884C61.386 178.884 60.4481 180.286 60.4481 178.417C60.4481 176.548 62.3237 175.38 64.4335 175.614C66.5435 175.847 70.0599 177.015 70.0599 177.015C70.0599 177.015 71.4664 175.847 70.9976 172.343C70.5289 168.839 69.3567 168.839 66.5435 169.773C63.7305 170.708 61.8548 172.81 59.745 172.81C57.6351 172.81 58.8073 170.241 60.2138 169.54C61.6203 168.839 65.137 167.437 65.84 167.204C66.5432 166.97 62.0893 163.7 59.7448 163.232C57.4006 162.765 54.365 164.411 54.5874 166.736C55.0562 171.642 48.0235 172.577 46.148 170.474L46.1482 170.474Z" fill="#F2C85D"/>
<path d="M61.2393 194.528C61.3091 195.231 61.3591 195.936 61.3863 196.639" stroke="#263138" stroke-width="1.33356" stroke-miterlimit="10" stroke-linecap="round" stroke-linejoin="round"/>
<path d="M56.5303 177.757C58.1766 181.549 60.0807 186.777 60.9429 192.233" stroke="#263138" stroke-width="1.33356" stroke-miterlimit="10" stroke-linecap="round" stroke-linejoin="round"/>
<path d="M55.686 175.882C54.5246 173.393 53.6504 171.876 53.6504 171.876C53.6504 171.876 55.7603 170.942 56.6981 169.073C57.6358 167.204 59.0423 166.269 59.0423 166.269" stroke="#263138" stroke-width="1.33356" stroke-miterlimit="10" stroke-linecap="round" stroke-linejoin="round"/>
<path d="M45.4453 179.819C45.4453 179.819 53.8847 176.315 53.8847 177.016" stroke="#263138" stroke-width="1.33356" stroke-miterlimit="10" stroke-linecap="round" stroke-linejoin="round"/>
<path d="M58.5732 175.38C58.5732 175.38 62.3242 173.511 65.6062 173.511" stroke="#263138" stroke-width="1.33356" stroke-miterlimit="10" stroke-linecap="round" stroke-linejoin="round"/>
<path d="M57.1668 180.987C57.1668 180.987 55.0569 182.622 52.7126 185.426C50.3684 188.229 49.4307 190.799 49.4307 190.799" stroke="#263138" stroke-width="1.33356" stroke-miterlimit="10" stroke-linecap="round" stroke-linejoin="round"/>
<path d="M59.7451 181.921C59.7451 181.921 64.6681 180.52 67.2468 182.856" stroke="#263138" stroke-width="1.33356" stroke-miterlimit="10" stroke-linecap="round" stroke-linejoin="round"/>
<path d="M68.6634 150.356C66.1109 148.851 63.2883 148.818 61.9049 147.231C60.5218 145.643 63.2377 144.84 64.6909 145.44C66.1439 146.039 69.5112 147.766 70.1496 148.142C70.7877 148.518 70.346 143.022 69.1631 140.952C67.9806 138.881 64.7433 137.676 63.1267 139.368C59.7167 142.937 54.3979 138.257 54.7616 135.468C55.1255 132.678 52.5128 129.679 46.9044 131.438C41.2961 133.196 43.3872 134.171 43.3872 134.171C43.3872 134.171 47.3693 136.604 49.9216 138.108C52.4739 139.613 56.7032 140.904 55.7946 141.999C54.8861 143.094 52.4407 142.425 50.3961 140.791C48.3517 139.157 42.4785 135.266 41.8775 136.715C41.2764 138.163 39.1656 142.154 39.1656 142.154C39.1656 142.154 43.4414 142.786 46.8557 143.854C50.2698 144.922 50.9681 146.793 48.2991 146.936C45.63 147.08 40.7861 145.083 39.2764 147.627C37.7669 150.17 38.8001 156.701 38.8001 156.701C38.8001 156.701 43.6866 153.402 46.1789 153.412C48.6708 153.421 47.0775 154.799 44.2917 156.591C41.506 158.382 40.798 158.994 40.798 158.994L43.3309 165.466C43.3309 165.466 47.5231 164.932 49.1766 165.049C50.8301 165.165 50.8301 165.165 50.8301 165.165C50.8301 165.165 50.8125 158.374 52.7832 156.36C54.7538 154.346 55.0885 159.006 55.5028 160.194C55.9171 161.383 54.6682 164.938 54.6682 164.938C54.6682 164.938 59.5083 162.298 61.078 161.249C62.6481 160.2 62.6481 160.2 62.6481 160.2C62.6481 160.2 60.8367 155.27 59.6074 153.859C58.3778 152.448 56.701 152.661 58.1173 151.436C59.5337 150.21 61.6481 150.856 62.8543 152.597C64.0603 154.338 65.4806 157.75 65.4806 157.75C65.4806 157.75 67.2878 158.042 69.6356 155.392C71.9837 152.742 71.2153 151.86 68.663 150.356H68.6634ZM46.4775 157.833C44.6022 156.899 49.0564 155.03 49.0564 155.03C50.6972 154.796 48.3529 158.768 46.4775 157.833ZM49.6357 149.112C48.8364 148.713 51.2347 147.917 51.2347 147.917C54.6992 148.581 50.4354 149.51 49.6357 149.112Z" fill="#F2C85D"/>
<path d="M46.4272 162.592C45.9398 163.106 45.4387 163.606 44.9238 164.087" stroke="#263138" stroke-width="1.33356" stroke-miterlimit="10" stroke-linecap="round" stroke-linejoin="round"/>
<path d="M56.0484 148.054C54.2542 151.779 51.5408 156.639 47.9717 160.864" stroke="#263138" stroke-width="1.33356" stroke-miterlimit="10" stroke-linecap="round" stroke-linejoin="round"/>
<path d="M56.916 146.189C58.0405 143.684 58.6172 142.031 58.6172 142.031C58.6172 142.031 60.7085 143.007 62.7394 142.487C64.7703 141.968 66.4005 142.413 66.4005 142.413" stroke="#263138" stroke-width="1.33356" stroke-miterlimit="10" stroke-linecap="round" stroke-linejoin="round"/>
<path d="M47.2197 141.064C47.2197 141.064 55.4076 145.118 54.8766 145.577" stroke="#263138" stroke-width="1.33356" stroke-miterlimit="10" stroke-linecap="round" stroke-linejoin="round"/>
<path d="M59.1895 148.033C59.1895 148.033 63.0645 149.631 65.216 152.1" stroke="#263138" stroke-width="1.33356" stroke-miterlimit="10" stroke-linecap="round" stroke-linejoin="round"/>
<path d="M54.0183 150.65C54.0183 150.65 51.3957 150.135 47.7349 150.208C44.0736 150.282 41.5117 151.261 41.5117 151.261" stroke="#263138" stroke-width="1.33356" stroke-miterlimit="10" stroke-linecap="round" stroke-linejoin="round"/>
<path d="M55.001 153.204C55.001 153.204 59.2905 155.989 59.2106 159.461" stroke="#263138" stroke-width="1.33356" stroke-miterlimit="10" stroke-linecap="round" stroke-linejoin="round"/>
<path d="M32.2355 182.726C30.1815 181.515 27.9099 181.489 26.7969 180.211C25.6837 178.933 27.8692 178.287 29.0387 178.769C30.2081 179.251 32.9181 180.641 33.4317 180.944C33.9451 181.247 33.5898 176.824 32.6379 175.158C31.6861 173.492 29.0809 172.522 27.7801 173.883C25.0357 176.755 20.7556 172.989 21.0482 170.744C21.3411 168.499 19.2385 166.086 14.7251 167.501C10.2118 168.916 11.8947 169.701 11.8947 169.701C11.8947 169.701 15.0993 171.659 17.1531 172.869C19.2072 174.08 22.6106 175.119 21.8797 176C21.1486 176.882 19.1807 176.343 17.5353 175.028C15.89 173.713 11.1636 170.582 10.6799 171.748C10.1962 172.913 8.49766 176.125 8.49766 176.125C8.49766 176.125 11.9385 176.634 14.6862 177.493C17.4337 178.353 17.9956 179.858 15.8478 179.974C13.6999 180.089 9.80176 178.482 8.58695 180.529C7.37193 182.576 8.20337 187.832 8.20337 187.832C8.20337 187.832 12.136 185.177 14.1415 185.184C16.1468 185.192 14.8646 186.301 12.623 187.743C10.3809 189.184 9.81118 189.677 9.81118 189.677L11.8495 194.885C11.8495 194.885 15.2234 194.456 16.5539 194.549C17.8846 194.643 17.8846 194.643 17.8846 194.643C17.8846 194.643 17.8705 189.178 19.4564 187.557C21.0423 185.936 21.3116 189.687 21.645 190.643C21.9786 191.599 20.9735 194.46 20.9735 194.46C20.9735 194.46 24.8686 192.336 26.1319 191.492C27.3953 190.648 27.3953 190.648 27.3953 190.648C27.3953 190.648 25.9378 186.68 24.9483 185.545C23.9589 184.409 22.6096 184.581 23.749 183.595C24.8887 182.609 26.5905 183.128 27.5612 184.529C28.5317 185.93 29.6746 188.676 29.6746 188.676C29.6746 188.676 31.1288 188.911 33.0184 186.779C34.908 184.646 34.2896 183.936 32.2355 182.726ZM14.3815 188.743C12.8724 187.991 16.4568 186.487 16.4568 186.487C17.7773 186.299 15.8908 189.495 14.3815 188.743ZM16.9229 181.725C16.2797 181.404 18.2098 180.763 18.2098 180.763C20.9979 181.297 17.5664 182.045 16.9229 181.725Z" fill="#F2C85D"/>
<path d="M14.3408 192.573C13.9488 192.987 13.5454 193.388 13.1309 193.776" stroke="#263138" stroke-width="1.33356" stroke-miterlimit="10" stroke-linecap="round" stroke-linejoin="round"/>
<path d="M22.0836 180.874C20.6398 183.871 18.4562 187.782 15.584 191.183" stroke="#263138" stroke-width="1.33356" stroke-miterlimit="10" stroke-linecap="round" stroke-linejoin="round"/>
<path d="M22.7812 179.373C23.6864 177.356 24.1505 176.027 24.1505 176.027C24.1505 176.027 25.8334 176.812 27.4679 176.393C29.1023 175.975 30.4142 176.334 30.4142 176.334" stroke="#263138" stroke-width="1.33356" stroke-miterlimit="10" stroke-linecap="round" stroke-linejoin="round"/>
<path d="M14.9785 175.249C14.9785 175.249 21.5678 178.511 21.1404 178.88" stroke="#263138" stroke-width="1.33356" stroke-miterlimit="10" stroke-linecap="round" stroke-linejoin="round"/>
<path d="M24.6113 180.857C24.6113 180.857 27.7299 182.142 29.4614 184.13" stroke="#263138" stroke-width="1.33356" stroke-miterlimit="10" stroke-linecap="round" stroke-linejoin="round"/>
<path d="M20.4496 182.963C20.4496 182.963 18.3394 182.548 15.3929 182.607C12.4466 182.667 10.3848 183.454 10.3848 183.454" stroke="#263138" stroke-width="1.33356" stroke-miterlimit="10" stroke-linecap="round" stroke-linejoin="round"/>
<path d="M21.2402 185.018C21.2402 185.018 24.6924 187.26 24.6283 190.054" stroke="#263138" stroke-width="1.33356" stroke-miterlimit="10" stroke-linecap="round" stroke-linejoin="round"/>
<path d="M52.1064 207.945C50.0524 206.734 47.7809 206.708 46.6678 205.43C45.5548 204.153 47.7401 203.507 48.9097 203.989C50.0792 204.471 52.789 205.861 53.3026 206.163C53.816 206.466 53.4607 202.043 52.5088 200.377C51.557 198.711 48.9521 197.741 47.651 199.103C44.9066 201.975 40.6265 198.209 40.9194 195.964C41.2122 193.719 39.1094 191.305 34.596 192.72C30.0827 194.135 31.7656 194.92 31.7656 194.92C31.7656 194.92 34.9702 196.878 37.0242 198.089C39.0783 199.299 42.4817 200.338 41.7506 201.22C41.0195 202.101 39.0517 201.563 37.4062 200.248C35.7609 198.932 31.0345 195.801 30.5508 196.967C30.0671 198.132 28.3686 201.345 28.3686 201.345C28.3686 201.345 31.8097 201.853 34.5571 202.713C37.3048 203.572 37.8665 205.078 35.7189 205.193C33.5711 205.309 29.6727 203.702 28.4579 205.749C27.2433 207.796 28.0743 213.051 28.0743 213.051C28.0743 213.051 32.0069 210.396 34.0124 210.404C36.0177 210.412 34.7357 211.521 32.4939 212.963C30.252 214.404 29.6823 214.897 29.6823 214.897L31.7208 220.104C31.7208 220.104 35.0945 219.675 36.425 219.769C37.7558 219.863 37.7558 219.863 37.7558 219.863C37.7558 219.863 37.7416 214.398 39.3275 212.777C40.9134 211.156 41.1827 214.906 41.5163 215.863C41.8499 216.819 40.8446 219.68 40.8446 219.68C40.8446 219.68 44.7397 217.555 46.0031 216.711C47.2664 215.867 47.2664 215.867 47.2664 215.867C47.2664 215.867 45.8089 211.9 44.8194 210.764C43.8302 209.629 42.4807 209.8 43.6203 208.814C44.76 207.829 46.4616 208.348 47.4323 209.749C48.4028 211.15 49.5457 213.895 49.5457 213.895C49.5457 213.895 51.0002 214.131 52.8896 211.998C54.779 209.866 54.1607 209.156 52.1066 207.945L52.1064 207.945ZM34.2526 213.963C32.7433 213.211 36.3278 211.707 36.3278 211.707C37.6484 211.519 35.7619 214.715 34.2526 213.963ZM36.7941 206.944C36.1506 206.623 38.0808 205.982 38.0808 205.982C40.8688 206.517 37.4373 207.265 36.7941 206.944Z" fill="#F2C85D"/>
<path d="M34.2119 217.792C33.8197 218.206 33.4162 218.608 33.002 218.995" stroke="#263138" stroke-width="1.33356" stroke-miterlimit="10" stroke-linecap="round" stroke-linejoin="round"/>
<path d="M41.9549 206.093C40.5109 209.09 38.3273 213.001 35.4551 216.402" stroke="#263138" stroke-width="1.33356" stroke-miterlimit="10" stroke-linecap="round" stroke-linejoin="round"/>
<path d="M42.6523 204.592C43.5575 202.576 44.0216 201.246 44.0216 201.246C44.0216 201.246 45.7045 202.031 47.339 201.613C48.9734 201.195 50.2853 201.553 50.2853 201.553" stroke="#263138" stroke-width="1.33356" stroke-miterlimit="10" stroke-linecap="round" stroke-linejoin="round"/>
<path d="M34.8496 200.468C34.8496 200.468 41.4389 203.73 41.0115 204.1" stroke="#263138" stroke-width="1.33356" stroke-miterlimit="10" stroke-linecap="round" stroke-linejoin="round"/>
<path d="M44.4824 206.076C44.4824 206.076 47.601 207.362 49.3325 209.349" stroke="#263138" stroke-width="1.33356" stroke-miterlimit="10" stroke-linecap="round" stroke-linejoin="round"/>
<path d="M40.3215 208.182C40.3215 208.182 38.2113 207.767 35.265 207.827C32.3187 207.886 30.2568 208.674 30.2568 208.674" stroke="#263138" stroke-width="1.33356" stroke-miterlimit="10" stroke-linecap="round" stroke-linejoin="round"/>
<path d="M41.1113 210.237C41.1113 210.237 44.5635 212.479 44.4994 215.273" stroke="#263138" stroke-width="1.33356" stroke-miterlimit="10" stroke-linecap="round" stroke-linejoin="round"/>
<path d="M23.8601 144.149C23.8601 144.149 21.2814 146.018 19.6404 144.149C17.9994 142.28 20.3436 138.543 17.9994 137.141C15.6552 135.739 11.9042 138.309 11.9042 138.309C11.9042 138.309 14.9519 139.01 14.9519 140.645C14.9519 142.28 13.5454 142.981 13.3109 142.28C13.0764 141.579 11.4355 138.075 9.09122 139.71C6.74699 141.346 6.5125 143.682 6.5125 143.682C6.5125 143.682 12.1387 142.747 12.6077 144.85C13.0764 146.952 10.2634 144.616 7.91921 144.616C5.57497 144.616 3.46502 145.083 3.6995 146.485C3.93399 147.887 3.6995 150.223 3.6995 150.223C3.6995 150.223 5.57497 148.354 8.15369 148.354C10.7324 148.354 10.7324 149.989 8.38818 149.989C6.04394 149.989 4.16847 152.325 4.16847 152.325C4.16847 152.325 6.51271 155.829 9.32591 157.465C12.1389 159.1 13.0766 158.399 13.3111 156.998C13.5456 155.596 12.6079 152.092 14.2489 152.092C15.8901 152.092 11.9046 158.399 14.0144 158.633C16.1243 158.867 17.7653 158.166 18.2341 156.764C18.7028 155.362 18.7028 155.362 18.7028 155.362C18.7028 155.362 17.7651 151.858 17.9996 150.457C18.2341 149.055 18.7028 150.457 19.1718 152.092C19.6406 153.727 20.1096 157.698 20.8128 157.465C21.5161 157.231 23.626 154.194 24.0948 153.026C24.5635 151.858 20.8128 148.588 20.8128 147.887C20.8128 147.186 23.626 148.354 24.0948 149.055C24.5635 149.756 25.0325 150.69 25.0325 150.69C25.0325 150.69 26.6735 149.522 26.439 146.252C26.2045 142.981 23.8605 144.149 23.8605 144.149H23.8601Z" fill="#F2C85D"/>
<path d="M10.7275 152.622C12.3478 150.366 14.7508 147.302 16.8272 145.784" stroke="#263138" stroke-width="1.33356" stroke-miterlimit="10" stroke-linecap="round" stroke-linejoin="round"/>
<path d="M8.85645 155.362C8.85645 155.362 9.26828 154.714 9.94061 153.74" stroke="#263138" stroke-width="1.33356" stroke-miterlimit="10" stroke-linecap="round" stroke-linejoin="round"/>
<path d="M17.999 146.251C17.999 146.251 20.8122 149.756 21.5155 153.493" stroke="#263138" stroke-width="1.33356" stroke-miterlimit="10" stroke-linecap="round" stroke-linejoin="round"/>
<path d="M15.1865 148.587C15.1865 148.587 15.89 148.12 15.89 152.792" stroke="#263138" stroke-width="1.33356" stroke-miterlimit="10" stroke-linecap="round" stroke-linejoin="round"/>
<path d="M16.8271 144.149C16.8271 144.149 18.2336 142.747 17.2959 140.177" stroke="#263138" stroke-width="1.33356" stroke-miterlimit="10" stroke-linecap="round" stroke-linejoin="round"/>
<path d="M14.9515 146.485L13.7793 144.616" stroke="#263138" stroke-width="1.33356" stroke-miterlimit="10" stroke-linecap="round" stroke-linejoin="round"/>
<path d="M12.8422 148.588C12.8422 148.588 9.32577 146.251 7.21582 146.251" stroke="#263138" stroke-width="1.33356" stroke-miterlimit="10" stroke-linecap="round" stroke-linejoin="round"/>
<path d="M47.5362 277.548H29.4131L31.6783 226.583H45.2708L47.5362 277.548Z" fill="#263138" stroke="#263138" stroke-width="2.66669" stroke-miterlimit="22.9256" stroke-linejoin="round"/>
<path d="M57.7009 91.848H15.6025V35.9124H57.7009V91.848Z" stroke="#263138" stroke-width="1.33356" stroke-miterlimit="10" stroke-linecap="round" stroke-linejoin="round"/>
<path d="M55.4318 88.8327H17.8721V38.9275H55.4318V88.8327Z" stroke="#263138" stroke-width="1.33356" stroke-miterlimit="10" stroke-linecap="round" stroke-linejoin="round"/>
<path d="M45.1796 75.2108H28.124V52.5493H45.1796V75.2108Z" stroke="#263138" stroke-width="1.33356" stroke-miterlimit="10" stroke-linecap="round" stroke-linejoin="round"/>
<path d="M73.71 59.626V41.0469H98.5686V59.626H73.71Z" stroke="#263138" stroke-width="1.33356" stroke-miterlimit="10" stroke-linecap="round" stroke-linejoin="round"/>
<path d="M75.0498 58.6247V42.0486H97.2284V58.6247H75.0498Z" stroke="#263138" stroke-width="1.33356" stroke-miterlimit="10" stroke-linecap="round" stroke-linejoin="round"/>
<path d="M81.1035 54.0997V46.5728H91.1747V54.0997H81.1035Z" stroke="#263138" stroke-width="1.33356" stroke-miterlimit="10" stroke-linecap="round" stroke-linejoin="round"/>
<path d="M92.3541 92.0577H73.71V67.2856H92.3541V92.0577Z" stroke="#263138" stroke-width="1.33356" stroke-miterlimit="10" stroke-linecap="round" stroke-linejoin="round"/>
<path d="M91.3487 90.7224H74.7148V68.6211H91.3487V90.7224Z" stroke="#263138" stroke-width="1.33356" stroke-miterlimit="10" stroke-linecap="round" stroke-linejoin="round"/>
<path d="M86.8084 84.6897H79.2549V74.6536H86.8084V84.6897Z" stroke="#263138" stroke-width="1.33356" stroke-miterlimit="10" stroke-linecap="round" stroke-linejoin="round"/>
<path d="M278.832 88.0848H136.921V0.820068H278.832V88.0848Z" fill="white" stroke="#263138" stroke-width="1.33356" stroke-miterlimit="22.9256" stroke-linejoin="round"/>
<path d="M162.406 58.2034H158.916V70.2664H162.406V58.2034Z" fill="#F2C85D" stroke="#263138" stroke-width="1.33356" stroke-miterlimit="22.9256" stroke-linejoin="round"/>
<path d="M168.415 55.6653H164.926V70.2662H168.415V55.6653Z" fill="#F2C85D" stroke="#263138" stroke-width="1.33356" stroke-miterlimit="22.9256" stroke-linejoin="round"/>
<path d="M174.425 52.8411H170.936V70.2662H174.425V52.8411Z" fill="#F2C85D" stroke="#263138" stroke-width="1.33356" stroke-miterlimit="22.9256" stroke-linejoin="round"/>
<path d="M180.435 51.0312H176.945V70.2663H180.435V51.0312Z" fill="#F2C85D" stroke="#263138" stroke-width="1.33356" stroke-miterlimit="22.9256" stroke-linejoin="round"/>
<path d="M186.445 56.7688H182.955V70.2662H186.445V56.7688Z" fill="#F2C85D" stroke="#263138" stroke-width="1.33356" stroke-miterlimit="22.9256" stroke-linejoin="round"/>
<path d="M192.454 46.9485H188.965V70.2663H192.454V46.9485Z" fill="#F2C85D" stroke="#263138" stroke-width="1.33356" stroke-miterlimit="22.9256" stroke-linejoin="round"/>
<path d="M198.464 51.6931H194.975V70.2664H198.464V51.6931Z" fill="#F2C85D" stroke="#263138" stroke-width="1.33356" stroke-miterlimit="22.9256" stroke-linejoin="round"/>
<path d="M204.475 51.0312H200.985V70.2663H204.475V51.0312Z" fill="#F2C85D" stroke="#263138" stroke-width="1.33356" stroke-miterlimit="22.9256" stroke-linejoin="round"/>
<path d="M210.485 47.6104H206.995V70.2662H210.485V47.6104Z" fill="#F2C85D" stroke="#263138" stroke-width="1.33356" stroke-miterlimit="22.9256" stroke-linejoin="round"/>
<path d="M216.494 48.4932H213.005V70.2661H216.494V48.4932Z" fill="#F2C85D" stroke="#263138" stroke-width="1.33356" stroke-miterlimit="22.9256" stroke-linejoin="round"/>
<path d="M222.504 47.3899H219.015V70.2663H222.504V47.3899Z" fill="#F2C85D" stroke="#263138" stroke-width="1.33356" stroke-miterlimit="22.9256" stroke-linejoin="round"/>
<path d="M228.514 46.6174H225.024V70.2663H228.514V46.6174Z" fill="#F2C85D" stroke="#263138" stroke-width="1.33356" stroke-miterlimit="22.9256" stroke-linejoin="round"/>
<path d="M234.524 55.3345H231.034V70.2662H234.524V55.3345Z" fill="#F2C85D" stroke="#263138" stroke-width="1.33356" stroke-miterlimit="22.9256" stroke-linejoin="round"/>
<path d="M240.535 57.6516H237.045V70.2662H240.535V57.6516Z" fill="#F2C85D" stroke="#263138" stroke-width="1.33356" stroke-miterlimit="22.9256" stroke-linejoin="round"/>
<path d="M246.544 58.0928H243.055V70.2662H246.544V58.0928Z" fill="#F2C85D" stroke="#263138" stroke-width="1.33356" stroke-miterlimit="22.9256" stroke-linejoin="round"/>
<path d="M152.821 70.3596H147.596" stroke="#263138" stroke-width="1.33356" stroke-miterlimit="10" stroke-linecap="round" stroke-linejoin="round"/>
<path d="M152.821 64.4138H147.596" stroke="#263138" stroke-width="1.33356" stroke-miterlimit="10" stroke-linecap="round" stroke-linejoin="round"/>
<path d="M152.821 58.468H147.596" stroke="#263138" stroke-width="1.33356" stroke-miterlimit="10" stroke-linecap="round" stroke-linejoin="round"/>
<path d="M152.821 52.522H147.596" stroke="#263138" stroke-width="1.33356" stroke-miterlimit="10" stroke-linecap="round" stroke-linejoin="round"/>
<path d="M152.821 46.5762H147.596" stroke="#263138" stroke-width="1.33356" stroke-miterlimit="10" stroke-linecap="round" stroke-linejoin="round"/>
<path d="M161.616 17.3075C161.616 12.8027 157.795 9.18709 153.207 9.50259C149.382 9.76565 146.264 12.8223 145.942 16.63C145.759 18.7967 146.463 20.7972 147.732 22.3129C148.888 23.6943 149.52 25.4369 149.52 27.2361V28.3081H158.009V27.2359C158.009 25.439 158.637 23.6963 159.794 22.3172C160.931 20.9605 161.616 19.214 161.616 17.3075H161.616Z" fill="#F2C85D" stroke="#263138" stroke-width="1.33356" stroke-miterlimit="22.9256" stroke-linejoin="round"/>
<path d="M158.009 30.4025H149.521V28.3101H158.009V30.4025Z" fill="white" stroke="#263138" stroke-width="1.00017" stroke-miterlimit="22.9256" stroke-linejoin="round"/>
<path d="M156.422 32.4999H151.107C150.231 32.4999 149.521 31.7921 149.521 30.9191V30.4075H158.009V30.9191C158.009 31.7921 157.298 32.4999 156.422 32.4999Z" fill="white" stroke="#263138" stroke-width="1.00017" stroke-miterlimit="22.9256" stroke-linejoin="round"/>
<path d="M155.351 34.5895H152.178C151.302 34.5895 150.592 33.8818 150.592 33.0087V32.4973H156.938V33.0087C156.938 33.8818 156.228 34.5895 155.351 34.5895H155.351Z" fill="white" stroke="#263138" stroke-width="1.00017" stroke-miterlimit="22.9256" stroke-linejoin="round"/>
<path d="M162.73 17.3484H166.327" stroke="#263138" stroke-width="1.00017" stroke-miterlimit="10" stroke-linecap="round" stroke-linejoin="round"/>
<path d="M140.865 17.3484H144.508" stroke="#263138" stroke-width="1.00017" stroke-miterlimit="10" stroke-linecap="round" stroke-linejoin="round"/>
<path d="M153.597 8.25582V4.66162" stroke="#263138" stroke-width="1.00017" stroke-miterlimit="10" stroke-linecap="round" stroke-linejoin="round"/>
<path d="M160.115 10.8517L162.598 8.37769" stroke="#263138" stroke-width="1.00017" stroke-miterlimit="10" stroke-linecap="round" stroke-linejoin="round"/>
<path d="M144.594 26.3192L147.113 23.8088" stroke="#263138" stroke-width="1.00017" stroke-miterlimit="10" stroke-linecap="round" stroke-linejoin="round"/>
<path d="M147.005 10.7803L144.594 8.37769" stroke="#263138" stroke-width="1.00017" stroke-miterlimit="10" stroke-linecap="round" stroke-linejoin="round"/>
<path d="M162.598 26.3194L160.197 23.9268" stroke="#263138" stroke-width="1.00017" stroke-miterlimit="10" stroke-linecap="round" stroke-linejoin="round"/>
<path d="M215.604 16.4919V9.10718H270.616V35.7519H253.299" stroke="#263138" stroke-width="1.33356" stroke-miterlimit="10" stroke-linecap="round" stroke-linejoin="round"/>
<path d="M248.371 35.7519H215.604V20.4207" stroke="#263138" stroke-width="1.33356" stroke-miterlimit="10" stroke-linecap="round" stroke-linejoin="round"/>
<path d="M218.984 15.5388H234.044" stroke="#263138" stroke-width="1.33356" stroke-miterlimit="10" stroke-linecap="round" stroke-linejoin="round"/>
<path d="M251.562 15.5388H266.621" stroke="#263138" stroke-width="1.33356" stroke-miterlimit="10" stroke-linecap="round" stroke-linejoin="round"/>
<path d="M218.984 18.6013H234.044" stroke="#263138" stroke-width="1.33356" stroke-miterlimit="10" stroke-linecap="round" stroke-linejoin="round"/>
<path d="M251.562 18.6013H266.621" stroke="#263138" stroke-width="1.33356" stroke-miterlimit="10" stroke-linecap="round" stroke-linejoin="round"/>
<path d="M218.984 21.6638H234.044" stroke="#263138" stroke-width="1.33356" stroke-miterlimit="10" stroke-linecap="round" stroke-linejoin="round"/>
<path d="M225.171 24.7266H234.043" stroke="#263138" stroke-width="1.33356" stroke-miterlimit="10" stroke-linecap="round" stroke-linejoin="round"/>
<path d="M218.984 24.7266H223.37" stroke="#263138" stroke-width="1.33356" stroke-miterlimit="10" stroke-linecap="round" stroke-linejoin="round"/>
<path d="M218.984 27.7893H234.044" stroke="#263138" stroke-width="1.33356" stroke-miterlimit="10" stroke-linecap="round" stroke-linejoin="round"/>
<path d="M251.562 27.7893H266.621" stroke="#263138" stroke-width="1.33356" stroke-miterlimit="10" stroke-linecap="round" stroke-linejoin="round"/>
<path d="M230.349 30.8518H234.044" stroke="#263138" stroke-width="1.33356" stroke-miterlimit="10" stroke-linecap="round" stroke-linejoin="round"/>
<path d="M218.984 30.8518H228.097" stroke="#263138" stroke-width="1.33356" stroke-miterlimit="10" stroke-linecap="round" stroke-linejoin="round"/>
<path d="M263.213 23.8076H267.85" stroke="#263138" stroke-width="1.33356" stroke-miterlimit="10" stroke-linecap="round" stroke-linejoin="round"/>
<path d="M245.723 23.8076H260.287" stroke="#263138" stroke-width="1.33356" stroke-miterlimit="10" stroke-linecap="round" stroke-linejoin="round"/>
<path d="M255.558 47.0837H269.08" stroke="#263138" stroke-width="1.33356" stroke-miterlimit="10" stroke-linecap="round" stroke-linejoin="round"/>
<path d="M255.558 52.9026H269.08" stroke="#263138" stroke-width="1.33356" stroke-miterlimit="10" stroke-linecap="round" stroke-linejoin="round"/>
<path d="M255.558 58.7217H269.08" stroke="#263138" stroke-width="1.33356" stroke-miterlimit="10" stroke-linecap="round" stroke-linejoin="round"/>
<path d="M265.455 64.5405H269.08" stroke="#263138" stroke-width="1.33356" stroke-miterlimit="10" stroke-linecap="round" stroke-linejoin="round"/>
<path d="M255.558 64.5405H262.827" stroke="#263138" stroke-width="1.33356" stroke-miterlimit="10" stroke-linecap="round" stroke-linejoin="round"/>
<path d="M255.558 70.3596H269.08" stroke="#263138" stroke-width="1.33356" stroke-miterlimit="10" stroke-linecap="round" stroke-linejoin="round"/>
<path d="M282.901 168.522L141.72 182.842L132.852 96.0263L274.033 81.7058L282.901 168.522Z" fill="white" stroke="#263138" stroke-width="1.33356" stroke-miterlimit="22.9256" stroke-linejoin="round"/>
<path d="M157.353 113.662C157.74 117.445 154.975 120.825 151.179 121.209C147.383 121.595 143.991 118.84 143.605 115.057C143.219 111.273 149.134 101.186 149.134 101.186C149.134 101.186 156.967 109.879 157.353 113.662Z" fill="#F2C85D" stroke="#263138" stroke-width="1.33356" stroke-miterlimit="22.9256" stroke-linejoin="round"/>
<path d="M151.712 107.399C153.348 109.51 155.157 112.155 155.316 113.712C155.39 114.435 155.313 115.139 155.111 115.793" stroke="#263138" stroke-width="1.33356" stroke-miterlimit="10" stroke-linecap="round" stroke-linejoin="round"/>
<path d="M153.442 118.291C152.661 118.941 151.683 119.373 150.594 119.484C149.868 119.557 149.162 119.481 148.506 119.28" stroke="#263138" stroke-width="1.33356" stroke-miterlimit="10" stroke-linecap="round" stroke-linejoin="round"/>
<path d="M161.862 112.222C162.112 114.672 160.322 116.859 157.864 117.109C155.407 117.358 153.211 115.574 152.961 113.125C152.711 110.676 156.54 104.145 156.54 104.145C156.54 104.145 161.611 109.773 161.862 112.222H161.862Z" fill="#F2C85D" stroke="#263138" stroke-width="1.33356" stroke-miterlimit="22.9256" stroke-linejoin="round"/>
<path d="M158.209 108.168C159.269 109.534 160.44 111.247 160.543 112.255C160.59 112.723 160.541 113.178 160.41 113.602" stroke="#263138" stroke-width="1.33356" stroke-miterlimit="10" stroke-linecap="round" stroke-linejoin="round"/>
<path d="M159.329 115.219C158.824 115.64 158.19 115.92 157.486 115.991C157.016 116.039 156.559 115.989 156.134 115.859" stroke="#263138" stroke-width="1.33356" stroke-miterlimit="10" stroke-linecap="round" stroke-linejoin="round"/>
<path d="M217.608 129.71L271.537 124.24L269.141 100.79L215.213 106.26L217.608 129.71Z" stroke="#263138" stroke-width="1.33356" stroke-miterlimit="10" stroke-linecap="round" stroke-linejoin="round"/>
<path d="M215.772 111.738L269.701 106.268L269.141 100.79L215.213 106.26L215.772 111.738Z" fill="#F2C85D" stroke="#263138" stroke-width="1.33356" stroke-miterlimit="22.9256" stroke-linejoin="round"/>
<path d="M274.597 154.204L148.031 167.043L145.17 139.032L271.736 126.194L274.597 154.204Z" stroke="#263138" stroke-width="1.33356" stroke-miterlimit="10" stroke-linecap="round" stroke-linejoin="round"/>
<path d="M272.353 132.239L145.787 145.077L145.17 139.032L271.736 126.194L272.353 132.239Z" fill="#F2C85D" stroke="#263138" stroke-width="1.33356" stroke-miterlimit="22.9256" stroke-linejoin="round"/>
<path d="M154.603 127.216L177.163 124.928" stroke="#263138" stroke-width="1.33356" stroke-miterlimit="10" stroke-linecap="round" stroke-linejoin="round"/>
<path d="M144.806 128.21L152.139 127.466" stroke="#263138" stroke-width="1.33356" stroke-miterlimit="10" stroke-linecap="round" stroke-linejoin="round"/>
<path d="M170.554 130.534L177.662 129.813" stroke="#263138" stroke-width="1.33356" stroke-miterlimit="10" stroke-linecap="round" stroke-linejoin="round"/>
<path d="M145.305 133.095L167.418 130.852" stroke="#263138" stroke-width="1.33356" stroke-miterlimit="10" stroke-linecap="round" stroke-linejoin="round"/>
<path d="M150.763 150.97L173.315 148.682" stroke="#263138" stroke-width="1.33356" stroke-miterlimit="10" stroke-linecap="round" stroke-linejoin="round"/>
<path d="M191.291 146.859L213.843 144.572" stroke="#263138" stroke-width="1.33356" stroke-miterlimit="10" stroke-linecap="round" stroke-linejoin="round"/>
<path d="M231.818 142.748L254.37 140.461" stroke="#263138" stroke-width="1.33356" stroke-miterlimit="10" stroke-linecap="round" stroke-linejoin="round"/>
<path d="M243.731 113.897L266.283 111.61" stroke="#263138" stroke-width="1.33356" stroke-miterlimit="10" stroke-linecap="round" stroke-linejoin="round"/>
<path d="M255.925 117.926L266.816 116.821" stroke="#263138" stroke-width="1.33356" stroke-miterlimit="10" stroke-linecap="round" stroke-linejoin="round"/>
<path d="M244.264 119.109L253.909 118.13" stroke="#263138" stroke-width="1.33356" stroke-miterlimit="10" stroke-linecap="round" stroke-linejoin="round"/>
<path d="M151.628 159.438L174.18 157.151" stroke="#263138" stroke-width="1.33356" stroke-miterlimit="10" stroke-linecap="round" stroke-linejoin="round"/>
<path d="M192.155 155.327L214.707 153.04" stroke="#263138" stroke-width="1.33356" stroke-miterlimit="10" stroke-linecap="round" stroke-linejoin="round"/>
<path d="M250.317 149.427L255.235 148.929" stroke="#263138" stroke-width="1.33356" stroke-miterlimit="10" stroke-linecap="round" stroke-linejoin="round"/>
<path d="M232.684 151.216L246.063 149.859" stroke="#263138" stroke-width="1.33356" stroke-miterlimit="10" stroke-linecap="round" stroke-linejoin="round"/>
<path d="M274.021 275.101L132.843 260.745L141.732 173.931L282.911 188.287L274.021 275.101Z" fill="white" stroke="#263138" stroke-width="1.33356" stroke-miterlimit="22.9256" stroke-linejoin="round"/>
<path d="M146.949 207.617L179.305 210.907" stroke="#263138" stroke-width="1.33356" stroke-miterlimit="10" stroke-linecap="round" stroke-linejoin="round"/>
<path d="M170.354 214.933L178.805 215.793" stroke="#263138" stroke-width="1.33356" stroke-miterlimit="10" stroke-linecap="round" stroke-linejoin="round"/>
<path d="M146.449 212.502L166.323 214.523" stroke="#263138" stroke-width="1.33356" stroke-miterlimit="10" stroke-linecap="round" stroke-linejoin="round"/>
<path d="M218.669 216.715L272.596 222.198L274.997 198.748L221.07 193.265L218.669 216.715Z" stroke="#263138" stroke-width="1.33356" stroke-miterlimit="10" stroke-linecap="round" stroke-linejoin="round"/>
<path d="M220.509 198.743L274.436 204.226L274.997 198.748L221.07 193.265L220.509 198.743Z" fill="#F2C85D" stroke="#263138" stroke-width="1.33356" stroke-miterlimit="22.9256" stroke-linejoin="round"/>
<path d="M247.457 206.479L270.008 208.772" stroke="#263138" stroke-width="1.33356" stroke-miterlimit="10" stroke-linecap="round" stroke-linejoin="round"/>
<path d="M266.421 213.672L269.474 213.983" stroke="#263138" stroke-width="1.33356" stroke-miterlimit="10" stroke-linecap="round" stroke-linejoin="round"/>
<path d="M246.923 211.689L263.733 213.399" stroke="#263138" stroke-width="1.33356" stroke-miterlimit="10" stroke-linecap="round" stroke-linejoin="round"/>
<path d="M169.019 192.395C168.397 198.468 162.953 202.889 156.858 202.269C150.764 201.649 146.328 196.224 146.95 190.151C147.572 184.078 153.016 179.657 159.11 180.276C165.205 180.896 169.641 186.322 169.019 192.395Z" fill="#F2C85D" stroke="#263138" stroke-width="1.33356" stroke-miterlimit="22.9256" stroke-linejoin="round"/>
<path d="M165.344 192.021C164.722 198.094 160.923 202.682 156.859 202.269C152.794 201.856 150.004 196.598 150.626 190.525C151.248 184.452 155.047 179.863 159.111 180.277C163.175 180.69 165.965 185.948 165.344 192.021H165.344Z" fill="#F2C85D" stroke="#263138" stroke-width="1.33356" stroke-miterlimit="22.9256" stroke-linejoin="round"/>
<path d="M160.387 191.517C159.765 197.59 158.185 202.404 156.858 202.269C155.531 202.134 154.96 197.102 155.581 191.028C156.203 184.956 157.783 180.142 159.11 180.277C160.438 180.412 161.009 185.444 160.387 191.517H160.387Z" fill="#F2C85D" stroke="#263138" stroke-width="1.33356" stroke-miterlimit="22.9256" stroke-linejoin="round"/>
<path d="M151.688 182.255L166.097 183.72L151.688 182.255Z" fill="#91E2A8" stroke="#263138" stroke-width="1.33356" stroke-miterlimit="22.9256" stroke-linejoin="round"/>
<path d="M149.99 198.837L164.399 200.302L149.99 198.837Z" fill="#91E2A8" stroke="#263138" stroke-width="1.33356" stroke-miterlimit="22.9256" stroke-linejoin="round"/>
<path d="M147.068 190.163L169.02 192.395L147.068 190.163Z" fill="#91E2A8" stroke="#263138" stroke-width="1.33356" stroke-miterlimit="22.9256" stroke-linejoin="round"/>
<path d="M185.624 240.379L270.156 248.974" stroke="#263138" stroke-width="1.33356" stroke-miterlimit="10" stroke-linecap="round" stroke-linejoin="round"/>
<path d="M143.576 236.103L182.712 240.083" stroke="#263138" stroke-width="1.33356" stroke-miterlimit="10" stroke-linecap="round" stroke-linejoin="round"/>
<path d="M266.985 241.309L270.9 241.707" stroke="#263138" stroke-width="1.33356" stroke-miterlimit="10" stroke-linecap="round" stroke-linejoin="round"/>
<path d="M144.32 228.836L264.074 241.013" stroke="#263138" stroke-width="1.33356" stroke-miterlimit="10" stroke-linecap="round" stroke-linejoin="round"/>
<path d="M185.32 225.662L271.644 234.44" stroke="#263138" stroke-width="1.33356" stroke-miterlimit="10" stroke-linecap="round" stroke-linejoin="round"/>
<path d="M145.064 221.568L182.633 225.388" stroke="#263138" stroke-width="1.33356" stroke-miterlimit="10" stroke-linecap="round" stroke-linejoin="round"/>
<path d="M254.67 252.382L247.154 254.503L240.328 247.252L231.822 248.486L220.952 233.219L208.119 245.026L205.71 242.159L186.587 246.77L172.08 235.33L157.186 243.518L146.538 241.911L140.824 247.558L140.26 253.074L268.402 266.104L269.119 259.097L254.67 252.382Z" fill="#F2C85D" stroke="#263138" stroke-width="1.33356" stroke-miterlimit="22.9256" stroke-linejoin="round"/>
<path d="M109.71 96.3374C109.71 96.3374 110.418 99.3967 110.348 102.199C110.278 105.001 109.134 106.957 109.283 107.621C109.432 108.284 112.173 110.419 111.916 111.193C111.658 111.968 108.552 113.521 108.552 113.521C108.552 113.521 105.158 120.384 103.938 120.718C102.717 121.051 97.8295 118.699 97.4594 118.699C97.0896 118.7 93.4703 123.277 93.4703 123.277L84.3594 117.317L86.2412 113.886C86.2412 113.886 86.8291 111.009 87.1896 104.74C87.5504 98.4716 90.9841 93.7101 99.05 93.5507C107.116 93.3911 109.71 96.3372 109.71 96.3372L109.71 96.3374Z" fill="white" stroke="#263138" stroke-width="1.33356" stroke-miterlimit="22.9256" stroke-linejoin="round"/>
<path d="M105.889 114.115C105.889 114.115 103.482 113.197 103.035 111.206" stroke="#263138" stroke-width="1.33356" stroke-miterlimit="10" stroke-linecap="round" stroke-linejoin="round"/>
<path d="M107.597 106.019C107.343 106.783 106.863 107.312 106.526 107.201C106.189 107.089 106.122 106.38 106.376 105.615C106.63 104.852 107.11 104.323 107.447 104.434C107.784 104.546 107.852 105.255 107.597 106.019Z" fill="#263138"/>
<path d="M105.649 102.611C105.649 102.611 106.905 100.692 109.017 102.865" stroke="#263138" stroke-width="1.33356" stroke-miterlimit="10" stroke-linecap="round" stroke-linejoin="round"/>
<path d="M113.676 93.8008C113.676 93.8008 113.421 96.4191 112.164 97.6009C110.908 98.7827 102.487 101.866 99.7881 103.308C97.0891 104.75 92.7533 107.032 95.0183 112.449C97.2833 117.865 98.981 114.987 98.981 114.987C98.981 114.987 95.5092 119.122 91.7349 118.98C87.9606 118.838 81.3721 117.151 78.8124 112.62C76.2527 108.089 74.7995 101.343 78.9713 95.1059C83.1431 88.8685 89.2385 82.407 95.1596 83.1357C101.081 83.8645 105.19 85.5914 108.042 87.3936C110.894 89.1962 114.08 92.2149 113.676 93.801L113.676 93.8008Z" fill="#263138" stroke="#263138" stroke-width="1.33356" stroke-miterlimit="22.9256" stroke-linejoin="round"/>
<path d="M101.89 181.786C101.89 181.786 104.277 200.533 102.592 215.502C100.907 230.471 99.3629 233.549 94.8704 241.244C90.378 248.938 88.6936 266.706 88.5531 270.203C88.4126 273.701 89.6761 274.96 90.6589 275.799C91.6417 276.638 94.7158 278.431 95.6454 278.779C97.5348 279.485 101.751 280.674 100.487 282.073C99.2235 283.472 93.8879 282.094 92.7648 282.654C91.6417 283.214 86.4472 282.234 86.4472 282.234L82.376 274.679C82.376 274.679 85.6049 240.264 86.728 235.228C87.851 230.191 86.1664 198.574 86.1664 198.574L85.1834 178.988L101.89 181.786L101.89 181.786Z" fill="#263138" stroke="#263138" stroke-width="1.33356" stroke-miterlimit="22.9256" stroke-linejoin="round"/>
<path d="M70.8484 176.609C70.8484 176.609 67.9161 179.268 67.7758 189.341C67.6353 199.413 78.4453 214.523 79.0069 218.58C79.5684 222.637 80.6915 230.051 78.7261 234.948C76.7607 239.844 76.1992 250.477 77.4628 255.793C78.7261 261.109 79.1474 274.68 79.4281 275.519C79.7089 276.358 78.7261 280.415 79.7089 281.395C80.6917 282.374 89.9572 283.214 91.642 283.214C93.3266 283.214 96.8365 283.074 98.3806 282.374C99.925 281.675 100.908 281.255 99.7843 280.555C98.6612 279.856 89.8167 277.757 88.1319 275.659C86.4473 273.56 86.4473 269.363 86.7283 268.104C87.0091 266.845 88.4129 252.156 90.6592 246.84C92.9054 241.523 96.1343 226.414 95.8537 218.02C95.573 209.626 96.1345 190.04 95.573 187.102C95.0114 184.164 94.7307 182.905 94.7307 182.905L71.8472 175.49L70.8487 176.609H70.8484Z" fill="white" stroke="#263138" stroke-width="1.33356" stroke-miterlimit="22.9256" stroke-linejoin="round"/>
<path d="M72.5069 174.257C72.5069 174.257 67.6095 179.402 67.7756 189.341C67.9415 199.279 70.8467 205.276 72.5069 210.653C74.1669 216.029 75.8271 275.586 75.8271 275.586C75.8271 275.586 79.5623 276.62 81.6377 276.62C83.7128 276.62 90.6591 275.799 90.6591 275.799C90.6591 275.799 90.9759 260.697 92.6359 253.666C94.2962 246.635 100.314 238.363 101.352 222.44C102.389 206.517 98.951 184.134 98.951 184.134L72.5071 174.257L72.5069 174.257Z" fill="#263138" stroke="#263138" stroke-width="1.33356" stroke-miterlimit="22.9256" stroke-linejoin="round"/>
<path d="M79.4532 276.635C79.3433 278.175 78.9687 280.657 79.7088 281.395C80.6916 282.374 89.9571 283.213 91.6419 283.213C93.3266 283.213 96.8365 283.073 98.3806 282.374C99.9249 281.675 100.907 281.255 99.7844 280.556C98.6611 279.856 89.8166 277.757 88.132 275.659L87.3676 278.522L79.453 276.636L79.4532 276.635Z" fill="white" stroke="#263138" stroke-width="1.33356" stroke-miterlimit="22.9256" stroke-linejoin="round"/>
<path d="M119.707 145.862C119.707 145.862 122.082 139.394 122.478 138.053C122.873 136.712 124.378 137.659 125.169 137.895C125.961 138.132 127.94 137.58 127.861 138.211C127.781 138.842 127.228 139.552 126.832 139.71C126.436 139.868 124.14 139.789 124.14 139.789C124.14 139.789 123.824 141.13 124.061 141.445C124.299 141.761 131.344 139.394 131.027 140.262C130.71 141.13 126.752 145.626 125.565 146.651C124.378 147.677 122.716 148.229 122.716 148.229C122.716 148.229 114.721 157.774 113.533 159.43C112.346 161.087 111 162.034 111 162.034L107.132 153.288C107.132 153.288 119.074 147.204 119.708 145.863L119.707 145.862Z" fill="white" stroke="#263138" stroke-width="1.33356" stroke-miterlimit="22.9256" stroke-linejoin="round"/>
<path d="M117.061 147.829C114.671 149.189 107.132 153.288 107.132 153.288L105.676 166.076C105.676 166.076 112.345 161.087 113.533 159.431C114.083 158.663 116.094 156.203 118.095 153.782C116.343 151.929 116.652 149.349 117.061 147.83V147.829Z" fill="#F2C85D" stroke="#263138" stroke-width="1.33356" stroke-miterlimit="22.9256" stroke-linejoin="round"/>
<path d="M114.522 151.437L116.609 150.355" stroke="#263138" stroke-width="1.33356" stroke-miterlimit="10" stroke-linecap="round" stroke-linejoin="round"/>
<path d="M115.106 154.098L117.026 152.851" stroke="#263138" stroke-width="1.33356" stroke-miterlimit="10" stroke-linecap="round" stroke-linejoin="round"/>
<path d="M114.162 149.705C114.162 149.705 113.216 152.725 116.145 155.723" stroke="#263138" stroke-width="1.33356" stroke-miterlimit="10" stroke-linecap="round" stroke-linejoin="round"/>
<path d="M130.948 136.87C130.948 136.87 131.186 138.526 131.107 139.394C131.027 140.262 130.79 141.13 130.315 141.287C129.84 141.445 129.602 139.157 129.761 138.605C129.919 138.053 130.948 136.87 130.948 136.87Z" fill="white" stroke="#263138" stroke-width="1.33356" stroke-miterlimit="22.9256" stroke-linejoin="round"/>
<path d="M129.76 138.605C129.76 138.605 128.256 140.025 128.177 140.498C128.098 140.972 128.494 143.338 128.969 143.259C129.444 143.18 130.631 141.682 130.314 141.287C129.998 140.893 129.761 138.605 129.761 138.605H129.76Z" fill="white" stroke="#263138" stroke-width="1.33356" stroke-miterlimit="22.9256" stroke-linejoin="round"/>
<path d="M128.178 140.498C128.178 140.498 126.99 141.839 126.99 142.549C126.99 143.259 126.99 144.442 127.307 144.837C127.623 145.231 127.94 145.152 128.336 144.521C128.732 143.89 128.969 143.259 128.969 143.259L128.177 140.498H128.178Z" fill="white" stroke="#263138" stroke-width="1.33356" stroke-miterlimit="22.9256" stroke-linejoin="round"/>
<path d="M127.306 144.837C127.306 144.837 126.436 142.707 126.198 142.944C125.961 143.18 125.644 143.811 125.723 144.285C125.803 144.758 126.04 145.941 126.436 146.257C126.831 146.572 127.148 145.389 127.307 144.837H127.306Z" fill="white" stroke="#263138" stroke-width="1.33356" stroke-miterlimit="22.9256" stroke-linejoin="round"/>
<path d="M71.4333 174.277C71.4333 174.277 70.2633 175.443 70.8484 176.609C71.4333 177.775 78.5704 181.972 87.1118 183.721C95.6532 185.47 101.737 184.887 102.791 183.954C103.844 183.021 104.078 179.64 104.078 179.64C104.078 179.64 94.3663 180.107 84.889 176.725C75.4118 173.344 73.6565 172.761 73.0714 172.644C72.4863 172.528 71.4333 174.277 71.4333 174.277Z" fill="#F2C85D" stroke="#263138" stroke-width="1.33356" stroke-miterlimit="22.9256" stroke-linejoin="round"/>
<path d="M73.4143 175.485L72.6631 176.899" stroke="#263138" stroke-width="1.33356" stroke-miterlimit="10" stroke-linecap="round" stroke-linejoin="round"/>
<path d="M74.415 178.895L75.166 177.315" stroke="#263138" stroke-width="1.33356" stroke-miterlimit="10" stroke-linecap="round" stroke-linejoin="round"/>
<path d="M78.3372 178.063L77.7529 179.81" stroke="#263138" stroke-width="1.33356" stroke-miterlimit="10" stroke-linecap="round" stroke-linejoin="round"/>
<path d="M81.6761 179.311L81.0918 181.223" stroke="#263138" stroke-width="1.33356" stroke-miterlimit="10" stroke-linecap="round" stroke-linejoin="round"/>
<path d="M96.2807 182.72L96.0303 183.802" stroke="#263138" stroke-width="1.33356" stroke-miterlimit="10" stroke-linecap="round" stroke-linejoin="round"/>
<path d="M99.285 182.804L98.9512 184.134" stroke="#263138" stroke-width="1.33356" stroke-miterlimit="10" stroke-linecap="round" stroke-linejoin="round"/>
<path d="M81.1449 124.024C81.1449 124.024 75.0606 131.602 74.8265 136.966C74.5926 142.329 76.4646 164.133 76.4646 164.133C76.4646 164.133 70.8484 172.528 71.4333 174.277C72.0184 176.026 87.697 181.389 92.9623 182.089C98.2275 182.788 103.493 183.021 104.546 181.156C105.599 179.29 106.301 171.595 107.237 162.734C108.173 153.872 106.535 141.63 104.312 137.666C102.089 133.701 96.2385 129.97 96.2385 129.97C96.2385 129.97 82.6661 123.674 81.1451 124.024L81.1449 124.024Z" fill="#F2C85D" stroke="#263138" stroke-width="1.33356" stroke-miterlimit="22.9256" stroke-linejoin="round"/>
<path d="M80.6768 125.306C80.6768 125.306 81.6129 117.378 82.3149 117.261C83.0169 117.145 97.1745 121.109 97.4083 122.158C97.6424 123.207 96.8232 129.853 96.2384 129.97C95.6533 130.087 80.6768 125.306 80.6768 125.306Z" fill="#F2C85D" stroke="#263138" stroke-width="1.33356" stroke-miterlimit="22.9256" stroke-linejoin="round"/>
<path d="M83.4845 119.01L82.79 124.195" stroke="#263138" stroke-width="1.33356" stroke-miterlimit="10" stroke-linecap="round" stroke-linejoin="round"/>
<path d="M85.5186 120.618L84.8008 125.626" stroke="#263138" stroke-width="1.33356" stroke-miterlimit="10" stroke-linecap="round" stroke-linejoin="round"/>
<path d="M89.2512 119.33L88.3896 124.768" stroke="#263138" stroke-width="1.33356" stroke-miterlimit="10" stroke-linecap="round" stroke-linejoin="round"/>
<path d="M90.9746 128.344L91.5491 124.338" stroke="#263138" stroke-width="1.33356" stroke-miterlimit="10" stroke-linecap="round" stroke-linejoin="round"/>
<path d="M80.0912 126.822C80.0912 126.822 75.8791 127.988 74.475 132.069C73.071 136.15 75.0601 166.698 76.5811 168.33C78.1021 169.963 103.141 150.608 103.141 150.608C103.141 150.608 104.545 150.491 106.183 149.325C107.821 148.159 109.459 146.41 109.459 146.41C109.459 146.41 108.64 148.859 110.044 148.042C111.448 147.226 112.853 145.477 112.385 143.962C111.917 142.446 109.576 140.347 109.576 140.347C109.576 140.347 108.991 139.298 110.981 139.531C112.97 139.764 113.32 141.863 114.374 141.397C115.427 140.93 115.31 140.114 113.32 138.715C111.331 137.316 107.938 136.849 106.768 138.481C105.598 140.114 99.9821 147.926 99.9821 147.926L85.4735 153.639L84.7715 134.401L80.0912 126.822V126.822Z" fill="#F2C85D" stroke="#263138" stroke-width="1.33356" stroke-miterlimit="22.9256" stroke-linejoin="round"/>
<path d="M95.4453 151.201L97.1146 150.453" stroke="#263138" stroke-width="1.33356" stroke-miterlimit="10" stroke-linecap="round" stroke-linejoin="round"/>
<path d="M95.7793 153.447L98.0326 152.615" stroke="#263138" stroke-width="1.33356" stroke-miterlimit="10" stroke-linecap="round" stroke-linejoin="round"/>
<path d="M98.6767 154.005C101.34 152 103.141 150.608 103.141 150.608C103.141 150.608 104.545 150.491 106.183 149.325C107.822 148.159 109.46 146.41 109.46 146.41C109.46 146.41 108.641 148.859 110.045 148.042C111.449 147.226 112.853 145.477 112.385 143.961C111.917 142.446 109.577 140.347 109.577 140.347C109.577 140.347 108.992 139.298 110.981 139.531C112.97 139.764 113.321 141.863 114.374 141.396C115.427 140.93 115.31 140.114 113.321 138.715C111.332 137.316 107.939 136.849 106.769 138.482C105.599 140.114 99.9824 147.926 99.9824 147.926L96.999 149.101L98.6769 154.004L98.6767 154.005Z" fill="white" stroke="#263138" stroke-width="1.33356" stroke-miterlimit="22.9256" stroke-linejoin="round"/>
<path d="M94.4824 150.024L96.5885 155.155" stroke="#263138" stroke-width="1.33356" stroke-miterlimit="10" stroke-linecap="round" stroke-linejoin="round"/>
<path d="M135.885 137.598L144.028 141.548C144.028 141.548 136.957 144.324 133.636 148.488C130.314 152.651 128.922 157.349 128.922 157.349L124.422 151.904L135.886 137.598H135.885Z" fill="white" stroke="#263138" stroke-width="1.33356" stroke-miterlimit="22.9256" stroke-linejoin="round"/>
<path d="M128.784 133.51C128.784 133.51 125.576 140.97 123.972 143.99C122.368 147.009 119.516 151.805 119.516 151.805C119.516 151.805 122.189 153.404 123.793 155.002C125.398 156.601 127.715 159.265 127.715 159.265C127.715 159.265 130.745 148.785 131.993 145.588C133.24 142.391 140.192 135.464 140.192 135.464L128.784 133.51H128.784Z" fill="white" stroke="#263138" stroke-width="1.33356" stroke-miterlimit="22.9256" stroke-linejoin="round"/>
<path d="M124.141 139.789L123.316 137.233C123.316 137.233 128.778 137.14 128.872 137.703C128.966 138.266 128.277 139.652 126.832 139.71C125.388 139.767 124.141 139.789 124.141 139.789Z" fill="white"/>
<path d="M123.316 137.233C123.316 137.233 128.778 137.14 128.872 137.703C128.966 138.266 128.277 139.652 126.832 139.71C125.388 139.767 124.141 139.789 124.141 139.789" stroke="#263138" stroke-width="1.33356" stroke-miterlimit="10" stroke-linecap="round" stroke-linejoin="round"/>
<path d="M96.3708 191.628L95.1257 197.211L92.2207 247.876" stroke="#919191" stroke-width="1.33356" stroke-miterlimit="10" stroke-linecap="round" stroke-linejoin="round"/>
</g>
<defs>
<clipPath id="clip0_948_1403">
<rect width="305" height="294" fill="white"/>
</clipPath>
</defs>
</svg>
