<svg width="381" height="366" viewBox="0 0 381 366" fill="none" xmlns="http://www.w3.org/2000/svg">
<path d="M174.148 62.1839C174.148 62.1839 122.307 64.4653 94.844 118.648C67.3813 172.83 39.0251 155.918 22.2794 204.794C5.53376 253.669 39.3021 309.249 61.9376 315.271C84.5735 321.292 343.127 315.271 343.127 315.271C343.127 315.271 377.288 291.924 379.967 231.286C382.646 170.648 331.74 150.396 310.64 141.775C289.541 133.154 257.025 60.8451 174.148 62.1839Z" fill="#FEF9EB"/>
<path d="M248.43 210.366C308.149 170.203 319.729 149.581 349.205 145.746C420.998 136.407 368.396 321.904 203.994 361.543C125.884 380.376 29.1267 329.008 15.2895 289.099C1.91174 250.515 37.9294 236.04 91.1123 256.735C144.295 277.43 218.003 230.83 248.43 210.366Z" stroke="#BABFBC" stroke-width="1.33338" stroke-miterlimit="10"/>
<path d="M320.906 164.566C320.906 169.586 316.835 173.655 311.813 173.655C306.791 173.655 302.721 169.586 302.721 164.566C302.721 159.547 306.791 155.478 311.813 155.478C316.835 155.478 320.906 159.547 320.906 164.566Z" fill="#D8D8D8"/>
<path d="M317.241 343.15C317.241 348.17 313.17 352.239 308.149 352.239C303.127 352.239 299.056 348.17 299.056 343.15C299.056 338.131 303.127 334.062 308.149 334.062C313.17 334.062 317.241 338.131 317.241 343.15Z" stroke="#BABFBC" stroke-width="1.33338" stroke-miterlimit="10"/>
<path d="M198.811 136.407C198.811 141.427 194.74 145.496 189.719 145.496C184.697 145.496 180.626 141.427 180.626 136.407C180.626 131.388 184.697 127.318 189.719 127.318C194.74 127.318 198.811 131.388 198.811 136.407Z" stroke="#BABFBC" stroke-width="1.33338" stroke-miterlimit="10"/>
<path d="M163.988 172.717L154.765 185.549H172.293L163.988 172.717Z" stroke="#BABFBC" stroke-width="1.33338" stroke-miterlimit="10" stroke-linecap="round" stroke-linejoin="round"/>
<path d="M120.644 335.736L114.847 346.894H132.375L120.644 335.736Z" fill="#D8D8D8"/>
<path d="M35.1525 194.54C35.1525 204.115 27.386 211.879 17.8058 211.879C8.22555 211.879 0.458984 204.115 0.458984 194.54C0.458984 184.964 8.22555 177.201 17.8058 177.201C27.386 177.201 35.1525 184.964 35.1525 194.54Z" stroke="#BABFBC" stroke-width="1.33338" stroke-miterlimit="10" stroke-linecap="round" stroke-linejoin="round"/>
<path d="M22.9826 213.277H27.5975V218.101H22.9826V213.277ZM15.1675 194.702C15.1675 191.362 16.1106 188.68 17.9967 186.655C19.8828 184.614 22.4724 183.594 25.7654 183.594C28.8111 183.594 31.246 184.467 33.0703 186.214C34.9101 187.946 35.83 190.164 35.83 192.87C35.83 194.508 35.4899 195.838 34.8096 196.858C34.1448 197.879 32.7921 199.378 30.7513 201.357C29.2671 202.795 28.3009 204.016 27.8525 205.021C27.4197 206.011 27.2032 207.479 27.2032 209.427H23.0754C23.0754 207.217 23.3382 205.439 23.8638 204.094C24.3895 202.733 25.5413 201.179 27.3192 199.432L29.1744 197.6C29.731 197.075 30.1793 196.526 30.5194 195.954C31.1378 194.949 31.447 193.905 31.447 192.823C31.447 191.308 30.991 189.994 30.0788 188.881C29.1821 187.768 27.6902 187.211 25.6031 187.211C23.0212 187.211 21.2356 188.17 20.2461 190.087C19.6896 191.154 19.3726 192.692 19.2953 194.702H15.1675Z" fill="#F2C85D"/>
<path d="M213.78 67.7868C213.78 77.3627 206.014 85.1256 196.433 85.1256C186.853 85.1256 179.087 77.3627 179.087 67.7868C179.087 58.2106 186.853 50.4478 196.433 50.4478C206.014 50.4478 213.78 58.2106 213.78 67.7868Z" fill="#FFD193"/>
<path d="M201.611 86.5241H206.225V91.3477H201.611V86.5241ZM193.795 67.9487C193.795 64.6093 194.738 61.927 196.625 59.9017C198.511 57.8609 201.1 56.8406 204.393 56.8406C207.439 56.8406 209.874 57.7141 211.698 59.4611C213.538 61.1926 214.458 63.4111 214.458 66.1167C214.458 67.7555 214.118 69.085 213.438 70.1054C212.773 71.1258 211.42 72.6254 209.379 74.6043C207.895 76.0421 206.929 77.2634 206.48 78.2684C206.048 79.2578 205.831 80.7265 205.831 82.6745H201.703C201.703 80.4637 201.966 78.6858 202.492 77.3408C203.017 75.9803 204.169 74.4265 205.947 72.6795L207.802 70.8475C208.359 70.3218 208.807 69.773 209.147 69.201C209.766 68.1961 210.075 67.1525 210.075 66.0703C210.075 64.5552 209.619 63.2411 208.707 62.128C207.81 61.0148 206.318 60.4583 204.231 60.4583C201.649 60.4583 199.864 61.4168 198.874 63.3338C198.318 64.4006 198.001 65.9389 197.923 67.9487H193.795Z" fill="white"/>
<path d="M71.6436 201.793C71.6436 206.616 67.732 210.525 62.9073 210.525C58.0823 210.525 54.1709 206.616 54.1709 201.793C54.1709 196.97 58.0821 193.061 62.9073 193.061C67.732 193.061 71.6436 196.97 71.6436 201.793Z" fill="#D8D8D8"/>
<path d="M372.398 45.7222H294.217C289.754 45.7222 286.137 49.3382 286.137 53.7987V100.832C286.137 105.292 289.754 108.908 294.217 108.908H310.13L306.975 117.059C306.061 119.419 308.795 121.51 310.835 120.011L325.947 108.908H372.398C376.861 108.908 380.478 105.292 380.478 100.832V53.7987C380.478 49.3382 376.861 45.7222 372.398 45.7222Z" fill="#F2C85D"/>
<path d="M295.359 58.9067H370.144" stroke="white" stroke-width="1.33338" stroke-miterlimit="10" stroke-linecap="round" stroke-linejoin="round"/>
<path d="M295.359 65.6963H370.144" stroke="white" stroke-width="1.33338" stroke-miterlimit="10" stroke-linecap="round" stroke-linejoin="round"/>
<path d="M295.359 72.4863H370.144" stroke="white" stroke-width="1.33338" stroke-miterlimit="10" stroke-linecap="round" stroke-linejoin="round"/>
<path d="M295.359 79.2764H370.144" stroke="white" stroke-width="1.33338" stroke-miterlimit="10" stroke-linecap="round" stroke-linejoin="round"/>
<path d="M295.359 86.0664H370.144" stroke="white" stroke-width="1.33338" stroke-miterlimit="10" stroke-linecap="round" stroke-linejoin="round"/>
<path d="M295.359 92.856H370.144" stroke="white" stroke-width="1.33338" stroke-miterlimit="10" stroke-linecap="round" stroke-linejoin="round"/>
<path d="M127.948 195.234C127.948 195.234 127.153 188.554 126.119 185.373C125.084 182.192 120.708 176.148 120.708 176.148C120.708 176.148 118.958 179.886 121.504 182.987C121.504 182.987 121.345 187.917 121.583 189.667C121.583 189.667 113.313 182.606 111.722 181.89C110.713 181.085 109.481 180.104 107.979 178.907C102.489 174.533 98.8295 175.885 99.307 176.203C99.6354 176.422 105.914 181.496 109.799 184.641L109.291 185.369C108.111 184.427 106.23 182.927 103.444 180.708C97.9543 176.334 94.2944 177.686 94.7721 178.004C95.1714 178.27 104.361 185.71 107.358 188.137L106.473 189.403C105.312 188.476 103.378 186.933 100.421 184.577C94.9311 180.204 91.2714 181.556 91.7488 181.874C92.1577 182.146 101.786 189.942 104.539 192.172L103.601 193.515C102.579 192.587 99.741 190.067 96.9996 188.156C93.5787 185.77 91.1123 186.884 91.1123 186.884C91.1123 186.884 91.1123 186.884 92.6238 188.235C94.1355 189.587 102.012 195.79 102.012 195.79C102.012 195.79 114.037 206.526 117.055 207.56L119.998 210.366L130.824 198.652L127.948 195.233V195.234Z" fill="#FF9969"/>
<path d="M214.515 269.387C208.059 278.693 199.029 284.44 187.023 281.998C154.872 275.466 116.91 213.085 116.91 213.085L118.821 211.018L132.99 195.695L182.303 240.486L197.703 218.204L212.744 196.445L220.178 185.692C220.178 185.692 224.531 192.573 227.271 214.445C228.981 228.155 225.369 253.777 214.515 269.387V269.387Z" fill="#D3AA7C"/>
<path d="M214.515 269.388C208.059 278.693 199.029 284.44 187.023 281.998C154.872 275.467 116.91 213.085 116.91 213.085L118.821 211.018L119.999 210.364C119.999 210.364 165.237 272.571 184.301 263.318C196.088 257.597 197.982 234.792 197.703 218.204L212.744 196.445L214.515 269.388Z" fill="#FEC943"/>
<path d="M335.276 263.319L332.346 314.88H320.986L325.452 263.319H335.276Z" fill="#F2C85D"/>
<path d="M265.744 263.319L262.814 314.88H251.454L255.92 263.319H265.744Z" fill="#649075"/>
<path d="M336.439 272.245H246.437C237.491 272.245 230.239 264.996 230.239 256.054V205.732C230.239 196.79 237.491 189.541 246.437 189.541H336.439C345.385 189.541 352.637 196.79 352.637 205.732V256.054C352.637 264.996 345.385 272.245 336.439 272.245Z" fill="#F2C85D"/>
<path d="M328.848 272.245H238.845C229.9 272.245 222.647 264.996 222.647 256.054V205.732C222.647 196.79 229.9 189.541 238.845 189.541H328.848C337.793 189.541 345.045 196.79 345.045 205.732V256.054C345.045 264.996 337.793 272.245 328.848 272.245Z" fill="#C9AA55"/>
<path d="M261.009 166.325C261.009 166.325 278.76 163.476 302.64 188.169L308.148 314.88H208.344C208.344 314.88 197.446 229.395 210.149 198.995C222.853 168.595 245.669 164.965 261.009 166.324V166.325Z" fill="#FEC943"/>
<path d="M226.188 97.6031L230.571 91.606L267.929 104.108L267.605 118.135H270.072C275.082 118.135 279.144 122.195 279.144 127.203C279.144 132.211 275.082 136.271 270.072 136.271H267.185L266.746 155.309V172.038L239.698 175.756L239.036 164.567L238.684 158.688L234.76 156.815C223.525 151.457 216.37 140.122 216.37 127.678C216.37 116.863 219.81 106.332 226.188 97.6031H226.188Z" fill="#FF9969"/>
<path d="M238.686 158.688L239.037 164.566C240.03 164.448 241.072 164.294 242.153 164.097C258.857 161.053 265.397 145.961 264.719 138.186C264.719 138.186 259.087 156.886 238.686 158.688Z" fill="#D37956"/>
<path d="M270.351 124.604C269.652 125.134 269.008 125.835 268.776 126.71C268.776 126.71 270.171 127.174 270.298 128.737C270.425 130.3 268.776 130.976 268.776 130.976C268.776 130.976 270.044 133.088 272.157 131.948C274.271 130.807 273.92 126.826 271.819 125.991C271.819 125.991 275.158 125.611 276.384 126.836C276.384 126.836 276.664 125.608 275.268 124.521C273.83 123.4 271.805 123.504 270.351 124.604Z" fill="#D37956"/>
<path d="M226.189 97.6029C226.189 97.6029 231.248 106.306 237.784 109.122C244.321 111.939 251.308 107.839 257.845 111.579C264.381 115.318 260.212 122.327 261.676 125.694C263.141 129.061 264.766 129.512 264.766 129.512C264.766 129.512 265.645 119.937 267.605 118.134C267.605 118.134 273.475 118.084 275.302 119.794C275.302 119.794 278.581 113.178 279.145 107.996C279.708 102.814 273.96 101.124 273.96 101.124C273.96 101.124 272.608 88.7327 257.394 84.1141C242.179 79.4957 230.571 86.8179 224.485 84.1141C218.399 81.4105 212.877 85.467 212.539 91.606C212.201 97.745 216.371 99.9978 216.371 99.9978C216.371 99.9978 213.553 102.372 214.68 106.029C215.807 109.686 219.344 110.53 219.344 110.53C219.344 110.53 223.508 101.258 226.189 97.6031L226.189 97.6029Z" fill="#3F2D1F"/>
<path d="M229.219 142.142L244.71 141.381C244.71 141.381 241.123 146.958 236.019 146.904C231.318 146.855 229.219 142.142 229.219 142.142Z" fill="white"/>
<path d="M247.025 116.922C246.829 116.922 246.634 116.857 246.471 116.724C243.201 114.031 239.986 116.318 239.953 116.342C239.564 116.628 239.018 116.541 238.734 116.153C238.451 115.764 238.535 115.218 238.924 114.934C240.412 113.849 244.136 112.542 247.58 115.377C247.952 115.683 248.005 116.233 247.699 116.605C247.526 116.814 247.277 116.922 247.025 116.922V116.922Z" fill="#3F2D1F"/>
<path d="M227.76 116.922C227.565 116.922 227.369 116.857 227.206 116.724C223.937 114.031 220.72 116.318 220.689 116.342C220.299 116.628 219.753 116.541 219.47 116.153C219.186 115.764 219.27 115.218 219.659 114.934C221.148 113.849 224.871 112.542 228.315 115.377C228.688 115.683 228.741 116.233 228.434 116.605C228.262 116.814 228.012 116.922 227.76 116.922V116.922Z" fill="#3F2D1F"/>
<path d="M271.706 167.647L266.804 161.273L247.332 168.132L244.179 173.6L242.047 168.688L239.089 165.46L236.02 171.376C236.02 171.376 236.112 177.308 243.623 178.883C251.134 180.459 267.546 174.342 271.706 167.647H271.706Z" fill="#9C8979"/>
<path d="M275.302 119.795C275.302 119.795 272.275 118.639 269.401 121.28C266.527 123.922 267.5 126.517 267.5 126.517C267.5 126.517 268.827 123.388 271.673 123.729C274.518 124.071 276.587 131.754 272.785 133.19C268.984 134.627 264.131 132.438 264.301 126.517C264.471 120.597 266.643 117.249 270.224 116.739C273.806 116.229 275.223 119.236 275.302 119.795H275.302Z" fill="#F2C85D"/>
<path d="M248.421 149.554C248.054 149.554 247.726 149.294 247.654 148.92C247.573 148.496 247.85 148.087 248.274 148.005C263.001 145.175 267.99 131.312 268.039 131.172C268.18 130.766 268.623 130.55 269.033 130.691C269.441 130.833 269.657 131.277 269.515 131.684C269.464 131.833 264.201 146.535 248.569 149.539C248.519 149.549 248.469 149.554 248.421 149.554L248.421 149.554Z" fill="#F2C85D" stroke="#F2C85D" stroke-width="0.28812" stroke-miterlimit="22.9256"/>
<path d="M245.135 149.041C245.135 150.86 246.61 152.334 248.43 152.334C250.25 152.334 251.726 150.86 251.726 149.041C251.726 147.222 250.25 145.747 248.43 145.747C246.61 145.747 245.135 147.222 245.135 149.041Z" fill="#F2C85D"/>
<path d="M271.301 125.148C271.301 125.148 270.884 128.787 271.684 130.734C272.483 132.68 273.735 131.672 273.979 129.309C274.222 126.945 271.857 123.629 271.301 125.148V125.148Z" fill="#649075"/>
<path d="M239.967 123.927C239.967 123.927 239.973 127.323 244.421 127.887C248.869 128.45 249.679 123.927 249.679 123.927C249.679 123.927 247.153 121.56 243.887 121.49C240.622 121.421 239.967 123.927 239.967 123.927H239.967Z" fill="white"/>
<path d="M219.646 123.927C219.646 123.927 219.651 127.323 224.003 127.887C228.355 128.45 228.938 123.93 228.938 123.93C228.938 123.93 226.676 121.56 223.481 121.49C220.286 121.421 219.646 123.927 219.646 123.927V123.927Z" fill="white"/>
<path d="M228.938 123.93C228.938 123.93 226.607 121.371 224.112 120.912C221.618 120.452 219.906 121.666 219.646 123.93C219.646 123.93 220.141 122.06 222.635 121.831C225.13 121.601 228.938 123.93 228.938 123.93Z" fill="#3F2D1F"/>
<path d="M249.678 123.927C249.678 123.927 247.242 121.252 244.634 120.772C242.027 120.292 240.238 121.561 239.966 123.927C239.966 123.927 240.483 121.972 243.091 121.732C245.698 121.492 249.678 123.927 249.678 123.927Z" fill="#3F2D1F"/>
<path d="M233.211 124.024L231.16 136.402C231.16 136.402 229.527 136.527 227.267 135.606C227.267 135.606 232.625 125.415 233.211 124.024Z" fill="#D37956"/>
<path d="M172.173 314.88C172.173 314.88 171.839 304.997 182.975 301.901C194.109 298.804 207.674 307.858 209.851 314.88H172.173H172.173Z" fill="#F2C85D"/>
<path d="M247.026 124.797C247.026 126.745 245.777 128.325 244.236 128.325C242.695 128.325 241.446 126.745 241.446 124.797C241.446 122.848 242.695 121.269 244.236 121.269C245.777 121.269 247.026 122.848 247.026 124.797Z" fill="#3F2D1F"/>
<path d="M227.462 124.907C227.462 126.794 226.244 128.325 224.741 128.325C223.238 128.325 222.02 126.794 222.02 124.907C222.02 123.019 223.238 121.489 224.741 121.489C226.244 121.489 227.462 123.019 227.462 124.907Z" fill="#3F2D1F"/>
<path d="M256.572 133.621C256.572 135.16 254.749 136.407 252.501 136.407C250.253 136.407 248.431 135.16 248.431 133.621C248.431 132.083 250.253 130.836 252.501 130.836C254.749 130.836 256.572 132.083 256.572 133.621Z" fill="#D37956"/>
<path d="M223.332 132.286C223.332 133.824 221.509 135.072 219.261 135.072C217.013 135.072 215.19 133.824 215.19 132.286C215.19 130.747 217.013 129.5 219.261 129.5C221.509 129.5 223.332 130.748 223.332 132.286Z" fill="#D37956"/>
<path d="M330.067 283.42C327.249 291.897 322.093 298.307 315.985 302.842C311.823 305.92 307.225 308.127 302.636 309.513C283.476 315.321 212.517 314.876 212.517 314.876L215.186 293.449L294.644 275.597C294.644 275.597 284.366 243.007 284.82 216.678C285.23 192.172 292.541 182.073 300.778 186.844C301.397 187.21 302.017 187.646 302.636 188.169C302.636 188.169 315.183 206.858 328.13 245.239C333.426 260.937 333.33 273.565 330.067 283.42L330.067 283.42Z" fill="#E4BC89"/>
<path d="M207.116 296.295L190.259 293.224C190.259 293.224 187.161 292.694 184.063 294.033C180.965 295.372 177.449 301.9 177.449 301.9C177.449 301.9 180.295 301.943 182.221 300.206C184.147 298.469 184.398 296.962 184.398 296.962L190.584 297.444L190.694 298.878C188.629 299.33 182.747 300.67 179.877 301.9C176.361 303.406 174.519 308.009 174.519 308.009C174.519 308.009 179.123 307.34 181.468 304.494L191.043 303.408L191.112 304.302C189.139 304.436 185.613 304.878 182.305 306.336C177.365 308.512 175.858 311.441 175.858 311.441C175.858 311.441 180.798 311.441 184.273 308.762L186.612 308.569C184.301 310.05 182.305 313.617 182.305 313.617C182.305 313.617 183.31 313.868 185.571 312.864C187.831 311.859 188.417 310.714 188.417 310.714L195.005 311.207V311.207C198.426 311.696 203.601 312.175 206.558 311.19L212.858 312.159L214.835 296.295H207.116Z" fill="#FF9969"/>
<path d="M347.45 325.25H30.4722C27.6076 325.25 25.2852 322.929 25.2852 320.065C25.2852 317.202 27.6076 314.88 30.4722 314.88H347.45C350.315 314.88 352.637 317.202 352.637 320.065C352.637 322.929 350.315 325.25 347.45 325.25Z" fill="#FFD193"/>
<path d="M225.942 325.25H28.3975C26.6785 325.25 25.2852 322.929 25.2852 320.065C25.2852 317.202 26.6785 314.88 28.3975 314.88H127.17H225.941C227.66 314.88 229.054 317.202 229.054 320.065C229.054 322.929 227.66 325.25 225.941 325.25H225.942Z" fill="#C9AA55"/>
<path d="M166.205 294.898H57.0423C53.3604 294.898 50.1738 292.338 49.3823 288.744L35.2722 224.689C34.5801 221.547 36.9732 218.572 40.1913 218.572H150.584C153.847 218.572 156.671 220.84 157.373 224.026L171.527 288.28C172.276 291.679 169.687 294.898 166.205 294.898H166.205Z" fill="#C9AA55"/>
<path d="M74.9436 284.048C74.0318 288.638 68.6729 291.442 62.9735 290.312C57.2743 289.181 53.3931 284.543 54.3046 279.953C55.2163 275.363 60.5752 272.559 66.2746 273.689C71.9738 274.821 75.8548 279.458 74.9436 284.048Z" fill="#FCEFCF"/>
<path d="M171.527 288.28L157.372 224.026C156.671 220.84 153.847 218.572 150.584 218.572H144.221C147.484 218.572 150.307 220.84 151.009 224.026L165.163 288.28C165.912 291.679 163.323 294.898 159.841 294.898H166.205C169.686 294.898 172.275 291.679 171.527 288.28Z" fill="#FFD193"/>
<path d="M152.636 312.307C152.636 313.729 151.487 314.877 150.065 314.877H59.4459C57.9925 314.877 56.6716 314.283 55.7183 313.33C54.7569 312.377 54.1709 311.065 54.1709 309.604C54.1709 308.565 54.4833 307.55 55.0618 306.683L77.49 273.095C78.1307 272.149 79.1935 271.579 80.3345 271.579H119.549C120.955 271.579 121.838 273.102 121.127 274.321L102.192 307.018C101.489 308.229 102.364 309.737 103.755 309.737H150.065C150.776 309.737 151.417 310.026 151.886 310.494C152.347 310.955 152.636 311.596 152.636 312.307H152.636Z" fill="#FCEFCF"/>
<path d="M125.733 256.288H70.1369C69.4894 256.288 68.9648 255.764 68.9648 255.117C68.9648 254.47 69.4894 253.945 70.1369 253.945H125.733C126.38 253.945 126.905 254.47 126.905 255.117C126.905 255.764 126.38 256.288 125.733 256.288Z" fill="#FCEFCF"/>
<path d="M128.411 263.319H72.8156C72.1681 263.319 71.6436 262.794 71.6436 262.147C71.6436 261.5 72.1681 260.976 72.8156 260.976H128.411C129.059 260.976 129.584 261.5 129.584 262.147C129.584 262.794 129.059 263.319 128.411 263.319Z" fill="#FCEFCF"/>
<path d="M36.4229 222.366H154.153C155.111 222.366 156.03 222.543 156.88 222.858C155.82 220.301 153.307 218.572 150.459 218.572H40.066C37.6156 218.572 35.6483 220.298 35.1523 222.508C35.5583 222.416 35.9834 222.366 36.4232 222.366L36.4229 222.366Z" fill="#FCEFCF"/>
<path d="M157.37 284.048C156.458 288.638 151.099 291.442 145.4 290.312C139.701 289.181 135.82 284.543 136.731 279.953C137.643 275.363 143.002 272.559 148.701 273.689C154.4 274.821 158.282 279.458 157.37 284.048Z" fill="#FCEFCF"/>
<path d="M152.629 312.494C152.532 313.862 151.299 314.877 149.927 314.877H98.3549C96.2727 314.877 94.585 313.19 94.585 311.109C94.585 310.396 94.7866 309.699 95.1669 309.097L118.86 271.58H119.548C120.955 271.58 121.838 273.103 121.127 274.321L102.192 307.019C101.488 308.23 102.364 309.737 103.755 309.737H150.064C150.776 309.737 151.416 310.026 151.885 310.495C152.386 310.996 152.684 311.709 152.629 312.494Z" fill="#FFD193"/>
<path d="M302.636 309.513C283.476 315.321 212.517 314.876 212.517 314.876L304.199 290.492C313.786 287.942 319.891 278.565 318.332 268.772C314.303 243.455 306.504 198.03 300.778 186.843C301.397 187.209 302.017 187.646 302.636 188.169C302.636 188.169 315.183 206.858 328.13 245.239C341.078 283.629 321.805 303.713 302.636 309.513L302.636 309.513Z" fill="#FEC943"/>
<path d="M297.229 276.495C297.229 276.495 310.34 276.311 320.985 286.027" stroke="#9C8979" stroke-width="1.33338" stroke-miterlimit="10" stroke-linecap="round" stroke-linejoin="round"/>
<path d="M269.799 169.934C269.799 169.934 287.049 175.798 295.544 185.85" stroke="#E4BC89" stroke-width="1.33338" stroke-miterlimit="10" stroke-linecap="round" stroke-linejoin="round"/>
<path d="M183.931 243.417C183.931 243.417 193.456 255.752 194.676 269.954" stroke="#9C8979" stroke-width="1.33338" stroke-miterlimit="10" stroke-linecap="round" stroke-linejoin="round"/>
<path d="M233.205 171.466C233.205 171.466 229.583 181.623 244.71 182.869C259.837 184.115 276.417 169.282 276.417 169.282" stroke="#E4BC89" stroke-width="1.33338" stroke-miterlimit="10" stroke-linecap="round" stroke-linejoin="round"/>
<path d="M212.517 296.295L208.975 311.561L212.858 312.158L214.835 296.295H212.517Z" fill="#D37956"/>
<path d="M243.623 178.883C243.623 178.883 239.138 191.658 236.02 224.695" stroke="#E4BC89" stroke-width="1.33338" stroke-miterlimit="10" stroke-linecap="round" stroke-linejoin="round"/>
<path d="M272.592 101.265C272.592 101.265 265.527 99.5935 259.133 102.052" stroke="#543D2F" stroke-width="1.33338" stroke-miterlimit="10" stroke-linecap="round" stroke-linejoin="round"/>
<path d="M226.189 97.603C226.189 97.603 225.476 107.945 238.566 109.423" stroke="#543D2F" stroke-width="1.33338" stroke-miterlimit="10" stroke-linecap="round" stroke-linejoin="round"/>
<path d="M273.756 94.4482C273.756 94.4482 275.279 98.558 273.96 101.125" stroke="#543D2F" stroke-width="1.33338" stroke-miterlimit="10" stroke-linecap="round" stroke-linejoin="round"/>
<path d="M214.474 90.2529C214.474 90.2529 213.884 96.6044 220.376 99.1021" stroke="#543D2F" stroke-width="1.33338" stroke-miterlimit="10" stroke-linecap="round" stroke-linejoin="round"/>
<path d="M216.834 102.052C216.834 102.052 215.628 106.806 220.117 108.853" stroke="#543D2F" stroke-width="1.33338" stroke-miterlimit="10" stroke-linecap="round" stroke-linejoin="round"/>
<path d="M237.786 85.8285C237.786 85.8285 246.159 82.1587 258.05 87.5001C268.776 92.3181 269.798 98.3157 269.798 98.3157" stroke="#543D2F" stroke-width="1.33338" stroke-miterlimit="10" stroke-linecap="round" stroke-linejoin="round"/>
<path d="M273.756 103.822C273.756 103.822 276.117 104.936 276.117 108.279C276.117 111.622 274.498 115.031 274.498 115.031" stroke="#543D2F" stroke-width="1.33338" stroke-miterlimit="10" stroke-linecap="round" stroke-linejoin="round"/>
<path d="M234.442 102.642C234.442 102.642 236.113 107.066 245.852 107.558C255.592 108.049 258.739 108.05 261.395 111.196C264.051 114.342 263.166 117.784 263.166 117.784" stroke="#543D2F" stroke-width="1.33338" stroke-miterlimit="10" stroke-linecap="round" stroke-linejoin="round"/>
<path d="M230.795 0.000488281H142.158C137.024 0.000488281 132.863 4.16008 132.863 9.29085V24.46C132.863 29.5908 137.024 33.7501 142.158 33.7501H153.897L151.166 43.1787C150.658 44.9344 152.593 46.3854 154.137 45.4062L172.516 33.7501H230.795C235.928 33.7501 240.089 29.5908 240.089 24.46V9.29085C240.089 4.16008 235.928 0.000488281 230.795 0.000488281Z" fill="#F2C85D"/>
<path d="M144.918 9.08057H228.552" stroke="white" stroke-width="1.33338" stroke-miterlimit="10" stroke-linecap="round" stroke-linejoin="round"/>
<path d="M144.918 16.1738H228.552" stroke="white" stroke-width="1.33338" stroke-miterlimit="10" stroke-linecap="round" stroke-linejoin="round"/>
<path d="M144.918 23.2666H228.552" stroke="white" stroke-width="1.33338" stroke-miterlimit="10" stroke-linecap="round" stroke-linejoin="round"/>
<path d="M161.856 91.9841C161.856 133.644 128.068 167.416 86.3898 167.416C44.7109 167.416 10.9238 133.644 10.9238 91.9841C10.9238 50.324 44.7109 16.5518 86.3898 16.5518C128.068 16.5518 161.856 50.324 161.856 91.9841Z" stroke="#BABFBC" stroke-width="1.33338" stroke-miterlimit="10"/>
<path d="M157.066 91.978C157.066 118.342 142.617 141.33 121.206 153.47C118.807 154.83 116.32 156.06 113.764 157.133C105.345 160.673 96.0964 162.627 86.3944 162.627C85.7487 162.627 85.1117 162.618 84.4747 162.601C84.082 162.592 83.6896 162.575 83.2969 162.548C83.0176 162.548 82.7472 162.54 82.4679 162.513C82.0492 162.496 81.6305 162.47 81.2202 162.435C81.0458 162.426 80.8712 162.417 80.6966 162.391C80.1992 162.365 79.7108 162.313 79.2223 162.269C78.6553 162.208 78.0967 162.147 77.5385 162.077L95.0142 136.813L48.5892 86.5012L18.2962 110.964C17.9821 109.83 17.6941 108.696 17.4324 107.536C17.3364 107.101 17.2407 106.656 17.1531 106.22C17.0311 105.644 16.9177 105.06 16.8215 104.484C16.7518 104.1 16.6821 103.717 16.6297 103.333C16.5337 102.784 16.4551 102.225 16.3767 101.667C16.333 101.353 16.2892 101.048 16.2544 100.734C16.1936 100.254 16.1324 99.766 16.0887 99.2778L16.0627 98.99C16.0101 98.4668 15.9577 97.9434 15.923 97.4115C15.8796 96.8274 15.8359 96.243 15.8099 95.6499V95.6149C15.7749 95.0131 15.7486 94.4116 15.7399 93.8009C15.7228 93.1992 15.7139 92.5887 15.7139 91.9783C15.7139 80.2486 18.5755 69.1904 23.6361 59.4575C34.1495 39.225 54.1732 24.7219 77.7913 21.8529C80.6095 21.5127 83.48 21.3384 86.3944 21.3384C98.2602 21.3384 109.454 24.2686 119.27 29.4403L88.4883 54.2863L109.035 116.563L148.882 58.9695C154.108 68.8155 157.066 80.0569 157.066 91.9785L157.066 91.978Z" fill="#FCEFCF"/>
<path d="M23.4493 59.395L48.4024 86.4389L18.1099 110.901C17.7958 109.768 17.5078 108.634 17.2461 107.474C17.1501 107.038 17.0541 106.593 16.9668 106.157C16.8448 105.581 16.7314 104.997 16.6352 104.422C16.5655 104.038 16.4958 103.654 16.4432 103.27C16.3474 102.721 16.2688 102.163 16.1904 101.605C16.1467 101.291 16.1029 100.985 16.0681 100.672C16.0069 100.192 15.9458 99.7035 15.9024 99.2151L15.8761 98.9274C15.8238 98.404 15.7714 97.8809 15.7367 97.349C15.6933 96.7648 15.6496 96.1802 15.6233 95.5873V95.5522C15.5884 94.9504 15.5621 94.3489 15.5536 93.7382C15.5363 93.1364 15.5273 92.526 15.5273 91.9155C15.5273 80.1859 18.3889 69.1277 23.4496 59.395H23.4493Z" fill="#FFD193"/>
<path d="M113.577 157.07C105.158 160.611 95.9095 162.565 86.2072 162.565C85.5615 162.565 84.9248 162.556 84.288 162.538C83.8953 162.53 83.5026 162.512 83.1097 162.486C82.8307 162.486 82.5601 162.477 82.2812 162.451C81.8625 162.434 81.4435 162.408 81.0335 162.373C80.8589 162.364 80.6845 162.355 80.5098 162.329C80.0125 162.303 79.5241 162.25 79.0354 162.207C78.4683 162.146 77.9102 162.085 77.3516 162.015L94.8275 136.75L113.577 157.07Z" fill="#7EAF91"/>
<path d="M119.083 29.3773L88.3012 54.2236L77.6045 21.7899C80.4227 21.4499 83.2932 21.2754 86.2074 21.2754C98.0734 21.2754 109.267 24.2059 119.083 29.3773Z" fill="#FFD193" stroke="#FFD193" stroke-width="0.28812" stroke-miterlimit="22.9256"/>
<path d="M156.879 91.9157C156.879 118.279 142.431 141.268 121.02 153.408L108.849 116.5L148.695 58.9067C153.921 68.7527 156.879 79.9939 156.879 91.9155V91.9157Z" fill="#FFD193"/>
<path d="M94.827 136.75L77.3511 162.015C76.9061 161.962 76.4611 161.901 76.0163 161.832C75.6499 161.779 75.2835 161.727 74.9169 161.666C74.5068 161.605 74.1055 161.535 73.6952 161.457C73.1542 161.361 72.6134 161.265 72.0724 161.151C71.6101 161.056 71.1477 160.96 70.694 160.855C70.4062 160.794 70.1182 160.724 69.8302 160.654C69.4465 160.567 69.0714 160.471 68.6874 160.375C67.4395 160.061 66.2093 159.704 64.9879 159.32C64.5429 159.181 64.0979 159.041 63.6618 158.893C63.0684 158.692 62.484 158.491 61.908 158.273C61.3672 158.082 60.8262 157.872 60.2939 157.663C59.7531 157.454 59.2206 157.236 58.6974 157.009C58.174 156.791 57.6503 156.564 57.1356 156.329C57.1356 156.329 57.1269 156.329 57.1183 156.32C56.5948 156.084 56.0801 155.84 55.5654 155.596C53.9947 154.846 52.4679 154.035 50.9674 153.171C50.4961 152.892 50.025 152.613 49.5626 152.334C48.5853 151.75 47.6258 151.131 46.6921 150.494C46.2211 150.18 45.7587 149.857 45.2965 149.526C44.8341 149.203 44.3715 148.863 43.9178 148.523C43.9005 148.514 43.8829 148.497 43.857 148.48C43.4294 148.157 42.9933 147.826 42.5746 147.494C42.1993 147.198 41.8329 146.91 41.4665 146.605C40.9255 146.169 40.3932 145.715 39.87 145.261C39.4686 144.913 39.076 144.564 38.6833 144.206C38.2906 143.849 37.8982 143.482 37.5055 143.116C37.4621 143.073 37.4184 143.038 37.3835 143.003C36.9997 142.628 36.6157 142.253 36.232 141.869C35.9003 141.538 35.5689 141.198 35.2372 140.858C34.7836 140.387 34.3299 139.907 33.8935 139.419C33.5098 139 33.1345 138.573 32.7679 138.146C32.4712 137.814 32.1919 137.474 31.913 137.134C31.7384 136.942 31.5814 136.75 31.4244 136.549C31.1451 136.209 30.8747 135.869 30.6043 135.529C30.2987 135.145 30.0022 134.762 29.7143 134.369C29.3218 133.855 28.9378 133.34 28.5714 132.808C28.2398 132.346 27.9168 131.883 27.6028 131.413C27.3758 131.081 27.1578 130.75 26.9397 130.41C26.8003 130.209 26.6693 130 26.5384 129.791C25.945 128.866 25.3693 127.916 24.8196 126.957C24.5663 126.503 24.3133 126.05 24.0605 125.587C23.4845 124.532 22.9349 123.459 22.4201 122.369C22.1932 121.916 21.984 121.453 21.7744 120.991C21.5564 120.503 21.3383 120.014 21.1288 119.526C21.1114 119.491 21.1027 119.447 21.0853 119.413C20.8673 118.898 20.6492 118.375 20.4396 117.852C20.4396 117.835 20.431 117.817 20.4223 117.791C20.2127 117.267 20.0122 116.736 19.8202 116.204C19.6282 115.698 19.4449 115.183 19.2705 114.66C19.1133 114.198 18.9565 113.727 18.8082 113.256C18.7032 112.907 18.5901 112.549 18.4852 112.201C18.4765 112.174 18.4678 112.157 18.4678 112.131C18.3458 111.721 18.2237 111.311 18.1104 110.901L48.4029 86.439L94.8281 136.75L94.827 136.75Z" fill="#C9AA55"/>
<path d="M148.695 58.9064L108.848 116.5L88.3008 54.2232L119.082 29.377C131.69 36.0048 142.038 46.3219 148.695 58.9064Z" fill="#C9AA55"/>
<path d="M108.849 116.5L94.8276 136.75L48.4023 86.4389L88.3014 54.2236L108.849 116.5Z" fill="#FFD193"/>
<path d="M99.2907 82.0891L99.5128 78.3696L101.996 77.1843C109.105 73.7939 113.632 66.6214 113.632 58.748C113.632 51.9046 111.456 45.2413 107.42 39.7178L104.647 35.9233L81.0084 43.834L81.2134 52.7093H79.6523C76.4817 52.7093 73.9117 55.2783 73.9117 58.4473C73.9117 61.6163 76.4817 64.1851 79.6523 64.1851H81.4785L81.7569 76.2316V80.46C81.7569 80.46 77.4874 84.5711 69.3857 88.0595C69.3857 88.0595 78.419 99.3969 93.3467 100.144C108.274 100.892 108.848 91.9198 108.848 91.9198C108.848 91.9198 102.659 88.2164 99.1094 85.148L99.2904 82.0891H99.2907Z" fill="#FF9969"/>
<path d="M99.5126 78.3696L99.2904 82.0892C98.6616 82.0143 98.0027 81.917 97.3188 81.7922C86.749 79.8665 82.6106 70.3164 83.0398 65.3965C83.0398 65.3965 86.6043 77.2294 99.5128 78.3696H99.5126Z" fill="#D37956"/>
<path d="M79.4758 56.8038C79.9186 57.1385 80.3263 57.5822 80.4726 58.1358C80.4726 58.1358 79.5901 58.4298 79.5099 59.4188C79.4294 60.4078 80.4726 60.8355 80.4726 60.8355C80.4726 60.8355 79.6703 62.172 78.333 61.4505C76.9962 60.7286 77.2176 58.2093 78.547 57.6814C78.547 57.6814 76.4346 57.4408 75.6591 58.216C75.6591 58.216 75.4819 57.4387 76.3646 56.7508C77.2748 56.0419 78.5561 56.1077 79.4758 56.8038Z" fill="#D37956"/>
<path d="M99.0039 49.8132C98.8805 49.8167 98.7578 49.8617 98.6572 49.9489C96.6395 51.7124 94.5632 50.3257 94.5424 50.3108C94.2908 50.1379 93.947 50.2023 93.7746 50.4534C93.6023 50.7047 93.6659 51.0481 93.9173 51.2208C94.8784 51.8797 97.2582 52.6375 99.3838 50.7801C99.614 50.5795 99.6371 50.2309 99.4362 50.0015C99.3235 49.8722 99.1635 49.8084 99.0039 49.8132Z" fill="#3F2D1F"/>
<path d="M111.424 51.1694C111.316 51.1098 111.188 51.0862 111.056 51.1107C108.422 51.6037 107.339 49.354 107.329 49.3307C107.2 49.0538 106.871 48.9348 106.595 49.0637C106.319 49.1925 106.199 49.5203 106.328 49.797C106.821 50.8532 108.485 52.7145 111.26 52.1954C111.559 52.1394 111.757 51.8509 111.7 51.5514C111.669 51.3828 111.564 51.2466 111.424 51.1694H111.424Z" fill="#3F2D1F"/>
<path d="M98.7016 56.3745C98.7016 56.3745 98.6979 58.5234 95.8834 58.8801C93.0688 59.2367 92.5566 56.3745 92.5566 56.3745C92.5566 56.3745 94.1548 54.8768 96.2212 54.8324C98.2874 54.7886 98.7016 56.3745 98.7016 56.3745Z" fill="white"/>
<path d="M111.559 56.3745C111.559 56.3745 111.556 58.5234 108.802 58.8801C106.048 59.2367 105.68 56.3768 105.68 56.3768C105.68 56.3768 107.111 54.8768 109.132 54.8324C111.154 54.7886 111.559 56.3745 111.559 56.3745Z" fill="white"/>
<path d="M105.68 56.3769C105.68 56.3769 107.155 54.7573 108.733 54.4667C110.312 54.1759 111.395 54.944 111.559 56.3769C111.559 56.3769 111.246 55.1932 109.668 55.0479C108.089 54.9029 105.68 56.3769 105.68 56.3769Z" fill="#3F2D1F"/>
<path d="M92.5566 56.3744C92.5566 56.3744 94.0978 54.682 95.7478 54.3781C97.3978 54.0743 98.5299 54.8771 98.7016 56.3744C98.7016 56.3744 98.3745 55.1375 96.7247 54.9856C95.0747 54.8337 92.5566 56.3744 92.5566 56.3744Z" fill="#3F2D1F"/>
<path d="M102.976 56.436L104.274 64.2677C104.274 64.2677 105.307 64.347 106.737 63.7646C106.737 63.7646 103.347 57.3158 102.976 56.4363L102.976 56.436Z" fill="#D37956"/>
<path d="M94.2354 56.9249C94.2354 58.1579 95.0257 59.1574 96.0005 59.1574C96.9754 59.1574 97.7657 58.1579 97.7657 56.9249C97.7657 55.6921 96.9754 54.6924 96.0005 54.6924C95.0257 54.6924 94.2354 55.6921 94.2354 56.9249Z" fill="#3F2D1F"/>
<path d="M106.614 56.9944C106.614 58.189 107.385 59.1572 108.336 59.1572C109.287 59.1572 110.058 58.189 110.058 56.9944C110.058 55.7998 109.287 54.8315 108.336 54.8315C107.385 54.8315 106.614 55.7998 106.614 56.9944Z" fill="#3F2D1F"/>
<path d="M88.1953 62.5087C88.1953 63.4819 89.3484 64.271 90.771 64.271C92.1936 64.271 93.3467 63.4817 93.3467 62.5087C93.3467 61.535 92.1936 60.7461 90.771 60.7461C89.3484 60.7461 88.1953 61.535 88.1953 62.5087Z" fill="#D37956"/>
<path d="M109.228 61.6639C109.228 62.6372 110.381 63.4263 111.803 63.4263C113.226 63.4263 114.379 62.637 114.379 61.6639C114.379 60.6902 113.226 59.9014 111.803 59.9014C110.381 59.9014 109.228 60.6902 109.228 61.6639Z" fill="#D37956"/>
<path d="M103.911 67.2851C103.911 67.2851 99.7514 67.4254 98.069 68.9668C96.3863 70.5087 102.603 70.9759 103.911 70.3684C105.22 69.7611 105.802 67.0898 103.911 67.2851Z" fill="white"/>
<path d="M93.7718 55.532C93.7718 55.532 92.9428 55.9248 92.0391 55.3442C92.0391 55.3442 92.1239 56.1939 92.5568 56.3744L93.7718 55.532Z" fill="#3F2D1F"/>
<path d="M110.607 54.9551C110.607 54.9551 111.587 55.7641 112.33 55.5157C112.603 55.4241 111.564 56.377 111.564 56.377C111.316 55.4739 110.607 54.9551 110.607 54.9551Z" fill="#3F2D1F"/>
<path d="M116.288 96.4512C116.288 96.4512 129.525 120.635 134.573 140.913L120.925 148.858C120.925 148.858 115.5 138.019 113.632 121.387C111.764 104.754 116.288 96.4512 116.288 96.4512Z" fill="#837062"/>
<path d="M108.848 41.8474C108.848 41.8474 95.6228 54.3593 83.5325 52.9885C83.5325 52.9885 82.2238 61.7719 84.4052 65.1355C84.4052 65.1355 83.4704 66.061 82.1616 62.5462C80.8529 59.0308 81.8858 54.1735 81.2135 52.7091C81.2135 52.7091 77.1792 51.7534 74.529 55.8593C71.8786 59.9652 77.6797 64.9786 81.4787 64.1849L81.6533 71.7344C81.6533 71.7344 77.3006 73.3583 73.6237 70.2439C69.9468 67.1291 71.754 63.9521 71.754 63.9521C71.754 63.9521 66.2077 58.4802 65.9584 50.8805C65.709 43.2807 72.0347 38.5057 72.0347 38.5057C72.0347 38.5057 74.1224 27.2617 88.0199 27.137C101.917 27.0125 105.968 31.1863 105.968 31.1863C105.968 31.1863 114.939 32.7121 117.466 42.2431C119.994 51.7738 113.632 56.8707 113.632 56.8707C113.632 56.8707 111.792 44.6593 108.849 41.8472L108.848 41.8474Z" fill="#3F2D1F"/>
<path d="M74.3712 37.1978C74.3712 37.1978 73.7025 29.0326 65.9505 29.3773C58.1988 29.7225 56.7031 38.5994 60.0685 42.7108C63.4341 46.8219 67.8275 45.8875 71.0994 42.7108C74.3712 39.5338 74.3712 37.1978 74.3712 37.1978Z" fill="#3F2D1F"/>
<path d="M84.4888 69.3283L79.6028 79.4968C79.4282 79.8633 78.9658 79.9679 78.6431 79.7237L78.4424 79.5667L62.4322 67.2004C62.1879 67.0085 62.1093 66.6685 62.2576 66.3894L67.7806 56.2816L67.9116 56.0462C68.0949 55.6974 68.5573 55.6103 68.8626 55.863L84.3233 68.5696C84.5414 68.753 84.6111 69.0667 84.489 69.3283H84.4888Z" fill="white"/>
<path d="M118.184 155.021C108.631 159.843 97.8291 162.556 86.3909 162.556C76.9766 162.556 67.9902 160.715 59.78 157.367L54.5537 97.5321C54.5537 97.5321 55.627 93.407 62.0311 91.0525C69.3077 88.3665 69.3863 88.061 69.3863 88.061C97.1226 102.015 108.849 91.9156 108.849 91.9156L114.956 95.0204C115.558 95.3259 116.029 95.8314 116.291 96.4508C117.731 99.8955 122.503 111.843 122.983 120.076C123.358 126.634 120.252 144.259 118.184 155.021V155.021Z" fill="#9C8979"/>
<path d="M57.6152 93.4731C57.6152 93.4731 50.8518 96.1578 48.4027 113.849C45.9535 131.54 48.5682 140.913 48.5682 140.913L62.0322 124.937C62.0322 124.937 66.6409 100.445 57.6152 93.4731Z" fill="#9C8979"/>
<path d="M77.7183 67.5982C76.4274 68.3434 73.0671 70.6922 72.4671 71.6821C72.1784 72.1583 72.0584 72.7011 72.0093 73.139L71.165 72.7173C71.591 70.8971 72.3773 69.0765 72.3773 69.0765C72.3773 69.0765 73.7171 68.3601 74.465 67.3012C75.2128 66.2423 74.9321 65.3963 74.9321 65.3963C74.4218 65.691 73.5998 66.2274 72.7434 66.8349C72.7558 66.8182 72.7704 66.8034 72.7825 66.7864C73.5301 65.7275 73.2495 64.8818 73.2495 64.8818C71.9092 65.6553 68.4199 68.0946 67.7966 69.1225C67.4606 69.6765 67.3448 70.3153 67.3066 70.7918L67.0707 70.6739C67.4707 68.748 68.3573 66.6932 68.3573 66.6932C68.3573 66.6932 69.6974 65.9768 70.4452 64.9179C71.1929 63.8589 70.9122 63.0132 70.9122 63.0132C69.5719 63.7868 66.0826 66.226 65.4593 67.2539C64.8361 68.2817 64.9606 69.6212 64.9606 69.6212L65.4593 78.4044L65.9508 88.0598C65.9508 88.0598 48.1967 128.675 48.4022 138.579C48.6081 148.484 54.5532 152.409 54.5532 152.409C54.5532 152.409 60.91 151.661 64.9609 145.406C69.0119 139.151 72.7512 91.486 72.7512 91.486C72.7512 91.486 74.87 88.2469 75.2439 85.1485C75.6178 82.0502 74.1946 74.2309 74.1946 74.2302C74.6165 72.6275 75.2576 71.1427 75.2576 71.1427C75.2576 71.1427 76.5481 70.4528 77.2683 69.4329C77.9885 68.4133 77.7183 67.5989 77.7183 67.5989V67.5982Z" fill="#FF9969"/>
<path d="M84.4884 69.3283L79.6025 79.4968C79.4278 79.8633 78.9655 79.9679 78.6427 79.7237L78.442 79.5667L83.3804 68.9531L67.7803 56.2816L67.9112 56.0462C68.0945 55.6974 68.5569 55.6103 68.8623 55.863L84.323 68.5696C84.541 68.753 84.6107 69.0667 84.4887 69.3283H84.4884Z" fill="#D8D8D8"/>
<path d="M67.7808 58.3149L67.1035 59.6464L70.4689 62.3562L71.2398 61.0713L67.7808 58.3149Z" fill="#D8D8D8"/>
<path d="M165.111 98.4076L161.34 99.109L161.238 98.7752C162.328 98.4026 164.891 97.3953 165.928 95.8404C167.261 93.8414 167.728 91.9086 167.728 91.9086C167.728 91.9086 165.417 93.1171 164.528 95.4239L162.74 95.7561C163.457 95.3131 164.121 94.7762 164.538 94.1514C165.871 92.1524 166.338 90.2196 166.338 90.2196C166.338 90.2196 164.027 91.4281 163.137 93.7349L160.884 94.1537C161.819 93.4206 162.797 92.4642 163.206 91.4302C164.089 89.1954 164.138 87.208 164.138 87.208C164.138 87.208 162.134 88.8751 161.75 91.3173L159.272 92.3518L148.432 95.7362L148.513 94.1717C148.513 94.1717 148.922 93.9264 150.067 93.0274C151.211 92.1286 152.641 88.3962 152.641 88.3962C152.641 88.3962 146.96 91.066 145.575 94.0084C144.19 96.9505 142.872 104.225 142.872 104.225C142.872 104.225 129.842 135.564 127.529 144.197C127.529 144.197 123.054 145.928 120.925 148.857C120.925 148.857 125.474 157.205 129.089 158.077C129.089 158.077 139.559 156.083 144.544 143.874C149.53 131.664 151.539 107.003 151.539 107.003L162.004 101.282C162.004 101.282 165.166 100.383 166.256 98.7485C167.346 97.1138 167.728 95.5338 167.728 95.5338C167.728 95.5338 165.839 96.5219 165.111 98.4079V98.4076Z" fill="#FF9969"/>
<path d="M118.498 133.974C118.498 133.974 112.368 132.794 101.876 132.794C91.383 132.794 80.8906 134.761 80.8906 134.761" stroke="#837062" stroke-width="1.33338" stroke-miterlimit="10" stroke-linecap="round" stroke-linejoin="round"/>
<path d="M107.449 34.4707C107.449 34.4707 109.137 37.5817 108.993 39.7148" stroke="#543D2F" stroke-width="1.33338" stroke-miterlimit="10" stroke-linecap="round" stroke-linejoin="round"/>
<path d="M104.857 32.1108C104.857 32.1108 98.006 34.3397 94.2354 39.7147" stroke="#543D2F" stroke-width="1.33338" stroke-miterlimit="10" stroke-linecap="round" stroke-linejoin="round"/>
<path d="M73.0866 35.585C73.0866 35.585 71.9717 38.0756 71.9061 38.9934C71.9061 38.9934 68.2449 42.4018 67.7803 44.3681" stroke="#543D2F" stroke-width="1.33338" stroke-miterlimit="10" stroke-linecap="round" stroke-linejoin="round"/>
<path d="M59.3145 44.8271C59.5768 45.0239 63.1984 47.7661 66.913 45.4545" stroke="#543D2F" stroke-width="1.33338" stroke-miterlimit="10" stroke-linecap="round" stroke-linejoin="round"/>
<path d="M77.6045 34.4708C77.6045 34.4708 86.1041 26.6378 100.17 30.7672" stroke="#543D2F" stroke-width="1.33338" stroke-miterlimit="10" stroke-linecap="round" stroke-linejoin="round"/>
<path d="M79.3164 50.6486C79.3164 50.6486 82.9672 52.1197 90.7708 50.6486C98.5744 49.1776 105.68 41.1895 105.68 41.1895" stroke="#543D2F" stroke-width="1.33338" stroke-miterlimit="10" stroke-linecap="round" stroke-linejoin="round"/>
<path d="M76.1641 93.4731C76.1641 93.4731 86.8359 97.9224 97.7658 97.267C108.695 96.6115 110.058 94.6449 110.058 94.6449" stroke="#837062" stroke-width="1.33338" stroke-miterlimit="10" stroke-linecap="round" stroke-linejoin="round"/>
</svg>
