<svg width="20" height="20" viewBox="0 0 20 20" fill="none" xmlns="http://www.w3.org/2000/svg">
<g clip-path="url(#clip0_274_668)">
<path d="M0.274414 10.6306V9.38114C0.286527 9.31801 0.299506 9.25488 0.309023 9.19175C0.380833 8.71652 0.417175 8.2334 0.529647 7.76869C1.27716 4.67882 3.0672 2.41314 5.8747 1.00148C7.73396 0.0668056 9.71435 -0.203252 11.7579 0.149225C14.3171 0.58763 16.4039 1.86952 17.9768 3.95896C19.6206 6.14659 20.2574 8.63059 19.9079 11.3548C19.6623 13.3245 18.823 15.1693 17.5044 16.6376C16.0394 18.3305 14.0453 19.4624 11.8557 19.8441C11.4914 19.9116 11.122 19.9493 10.7543 20.0002H9.52142C9.2809 19.9695 9.03952 19.9441 8.79987 19.9125C6.87354 19.6511 5.06904 18.8096 3.62006 17.4969C1.93562 16.0104 0.808401 13.9808 0.428418 11.7503C0.362665 11.3776 0.325459 11.0024 0.274414 10.6306ZM10.1245 14.5473C11.7971 14.5473 13.4727 14.5473 15.1511 14.5473C15.9843 14.5473 16.4939 14.0291 16.4947 13.1856V6.82437C16.4947 5.98088 15.9843 5.46444 15.1494 5.46444H5.13498C4.28884 5.46444 3.78184 5.97913 3.78184 6.83577C3.78184 8.94011 3.79655 11.0506 3.77406 13.1576C3.76541 13.9248 4.30009 14.5683 5.15834 14.5552C6.81169 14.5289 8.46851 14.5473 10.1245 14.5473Z" fill="white"/>
<path d="M10.1245 14.5472C8.46858 14.5472 6.81177 14.5288 5.15582 14.5551C4.30016 14.5683 3.76548 13.9247 3.77154 13.1575C3.79403 11.0531 3.77845 8.94266 3.77932 6.83569C3.77932 5.97904 4.28631 5.46436 5.13246 5.46436H15.1469C15.9818 5.46436 16.4914 5.9808 16.4922 6.82429V13.1855C16.4922 14.029 15.9818 14.5463 15.1486 14.5472C13.4748 14.5484 11.8001 14.5484 10.1245 14.5472ZM4.80283 7.02069V13.1382C4.80283 13.474 4.84867 13.5196 5.18263 13.5196H15.082C15.4281 13.5196 15.473 13.4775 15.473 13.1303V7.02069C15.3502 7.11802 15.2663 7.18465 15.1832 7.25217L10.5234 11.0005C10.2457 11.2241 10.0328 11.2241 9.76028 11.0058L6.53405 8.40955L4.80283 7.02069ZM14.4712 6.50688H5.85401C5.8592 6.56387 5.89381 6.57965 5.92236 6.60333C7.28588 7.69817 8.64767 8.79477 10.0077 9.89312C10.1211 9.98518 10.1808 9.95975 10.2837 9.87996C11.3421 9.0242 12.4023 8.17048 13.4641 7.3188L14.4712 6.50688Z" fill="white"/>
<path d="M4.80262 7.02051L6.53298 8.46023L9.75921 11.1468C10.0317 11.373 10.2446 11.3721 10.5223 11.1406C12.0762 9.8488 13.6294 8.55638 15.1821 7.26338L15.472 7.02402V13.337C15.472 13.6965 15.4287 13.7395 15.0809 13.7395C11.7811 13.7395 8.48136 13.7395 5.18157 13.7395C4.84761 13.7395 4.80176 13.693 4.80176 13.3449V7.02051H4.80262Z" fill="#2F383B"/>
<path d="M14.4707 6.50488L13.4636 7.31681C12.4029 8.17024 11.3428 9.02395 10.2832 9.87797C10.1846 9.95775 10.1206 9.98318 10.0072 9.89112C8.6489 8.79043 7.28712 7.69384 5.92187 6.60133C5.89332 6.57766 5.85871 6.56188 5.85352 6.50488H14.4707Z" fill="#2F383B"/>
</g>
<defs>
<clipPath id="clip0_274_668">
<rect width="19.726" height="20" fill="white" transform="translate(0.274414)"/>
</clipPath>
</defs>
</svg>
