<svg width="302" height="312" viewBox="0 0 302 312" fill="none" xmlns="http://www.w3.org/2000/svg">
<g clip-path="url(#clip0_948_832)">
<path d="M112.361 3.00647C112.361 3.00647 145.773 -3.75808 176.176 3.00647C194.76 7.14134 233.931 16.9491 243.173 39.1818C252.416 61.4145 207.915 80.3829 229.781 102.936C239.213 112.663 284.48 125.498 281.935 188.604C279.389 251.711 213.063 290.187 120.888 288.472C28.7128 286.756 -24.4784 203.038 11.1709 161.807C46.8204 120.576 62.1655 120.458 46.0049 86.8854C29.8443 53.3125 52.2819 12.6156 112.361 3.00647Z" fill="#F2C85D"/>
<path d="M112.361 3.00647C112.361 3.00647 145.773 -3.75808 176.176 3.00647C194.76 7.14134 233.931 16.9491 243.173 39.1818C252.416 61.4145 207.915 80.3829 229.781 102.936C239.213 112.663 284.48 125.498 281.935 188.604C279.389 251.711 213.063 290.187 120.888 288.472C28.7128 286.756 -24.4784 203.038 11.1709 161.807C46.8204 120.576 62.1655 120.458 46.0049 86.8854C29.8443 53.3125 52.2819 12.6156 112.361 3.00647Z" fill="white" fill-opacity="0.701961"/>
<path d="M48.6271 105.917L54.85 124.092L25.0087 134.285L17.625 112.716L47.4652 102.523L48.6271 105.917Z" stroke="#263138" stroke-width="1.33367" stroke-miterlimit="10" stroke-linecap="round" stroke-linejoin="round"/>
<path d="M51.7259 114.964L54.8504 124.091L25.0091 134.285L23.4785 129.813L29.4932 120.711L39.2831 124.517L46.2732 112.742L51.7259 114.964Z" stroke="#263138" stroke-width="1.33367" stroke-miterlimit="10" stroke-linecap="round" stroke-linejoin="round"/>
<path d="M33.0933 113.818C33.6735 115.513 32.7684 117.357 31.071 117.937C29.3739 118.517 27.5275 117.612 26.947 115.917C26.3668 114.222 27.2719 112.378 28.9693 111.798C30.6664 111.218 32.5128 112.122 33.0933 113.818Z" stroke="#263138" stroke-width="1.33367" stroke-miterlimit="10" stroke-linecap="round" stroke-linejoin="round"/>
<path d="M226.437 255.09L222.323 273.854L191.516 267.114L196.397 244.847L227.205 251.586L226.437 255.09Z" stroke="#263138" stroke-width="1.33367" stroke-miterlimit="10" stroke-linecap="round" stroke-linejoin="round"/>
<path d="M197.622 262.311L218.786 266.941" stroke="#263138" stroke-width="1.33367" stroke-miterlimit="10" stroke-linecap="round" stroke-linejoin="round"/>
<path d="M199.358 252.447C199.358 252.447 197.205 262.27 208.194 264.673C219.183 267.077 221.336 257.254 221.336 257.254" stroke="#263138" stroke-width="1.33367" stroke-miterlimit="10" stroke-linecap="round" stroke-linejoin="round"/>
<path d="M200.285 252.649C200.173 253.16 199.668 253.484 199.156 253.371C198.645 253.26 198.321 252.755 198.433 252.244C198.545 251.733 199.05 251.41 199.562 251.522C200.073 251.634 200.397 252.138 200.285 252.649Z" fill="white" stroke="#263138" stroke-width="1.33367" stroke-miterlimit="22.9256" stroke-linejoin="round"/>
<path d="M222.262 257.457C222.151 257.968 221.645 258.291 221.134 258.179C220.622 258.067 220.299 257.563 220.411 257.052C220.523 256.541 221.028 256.218 221.539 256.329C222.051 256.442 222.374 256.946 222.262 257.457Z" fill="white" stroke="#263138" stroke-width="1.33367" stroke-miterlimit="22.9256" stroke-linejoin="round"/>
<path d="M197.841 263.26L196.213 262.904L196.569 261.278L198.197 261.634L197.841 263.26Z" fill="white" stroke="#263138" stroke-width="1.33367" stroke-miterlimit="22.9256" stroke-linejoin="round"/>
<path d="M208.83 265.664L207.202 265.308L207.559 263.682L209.187 264.038L208.83 265.664Z" fill="white" stroke="#263138" stroke-width="1.33367" stroke-miterlimit="22.9256" stroke-linejoin="round"/>
<path d="M219.819 268.068L218.191 267.712L218.548 266.086L220.176 266.442L219.819 268.068Z" fill="white" stroke="#263138" stroke-width="1.33367" stroke-miterlimit="22.9256" stroke-linejoin="round"/>
<path d="M83.8908 50.9645L76.1048 68.5282L47.2676 55.7729L56.5078 34.9297L85.3445 47.6853L83.8908 50.9645Z" stroke="#263138" stroke-width="1.33367" stroke-miterlimit="10" stroke-linecap="round" stroke-linejoin="round"/>
<path d="M68.7507 58.2063C68.198 59.4528 66.2063 59.7809 64.3021 58.9387C62.3981 58.0963 61.3025 56.4027 61.8551 55.1562C62.4081 53.9094 64.3994 53.5813 66.3037 54.4237C68.2077 55.2658 69.3033 56.9595 68.7507 58.2063Z" fill="#263138"/>
<path d="M70.2085 44.4842L62.5149 55.4486L61.8555 55.1569L67.4808 47.1392L68.9421 45.058C69.6757 44.8442 70.1478 44.5255 70.2044 44.4872L70.2085 44.4839V44.4842Z" fill="#263138"/>
<path d="M70.2047 44.4876L68.333 47.1327C68.333 47.1327 68.0062 47.1825 67.4814 47.1393C66.8766 47.0922 66.009 46.9211 65.0716 46.4093C63.3723 45.482 61.9181 46.5688 61.834 46.6338C61.9255 46.5167 63.741 44.2534 66.2451 45.0487C67.288 45.3815 68.2348 45.2672 68.9427 45.0581C69.6763 44.8443 70.1484 44.5256 70.2049 44.4873L70.2047 44.4876Z" fill="#263138"/>
<path d="M276.115 193.372L269.402 211.372L239.849 200.375L247.814 179.014L277.368 190.011L276.115 193.372Z" stroke="#263138" stroke-width="1.33367" stroke-miterlimit="10" stroke-linecap="round" stroke-linejoin="round"/>
<path d="M256.231 189.417L248.819 192.802L252.208 200.205" stroke="#263138" stroke-width="1.33367" stroke-miterlimit="10" stroke-linecap="round" stroke-linejoin="round"/>
<path d="M260.17 203.168L267.582 199.783L264.193 192.379" stroke="#263138" stroke-width="1.33367" stroke-miterlimit="10" stroke-linecap="round" stroke-linejoin="round"/>
<path d="M261.509 191.366L254.892 201.219" stroke="#263138" stroke-width="1.33367" stroke-miterlimit="10" stroke-linecap="round" stroke-linejoin="round"/>
<path d="M246.63 26.1048L240.043 44.1514L210.413 33.3611L218.229 11.9446L247.86 22.7349L246.63 26.1048Z" stroke="#263138" stroke-width="1.33367" stroke-miterlimit="10" stroke-linecap="round" stroke-linejoin="round"/>
<path d="M225.636 27.4623C225.636 27.4623 225.283 25.4389 222.29 25.8822C219.529 26.2912 218.744 29.3956 221.074 30.244C223.814 31.2418 225.963 28.9325 228.626 26.6562C231.41 24.2767 233.938 21.7162 234.257 21.4148C234.257 21.4148 227.983 32.6239 227.171 34.1001C226.359 35.5767 228.808 35.037 229.252 34.3808" stroke="#263138" stroke-width="1.33367" stroke-miterlimit="10" stroke-linecap="round" stroke-linejoin="round"/>
<path d="M236.235 30.7959C236.235 30.7959 233.5 28.9422 231.252 31.641C230.381 32.6875 230.84 33.8005 231.592 34.0746C233.52 34.7762 234.716 33.9288 236.746 30.9824C236.746 30.9824 233.934 34.9277 234.537 35.147C235.44 35.4759 236.104 34.798 236.104 34.798" stroke="#263138" stroke-width="1.33367" stroke-miterlimit="10" stroke-linecap="round" stroke-linejoin="round"/>
<path d="M227.775 27.7151L232.741 29.5233" stroke="#263138" stroke-width="1.33367" stroke-miterlimit="10" stroke-linecap="round" stroke-linejoin="round"/>
<path d="M51.0659 234.688L20.2568 227.956L24.4611 208.755L55.3774 215.51L51.0659 234.688Z" stroke="#263138" stroke-width="1.33367" stroke-miterlimit="10" stroke-linecap="round" stroke-linejoin="round"/>
<path d="M31.4443 213.562L49.451 217.496" stroke="#263138" stroke-width="1.33367" stroke-miterlimit="10" stroke-linecap="round" stroke-linejoin="round"/>
<path d="M28.5342 214.734L49.0735 219.222" stroke="#263138" stroke-width="1.33367" stroke-miterlimit="10" stroke-linecap="round" stroke-linejoin="round"/>
<path d="M28.1562 216.46L48.6956 220.947" stroke="#263138" stroke-width="1.33367" stroke-miterlimit="10" stroke-linecap="round" stroke-linejoin="round"/>
<path d="M27.7783 218.186L48.3177 222.673" stroke="#263138" stroke-width="1.33367" stroke-miterlimit="10" stroke-linecap="round" stroke-linejoin="round"/>
<path d="M27.4004 219.912L47.9398 224.399" stroke="#263138" stroke-width="1.33367" stroke-miterlimit="10" stroke-linecap="round" stroke-linejoin="round"/>
<path d="M27.0225 221.637L47.5618 226.125" stroke="#263138" stroke-width="1.33367" stroke-miterlimit="10" stroke-linecap="round" stroke-linejoin="round"/>
<path d="M26.6445 223.364L47.1836 227.851" stroke="#263138" stroke-width="1.33367" stroke-miterlimit="10" stroke-linecap="round" stroke-linejoin="round"/>
<path d="M26.2666 225.089L44.2732 229.023" stroke="#263138" stroke-width="1.33367" stroke-miterlimit="10" stroke-linecap="round" stroke-linejoin="round"/>
<path d="M202.129 91.4665H86.8747L72.4912 20.0034H216.512L202.129 91.4665Z" fill="#263138"/>
<path d="M83.302 22.325L62.0781 166.512H226.924L205.7 22.325H83.302Z" fill="#263138"/>
<path d="M226.923 166.509H62.0781L70.9535 106.214H218.048L226.923 166.509Z" fill="black" fill-opacity="0.301961"/>
<path d="M201.215 22.325H87.7863L68.1182 166.512H220.883L201.215 22.325Z" fill="#263138"/>
<path d="M190.01 33.3127H128.441L127.743 31.7376C127.355 30.8632 126.488 30.2993 125.531 30.2993H111.547C110.769 30.2993 110.138 30.929 110.138 31.7062V33.3127H98.9931C98.1377 33.3127 97.4962 34.0951 97.6647 34.9328L106.759 80.117H182.244L191.338 34.9328C191.507 34.0951 190.865 33.3127 190.01 33.3127Z" fill="#BFBFBF" stroke="#263138" stroke-width="1.33367" stroke-miterlimit="22.9256" stroke-linejoin="round"/>
<path d="M192.333 36.7746L191.547 40.6753L183.465 80.8174C183.222 82.0532 182.135 82.9463 180.869 82.9463H108.135C106.869 82.9463 105.782 82.0532 105.539 80.8174L97.264 39.7252L96.6706 36.7746C96.5059 35.9388 97.1424 35.1528 98.0006 35.1528H191.003C191.862 35.1528 192.498 35.9388 192.333 36.7746Z" fill="#BFBFBF" stroke="#263138" stroke-width="1.33367" stroke-miterlimit="22.9256" stroke-linejoin="round"/>
<path d="M192.333 36.7746L191.547 40.6753L183.465 80.8174C183.222 82.0532 182.135 82.9463 180.869 82.9463H108.135C106.869 82.9463 105.782 82.0532 105.539 80.8174L97.264 39.7252L96.6706 36.7746C96.5059 35.9388 97.1424 35.1528 98.0006 35.1528H191.003C191.862 35.1528 192.498 35.9388 192.333 36.7746Z" stroke="#263138" stroke-width="1.33367" stroke-miterlimit="22.9256" stroke-linejoin="round"/>
<path d="M191.547 40.675L183.465 80.8171C183.222 82.0529 182.135 82.946 180.869 82.946H108.135C106.869 82.946 105.782 82.0529 105.538 80.8171L97.2637 39.7249L191.546 40.675H191.547Z" fill="#FDE6AB" fill-opacity="0.4"/>
<path d="M191.1 43.7213H128.056L127.341 42.1514C126.944 41.2795 126.057 40.7173 125.076 40.7173H110.757C109.96 40.7173 109.315 41.3454 109.315 42.1197V43.7213H97.9025C97.0266 43.7213 96.3697 44.5015 96.5423 45.3367L105.855 90.3867H183.148L192.46 45.3367C192.633 44.5015 191.976 43.7213 191.1 43.7213H191.1Z" fill="#BFBFBF" stroke="#263138" stroke-width="1.33367" stroke-miterlimit="22.9256" stroke-linejoin="round"/>
<path d="M193.477 47.3049L192.69 51.1196L184.401 91.2188C184.143 92.4477 183.035 93.3333 181.741 93.3333H107.261C105.967 93.3333 104.859 92.4477 104.601 91.2188L96.2835 50.9838L95.5254 47.3046C95.3538 46.4685 96.0118 45.6829 96.8844 45.6829H192.118C192.991 45.6829 193.649 46.4685 193.477 47.3046L193.477 47.3049Z" fill="#BFBFBF" stroke="#263138" stroke-width="1.33367" stroke-miterlimit="22.9256" stroke-linejoin="round"/>
<path d="M193.477 47.3049L192.69 51.1196L184.401 91.2188C184.143 92.4477 183.035 93.3333 181.741 93.3333H107.261C105.967 93.3333 104.859 92.4477 104.601 91.2188L96.2835 50.9838L95.5254 47.3046C95.3538 46.4685 96.0118 45.6829 96.8844 45.6829H192.118C192.991 45.6829 193.649 46.4685 193.477 47.3046L193.477 47.3049Z" stroke="#263138" stroke-width="1.33367" stroke-miterlimit="22.9256" stroke-linejoin="round"/>
<path d="M192.691 51.1197L184.402 91.2189C184.144 92.4478 183.036 93.3334 181.741 93.3334H107.262C105.968 93.3334 104.859 92.4478 104.602 91.2189L96.2842 50.9839L192.691 51.1197Z" fill="#FDE6AB" fill-opacity="0.4"/>
<path d="M192.19 54.13H127.671L126.94 52.5645C126.534 51.6951 125.625 51.1345 124.622 51.1345H109.967C109.152 51.1345 108.491 51.7607 108.491 52.5328V54.13H96.8118C95.9153 54.13 95.2432 54.9077 95.42 55.7405L104.95 100.657H184.052L193.582 55.7405C193.759 54.9077 193.087 54.13 192.19 54.13Z" fill="#BFBFBF" stroke="#263138" stroke-width="1.33367" stroke-miterlimit="22.9256" stroke-linejoin="round"/>
<path d="M193.232 56.2192H95.7698C94.8733 56.2192 94.2012 56.9969 94.378 57.8297L103.668 101.615C103.929 102.843 105.067 103.727 106.389 103.727H182.612C183.935 103.727 185.073 102.843 185.334 101.615L194.624 57.8297C194.8 56.9969 194.128 56.2192 193.232 56.2192Z" fill="white" stroke="#263138" stroke-width="1.33367" stroke-miterlimit="22.9256" stroke-linejoin="round"/>
<path d="M193.281 62.3954H127.286L126.538 60.8345C126.123 59.9679 125.193 59.4089 124.167 59.4089H109.177C108.343 59.4089 107.668 60.0332 107.668 60.8031V62.3954H95.7211C94.8042 62.3954 94.1167 63.1708 94.2976 64.0011L104.045 108.783H184.956L194.704 64.0011C194.885 63.1708 194.197 62.3954 193.281 62.3954H193.281Z" fill="#BFBFBF" stroke="#263138" stroke-width="1.33367" stroke-miterlimit="22.9256" stroke-linejoin="round"/>
<path d="M194.347 64.6091H94.6559C93.739 64.6091 93.0514 65.3843 93.2321 66.2149L102.735 109.869C103.001 111.094 104.166 111.975 105.518 111.975H183.484C184.837 111.975 186.001 111.094 186.268 109.869L195.77 66.2149C195.951 65.3843 195.263 64.6091 194.347 64.6091H194.347Z" fill="white" stroke="#263138" stroke-width="1.33367" stroke-miterlimit="22.9256" stroke-linejoin="round"/>
<path d="M194.372 70.661H126.902L126.137 69.1048C125.713 68.2406 124.762 67.6833 123.713 67.6833H108.388C107.536 67.6833 106.845 68.3059 106.845 69.0737V70.6612H94.6317C93.6943 70.6612 92.9913 71.4342 93.1761 72.262L103.142 116.91H185.862L195.828 72.262C196.013 71.4342 195.31 70.6612 194.372 70.6612L194.372 70.661Z" fill="#BFBFBF" stroke="#263138" stroke-width="1.33367" stroke-miterlimit="22.9256" stroke-linejoin="round"/>
<path d="M195.458 73.0017H93.5443C92.6075 73.0017 91.8996 73.7733 92.0854 74.6019L94.4742 85.311L101.798 118.123C102.077 119.345 103.264 120.224 104.644 120.224H184.358C185.739 120.224 186.926 119.345 187.205 118.123L190.795 102.028L196.917 74.6019C197.103 73.7733 196.395 73.0017 195.458 73.0017H195.458Z" fill="#BFBFBF" stroke="#263138" stroke-width="1.33367" stroke-miterlimit="22.9256" stroke-linejoin="round"/>
<path d="M195.458 73.0017H93.5443C92.6075 73.0017 91.8996 73.7733 92.0854 74.6019L94.4742 85.311L101.798 118.123C102.077 119.345 103.264 120.224 104.644 120.224H184.358C185.739 120.224 186.926 119.345 187.205 118.123L190.795 102.028L196.917 74.6019C197.103 73.7733 196.395 73.0017 195.458 73.0017H195.458Z" stroke="#263138" stroke-width="1.33367" stroke-miterlimit="22.9256" stroke-linejoin="round"/>
<path d="M94.4746 85.311L101.798 118.123C102.077 119.345 103.264 120.224 104.644 120.224H184.359C185.739 120.224 186.926 119.345 187.205 118.123L190.795 102.028L94.4746 85.311Z" fill="#FDE6AB" fill-opacity="0.4"/>
<path d="M124.313 121.77L123.411 120.273C122.911 119.441 121.853 118.938 120.714 118.991L104.066 119.755C103.14 119.797 102.418 120.446 102.453 121.204L102.525 122.771L89.2569 123.38C88.2384 123.426 87.5101 124.224 87.7486 125.032L100.602 168.6L190.462 164.475L199.261 119.913C199.424 119.087 198.625 118.359 197.607 118.406L124.313 121.771L124.313 121.77Z" fill="#BFBFBF" stroke="#263138" stroke-width="1.33367" stroke-miterlimit="22.9256" stroke-linejoin="round"/>
<path d="M200.572 122.688L199.556 127.818L191.997 166.131C191.754 167.352 190.502 168.274 189 168.345L102.413 172.317C100.911 172.388 99.5738 171.581 99.2233 170.388L87.2725 129.882L86.6931 127.917C86.457 127.11 87.1864 126.31 88.2021 126.267L198.92 121.18C199.943 121.138 200.736 121.866 200.572 122.688L200.572 122.688Z" fill="#BFBFBF" stroke="#263138" stroke-width="1.33367" stroke-miterlimit="22.9256"/>
<path d="M200.572 122.688L199.556 127.818L191.997 166.131C191.754 167.352 190.502 168.274 189 168.345L102.413 172.317C100.911 172.388 99.5738 171.581 99.2233 170.388L87.2725 129.882L86.6931 127.917C86.457 127.11 87.1864 126.31 88.2021 126.267L198.92 121.18C199.943 121.138 200.736 121.866 200.572 122.688L200.572 122.688Z" stroke="#263138" stroke-width="1.33367" stroke-miterlimit="22.9256"/>
<path d="M199.556 127.818L191.997 166.131C191.754 167.352 190.502 168.274 189 168.345L102.413 172.317C100.911 172.389 99.5738 171.581 99.2233 170.388L87.2725 129.882L199.556 127.817L199.556 127.818Z" fill="#FCEFCF" fill-opacity="0.4"/>
<path d="M126.22 131.719L125.453 130.144C125.027 129.27 124.003 128.667 122.841 128.606L105.863 127.719C104.919 127.67 104.122 128.242 104.082 128.997L104.001 130.559L90.4704 129.852C89.4318 129.798 88.6133 130.518 88.7754 131.343L97.5173 175.837L189.155 180.622L202.495 137.281C202.742 136.478 202.003 135.677 200.965 135.623L126.22 131.719Z" fill="#BFBFBF" stroke="#263138" stroke-width="1.33367" stroke-miterlimit="22.9256" stroke-linejoin="round"/>
<path d="M203.547 140.298L201.373 147.356L190.545 182.547C190.18 183.734 188.814 184.534 187.284 184.448L98.9803 179.84C97.4497 179.761 96.1767 178.825 95.9335 177.611L88.4599 139.555L87.4155 134.233C87.2512 133.412 88.0735 132.69 89.1105 132.747L202.017 138.641C203.053 138.698 203.797 139.498 203.547 140.298V140.298Z" fill="#BFBFBF" stroke="#263138" stroke-width="1.33367" stroke-miterlimit="22.9256"/>
<path d="M203.547 140.298L201.373 147.356L190.545 182.547C190.18 183.734 188.814 184.534 187.284 184.448L98.9803 179.84C97.4497 179.761 96.1767 178.825 95.9335 177.611L88.4599 139.555L87.4155 134.233C87.2512 133.412 88.0735 132.69 89.1105 132.747L202.017 138.641C203.053 138.698 203.797 139.498 203.547 140.298V140.298Z" stroke="#263138" stroke-width="1.33367" stroke-miterlimit="22.9256"/>
<path d="M201.373 147.356L190.545 182.547C190.181 183.734 188.814 184.534 187.284 184.448L98.9803 179.84C97.4498 179.761 96.1768 178.825 95.9335 177.611L88.46 139.555L201.373 147.356H201.373Z" fill="#FCEFCF" fill-opacity="0.4"/>
<path d="M124.592 143.114L123.727 141.586C123.247 140.738 122.172 140.19 120.985 140.19H103.65C102.686 140.19 101.904 140.802 101.904 141.555V143.114H88.0884C87.028 143.114 86.2327 143.873 86.4417 144.686L97.7152 188.53H191.287L202.561 144.686C202.77 143.873 201.975 143.114 200.914 143.114H124.592Z" fill="#BFBFBF" stroke="#263138" stroke-width="1.33367" stroke-miterlimit="22.9256" stroke-linejoin="round"/>
<path d="M189.584 192.572H99.4179C97.854 192.572 96.5068 191.709 96.1988 190.51L85.2093 147.771C85.0003 146.958 85.7953 146.199 86.856 146.199H202.147C203.207 146.199 204.002 146.958 203.793 147.771L192.804 190.51C192.496 191.709 191.149 192.572 189.585 192.572H189.584Z" fill="white" stroke="#263138" stroke-width="1.33367" stroke-miterlimit="22.9256" stroke-linejoin="round"/>
<path d="M124.208 153.523L123.326 151.999C122.837 151.153 121.741 150.608 120.531 150.608H102.861C101.878 150.608 101.081 151.217 101.081 151.969V153.523H86.9985C85.9175 153.523 85.107 154.279 85.3204 155.09L96.8115 198.799H192.193L203.684 155.09C203.897 154.279 203.087 153.523 202.006 153.523H124.208H124.208Z" fill="#BFBFBF" stroke="#263138" stroke-width="1.33367" stroke-miterlimit="22.9256" stroke-linejoin="round"/>
<path d="M190.456 202.963H98.5468C96.9528 202.963 95.5797 202.103 95.2653 200.908L84.0635 158.299C83.8503 157.488 84.6608 156.732 85.7416 156.732H203.261C204.342 156.732 205.152 157.488 204.94 158.299L193.737 200.908C193.423 202.103 192.05 202.963 190.456 202.963H190.456Z" fill="white" stroke="#263138" stroke-width="1.33367" stroke-miterlimit="22.9256" stroke-linejoin="round"/>
<path d="M209.132 252.206H79.8703L51.5771 172.057H237.425L209.132 252.206Z" fill="white" stroke="#263138" stroke-width="1.33367" stroke-miterlimit="22.9256"/>
<path d="M209.132 252.206H79.8703L51.5771 172.057H237.425L209.132 252.206Z" stroke="#263138" stroke-width="1.33367" stroke-miterlimit="22.9256"/>
<path d="M209.132 252.206H79.8703L51.5771 172.057H237.425L209.132 252.206Z" fill="black" fill-opacity="0.301961"/>
<path d="M234.966 161.511H54.0368L51.5771 172.057H237.425L234.966 161.511Z" fill="#F2C85D" stroke="#263138" stroke-width="1.33367" stroke-miterlimit="22.9256" stroke-linejoin="round"/>
<path d="M99.6373 208.778L97.8252 225.888H191.176L189.364 208.778H185.245L186.42 220.993H102.582L103.757 208.778H99.6373Z" fill="#BFBFBF" stroke="#263138" stroke-width="1.33367" stroke-miterlimit="22.9256" stroke-linejoin="round"/>
<path d="M190.473 229.82H98.5282L97.8252 225.887H191.176L190.473 229.82Z" fill="#757575" stroke="#263138" stroke-width="1.33367" stroke-miterlimit="22.9256" stroke-linejoin="round"/>
<path d="M185.245 208.778L184.669 213.314L185.245 220.993H186.42L185.245 208.778Z" fill="#757575" stroke="#263138" stroke-width="1.33367" stroke-miterlimit="22.9256" stroke-linejoin="round"/>
<path d="M103.757 208.778L104.333 213.314L103.757 220.993H102.582L103.757 208.778Z" fill="#757575" stroke="#263138" stroke-width="1.33367" stroke-miterlimit="22.9256" stroke-linejoin="round"/>
<path d="M174.578 200.195H114.424L111.554 185.675H177.449L174.578 200.195Z" fill="white" stroke="#263138" stroke-width="1.33367" stroke-miterlimit="22.9256" stroke-linejoin="round"/>
<path d="M131.928 195.037H131.952L132.348 188.884H134.182L134.721 197.418H133.539L133.113 191.392H133.089L132.675 197.418H131.494L130.051 191.479H130.028L130.562 197.418H129.472L128.644 188.884H130.477L131.928 195.037Z" fill="#263138"/>
<path d="M136.666 194.69L134.711 188.884H136.089L137.266 192.886H137.289L138.103 188.884H139.362L137.937 194.69L138.051 197.418H136.801L136.666 194.69Z" fill="#263138"/>
<path d="M143.103 192.788H144.764L144.762 194.005H143.113L143.143 197.418H141.894L141.75 188.884H145.238L145.232 190.16H143.08L143.103 192.788Z" fill="#263138"/>
<path d="M145.874 188.884H147.193L147.052 197.418H145.803L145.874 188.884Z" fill="#263138"/>
<path d="M148.152 188.884H149.47L149.246 196.254H151.318L151.267 197.418H147.961L148.152 188.884Z" fill="#263138"/>
<path d="M153.331 192.592H155.1L155.019 193.812H153.264L153.129 196.254H155.303L155.223 197.418H151.814L152.217 188.884H155.814L155.725 190.16H153.466L153.331 192.592Z" fill="#263138"/>
<path d="M158.413 188.781C159.697 188.781 160.277 189.601 160.14 191.017L160.113 191.291H158.885L158.917 190.929C158.973 190.299 158.757 190.058 158.341 190.058C157.924 190.058 157.666 190.299 157.615 190.929C157.563 191.566 157.784 192.037 158.562 192.813C159.544 193.799 159.814 194.498 159.721 195.452C159.594 196.768 158.886 197.51 157.66 197.51C156.433 197.51 155.852 196.768 155.948 195.452L155.985 194.941H157.185L157.138 195.535C157.09 196.125 157.324 196.335 157.725 196.335C158.126 196.335 158.396 196.125 158.448 195.535C158.502 194.929 158.288 194.474 157.517 193.714C156.521 192.727 156.234 192.013 156.307 191.017C156.41 189.601 157.13 188.781 158.413 188.781Z" fill="#263138"/>
<path d="M148.529 59.7231L147.939 58.0455C147.611 57.1138 146.698 56.4227 145.609 56.2827L129.707 54.2354C128.822 54.1216 128.024 54.6594 127.924 55.4367L127.717 57.0439L115.043 55.4122C114.07 55.2872 113.24 55.9759 113.323 56.8386L117.832 103.373L203.67 114.424L219.845 70.552C220.144 69.7386 219.516 68.862 218.543 68.7367L148.53 59.7231H148.529Z" fill="#263138"/>
<path d="M148.529 59.7231L147.939 58.0455C147.611 57.1138 146.698 56.4227 145.609 56.2827L129.707 54.2354C128.822 54.1216 128.024 54.6594 127.924 55.4367L127.717 57.0439L115.043 55.4122C114.07 55.2872 113.24 55.9759 113.323 56.8386L117.832 103.373L203.67 114.424L219.845 70.552C220.144 69.7386 219.516 68.862 218.543 68.7367L148.53 59.7231H148.529Z" fill="#FCEFCF" fill-opacity="0.4"/>
<path d="M220.654 73.1947L206.014 112.908L204.884 115.966C204.441 117.166 203.089 117.895 201.659 117.709L118.941 107.064C117.51 106.879 116.387 105.828 116.266 104.557L111.867 59.1926C111.789 58.3281 112.618 57.6425 113.591 57.7637L183.979 66.8296L219.353 71.3804C220.325 71.509 220.955 72.3875 220.654 73.195V73.1947Z" fill="white" stroke="#263138" stroke-width="1.33367" stroke-miterlimit="22.9256" stroke-linejoin="round"/>
<path d="M220.654 73.1947L206.014 112.908L204.884 115.966C204.441 117.166 203.089 117.895 201.659 117.709L118.941 107.064C117.51 106.879 116.387 105.828 116.266 104.557L111.867 59.1926C111.789 58.3281 112.618 57.6425 113.591 57.7637L183.979 66.8296L219.353 71.3804C220.325 71.509 220.955 72.3875 220.654 73.195V73.1947Z" stroke="#263138" stroke-width="1.33367" stroke-miterlimit="22.9256" stroke-linejoin="round"/>
<path d="M220.655 73.1947L206.015 112.908C195.638 110.458 195.244 104 193.506 100.656C191.589 96.9701 179.438 95.0126 176.041 94.4197C172.644 93.8195 170.577 90.3904 170.577 90.3904C167.516 81.8033 183.493 74.3164 183.493 74.3164C183.179 73.1377 183.644 69.2728 183.98 66.8296L219.353 71.3804C220.326 71.5091 220.955 72.3876 220.655 73.195V73.1947Z" fill="black" fill-opacity="0.301961"/>
<path d="M127.424 71.4165L128.556 99.4901L138.741 100.809L139.936 72.8297L127.424 71.4165Z" fill="#F2C85D" stroke="#263138" stroke-width="1.33367" stroke-miterlimit="22.9256" stroke-linejoin="round"/>
<path d="M133.637 97.4295C133.951 96.4537 133.676 95.3651 133.141 94.4904C132.606 93.6158 131.835 92.915 131.074 92.2268C132.253 92.9023 133.57 93.3365 134.92 93.4946C134.905 92.0324 133.51 91.0164 132.263 90.2492C132.82 90.0288 133.476 90.0784 133.994 90.3792C134.04 89.9258 133.842 89.4547 133.486 89.1694C133.642 89.3032 133.889 89.0928 133.881 88.8884C133.873 88.684 133.728 88.5151 133.628 88.3366C133.398 87.9261 133.399 87.4308 133.406 86.9603C133.431 85.2799 133.456 83.5995 133.481 81.9191C133.524 82.2255 133.768 82.4935 134.069 82.566C134.05 81.9004 133.987 81.2371 133.924 80.574C133.765 78.8925 133.606 77.2113 133.446 75.5298" stroke="#263138" stroke-width="1.33367" stroke-miterlimit="10" stroke-linecap="round" stroke-linejoin="round"/>
<path d="M295.436 162.702C295.436 162.702 237.719 111.125 234.041 107.874C230.363 104.624 227.675 104.765 225.694 102.787C223.714 100.809 222.723 99.3959 214.66 99.5372C206.596 99.6782 195.845 95.2979 193.44 93.7434C191.035 92.1889 187.64 93.3195 185.377 92.4396C183.113 91.5597 177.313 92.3302 173.776 92.4396C170.24 92.549 169.957 88.9389 171.371 84.8406C172.786 80.7427 183.537 78.1992 184.952 79.0469C186.367 79.8948 192.025 77.4926 192.025 77.4926C191.176 74.5252 191.459 67.3182 191.459 67.3182C191.459 67.3182 185.518 64.7745 183.254 63.9269C180.991 63.079 177.879 63.3616 177.879 63.3616C177.879 63.3616 178.586 60.1209 179.718 58.9149C180.849 57.7089 186.225 56.5786 191.459 52.9046C196.693 49.2306 199.947 48.3827 200.796 48.6653C201.645 48.9477 207.445 50.6435 209.001 50.6435C210.557 50.6435 212.82 49.2303 215.084 49.6545C217.347 50.0785 221.449 53.6112 223.289 54.0349C225.127 54.4588 225.685 54.8409 228.098 54.8409C229.16 54.8409 233.474 57.9918 233.474 57.9918C233.474 57.9918 236.02 58.4157 238.708 59.6876C241.396 60.9595 244.225 67.0356 245.499 69.0141C246.772 70.9922 246.913 75.7968 246.913 75.7968C246.913 75.7968 250.308 77.6337 251.582 80.1774C252.855 82.7209 299.68 107.874 299.68 107.874C299.68 107.874 307.083 136.796 295.436 162.702L295.436 162.702Z" fill="white"/>
<path d="M254.311 125.96C243.97 116.716 235.387 109.058 234.043 107.872C230.359 104.621 227.677 104.764 225.696 102.785C223.715 100.806 222.721 99.3987 214.661 99.5347C206.594 99.6774 195.845 95.2982 193.442 93.7407C191.039 92.1906 187.641 93.3192 185.374 92.4407C183.114 91.562 177.314 92.3336 173.774 92.4407C170.241 92.5479 169.955 88.9403 171.371 84.8396C172.787 80.746 183.536 78.2028 184.952 79.0458C186.368 79.8959 192.025 77.4957 192.025 77.4957C191.174 74.5236 191.461 67.3155 191.461 67.3155C191.461 67.3155 185.517 64.7723 183.257 63.9291C180.99 63.079 177.879 63.3647 177.879 63.3647C177.879 63.3647 178.587 60.1212 179.717 58.9141C180.847 57.7067 186.226 56.5781 191.461 52.906C196.696 49.2339 199.95 48.3838 200.794 48.6626C201.645 48.9483 207.445 50.6413 209.004 50.6413C210.184 50.6413 211.779 49.827 213.474 49.6199C212.101 50.384 211.15 51.8416 211.407 52.6203C211.815 53.8492 212.967 56.9783 213.031 57.1783C212.723 56.8783 205.307 49.5628 200.515 49.9413C196.374 50.2628 192.169 57.2285 192.877 62.3432C193.585 67.4582 191.869 67.4582 192.798 71.2733C193.721 75.088 194.572 80.4603 193.156 82.582C191.74 84.6969 188.915 80.932 188.915 80.932C188.915 80.932 185.332 82.725 185.332 86.8186C185.332 90.9193 189.588 91.1978 192.155 91.6264C194.715 92.0479 204.027 97.1629 210.406 97.4345C216.786 97.6987 216.786 97.6987 216.786 97.6987C216.786 97.6987 213.103 92.6906 214.662 92.4407C216.214 92.1906 220.884 92.6407 223.995 97.4343C227.113 102.221 229.43 103.299 235.131 105.657C238.42 107.014 247.303 116.595 254.312 125.96H254.311Z" fill="#FCE9B2" fill-opacity="0.4"/>
<path d="M282.575 98.5631C281.71 98.1559 253.968 85.0965 252.573 83.1461C251.157 81.1671 249.462 80.7173 247.903 78.7529C246.351 76.7882 241.116 75.5166 240.408 72.8304C239.7 70.1443 238.849 61.993 237.576 60.9859C236.303 59.9713 234.186 58.914 234.186 58.914L236.289 64.1505C236.289 64.1505 231.497 57.3708 230.36 57.1851C229.23 57.0066 231.59 62.1145 231.383 61.9572C231.247 61.8575 225.983 56.9565 221.635 53.2844C222.278 53.656 222.851 53.9345 223.287 54.0345C225.132 54.4563 225.69 54.842 228.1 54.842C229.159 54.842 233.478 57.9923 233.478 57.9923C233.478 57.9923 236.024 58.414 238.713 59.6853C241.395 60.9572 244.228 67.0367 245.5 69.0154C246.774 70.9944 246.916 75.7951 246.916 75.7951C246.916 75.7951 250.313 77.6311 251.587 80.1743C252.338 81.6814 269.066 91.1189 282.576 98.5631H282.575Z" fill="#FCE8B2" fill-opacity="0.4" stroke="#FDE6AB" stroke-opacity="0.4" stroke-width="0.287917" stroke-miterlimit="22.9256"/>
<path d="M282.597 98.5701C282.597 98.5701 282.59 98.5701 282.575 98.5627C282.583 98.5627 282.59 98.5627 282.59 98.5627C282.597 98.5701 282.597 98.5701 282.597 98.5701Z" fill="#91E2A8" fill-opacity="0.4"/>
<path d="M295.436 162.702C295.436 162.702 237.719 111.125 234.041 107.874C230.363 104.624 227.675 104.765 225.694 102.787C223.714 100.809 222.723 99.3959 214.66 99.5372C206.596 99.6782 195.845 95.2979 193.44 93.7434C191.035 92.1889 187.64 93.3195 185.377 92.4396C183.113 91.5597 177.313 92.3302 173.776 92.4396C170.24 92.549 169.957 88.9389 171.371 84.8406C172.786 80.7427 183.537 78.1992 184.952 79.0469C186.367 79.8948 192.025 77.4926 192.025 77.4926C191.176 74.5252 191.459 67.3182 191.459 67.3182C191.459 67.3182 185.518 64.7745 183.254 63.9269C180.991 63.079 177.879 63.3616 177.879 63.3616C177.879 63.3616 178.586 60.1209 179.718 58.9149C180.849 57.7089 186.225 56.5786 191.459 52.9046C196.693 49.2306 199.947 48.3827 200.796 48.6653C201.645 48.9477 207.445 50.6435 209.001 50.6435C210.557 50.6435 212.82 49.2303 215.084 49.6545C217.347 50.0785 221.449 53.6112 223.289 54.0349C225.127 54.4588 225.685 54.8409 228.098 54.8409C229.16 54.8409 233.474 57.9918 233.474 57.9918C233.474 57.9918 236.02 58.4157 238.708 59.6876C241.396 60.9595 244.225 67.0356 245.499 69.0141C246.772 70.9922 246.913 75.7968 246.913 75.7968C246.913 75.7968 250.308 77.6337 251.582 80.1774C252.855 82.7209 299.68 107.874 299.68 107.874" stroke="#263138" stroke-width="1.33367" stroke-miterlimit="10" stroke-linecap="round" stroke-linejoin="round"/>
<path d="M191.46 67.3188C191.46 67.3188 192.12 61.76 191.46 60.9832" stroke="#263138" stroke-width="1.33367" stroke-miterlimit="10" stroke-linecap="round" stroke-linejoin="round"/>
<path d="M208.907 53.7056C208.907 53.7056 218.527 61.845 219.281 62.3444" stroke="#263138" stroke-width="1.33367" stroke-miterlimit="10" stroke-linecap="round" stroke-linejoin="round"/>
<path d="M217.945 50.968C219.265 51.7936 229.938 61.2421 233.428 63.409" stroke="#263138" stroke-width="1.33367" stroke-miterlimit="10" stroke-linecap="round" stroke-linejoin="round"/>
<path d="M246.915 75.7972C245.877 75.1849 243.142 73.8659 242.859 72.8298" stroke="#263138" stroke-width="1.33367" stroke-miterlimit="10" stroke-linecap="round" stroke-linejoin="round"/>
<path d="M192.025 77.4929C192.025 77.4929 192.591 79.8008 192.025 80.9314" stroke="#263138" stroke-width="1.33367" stroke-miterlimit="10" stroke-linecap="round" stroke-linejoin="round"/>
<path d="M183.538 84.7939C183.538 84.7939 182.218 88.4679 185.33 90.9175" stroke="#263138" stroke-width="1.33367" stroke-miterlimit="10" stroke-linecap="round" stroke-linejoin="round"/>
<path d="M196.364 49.9377C194.76 51.5391 194.478 53.7057 194.478 53.7057" stroke="#263138" stroke-width="1.33367" stroke-miterlimit="10" stroke-linecap="round" stroke-linejoin="round"/>
<path d="M181.651 60.9832C181.651 60.9832 182.409 63.5379 185.329 64.7489" stroke="#263138" stroke-width="1.33367" stroke-miterlimit="10" stroke-linecap="round" stroke-linejoin="round"/>
<path d="M223.996 101.216C222.016 98.0771 217.945 93.6494 217.945 93.6494" stroke="#263138" stroke-width="1.33367" stroke-miterlimit="10" stroke-linecap="round" stroke-linejoin="round"/>
<path d="M26.1289 289.599C26.1289 289.599 72.331 259.264 75.1602 255.349C77.9894 251.433 80.253 249.655 80.253 249.655C80.253 249.655 81.5734 238.351 84.9685 232.51C88.3636 226.669 89.6841 222.335 91.1928 219.321C92.7019 216.306 99.8694 214.045 101.944 212.915C104.019 211.784 107.603 209.523 109.678 209.523C111.753 209.523 114.205 210.842 114.205 210.842C114.205 210.842 121.184 207.262 124.39 209.523C124.39 209.523 132.312 209.9 134.198 209.712C136.085 209.523 138.914 210.842 138.914 210.842C138.914 210.842 143.629 207.46 146.836 208.774C150.042 210.088 151.567 210.653 151.653 212.537C151.74 214.422 150.86 220.828 150.86 220.828L149.288 220.828C149.288 220.828 144.007 227.689 143.441 229.063C142.875 230.437 139.857 237.973 139.857 237.973C139.857 237.973 143.819 234.959 146.27 232.698C148.722 230.437 153.061 226.103 157.587 224.973C162.114 223.842 165.321 226.37 165.321 229.063C165.321 229.063 160.04 233.263 158.908 234.582C157.776 235.901 155.732 239.292 153.453 241.741C151.175 244.191 145.893 254.365 141.366 259.264C136.84 264.162 117.034 274.713 112.507 276.221C112.507 276.221 84.9688 295.439 72.8972 311.642C72.8972 311.642 40.081 311.831 26.1295 289.598L26.1289 289.599Z" fill="white"/>
<path d="M115.716 272.076C116.109 272.476 117.719 272.719 119.986 272.762C116.653 274.469 113.878 275.762 112.505 276.219C112.505 276.219 94.4964 288.785 81.2227 302.166C85.7926 294.901 94.5678 285.835 97.8292 283.949C102.37 281.305 111.096 272.776 111.096 272.776C111.096 272.776 114.407 270.754 115.716 272.076H115.716Z" fill="#91E2A8" fill-opacity="0.4"/>
<path d="M146.268 232.698C147.763 231.32 149.951 229.176 152.462 227.462C148.857 231.234 146.855 236.092 146.855 236.092C145.982 240.828 137.801 250.594 137.801 250.594C140.44 242.121 138.173 240.421 138.916 237.971C139.653 235.527 140.139 229.512 140.139 229.512C140.139 229.512 141.57 227.048 143.078 226.483C144.587 225.912 148.55 215.932 149.286 214.581C150.03 213.231 144.402 211.031 142.893 210.845C141.384 210.652 140.819 213.288 137.8 214.581C134.782 215.867 130.992 218.246 129.597 219.632C128.253 220.975 125.778 227.148 125.621 227.526C125.728 227.098 127.437 220.218 127.881 218.846C128.253 217.703 131.879 215.596 133.223 214.846C130.992 215.882 129.74 213.917 127.881 212.131C125.886 210.216 122.91 209.609 119.656 210.602C116.402 211.595 114.221 214.046 114.207 213.86C114.192 213.667 109.343 212.824 107.792 213.288C106.239 213.76 102.585 215.396 102.585 215.396C102.585 215.396 99.2808 213.496 93.8526 218.846C91.5855 221.082 84.0402 238.164 85.1703 236.092C86.2718 234.084 91.2278 227.948 91.5355 227.569C91.1853 228.369 81.1798 250.816 79.1344 252.209C77.0603 253.63 76.4952 258.695 69.1432 262.846C62.1487 266.782 35.1718 283.721 32.4971 285.4C45.2703 276.927 72.9909 258.36 75.1579 255.352C77.9902 251.437 80.2502 249.658 80.2502 249.658C80.2502 249.658 81.5731 238.349 84.9704 232.513C88.3674 226.669 89.6834 222.333 91.1925 219.318C92.7015 216.303 99.8676 214.046 101.942 212.917C104.023 211.781 107.606 209.524 109.68 209.524C111.754 209.524 114.207 210.845 114.207 210.845C114.207 210.845 121.187 207.259 124.391 209.524C124.391 209.524 132.316 209.903 134.197 209.709C136.085 209.524 138.917 210.845 138.917 210.845C138.917 210.845 143.63 207.459 146.834 208.774C150.045 210.088 151.568 210.652 151.654 212.539C151.74 214.425 150.862 220.828 150.862 220.828L149.287 220.826C149.287 220.826 144.009 227.691 143.444 229.063C142.879 230.434 139.861 237.971 139.861 237.971C139.861 237.971 143.816 234.956 146.269 232.699L146.268 232.698Z" fill="#FCE8B6" fill-opacity="0.4"/>
<path d="M165.32 229.062C165.32 229.062 160.042 233.263 158.905 234.584C158.226 235.378 157.217 236.92 156.016 238.556C156.96 235.585 157.224 232.698 157.224 232.698C157.224 232.698 158.919 230.062 161.752 229.119C162.889 228.74 164.176 228.726 165.306 228.848C165.32 228.919 165.32 228.99 165.32 229.062Z" fill="#FCE8B2" fill-opacity="0.4"/>
<path d="M26.1289 289.599C26.1289 289.599 72.331 259.264 75.1602 255.349C77.9894 251.433 80.253 249.655 80.253 249.655C80.253 249.655 81.5734 238.351 84.9685 232.51C88.3636 226.669 89.6841 222.335 91.1928 219.321C92.7019 216.306 99.8694 214.045 101.944 212.915C104.019 211.784 107.603 209.523 109.678 209.523C111.753 209.523 114.205 210.842 114.205 210.842C114.205 210.842 121.184 207.262 124.39 209.523C124.39 209.523 132.312 209.9 134.198 209.712C136.085 209.523 138.914 210.842 138.914 210.842C138.914 210.842 143.629 207.46 146.836 208.774C150.042 210.088 151.567 210.653 151.653 212.537C151.74 214.422 150.86 220.828 150.86 220.828" stroke="#263138" stroke-width="1.33367" stroke-miterlimit="10" stroke-linecap="round" stroke-linejoin="round"/>
<path d="M150.86 220.828L149.288 220.828" stroke="#263138" stroke-width="1.33367" stroke-miterlimit="10" stroke-linecap="round" stroke-linejoin="round"/>
<path d="M149.287 220.828C149.287 220.828 144.006 227.689 143.44 229.063C142.875 230.436 139.857 237.973 139.857 237.973C139.857 237.973 143.818 234.958 146.27 232.698C148.722 230.436 153.06 226.103 157.587 224.973C162.114 223.842 165.32 226.37 165.32 229.063C165.32 229.063 160.039 233.263 158.907 234.582C157.776 235.9 155.732 239.292 153.453 241.741C151.174 244.191 145.892 254.365 141.366 259.264C136.839 264.162 117.034 274.713 112.507 276.221C112.507 276.221 84.9681 295.439 72.8965 311.642" stroke="#263138" stroke-width="1.33367" stroke-miterlimit="10" stroke-linecap="round" stroke-linejoin="round"/>
<path d="M139.856 237.974C139.856 237.974 140.988 243.626 138.725 248.713" stroke="#263138" stroke-width="1.33367" stroke-miterlimit="10" stroke-linecap="round" stroke-linejoin="round"/>
<path d="M132.501 215.176C132.501 215.176 135.707 213.857 138.914 210.842" stroke="#263138" stroke-width="1.33367" stroke-miterlimit="10" stroke-linecap="round" stroke-linejoin="round"/>
<path d="M149.288 220.828C149.288 220.828 150.326 218.755 150.514 216.871" stroke="#263138" stroke-width="1.33367" stroke-miterlimit="10" stroke-linecap="round" stroke-linejoin="round"/>
<path d="M124.39 209.523C124.39 209.523 120.712 209.335 118.071 211.69" stroke="#263138" stroke-width="1.33367" stroke-miterlimit="10" stroke-linecap="round" stroke-linejoin="round"/>
<path d="M114.204 210.842C114.204 210.842 108.546 213.48 106.565 213.48C104.585 213.48 101.378 216.117 101.378 216.871" stroke="#263138" stroke-width="1.33367" stroke-miterlimit="10" stroke-linecap="round" stroke-linejoin="round"/>
<path d="M80.2529 249.655C80.2529 249.655 82.7995 245.887 84.3082 241.459" stroke="#263138" stroke-width="1.33367" stroke-miterlimit="10" stroke-linecap="round" stroke-linejoin="round"/>
<path d="M133.727 216.871C133.727 216.871 130.143 217.813 128.917 220.828C127.691 223.843 122.032 234.299 122.032 234.299" stroke="#263138" stroke-width="1.33367" stroke-miterlimit="10" stroke-linecap="round" stroke-linejoin="round"/>
<path d="M115.713 215.176C114.959 216.966 106.471 232.698 106.471 232.698" stroke="#263138" stroke-width="1.33367" stroke-miterlimit="10" stroke-linecap="round" stroke-linejoin="round"/>
</g>
<defs>
<clipPath id="clip0_948_832">
<rect width="302" height="312" fill="white"/>
</clipPath>
</defs>
</svg>
