<svg width="20" height="20" viewBox="0 0 20 20" fill="none" xmlns="http://www.w3.org/2000/svg">
<g clip-path="url(#clip0_274_638)">
<path d="M10.0381 20C4.5896 20 0.171906 15.5099 0.178229 9.98185C0.184553 4.46873 4.61173 -0.00800251 10.0534 1.07409e-05C15.495 0.00802399 19.9079 4.48743 19.9043 10.007C19.9006 15.5265 15.4797 20.0016 10.0381 20ZM16.1158 10.0102H16.1337C16.1337 9.26226 16.1384 8.51436 16.1311 7.77073C16.1328 7.47738 16.1143 7.18427 16.0757 6.89354C15.886 5.61409 15.2621 4.65998 14.0389 4.17598C13.5341 3.98128 12.9981 3.88328 12.458 3.88697C10.9122 3.88127 9.36741 3.88127 7.8237 3.88697C7.49531 3.88592 7.16736 3.91146 6.84298 3.96336C5.60036 4.17331 4.67919 4.81811 4.21861 6.04414C4.03612 6.54538 3.94557 7.07621 3.95143 7.61046C3.95143 9.1629 3.94827 10.7159 3.95143 12.2688C3.94967 12.5548 3.96905 12.8405 4.0094 13.1236C4.19121 14.3106 4.75192 15.2321 5.86332 15.745C6.40588 15.9891 6.9935 16.1133 7.58708 16.1093C9.22389 16.1189 10.8605 16.1189 12.497 16.1093C13.1325 16.105 13.7528 15.9843 14.3272 15.6926C15.5066 15.0943 16.0262 14.0563 16.1047 12.7849C16.1616 11.8639 16.1158 10.9349 16.1158 10.0086V10.0102Z" fill="white"/>
<path d="M16.1158 10.0086C16.1158 10.9349 16.1616 11.8639 16.1047 12.7865C16.0262 14.058 15.5066 15.0959 14.3272 15.6943C13.7528 15.9859 13.1326 16.1067 12.497 16.1109C10.8606 16.1223 9.22392 16.1223 7.58711 16.1109C6.99352 16.1149 6.40591 15.9907 5.86335 15.7466C4.75194 15.2338 4.19123 14.3122 4.00942 13.1252C3.96907 12.8422 3.94969 12.5564 3.95145 12.2705C3.94618 10.7175 3.94829 9.16453 3.95145 7.6121C3.94553 7.07766 4.03608 6.54664 4.21863 6.04524C4.67922 4.81654 5.60038 4.17548 6.84301 3.96447C7.16665 3.91214 7.49389 3.88606 7.82162 3.88647C9.36743 3.87899 10.9122 3.87899 12.4559 3.88647C12.996 3.88278 13.5321 3.98077 14.0369 4.17548C15.26 4.65948 15.8813 5.61359 16.0736 6.89304C16.1127 7.18321 16.1317 7.47577 16.1306 7.76862C16.1379 8.51652 16.1332 9.26443 16.1332 10.0081L16.1158 10.0086ZM10.046 5.04038V5.02007C9.88792 5.02007 9.72982 5.02007 9.57173 5.02007C8.77019 5.0377 7.96653 5.02382 7.16816 5.08472C6.24593 5.15523 5.56191 5.62374 5.25679 6.53725C5.14266 6.88402 5.08205 7.24657 5.07709 7.6121C5.05759 9.15171 5.06707 10.6919 5.07024 12.232C5.07103 12.4384 5.08317 12.6446 5.1066 12.8496C5.2394 14.0286 6.01775 14.8262 7.17817 14.9116C7.93702 14.9651 8.70168 14.9715 9.4637 14.9693C10.6136 14.9656 11.7656 14.9693 12.9128 14.9068C13.8361 14.8534 14.5201 14.3694 14.8236 13.457C14.9398 13.0967 15.0002 12.7205 15.0028 12.3415C15.0223 10.8088 15.0128 9.27511 15.0097 7.74191C15.0091 7.52206 14.9954 7.30245 14.9686 7.08429C14.8452 6.07836 14.2197 5.36304 13.2516 5.13921C12.9888 5.07953 12.7205 5.04766 12.4512 5.04412C11.6491 5.03503 10.8481 5.04251 10.046 5.04251V5.04038Z" fill="white"/>
<path d="M10.0287 13.25C9.60565 13.2494 9.18692 13.1637 8.79676 12.9979C8.4066 12.832 8.05279 12.5894 7.7558 12.284C7.45882 11.9785 7.22457 11.6164 7.06664 11.2185C6.9087 10.8207 6.83021 10.395 6.83572 9.96616C6.83885 9.53736 6.92588 9.11345 7.09175 8.71899C7.25763 8.32453 7.49906 7.96734 7.80206 7.66813C8.10507 7.36892 8.46362 7.13362 8.85696 6.97587C9.2503 6.81811 9.6706 6.74104 10.0935 6.74911C10.9411 6.76135 11.7492 7.11402 12.3406 7.72969C12.9319 8.34535 13.2581 9.17371 13.2475 10.0329C13.2411 10.8921 12.8985 11.7136 12.2949 12.3168C11.6914 12.92 10.8763 13.2557 10.0287 13.25ZM10.0682 7.90355C9.79657 7.89924 9.52673 7.94936 9.27422 8.05102C9.0217 8.15269 8.79147 8.30391 8.59675 8.49599C8.40202 8.68808 8.24664 8.91725 8.1395 9.17037C8.03236 9.42348 7.97558 9.69556 7.97242 9.97097C7.94765 11.1217 8.86092 12.0726 10.0124 12.0955C11.1512 12.1185 12.0829 11.1991 12.1077 10.0281C12.1122 9.75265 12.0629 9.47899 11.9628 9.22288C11.8626 8.96678 11.7134 8.73328 11.5239 8.53582C11.3343 8.33837 11.1081 8.18086 10.8583 8.07235C10.6085 7.96383 10.34 7.90647 10.0682 7.90355Z" fill="white"/>
<path d="M13.2776 7.41204C13.1938 7.41467 13.1104 7.40041 13.0321 7.37007C12.9539 7.33974 12.8824 7.29394 12.8217 7.23534C12.761 7.17674 12.7125 7.1065 12.6788 7.02871C12.6452 6.95092 12.6271 6.86713 12.6257 6.7822C12.6235 6.69582 12.6383 6.60985 12.6694 6.52938C12.7004 6.4489 12.7471 6.37555 12.8066 6.31366C12.866 6.25176 12.9372 6.20257 13.0157 6.169C13.0943 6.13542 13.1786 6.11814 13.2639 6.11817C13.4328 6.11731 13.5953 6.18424 13.7157 6.30434C13.8362 6.42444 13.9049 6.58797 13.9068 6.75923C13.9086 6.93035 13.8434 7.0952 13.7254 7.2176C13.6075 7.34 13.4464 7.40993 13.2776 7.41204Z" fill="white"/>
<path d="M10.0457 5.04219C10.8478 5.04219 11.6504 5.03471 12.4519 5.04646C12.7213 5.05 12.9896 5.08187 13.2524 5.14155C14.2205 5.36539 14.846 6.0807 14.9693 7.08663C14.9962 7.30479 15.0099 7.5244 15.0104 7.74425C15.0136 9.27745 15.0231 10.8112 15.0036 12.3439C15.001 12.7228 14.9406 13.0991 14.8244 13.4593C14.5209 14.3717 13.8369 14.8573 12.9136 14.9092C11.7663 14.9738 10.6144 14.9679 9.46447 14.9717C8.70246 14.9717 7.93622 14.9717 7.17895 14.914C6.01959 14.8285 5.24018 14.0309 5.10738 12.8519C5.08395 12.6469 5.07181 12.4407 5.07102 12.2343C5.06786 10.6942 5.05837 9.15405 5.07787 7.61444C5.08283 7.24891 5.14344 6.88636 5.25757 6.53959C5.56269 5.62608 6.24672 5.15758 7.16894 5.08706C7.96732 5.02616 8.77096 5.04005 9.57251 5.02242C9.7306 5.01922 9.8887 5.02242 10.0468 5.02242L10.0457 5.04219ZM10.0283 13.2499C10.8759 13.2556 11.691 12.9199 12.2946 12.3167C12.8981 11.7135 13.2408 10.892 13.2472 10.0328C13.2577 9.17361 12.9315 8.34525 12.3402 7.72959C11.7489 7.11392 10.9407 6.76125 10.0932 6.74901C9.67024 6.74094 9.24993 6.81801 8.85659 6.97577C8.46326 7.13352 8.1047 7.36882 7.8017 7.66803C7.4987 7.96724 7.25726 8.32443 7.09139 8.71889C6.92551 9.11335 6.83849 9.53726 6.83536 9.96606C6.82985 10.3949 6.90834 10.8206 7.06627 11.2184C7.22421 11.6163 7.45845 11.9784 7.75544 12.2839C8.05242 12.5893 8.40624 12.8319 8.7964 12.9978C9.18655 13.1636 9.60529 13.2493 10.0283 13.2499ZM13.2772 7.41197C13.446 7.40986 13.6071 7.33992 13.725 7.21752C13.843 7.09513 13.9082 6.93027 13.9064 6.75916C13.9045 6.5879 13.8358 6.42437 13.7153 6.30427C13.5949 6.18416 13.4324 6.11724 13.2635 6.1181C13.1783 6.11807 13.0939 6.13535 13.0153 6.16893C12.9368 6.2025 12.8657 6.25169 12.8062 6.31359C12.7467 6.37548 12.7 6.44883 12.669 6.5293C12.6379 6.60978 12.6231 6.69575 12.6253 6.78213C12.6267 6.86706 12.6448 6.95085 12.6784 7.02864C12.7121 7.10643 12.7607 7.17666 12.8213 7.23527C12.882 7.29387 12.9535 7.33966 13.0318 7.37C13.11 7.40034 13.1934 7.4146 13.2772 7.41197Z" fill="#760371"/>
<path d="M10.0679 7.90356C10.3399 7.90634 10.6087 7.96365 10.8587 8.0722C11.1087 8.18075 11.3351 8.33838 11.5248 8.53602C11.7145 8.73366 11.8637 8.9674 11.9638 9.22376C12.064 9.48012 12.1131 9.75404 12.1084 10.0297C12.0836 11.2007 11.1519 12.1201 10.0131 12.0972C8.86164 12.0742 7.94838 11.1233 7.97315 9.97258C7.9761 9.69712 8.03269 9.42497 8.13967 9.17174C8.24665 8.91851 8.40191 8.68919 8.59655 8.49695C8.79118 8.30471 9.02135 8.15333 9.27385 8.0515C9.52634 7.94967 9.79619 7.89939 10.0679 7.90356Z" fill="#760371"/>
</g>
<defs>
<clipPath id="clip0_274_638">
<rect width="19.726" height="20" fill="white" transform="translate(0.178223)"/>
</clipPath>
</defs>
</svg>
