<svg width="20" height="21" viewBox="0 0 20 21" fill="none" xmlns="http://www.w3.org/2000/svg">
<g clip-path="url(#clip0_274_675)">
<path d="M0.274414 11.1264V9.87855C0.289183 9.74878 0.306398 9.62898 0.321167 9.49421C0.542453 7.32285 1.45708 5.28417 2.92594 3.68815C4.39479 2.09213 6.33752 1.02612 8.45872 0.652204C8.81071 0.592309 9.1676 0.552354 9.52205 0.502441H10.7528C10.802 0.502441 10.8513 0.529864 10.9005 0.534855C12.4173 0.636539 13.887 1.11014 15.1834 1.91495C16.4099 2.6439 17.4641 3.63628 18.2721 4.82234C19.08 6.00839 19.622 7.35936 19.8601 8.78044C19.9266 9.1423 19.9611 9.51169 20.0103 9.87855V11.1264C19.9832 11.3759 19.9561 11.6005 19.9241 11.8401C19.6398 13.9393 18.7067 15.8933 17.2588 17.4213C15.811 18.9494 13.9228 19.973 11.8654 20.3452C11.5011 20.4126 11.1269 20.45 10.7651 20.4999H9.53437C9.28823 20.47 9.0421 20.445 8.81072 20.4101C6.744 20.1184 4.82131 19.1711 3.31802 17.7039C1.81472 16.2367 0.807929 14.3247 0.441806 12.2419C0.360578 11.8726 0.323643 11.4982 0.274414 11.1264ZM10.1374 17.0035C10.2113 16.9212 10.2753 16.8588 10.3294 16.7889C11.0678 15.8905 11.8063 15.007 12.5103 14.0862C13.3091 13.0663 13.9896 11.9568 14.5385 10.7794C14.8905 9.99831 15.1243 9.19725 14.9865 8.32378C14.6788 6.38217 13.645 4.99209 11.826 4.31328C10.007 3.63447 8.3332 3.98637 6.87356 5.27162C5.59607 6.39715 4.65826 8.59827 5.73391 10.7894C6.21009 11.754 6.75982 12.6794 7.37814 13.5571C8.2314 14.7591 9.1527 15.9098 10.1374 17.0035Z" fill="white"/>
<path d="M10.1198 16.9361C9.13444 15.8429 8.21311 14.6921 7.3605 13.4896C6.74218 12.6119 6.19241 11.6865 5.71624 10.722C4.6332 8.5308 5.5784 6.32969 6.85589 5.20416C8.31553 3.91891 9.99915 3.57199 11.8083 4.24581C13.6175 4.91963 14.6611 6.31471 14.9688 8.25631C15.1066 9.12978 14.8728 9.93334 14.5208 10.712C13.9719 11.8894 13.2914 12.9989 12.4926 14.0187C11.7911 14.9396 11.0428 15.823 10.3118 16.7215C10.2601 16.7914 10.1961 16.8563 10.1198 16.9361ZM8.39676 9.1098C8.39335 9.48117 8.49871 9.84519 8.69948 10.1558C8.90025 10.4665 9.18741 10.7097 9.5246 10.8548C9.86179 10.9999 10.2339 11.0403 10.5937 10.9709C10.9535 10.9014 11.285 10.7254 11.546 10.4648C11.8071 10.2043 11.9861 9.87116 12.0603 9.50748C12.1345 9.14379 12.1006 8.76594 11.9629 8.42179C11.8252 8.07764 11.59 7.78265 11.2868 7.57415C10.9837 7.36566 10.6263 7.25305 10.2601 7.25056C9.77018 7.2479 9.2992 7.44193 8.95004 7.79033C8.60088 8.13873 8.40195 8.61313 8.39676 9.1098Z" fill="#2F383B"/>
<path d="M8.28615 9.01038C8.28615 7.78502 9.18948 6.79923 10.2897 6.80422C11.39 6.80921 12.2761 7.81996 12.2589 9.06528C12.2417 10.3106 11.3457 11.2689 10.2455 11.2589C9.14519 11.249 8.28123 10.2332 8.28615 9.01038Z" fill="white"/>
</g>
<defs>
<clipPath id="clip0_274_675">
<rect width="19.726" height="20" fill="white" transform="translate(0.274414 0.5)"/>
</clipPath>
</defs>
</svg>
