<svg width="61" height="74" viewBox="0 0 61 74" fill="none" xmlns="http://www.w3.org/2000/svg">
<path d="M36.6303 0.552368C38.1386 1.2029 38.6865 2.50204 38.6106 4.30292C38.5528 5.60779 38.599 6.91839 38.599 8.24043C40.9687 7.69673 42.9918 9.71509 42.5991 12.6892C44.8592 12.8102 47.0878 13.3499 49.1999 14.2879C53.6983 16.2871 57.398 19.4005 59.3848 24.6544C61.5581 30.3966 60.7413 35.7591 57.2132 40.4044C53.3583 45.477 48.4375 48.4606 42.6519 49.4984C38.8927 50.1738 35.4422 49.3592 32.4339 46.5854C29.5543 43.9298 28.0213 40.3452 27.518 36.196C26.8233 30.4576 27.9833 25.1408 30.5362 20.1999C30.6088 20.0587 30.6715 19.9137 30.7623 19.7248L29.8365 19.0247C28.8926 20.3309 27.9459 21.6402 26.9965 22.9527C25.7176 24.7268 24.4552 26.5182 23.1532 28.2714C22.7602 28.7922 22.5552 29.4676 22.5806 30.1581C22.5922 42.6498 22.5806 55.1491 22.6004 67.6331C22.6004 69.8747 21.9948 71.708 20.338 72.9346C19.8116 73.3162 19.1829 73.5222 18.6003 73.8084H16.9848C15.9039 73.4268 14.9089 72.8698 14.1415 71.79C13.3627 72.906 12.3692 73.4287 11.3032 73.8084H9.69758C6.81304 72.8927 5.61664 70.5023 5.6777 66.994C5.78661 60.8894 5.70906 54.7847 5.70906 48.68V47.8635C5.61135 47.8686 5.51418 47.8833 5.41863 47.9074C3.02585 48.9795 0.36078 46.8448 0.416887 43.5788C0.496096 38.9813 0.430094 34.3799 0.438345 29.7785C0.449131 27.2378 1.14698 24.7646 2.43418 22.7053C3.72137 20.6459 5.53345 19.1035 7.61668 18.2941C8.08863 18.1033 8.57049 17.9697 9.10185 17.7885C7.93682 16.4722 7.13978 14.9632 6.9137 13.1776C6.76725 11.8078 6.71648 10.4266 6.76188 9.0474C6.80644 6.23353 7.8213 3.95953 9.75037 2.23115C10.7289 1.3536 11.8692 0.93391 13.0376 0.552368H15.2604C15.3668 0.612055 15.4771 0.661819 15.5904 0.701175C18.3495 1.44327 20.2621 3.33572 21.1549 6.44719C21.8034 8.70401 21.6697 11.0543 21.3479 13.3684C21.1334 14.8945 20.437 16.1898 19.6466 17.4547C20.0481 17.2591 20.4108 16.9708 20.7126 16.6076C22.3507 14.3794 23.9717 12.1328 25.5757 9.86771C25.6424 9.76239 25.6898 9.64235 25.7148 9.51503C25.7397 9.38771 25.7418 9.25582 25.7209 9.12752C25.5969 8.66004 25.571 8.16514 25.6453 7.68378C25.7197 7.20242 25.8921 6.74845 26.1483 6.35943C27.6979 3.93283 29.688 2.20253 32.1699 1.27539C32.9818 0.97206 33.8201 0.790832 34.6551 0.552368H36.6303ZM29.391 33.5385C29.4652 34.2673 29.5048 35.4672 29.721 36.6233C30.9702 43.3976 35.2607 48.0581 41.8713 47.1443C47.2147 46.4041 51.7725 43.5941 55.4524 39.0289C57.1835 36.8847 58.2396 34.3264 58.3766 31.3428C58.5746 27.0848 57.0399 23.6376 54.459 20.8027C51.2114 17.2353 47.2328 15.5489 42.812 15.1425C41.6015 15.0041 40.3838 15.3056 39.3284 16.0048C37.6172 17.1342 35.8284 18.1033 34.0825 19.1735C33.7746 19.3609 33.5042 19.6209 33.2887 19.9366C30.7128 23.8035 29.5081 28.2141 29.391 33.5385ZM10.1596 20.1674C5.86913 20.6196 2.5836 24.8413 2.55555 29.9292C2.53245 34.4581 2.55555 38.9889 2.55555 43.5197C2.55483 43.8051 2.58419 44.0895 2.64301 44.3667C2.73165 44.7601 2.93386 45.1067 3.21614 45.349C3.49843 45.5914 3.84387 45.715 4.19524 45.6994C4.54661 45.6838 4.88283 45.53 5.14823 45.2633C5.41363 44.9967 5.59229 44.6332 5.65461 44.2332C5.69781 43.9037 5.71713 43.5706 5.71236 43.2373C5.71236 38.875 5.71236 34.5115 5.71236 30.1466C5.71236 29.1928 6.11831 28.6205 6.76684 28.6205C7.41536 28.6205 7.82791 29.2119 7.83616 30.1466C7.83616 30.3374 7.83616 30.5282 7.83616 30.719V67.5587C7.83616 67.8449 7.82791 68.131 7.83616 68.4172C7.93847 70.3554 9.62167 71.7652 11.2009 71.2387C12.3445 70.8571 13.0541 69.6954 13.0557 68.1406C13.0557 62.0842 13.0557 56.0273 13.0557 49.9696C13.0448 49.6377 13.0776 49.3058 13.1531 48.9853C13.2256 48.7512 13.359 48.549 13.5351 48.4063C13.7112 48.2636 13.9212 48.1876 14.1362 48.1886C14.3512 48.1896 14.5607 48.2678 14.7357 48.4121C14.9107 48.5565 15.0427 48.7601 15.1135 48.9948C15.1868 49.3158 15.2191 49.6474 15.2092 49.9792C15.2092 55.8931 15.2092 61.807 15.2092 67.7209C15.2092 68.0547 15.2092 68.3886 15.229 68.7205C15.361 70.4374 16.9007 71.6927 18.3462 71.2654C19.6499 70.8839 20.4354 69.6534 20.4354 67.9784C20.4354 55.3417 20.4321 42.7045 20.4255 30.0665C20.3993 28.8458 20.771 27.6583 21.4667 26.7395C23.8216 23.5212 26.1434 20.2685 28.4718 17.0235C28.6104 16.8328 28.7886 16.5828 28.7886 16.3615C28.7886 15.1921 29.2078 14.2631 29.9438 13.4218L27.3959 11.2355C27.1335 11.5923 26.9008 11.8975 26.6847 12.2066C25.2308 14.2173 23.7704 16.2223 22.3248 18.2387C21.4238 19.494 20.2654 20.0892 18.8726 20.1255C18.6317 20.1255 18.3891 20.1255 18.2126 20.1255C17.4782 22.3708 17.2736 24.5475 17.6746 26.8444C18.0178 28.8227 18.1449 30.8506 18.3495 32.8613C18.4535 33.8838 18.0806 34.6679 17.3594 35.2345C16.7125 35.7401 16.0624 36.2437 15.4056 36.734C14.5574 37.3711 13.7059 37.3521 12.8643 36.7073C12.3148 36.2857 11.7834 35.8297 11.2141 35.4463C10.1778 34.7442 9.80815 33.7293 9.97647 32.3729C10.2256 30.3946 10.4534 28.4125 10.6761 26.4304C10.7785 25.5109 10.9864 24.5704 10.8989 23.67C10.7785 22.491 10.4204 21.3597 10.1596 20.1674ZM19.4766 10.2817H19.371C19.371 9.73417 19.4007 9.18284 19.371 8.63915C19.1779 5.58681 17.1878 3.31282 14.4831 3.02285C12.0639 2.76531 9.60352 4.75314 9.10351 7.60135C8.85268 9.0245 8.88403 10.5392 8.93849 12.0043C9.06555 14.9098 11.1052 17.3459 13.5029 17.5863C16.2439 17.8705 18.5954 16.0315 19.2126 13.0383C19.4007 12.1436 19.3957 11.1993 19.4766 10.2817ZM36.5099 6.42048H36.4472C36.4472 5.56201 36.429 4.70355 36.4472 3.84698C36.467 3.1831 36.2145 2.9618 35.6666 2.99614C32.4818 3.19836 29.9025 4.71308 27.952 7.65858C27.6451 8.12025 27.6764 8.42167 28.0906 8.77269C29.3117 9.78187 30.5081 10.8368 31.7375 11.825C31.8451 11.8891 31.9635 11.9251 32.0844 11.9303C32.2053 11.9356 32.3258 11.9101 32.4372 11.8555C33.6749 11.1611 34.9026 10.4362 36.1089 9.67121C36.2149 9.5822 36.3032 9.46811 36.3681 9.33654C36.433 9.20496 36.4729 9.05891 36.4851 8.90813C36.5396 8.08972 36.5099 7.25224 36.5099 6.41857V6.42048ZM14.1795 24.9977C13.932 24.9977 13.6844 25.0187 13.4402 24.9977C13.0772 24.9596 12.9452 25.1236 12.9055 25.551C12.6547 27.9337 12.3676 30.3202 12.1184 32.6953C12.1157 32.8114 12.1348 32.9268 12.1744 33.0335C12.214 33.1402 12.2732 33.2357 12.3478 33.3134C14.0788 34.8301 14.0838 34.8224 15.8742 33.4069C15.9089 33.3802 15.9584 33.363 15.9732 33.3249C16.0525 33.1341 16.201 32.9433 16.1828 32.7526C15.9628 30.6045 15.7296 28.4583 15.4831 26.3141C15.3214 24.9958 15.3033 24.9977 14.1795 24.9977ZM40.4951 12.1322C40.5231 10.9036 39.7393 10.3332 38.9472 10.7968C36.4763 12.2403 34.0142 13.7028 31.561 15.1845C30.9718 15.5374 30.7903 16.1803 31.0445 16.7965C31.2986 17.4127 31.8943 17.6817 32.5049 17.3211C34.9802 15.8732 37.4389 14.4138 39.8845 12.9162C40.1865 12.7331 40.373 12.2943 40.4951 12.1322ZM12.3643 20.1503C12.5194 20.8866 12.6316 21.5372 12.8049 22.1648C12.8523 22.2555 12.9174 22.3322 12.9951 22.3885C13.0728 22.4448 13.1608 22.4793 13.2521 22.4891C13.8445 22.5273 14.4419 22.5234 15.0359 22.4891C15.1878 22.4891 15.4353 22.3575 15.4683 22.2297C15.6432 21.562 15.762 20.8771 15.9089 20.1464L12.3643 20.1503Z" fill="#760371"/>
<path d="M47.6573 38.0266H37.0003V35.7313H47.6573V38.0266ZM44.6462 32.056H36.9486V29.8198H44.6462V32.056ZM41.1479 27.2884L41.3841 33.6132C41.4136 34.2676 41.3054 34.8334 41.0594 35.3107C40.8183 35.783 40.3927 36.1717 39.7826 36.4767L37.8342 35.7313C38.0753 35.6969 38.2598 35.5714 38.3877 35.3549C38.5157 35.1385 38.6018 34.8826 38.6461 34.5874C38.6903 34.2873 38.7076 34.0019 38.6977 33.7313L38.4763 27.2884C38.4419 26.2896 38.6313 25.4507 39.0446 24.7717C39.4628 24.0878 40.0311 23.5737 40.7494 23.2293C41.4678 22.8799 42.2624 22.7053 43.1332 22.7053C43.8811 22.7053 44.5502 22.8184 45.1406 23.0447C45.736 23.2711 46.2354 23.586 46.6388 23.9894C47.0472 24.3929 47.3449 24.8603 47.5318 25.3917C47.7237 25.923 47.7852 26.4962 47.7163 27.1112L45.1554 26.8972C45.1898 26.4495 45.116 26.0829 44.934 25.7976C44.7569 25.5073 44.5109 25.2957 44.196 25.1629C43.886 25.0251 43.5539 24.9562 43.1996 24.9562C42.8356 24.9562 42.4961 25.0399 42.1812 25.2072C41.8712 25.3744 41.6203 25.6303 41.4284 25.9747C41.2414 26.3191 41.1479 26.757 41.1479 27.2884Z" fill="#760371"/>
</svg>
