<svg width="53" height="69" viewBox="0 0 53 69" fill="none" xmlns="http://www.w3.org/2000/svg">
<path d="M0.393555 48.3265C0.46248 48.1032 0.531406 47.8798 0.596276 47.6565C0.810335 46.949 1.18179 46.3425 1.6623 45.9157C2.14281 45.4889 2.71012 45.2617 3.29044 45.2636C4.85343 45.2636 6.41844 45.3061 7.9794 45.2476C9.09842 45.2077 10.0614 45.556 10.8053 46.7419L12.3379 46.0027C12.121 44.8435 11.8615 43.7374 11.7115 42.6074C10.6391 34.4927 12.2751 27.4522 16.6539 21.5416C18.8108 18.6356 21.0185 15.796 23.216 12.9404C23.3256 12.827 23.4022 12.6677 23.4328 12.489C23.4635 12.3103 23.4463 12.1233 23.3842 11.9593C22.7375 9.59827 22.0949 7.23193 21.503 4.84432C21.3522 4.26296 21.3262 3.63839 21.428 3.03898C21.7544 1.47294 23.2281 0.888003 24.2357 1.84783C25.1844 2.74917 25.3689 2.73853 26.2629 1.7468C27.1135 0.802303 28.1972 0.296253 29.3116 0.323164C30.4259 0.350075 31.4946 0.908111 32.3182 1.89304C32.9953 2.69068 33.3906 2.69068 34.1021 1.95419C34.4135 1.60316 34.8051 1.3982 35.2152 1.37172C35.6253 1.34524 36.0304 1.49873 36.3665 1.80795C37.0578 2.43809 37.3193 3.50162 37.0213 4.65022C36.3949 7.06974 35.7604 9.4866 35.1016 11.8902C35.031 12.0717 35.0108 12.2798 35.0445 12.4787C35.0782 12.6776 35.1636 12.8549 35.286 12.9803C37.0781 15.2961 38.8478 17.6385 40.6298 19.965C40.948 20.3851 41.1629 20.8424 41.0352 21.4539C40.9908 21.6766 40.9031 21.8804 40.7807 22.0453C40.6582 22.2102 40.5052 22.3306 40.3366 22.3946C40.168 22.4587 39.9896 22.4642 39.8189 22.4107C39.6482 22.3572 39.491 22.2465 39.3628 22.0894C38.9188 21.5709 38.5134 20.9966 38.0937 20.4462C36.5794 18.4601 35.0732 16.458 33.5426 14.5011C33.3391 14.2565 33.0764 14.1135 32.8007 14.097C30.4221 14.0651 28.0435 14.0651 25.6648 14.097C25.405 14.1103 25.1572 14.2441 24.9655 14.4745C22.6565 17.4657 20.3515 20.4622 18.0729 23.4959C14.7503 27.9281 13.2076 33.2776 13.4569 39.478C13.526 41.3456 13.8153 43.1878 14.3145 44.9392C15.3585 44.5882 16.3417 44.1788 17.3553 43.9342C20.0778 43.2695 22.6909 43.8039 25.1864 45.3486C27.5157 46.7924 29.849 48.2574 32.1601 49.7197C33.8994 50.8178 34.6698 52.5567 34.5583 55.0905C34.5583 55.2368 34.5583 55.383 34.5583 55.734C35.1522 55.157 35.6773 54.7183 36.1395 54.1865C38.7654 51.1519 41.3805 48.1023 43.9848 45.0376C44.1512 44.8233 44.2733 44.5571 44.3396 44.2639C45.2912 40.2393 45.2834 35.9296 44.3173 31.911C44.2828 31.7621 44.2423 31.6159 44.2098 31.4643C44.0335 30.6454 44.2909 29.9462 44.8606 29.6962C44.99 29.6373 45.1274 29.6143 45.264 29.6287C45.4006 29.643 45.5335 29.6945 45.6541 29.7797C45.7747 29.865 45.8806 29.9821 45.9649 30.1238C46.0492 30.2655 46.1101 30.4287 46.1438 30.6029C46.438 31.9012 46.6823 33.2181 46.8756 34.5485C47.1811 36.9429 47.1866 39.3865 46.8918 41.7832C47.2973 41.6423 47.6784 41.4694 48.0636 41.387C48.8806 41.2039 49.7209 41.368 50.4619 41.8554C51.2028 42.3428 51.8056 43.128 52.1822 44.0964C52.5589 45.0649 52.6897 46.1658 52.5556 47.2386C52.4215 48.3115 52.0295 49.3 51.4369 50.0601C49.1488 53.0131 46.8466 55.9484 44.5301 58.866C42.9732 60.8229 41.4549 62.8543 39.7784 64.6171C37.5241 66.994 34.8684 68.2596 31.9857 68.6664C31.8537 68.697 31.7236 68.7405 31.5965 68.7967H2.73905C2.17572 68.5979 1.6623 68.2079 1.25052 67.666C0.838739 67.1241 0.543152 66.4493 0.393555 65.7098V48.3265ZM11.4034 66.1273H29.92C33.9116 66.1273 37.3416 64.3139 40.2 60.6448C42.4705 57.7201 44.7552 54.8379 47.0338 51.9345C48.0089 50.6902 48.9941 49.4645 49.9489 48.1962C50.9625 46.8482 50.6138 44.7025 49.2901 44.1389C48.5258 43.8118 47.871 44.1123 47.2791 44.8089C44.1267 48.5047 40.9582 52.1791 37.8018 55.8722C36.7416 57.1139 35.5921 58.1614 34.244 58.7969C32.3445 59.6796 30.441 60.0253 28.4847 59.0203C27.5562 58.5443 26.5852 58.2226 25.6344 57.8131C23.7471 57.0155 21.8577 56.2391 19.9724 55.4362C19.7394 55.3584 19.5346 55.1758 19.3938 54.9202C19.253 54.6646 19.1852 54.3522 19.2021 54.0376C19.2183 53.7344 19.3132 53.4476 19.4711 53.225C19.629 53.0025 19.8403 52.8576 20.0697 52.8146C20.3225 52.8027 20.5746 52.856 20.8117 52.9715C23.8789 54.2397 26.944 55.5266 30.0132 56.7895C31.0613 57.2229 32.0405 56.6273 32.4033 55.391C32.7662 54.1546 32.3628 52.8624 31.3674 52.235C28.9084 50.6796 26.4595 49.1002 23.9762 47.6139C21.8152 46.3191 19.5163 45.9336 17.2195 46.7419C15.395 47.3826 13.6333 48.3372 11.8352 49.1348C11.4764 49.2917 11.3932 49.531 11.3953 49.9909C11.4074 54.6917 11.3953 59.3925 11.3953 64.0826L11.4034 66.1273ZM9.37616 57.0155C9.37616 54.4737 9.37616 51.9336 9.37616 49.3954C9.37616 48.3637 9.04572 47.941 8.25308 47.9383C6.68942 47.9383 5.12644 47.9383 3.56413 47.9383C2.77351 47.9383 2.44307 48.3637 2.44307 49.3954C2.44307 54.4737 2.44307 59.5529 2.44307 64.633C2.44307 65.6965 2.76743 66.1246 3.59251 66.1273H8.17808C9.07208 66.1273 9.37819 65.7284 9.37819 64.5665C9.37278 62.0407 9.3694 59.5192 9.36805 57.0022L9.37616 57.0155ZM23.6214 4.66351C24.2073 6.86235 24.7506 8.94155 25.3283 11.0021C25.387 11.106 25.463 11.1908 25.5504 11.2503C25.6379 11.3097 25.7346 11.3421 25.8331 11.3451C28.1097 11.3664 30.3862 11.3451 32.6628 11.369C32.7939 11.3922 32.9267 11.3478 33.0333 11.2451C33.1399 11.1425 33.2121 10.9896 33.2345 10.8187C33.7149 8.94421 34.2177 7.08038 34.7083 5.21124C34.7448 5.04143 34.7745 4.86927 34.7975 4.69543C33.3135 5.54359 32.0546 5.25643 30.8971 3.86056C30.4554 3.30294 29.8677 2.98835 29.2546 2.98143C28.6416 2.97451 28.0498 3.27578 27.6009 3.82334C26.423 5.24048 25.156 5.53827 23.6133 4.65022L23.6214 4.66351Z" fill="#760371"/>
<path d="M34.9443 40.7172H24.2873V38.422H34.9443V40.7172ZM31.9332 34.7466H24.2357V32.5104H31.9332V34.7466ZM28.435 29.979L28.6712 36.3038C28.7007 36.9582 28.5924 37.524 28.3464 38.0013C28.1054 38.4736 27.6798 38.8623 27.0697 39.1674L25.1213 38.422C25.3624 38.3875 25.5469 38.2621 25.6748 38.0456C25.8027 37.8291 25.8888 37.5732 25.9331 37.278C25.9774 36.9779 25.9946 36.6925 25.9848 36.4219L25.7634 29.979C25.7289 28.9802 25.9183 28.1413 26.3316 27.4624C26.7499 26.7785 27.3181 26.2643 28.0365 25.9199C28.7548 25.5706 29.5494 25.3959 30.4203 25.3959C31.1681 25.3959 31.8373 25.5091 32.4277 25.7354C33.023 25.9617 33.5224 26.2766 33.9259 26.68C34.3343 27.0835 34.6319 27.5509 34.8189 28.0823C35.0108 28.6137 35.0723 29.1869 35.0034 29.8019L32.4425 29.5879C32.4769 29.1401 32.4031 28.7736 32.2211 28.4882C32.0439 28.1979 31.7979 27.9864 31.483 27.8535C31.1731 27.7157 30.841 27.6469 30.4867 27.6469C30.1226 27.6469 29.7831 27.7305 29.4682 27.8978C29.1583 28.0651 28.9073 28.3209 28.7154 28.6653C28.5285 29.0097 28.435 29.4476 28.435 29.979Z" fill="#760371"/>
</svg>
