<svg width="299" height="79" viewBox="0 0 299 79" fill="none" xmlns="http://www.w3.org/2000/svg">
<g clip-path="url(#clip0_929_62)">
<path d="M78.8405 28.6597H68.9453L81.2154 51.5564L79.929 53.7533C78.5436 56.0476 77.2079 57.5612 74.2886 57.5612H69.8357V65.2748H78.2962C82.2048 65.2748 85.1238 62.0527 87.4494 57.317C88.2409 55.755 88.9337 54.5343 89.7252 53.021L102.391 28.6597H92.4959L87.4988 39.0584C86.4102 41.304 86.3609 44.5261 86.3609 47.0162H84.9755C84.9755 44.5264 84.9262 41.304 83.887 39.0584L78.8405 28.6597Z" fill="#760371"/>
<path d="M117.464 58.6218C118.454 57.4988 118.503 55.4971 118.948 54.0816L120.235 54.4721C119.839 55.888 118.899 57.5966 118.899 59.0612L118.948 61.0629H126.716V36.6529H118.948L118.899 38.4593C118.899 39.9727 119.839 41.6815 120.284 43.0485L118.948 43.4879C118.503 42.072 118.454 40.0216 117.464 38.9477C115.683 37.0437 113.209 35.9208 109.944 35.9208C102.72 35.9208 97.5747 41.4375 97.5747 48.7117C97.5747 55.9859 102.72 61.8444 109.944 61.8444C113.259 61.8444 115.733 60.624 117.464 58.6225V58.6218ZM105.343 48.7112C105.343 45.4402 107.767 43.0482 110.587 43.0482C114.1 43.0482 115.931 45.5381 115.931 48.7112C115.931 52.031 113.407 54.7161 110.587 54.7161C107.767 54.7161 105.343 51.9334 105.343 48.7112Z" fill="#760371"/>
<path d="M155.809 38.1173C154.028 39.3867 153.582 42.0228 153.187 44.171L151.851 43.9271C152.197 41.8278 153.088 38.7522 151.455 37.3852C150.169 36.3111 148.388 35.9206 146.31 35.9206C143.935 35.9206 142.351 36.3111 141.016 37.5805C139.482 39.0938 139.235 42.072 138.591 44.1223L137.305 43.7318C137.948 41.6815 139.036 39.0938 139.036 36.9458V36.6527H131.219V61.0627H139.036V48.7112C139.036 44.0734 140.768 41.9741 143.687 41.9741C146.409 41.9741 147.695 44.0734 147.695 48.7112V61.0627H155.512V48.7112C155.512 44.0734 156.749 41.9741 159.668 41.9741C162.34 41.9741 163.626 44.0734 163.626 48.7112V61.0627H171.443V44.3174C171.443 38.752 167.337 35.9203 162.043 35.9203C159.47 35.9203 157.392 36.9455 155.809 38.1173Z" fill="#760371"/>
<path d="M175.847 34.4557H184.11V26.8884H175.847V34.4557ZM176.144 61.0627H183.863V36.6527H176.144V61.0627Z" fill="#760371"/>
<path d="M188.818 60.2106L192.497 42.2137C192.833 40.5587 193.52 39.2763 194.557 38.3659C195.595 37.4558 196.963 37.0006 198.661 37.0006C199.353 37.0006 200.008 37.0884 200.626 37.2646C201.245 37.4405 201.753 37.6937 202.151 38.0248L200.894 40.2278C200.307 39.7106 199.562 39.4522 198.661 39.4522C197.76 39.4522 197.041 39.7005 196.507 40.1968C195.972 40.6933 195.6 41.4485 195.39 42.462L194.919 44.6031L194.762 45.8442L191.837 60.2109H188.818V60.2106ZM188.818 46.2163L189.29 43.7652H199.95L199.447 46.2163H188.818ZM199.51 60.2106L202.812 43.7652H205.831L202.529 60.2106H199.51ZM205.202 40.6001C204.636 40.6001 204.18 40.4242 203.834 40.0726C203.488 39.721 203.315 39.297 203.315 38.8005C203.315 38.2215 203.514 37.7301 203.913 37.3265C204.311 36.9232 204.835 36.7214 205.485 36.7214C206.03 36.7214 206.486 36.8922 206.853 37.2336C207.22 37.5749 207.403 37.9834 207.403 38.4591C207.403 39.1003 207.204 39.6176 206.806 40.0104C206.407 40.4035 205.873 40.6001 205.202 40.6001ZM218.49 43.61C219.957 43.61 221.184 43.8994 222.169 44.4789C223.154 45.0579 223.841 45.9011 224.229 47.0076C224.616 48.1143 224.653 49.4433 224.339 50.9949L222.483 60.2106H219.465L221.32 50.9949C221.635 49.5056 221.488 48.3471 220.88 47.5197C220.272 46.6923 219.182 46.2785 217.61 46.2785C215.995 46.2785 214.653 46.7077 213.584 47.5663C212.515 48.4247 211.802 49.7434 211.446 51.5224L209.685 60.2106H206.666L209.968 43.7652H212.861L211.918 48.4815L211.352 47.2094C212.148 45.9682 213.16 45.0579 214.386 44.4789C215.613 43.8996 216.981 43.61 218.49 43.61H218.49ZM233.79 60.3968C232.386 60.3968 231.128 60.1123 230.017 59.5433C228.905 58.9744 228.03 58.1626 227.391 57.1078C226.751 56.0526 226.432 54.7806 226.432 53.2911C226.432 51.8842 226.668 50.5916 227.139 49.4124C227.611 48.2334 228.271 47.2094 229.121 46.3405C229.969 45.4714 230.971 44.7992 232.124 44.3235C233.277 43.8477 234.524 43.6098 235.866 43.6098C237.312 43.6098 238.538 43.8579 239.545 44.3544C240.551 44.8507 241.327 45.58 241.872 46.5418C242.417 47.5039 242.689 48.6777 242.689 50.0636C242.689 52.0907 242.333 53.8855 241.62 55.447C240.908 57.009 239.885 58.2241 238.554 59.093C237.223 59.962 235.635 60.3963 233.79 60.3963V60.3968ZM234.451 57.7903C235.708 57.7903 236.83 57.4904 237.815 56.8904C238.801 56.2905 239.571 55.4682 240.127 54.4234C240.682 53.3789 240.96 52.1843 240.96 50.8397C240.96 49.3916 240.53 48.2593 239.671 47.4419C238.811 46.6248 237.585 46.2163 235.992 46.2163C234.755 46.2163 233.644 46.5113 232.658 47.1008C231.673 47.6903 230.897 48.5074 230.331 49.5519C229.765 50.5967 229.482 51.8018 229.482 53.1671C229.482 54.5945 229.912 55.7217 230.772 56.5491C231.631 57.3765 232.857 57.7903 234.451 57.7903ZM239.262 60.2106L240.142 55.9596L241.149 52.1429L241.558 48.2332L242.438 43.765H245.457L242.155 60.2104H239.262V60.2106ZM258.116 43.61C259.583 43.61 260.81 43.8994 261.795 44.4789C262.78 45.0579 263.467 45.9011 263.855 47.0076C264.242 48.1143 264.279 49.4433 263.965 50.9949L262.109 60.2106H259.091L260.946 50.9949C261.261 49.5056 261.114 48.3471 260.506 47.5197C259.898 46.6923 258.808 46.2785 257.235 46.2785C255.621 46.2785 254.279 46.7077 253.21 47.5663C252.141 48.4247 251.428 49.7434 251.072 51.5224L249.311 60.2106H246.292L249.594 43.7652H252.487L251.544 48.4815L250.978 47.2094C251.774 45.9682 252.786 45.0579 254.012 44.4789C255.239 43.8996 256.607 43.61 258.116 43.61H258.116ZM273.982 60.3968C272.368 60.3968 270.969 60.1021 269.784 59.5126C268.6 58.9231 267.682 58.0955 267.033 57.0302C266.383 55.9647 266.058 54.7184 266.058 53.2913C266.058 51.4294 266.477 49.7695 267.316 48.3112C268.154 46.8526 269.318 45.7047 270.806 44.8668C272.294 44.0292 273.982 43.6102 275.869 43.6102C277.483 43.6102 278.867 43.905 280.02 44.4945C281.173 45.084 282.074 45.9787 282.724 47.1784L280.177 48.5747C279.758 47.7679 279.165 47.1732 278.4 46.7907C277.635 46.4081 276.718 46.2166 275.649 46.2166C274.391 46.2166 273.269 46.5115 272.284 47.101C271.299 47.6905 270.523 48.5076 269.957 49.5522C269.391 50.5969 269.108 51.802 269.108 53.1673C269.108 54.5947 269.543 55.7219 270.413 56.5493C271.283 57.3767 272.515 57.7905 274.108 57.7905C275.093 57.7905 276.021 57.5941 276.891 57.201C277.761 56.8079 278.489 56.2287 279.076 55.4633L281.277 57.0148C280.523 58.0699 279.495 58.8972 278.196 59.4972C276.896 60.0969 275.491 60.397 273.982 60.397L273.982 60.3968ZM290.132 60.3968C288.497 60.3968 287.082 60.1021 285.887 59.5126C284.692 58.9231 283.77 58.0955 283.12 57.0302C282.47 55.9647 282.145 54.7082 282.145 53.2601C282.145 51.3982 282.554 49.7432 283.371 48.2954C284.189 46.8473 285.305 45.7044 286.72 44.8666C288.135 44.0289 289.744 43.61 291.547 43.61C293.057 43.61 294.367 43.8943 295.478 44.4633C296.589 45.0322 297.454 45.844 298.072 46.899C298.691 47.954 299 49.2262 299 50.7157C299 51.0881 298.979 51.4655 298.937 51.8481C298.895 52.2307 298.843 52.5877 298.78 52.9187H284.346L284.723 50.7467H297.333L296.107 51.4914C296.296 50.3329 296.212 49.3555 295.855 48.5591C295.499 47.7627 294.938 47.1525 294.173 46.7285C293.408 46.3044 292.491 46.0924 291.421 46.0924C290.164 46.0924 289.058 46.3871 288.104 46.9766C287.15 47.5663 286.411 48.3834 285.887 49.428C285.363 50.4727 285.101 51.6983 285.101 53.1049C285.101 54.5942 285.536 55.7476 286.406 56.5647C287.276 57.3818 288.602 57.7903 290.384 57.7903C291.432 57.7903 292.407 57.6195 293.308 57.2781C294.21 56.937 294.954 56.4766 295.541 55.8974L296.83 58.0384C296.034 58.804 295.038 59.3882 293.843 59.7917C292.648 60.195 291.411 60.3968 290.132 60.3968H290.132Z" fill="#F2C85D"/>
<path d="M83.8648 77.03C83.7137 77.03 83.5852 76.976 83.4787 76.8676C83.3725 76.7593 83.3193 76.6274 83.3193 76.4715C83.3193 76.3091 83.3725 76.1772 83.4787 76.0754C83.5852 75.9741 83.7137 75.9233 83.8648 75.9233C84.0157 75.9233 84.1444 75.9741 84.2506 76.0754C84.3571 76.177 84.4102 76.3091 84.4102 76.4715C84.4102 76.6272 84.3571 76.7593 84.2506 76.8676C84.1444 76.976 84.0157 77.03 83.8648 77.03ZM86.2445 77.03C86.0934 77.03 85.9649 76.976 85.8584 76.8676C85.7522 76.7593 85.699 76.6274 85.699 76.4715C85.699 76.3091 85.7522 76.1772 85.8584 76.0754C85.9649 75.9741 86.0934 75.9233 86.2445 75.9233C86.3954 75.9233 86.5241 75.9741 86.6303 76.0754C86.7368 76.177 86.7899 76.3091 86.7899 76.4715C86.7899 76.6272 86.7368 76.7593 86.6303 76.8676C86.5241 76.976 86.3954 77.03 86.2445 77.03ZM88.6242 77.03C88.473 77.03 88.3446 76.976 88.2381 76.8676C88.1318 76.7593 88.0787 76.6274 88.0787 76.4715C88.0787 76.3091 88.1318 76.1772 88.2381 76.0754C88.3446 75.9741 88.473 75.9233 88.6242 75.9233C88.7751 75.9233 88.9037 75.9741 89.01 76.0754C89.1165 76.177 89.1696 76.3091 89.1696 76.4715C89.1696 76.6272 89.1165 76.7593 89.01 76.8676C88.9037 76.976 88.7751 77.03 88.6242 77.03ZM91.6832 76.9792L89.6454 71.6482H90.3453L92.1977 76.5934H91.8787L93.7824 71.6482H94.4102L96.2936 76.5934H95.9746L97.8579 71.6482H98.5269L96.4789 76.9792H95.7897L93.9783 72.3283H94.1946L92.3729 76.9792H91.6837H91.6832ZM101.966 77.03C101.404 77.03 100.91 76.9133 100.484 76.6798C100.059 76.4461 99.7264 76.1246 99.4862 75.715C99.2461 75.3054 99.1259 74.8366 99.1259 74.3086C99.1259 73.7806 99.2409 73.3135 99.4707 72.9073C99.7006 72.501 100.016 72.1813 100.418 71.9476C100.819 71.7139 101.27 71.5972 101.771 71.5972C102.278 71.5972 102.729 71.7107 103.124 71.9374C103.519 72.1643 103.829 72.4824 104.055 72.892C104.282 73.3016 104.395 73.7736 104.395 74.3086C104.395 74.3424 104.393 74.378 104.39 74.4151C104.387 74.4524 104.385 74.4913 104.385 74.5318H99.6818V73.9936H103.994L103.706 74.207C103.706 73.8209 103.622 73.4775 103.453 73.1762C103.285 72.875 103.057 72.6399 102.769 72.4705C102.481 72.3013 102.148 72.2165 101.771 72.2165C101.401 72.2165 101.068 72.3013 100.773 72.4705C100.478 72.6399 100.248 72.8768 100.083 73.1814C99.9188 73.4859 99.8362 73.8347 99.8362 74.2273V74.3389C99.8362 74.745 99.9273 75.102 100.109 75.4102C100.291 75.7182 100.545 75.9584 100.87 76.1311C101.196 76.3038 101.568 76.3902 101.987 76.3902C102.316 76.3902 102.623 76.3326 102.908 76.2175C103.193 76.1024 103.438 75.9265 103.644 75.6896L104.056 76.1565C103.816 76.4408 103.515 76.6574 103.155 76.8063C102.795 76.9554 102.399 77.0298 101.967 77.0298L101.966 77.03ZM111.025 77.03C110.49 77.03 110.011 76.9133 109.589 76.6798C109.167 76.4461 108.836 76.1246 108.596 75.715C108.356 75.3054 108.236 74.8366 108.236 74.3086C108.236 73.7736 108.356 73.3034 108.596 72.8971C108.836 72.491 109.167 72.1729 109.589 71.9425C110.011 71.7125 110.49 71.5972 111.025 71.5972C111.484 71.5972 111.899 71.6853 112.27 71.8612C112.64 72.0371 112.932 72.3013 113.145 72.6534L112.599 73.0189C112.414 72.7482 112.184 72.5483 111.91 72.4197C111.635 72.2911 111.337 72.2268 111.014 72.2268C110.63 72.2268 110.284 72.3132 109.975 72.4859C109.666 72.6585 109.423 72.9004 109.244 73.2119C109.066 73.5234 108.977 73.889 108.977 74.3086C108.977 74.7282 109.066 75.0938 109.244 75.4053C109.423 75.7168 109.666 75.9587 109.975 76.1313C110.284 76.304 110.63 76.3904 111.014 76.3904C111.337 76.3904 111.635 76.3261 111.91 76.1975C112.184 76.0689 112.414 75.8725 112.599 75.6085L113.145 75.9741C112.932 76.3191 112.64 76.5815 112.27 76.7611C111.899 76.9405 111.484 77.0302 111.025 77.0302V77.03ZM114.773 76.9792V71.6482H115.473V73.1003L115.401 72.8463C115.552 72.4399 115.805 72.1303 116.162 71.9171C116.519 71.7039 116.962 71.5972 117.49 71.5972V72.2978C117.463 72.2978 117.435 72.2962 117.408 72.2929C117.38 72.2894 117.353 72.2878 117.325 72.2878C116.756 72.2878 116.31 72.4586 115.987 72.8006C115.665 73.1424 115.504 73.628 115.504 74.2578V76.9792H114.773H114.773ZM121.259 77.03C120.696 77.03 120.202 76.9133 119.777 76.6798C119.352 76.4461 119.019 76.1246 118.779 75.715C118.539 75.3054 118.419 74.8366 118.419 74.3086C118.419 73.7806 118.534 73.3135 118.763 72.9073C118.993 72.501 119.309 72.1813 119.71 71.9476C120.112 71.7139 120.563 71.5972 121.064 71.5972C121.571 71.5972 122.022 71.7107 122.417 71.9374C122.811 72.1643 123.122 72.4824 123.348 72.892C123.575 73.3016 123.688 73.7736 123.688 74.3086C123.688 74.3424 123.686 74.378 123.683 74.4151C123.679 74.4524 123.677 74.4913 123.677 74.5318H118.975V73.9936H123.286L122.998 74.207C122.998 73.8209 122.914 73.4775 122.746 73.1762C122.578 72.875 122.35 72.6399 122.062 72.4705C121.774 72.3013 121.441 72.2165 121.064 72.2165C120.693 72.2165 120.361 72.3013 120.066 72.4705C119.771 72.6399 119.541 72.8768 119.376 73.1814C119.212 73.4859 119.129 73.8347 119.129 74.2273V74.3389C119.129 74.745 119.22 75.102 119.402 75.4102C119.583 75.7182 119.837 75.9584 120.163 76.1311C120.489 76.3038 120.861 76.3902 121.28 76.3902C121.609 76.3902 121.916 76.3326 122.201 76.2175C122.486 76.1024 122.731 75.9265 122.937 75.6896L123.348 76.1565C123.108 76.4408 122.808 76.6574 122.448 76.8063C122.088 76.9554 121.692 77.0298 121.26 77.0298L121.259 77.03ZM128.609 76.9792V75.8014L128.578 75.6085V73.6385C128.578 73.1848 128.45 72.8363 128.192 72.5926C127.935 72.3488 127.553 72.227 127.045 72.227C126.695 72.227 126.362 72.2845 126.047 72.3996C125.731 72.5147 125.464 72.6671 125.244 72.8565L124.915 72.3183C125.189 72.0881 125.518 71.9106 125.902 71.7852C126.287 71.6599 126.691 71.5972 127.117 71.5972C127.817 71.5972 128.357 71.7682 128.738 72.11C129.119 72.4521 129.309 72.9714 129.309 73.6688V76.979H128.609V76.9792ZM126.746 77.03C126.342 77.03 125.99 76.9641 125.692 76.832C125.393 76.7001 125.165 76.5172 125.007 76.2837C124.85 76.05 124.771 75.7811 124.771 75.4764C124.771 75.1989 124.838 74.9468 124.971 74.7198C125.105 74.4931 125.324 74.3105 125.63 74.1716C125.935 74.0327 126.345 73.9633 126.86 73.9633H128.722V74.5015H126.88C126.359 74.5015 125.997 74.5929 125.794 74.7755C125.592 74.9584 125.491 75.1851 125.491 75.4559C125.491 75.7604 125.611 76.0044 125.851 76.187C126.091 76.3699 126.427 76.461 126.86 76.461C127.271 76.461 127.626 76.3681 127.924 76.1819C128.223 75.996 128.441 75.7266 128.578 75.3748L128.743 75.8722C128.605 76.2245 128.367 76.5053 128.027 76.715C127.688 76.9249 127.261 77.0298 126.746 77.0298L126.746 77.03ZM133.201 77.03C132.694 77.03 132.303 76.8946 132.028 76.6239C131.754 76.3532 131.617 75.9706 131.617 75.4764V70.4702H132.347V75.4358C132.347 75.7471 132.428 75.9876 132.589 76.1567C132.75 76.3261 132.982 76.4107 133.284 76.4107C133.606 76.4107 133.874 76.3194 134.086 76.1367L134.344 76.6546C134.2 76.7833 134.026 76.8781 133.824 76.9389C133.622 76.9999 133.414 77.0302 133.201 77.0302L133.201 77.03ZM130.649 72.2473V71.6482H133.994V72.2473H130.649ZM137.968 77.03C137.406 77.03 136.912 76.9133 136.486 76.6798C136.061 76.4461 135.728 76.1246 135.488 75.715C135.248 75.3054 135.128 74.8366 135.128 74.3086C135.128 73.7806 135.243 73.3135 135.473 72.9073C135.703 72.501 136.018 72.1813 136.42 71.9476C136.821 71.7139 137.272 71.5972 137.773 71.5972C138.281 71.5972 138.732 71.7107 139.126 71.9374C139.521 72.1643 139.831 72.4824 140.057 72.892C140.284 73.3016 140.397 73.7736 140.397 74.3086C140.397 74.3424 140.395 74.378 140.392 74.4151C140.389 74.4524 140.387 74.4913 140.387 74.5318H135.684V73.9936H139.996L139.708 74.207C139.708 73.8209 139.624 73.4775 139.455 73.1762C139.287 72.875 139.059 72.6399 138.771 72.4705C138.483 72.3013 138.15 72.2165 137.773 72.2165C137.403 72.2165 137.07 72.3013 136.775 72.4705C136.48 72.6399 136.25 72.8768 136.085 73.1814C135.921 73.4859 135.838 73.8347 135.838 74.2273V74.3389C135.838 74.745 135.929 75.102 136.111 75.4102C136.293 75.7182 136.547 75.9584 136.872 76.1311C137.198 76.3038 137.57 76.3902 137.989 76.3902C138.318 76.3902 138.625 76.3326 138.91 76.2175C139.195 76.1024 139.44 75.9265 139.646 75.6896L140.058 76.1565C139.818 76.4408 139.517 76.6574 139.157 76.8063C138.797 76.9554 138.401 77.0298 137.969 77.0298L137.968 77.03ZM144.907 76.9792V70.9779C144.907 70.5042 145.047 70.1216 145.329 69.8304C145.61 69.5394 146.015 69.3937 146.543 69.3937C146.749 69.3937 146.948 69.4208 147.14 69.4751C147.332 69.5291 147.493 69.6139 147.624 69.729L147.376 70.2672C147.274 70.1792 147.153 70.113 147.016 70.0692C146.879 70.0252 146.732 70.003 146.574 70.003C146.265 70.003 146.029 70.0876 145.864 70.257C145.699 70.4264 145.617 70.6766 145.617 71.0084V71.8206L145.637 72.1557V76.9792H144.907ZM143.939 72.2473V71.6482H147.284V72.2473H143.939ZM148.272 76.9792V71.6482H149.002V76.9792H148.272ZM148.642 70.4702C148.491 70.4702 148.365 70.4194 148.261 70.318C148.159 70.2165 148.107 70.0946 148.107 69.9525C148.107 69.8103 148.159 69.6901 148.261 69.592C148.364 69.4937 148.491 69.4448 148.642 69.4448C148.793 69.4448 148.92 69.4921 149.023 69.5869C149.126 69.6817 149.177 69.8001 149.177 69.9422C149.177 70.0913 149.128 70.2162 149.028 70.318C148.929 70.4194 148.8 70.4702 148.642 70.4702ZM154.006 71.5974C154.445 71.5974 154.831 71.6804 155.164 71.8463C155.497 72.0122 155.757 72.2643 155.946 72.603C156.135 72.9414 156.229 73.368 156.229 73.8824V76.9797H155.498V73.9537C155.498 73.3917 155.356 72.967 155.071 72.6792C154.786 72.3915 154.387 72.2475 153.872 72.2475C153.488 72.2475 153.154 72.3237 152.869 72.4761C152.585 72.6284 152.365 72.8484 152.211 73.1361C152.056 73.4239 151.979 73.7706 151.979 74.177V76.9794H151.248V71.6485H151.948V73.1108L151.835 72.8365C152.007 72.4507 152.281 72.1478 152.658 71.9278C153.036 71.7079 153.485 71.5977 154.006 71.5977V71.5974ZM161.789 76.9794V75.8016L161.758 75.6087V73.6387C161.758 73.1851 161.629 72.8365 161.372 72.5928C161.114 72.3491 160.732 72.2272 160.224 72.2272C159.875 72.2272 159.542 72.2848 159.226 72.3999C158.911 72.515 158.643 72.6674 158.424 72.8568L158.094 72.3186C158.369 72.0884 158.698 71.9108 159.082 71.7855C159.466 71.6601 159.871 71.5974 160.297 71.5974C160.996 71.5974 161.536 71.7684 161.917 72.1103C162.298 72.4523 162.488 72.9717 162.488 73.669V76.9792H161.789V76.9794ZM159.926 77.0302C159.521 77.0302 159.169 76.9643 158.871 76.8322C158.573 76.7003 158.345 76.5174 158.187 76.2839C158.029 76.0503 157.95 75.7814 157.95 75.4766C157.95 75.1991 158.017 74.947 158.151 74.7201C158.285 74.4934 158.504 74.3107 158.809 74.1718C159.115 74.033 159.525 73.9635 160.039 73.9635H161.902V74.5017H160.06C159.538 74.5017 159.177 74.5931 158.974 74.7758C158.772 74.9587 158.671 75.1854 158.671 75.4561C158.671 75.7606 158.791 76.0046 159.031 76.1873C159.271 76.3702 159.607 76.4613 160.039 76.4613C160.451 76.4613 160.806 76.3683 161.104 76.1821C161.403 75.9962 161.62 75.7269 161.758 75.375L161.922 75.8725C161.785 76.2248 161.547 76.5055 161.207 76.7152C160.867 76.9252 160.44 77.03 159.926 77.03L159.926 77.0302ZM167.431 71.5977C167.87 71.5977 168.255 71.6806 168.588 71.8465C168.921 72.0124 169.182 72.2645 169.37 72.6033C169.559 72.9416 169.654 73.3682 169.654 73.8827V76.9799H168.923V73.954C168.923 73.392 168.78 72.9672 168.496 72.6795C168.211 72.3917 167.811 72.2477 167.297 72.2477C166.913 72.2477 166.578 72.3239 166.293 72.4763C166.009 72.6287 165.789 72.8486 165.635 73.1364C165.481 73.4241 165.403 73.7708 165.403 74.1772V76.9797H164.673V71.6487H165.373V73.111L165.259 72.8367C165.431 72.4509 165.705 72.148 166.083 71.9281C166.46 71.7081 166.909 71.5979 167.431 71.5979V71.5977ZM174.071 77.0302C173.535 77.0302 173.057 76.9135 172.635 76.68C172.213 76.4463 171.882 76.1248 171.642 75.7152C171.402 75.3056 171.282 74.8368 171.282 74.3088C171.282 73.7739 171.402 73.3037 171.642 72.8973C171.882 72.4912 172.213 72.1732 172.635 71.9427C173.057 71.7128 173.535 71.5974 174.071 71.5974C174.53 71.5974 174.945 71.6855 175.316 71.8614C175.686 72.0373 175.978 72.3015 176.19 72.6536L175.645 73.0192C175.46 72.7484 175.23 72.5485 174.956 72.4199C174.681 72.2913 174.383 72.227 174.06 72.227C173.676 72.227 173.33 72.3134 173.021 72.4861C172.712 72.6587 172.469 72.9006 172.29 73.2121C172.112 73.5236 172.023 73.8892 172.023 74.3088C172.023 74.7285 172.112 75.094 172.29 75.4055C172.469 75.7171 172.712 75.9589 173.021 76.1316C173.33 76.3042 173.676 76.3907 174.06 76.3907C174.383 76.3907 174.681 76.3264 174.956 76.1977C175.23 76.0691 175.46 75.8727 175.645 75.6087L176.19 75.9743C175.978 76.3194 175.686 76.5817 175.316 76.7614C174.945 76.9408 174.53 77.0305 174.071 77.0305V77.0302ZM177.737 76.9794V71.6485H178.468V76.9794H177.737ZM178.107 70.4704C177.956 70.4704 177.83 70.4196 177.727 70.3183C177.624 70.2167 177.572 70.0948 177.572 69.9527C177.572 69.8106 177.624 69.6903 177.727 69.5923C177.829 69.4939 177.956 69.445 178.107 69.445C178.258 69.445 178.385 69.4923 178.488 69.5871C178.591 69.682 178.642 69.8003 178.642 69.9424C178.642 70.0916 178.593 70.2165 178.493 70.3183C178.394 70.4196 178.265 70.4704 178.107 70.4704ZM184.089 76.9794V75.8016L184.058 75.6087V73.6387C184.058 73.1851 183.93 72.8365 183.672 72.5928C183.415 72.3491 183.033 72.2272 182.525 72.2272C182.175 72.2272 181.842 72.2848 181.526 72.3999C181.211 72.515 180.943 72.6674 180.724 72.8568L180.394 72.3186C180.669 72.0884 180.998 71.9108 181.382 71.7855C181.767 71.6601 182.171 71.5974 182.597 71.5974C183.296 71.5974 183.837 71.7684 184.218 72.1103C184.598 72.4523 184.789 72.9717 184.789 73.669V76.9792H184.089V76.9794ZM182.226 77.0302C181.822 77.0302 181.47 76.9643 181.172 76.8322C180.873 76.7003 180.645 76.5174 180.487 76.2839C180.33 76.0503 180.25 75.7814 180.25 75.4766C180.25 75.1991 180.318 74.947 180.451 74.7201C180.585 74.4934 180.804 74.3107 181.11 74.1718C181.415 74.033 181.825 73.9635 182.339 73.9635H184.202V74.5017H182.36C181.839 74.5017 181.477 74.5931 181.274 74.7758C181.072 74.9587 180.971 75.1854 180.971 75.4561C180.971 75.7606 181.091 76.0046 181.331 76.1873C181.571 76.3702 181.907 76.4613 182.339 76.4613C182.751 76.4613 183.106 76.3683 183.404 76.1821C183.703 75.9962 183.921 75.7269 184.058 75.375L184.223 75.8725C184.085 76.2248 183.847 76.5055 183.507 76.7152C183.168 76.9252 182.741 77.03 182.226 77.03L182.226 77.0302ZM186.973 76.9794V69.4448H187.704V76.9794H186.973ZM192.759 76.9794V70.9781C192.759 70.5044 192.9 70.1219 193.181 69.8306C193.462 69.5396 193.867 69.394 194.395 69.394C194.601 69.394 194.8 69.421 194.992 69.4753C195.185 69.5293 195.346 69.6142 195.476 69.7293L195.229 70.2675C195.126 70.1794 195.006 70.1132 194.869 70.0694C194.731 70.0254 194.584 70.0033 194.426 70.0033C194.117 70.0033 193.881 70.0878 193.716 70.2572C193.551 70.4266 193.469 70.6769 193.469 71.0086V71.8209L193.49 72.1559V76.9794H192.759ZM191.792 72.2475V71.6485H195.136V72.2475H191.792ZM196.322 76.9794V71.6485H197.022V73.1005L196.95 72.8465C197.101 72.4402 197.355 72.1305 197.712 71.9173C198.068 71.7041 198.511 71.5974 199.039 71.5974V72.2981C199.012 72.2981 198.984 72.2964 198.957 72.2932C198.929 72.2897 198.902 72.288 198.874 72.288C198.305 72.288 197.859 72.4588 197.536 72.8009C197.214 73.1427 197.053 73.6282 197.053 74.258V76.9794H196.322H196.322ZM202.808 77.0302C202.245 77.0302 201.751 76.9135 201.326 76.68C200.901 76.4463 200.568 76.1248 200.328 75.7152C200.088 75.3056 199.968 74.8368 199.968 74.3088C199.968 73.7809 200.083 73.3137 200.313 72.9076C200.543 72.5012 200.858 72.1816 201.259 71.9479C201.661 71.7142 202.112 71.5974 202.613 71.5974C203.12 71.5974 203.571 71.7109 203.966 71.9376C204.36 72.1645 204.671 72.4826 204.897 72.8922C205.124 73.3018 205.237 73.7739 205.237 74.3088C205.237 74.3426 205.235 74.3783 205.232 74.4153C205.228 74.4526 205.227 74.4915 205.227 74.532H200.524V73.9938H204.836L204.547 74.2072C204.547 73.8212 204.463 73.4777 204.295 73.1765C204.127 72.8752 203.899 72.6401 203.611 72.4707C203.323 72.3016 202.99 72.2167 202.613 72.2167C202.242 72.2167 201.91 72.3016 201.615 72.4707C201.32 72.6401 201.09 72.8771 200.925 73.1816C200.761 73.4861 200.678 73.8349 200.678 74.2275V74.3391C200.678 74.7452 200.769 75.1022 200.951 75.4104C201.133 75.7185 201.386 75.9587 201.712 76.1313C202.038 76.304 202.41 76.3904 202.829 76.3904C203.158 76.3904 203.465 76.3329 203.75 76.2178C204.035 76.1027 204.28 75.9268 204.486 75.6898L204.897 76.1567C204.657 76.441 204.357 76.6577 203.997 76.8066C203.637 76.9557 203.241 77.03 202.809 77.03L202.808 77.0302ZM209.222 77.0302C208.659 77.0302 208.165 76.9135 207.74 76.68C207.314 76.4463 206.982 76.1248 206.742 75.7152C206.502 75.3056 206.381 74.8368 206.381 74.3088C206.381 73.7809 206.496 73.3137 206.726 72.9076C206.956 72.5012 207.272 72.1816 207.673 71.9479C208.074 71.7142 208.526 71.5974 209.026 71.5974C209.534 71.5974 209.985 71.7109 210.38 71.9376C210.774 72.1645 211.084 72.4826 211.311 72.8922C211.538 73.3018 211.651 73.7739 211.651 74.3088C211.651 74.3426 211.649 74.3783 211.645 74.4153C211.642 74.4526 211.64 74.4915 211.64 74.532H206.937V73.9938H211.249L210.961 74.2072C210.961 73.8212 210.877 73.4777 210.709 73.1765C210.541 72.8752 210.312 72.6401 210.025 72.4707C209.737 72.3016 209.404 72.2167 209.027 72.2167C208.656 72.2167 208.323 72.3016 208.028 72.4707C207.733 72.6401 207.504 72.8771 207.339 73.1816C207.174 73.4861 207.092 73.8349 207.092 74.2275V74.3391C207.092 74.7452 207.183 75.1022 207.364 75.4104C207.546 75.7185 207.8 75.9587 208.126 76.1313C208.452 76.304 208.824 76.3904 209.243 76.3904C209.572 76.3904 209.879 76.3329 210.164 76.2178C210.448 76.1027 210.694 75.9268 210.9 75.6898L211.311 76.1567C211.071 76.441 210.771 76.6577 210.411 76.8066C210.051 76.9557 209.654 77.03 209.222 77.03L209.222 77.0302ZM215.491 77.0302C214.977 77.0302 214.516 76.9151 214.107 76.6849C213.699 76.455 213.379 76.1348 213.145 75.7255C212.912 75.3158 212.795 74.8438 212.795 74.3088C212.795 73.7673 212.912 73.2934 213.145 72.8871C213.378 72.481 213.699 72.1645 214.107 71.9376C214.516 71.7109 214.977 71.5974 215.491 71.5974C215.965 71.5974 216.389 71.7025 216.762 71.9122C217.136 72.1221 217.435 72.4283 217.658 72.8312C217.881 73.234 217.992 73.7266 217.992 74.3088C217.992 74.8841 217.882 75.375 217.663 75.7814C217.443 76.1875 217.146 76.4971 216.773 76.7106C216.399 76.9238 215.972 77.0302 215.491 77.0302ZM215.543 76.3907C215.927 76.3907 216.272 76.3042 216.577 76.1316C216.882 75.9589 217.123 75.7152 217.297 75.4004C217.472 75.0856 217.56 74.7217 217.56 74.3088C217.56 73.8892 217.472 73.5236 217.297 73.2121C217.123 72.9006 216.882 72.6587 216.577 72.4861C216.272 72.3134 215.927 72.227 215.543 72.227C215.166 72.227 214.826 72.3134 214.524 72.4861C214.222 72.6587 213.982 72.9006 213.804 73.2121C213.626 73.5236 213.536 73.8892 213.536 74.3088C213.536 74.7217 213.626 75.0856 213.804 75.4004C213.982 75.7152 214.222 75.9589 214.524 76.1316C214.826 76.3042 215.166 76.3907 215.543 76.3907ZM217.581 76.9797V75.3753L217.653 74.2988L217.55 73.2226V69.445H218.281V76.9797H217.581H217.581ZM222.718 77.0305C222.197 77.0305 221.729 76.9137 221.314 76.6803C220.899 76.4466 220.571 76.125 220.331 75.7154C220.091 75.3058 219.971 74.837 219.971 74.3091C219.971 73.7741 220.091 73.3039 220.331 72.8976C220.571 72.4914 220.897 72.1734 221.308 71.943C221.72 71.713 222.19 71.5977 222.718 71.5977C223.253 71.5977 223.729 71.713 224.144 71.943C224.559 72.1732 224.885 72.4914 225.121 72.8976C225.358 73.3039 225.476 73.7741 225.476 74.3091C225.476 74.837 225.358 75.3058 225.121 75.7154C224.885 76.125 224.557 76.4466 224.139 76.6803C223.72 76.9137 223.247 77.0305 222.719 77.0305H222.718ZM222.718 76.3909C223.109 76.3909 223.456 76.3045 223.758 76.1318C224.06 75.9591 224.298 75.7154 224.473 75.4007C224.648 75.0859 224.735 74.7219 224.735 74.3091C224.735 73.8894 224.648 73.5239 224.473 73.2123C224.298 72.9008 224.06 72.659 223.758 72.4863C223.456 72.3137 223.113 72.2272 222.729 72.2272C222.345 72.2272 222.001 72.3137 221.7 72.4863C221.398 72.659 221.158 72.9008 220.979 73.2123C220.801 73.5239 220.712 73.8894 220.712 74.3091C220.712 74.7219 220.801 75.0859 220.979 75.4007C221.158 75.7154 221.398 75.9591 221.7 76.1318C222.001 76.3045 222.341 76.3909 222.718 76.3909ZM233.917 71.5979C234.357 71.5979 234.739 71.6808 235.065 71.8467C235.391 72.0126 235.645 72.2647 235.826 72.6035C236.009 72.9418 236.099 73.3684 236.099 73.8829V76.9801H235.369V73.9542C235.369 73.3922 235.233 72.9675 234.962 72.6797C234.691 72.392 234.309 72.248 233.814 72.248C233.444 72.248 233.123 72.3242 232.852 72.4765C232.581 72.6289 232.372 72.8489 232.224 73.1366C232.077 73.4244 232.003 73.7711 232.003 74.1774V76.9799H231.272V73.954C231.272 73.392 231.135 72.9672 230.861 72.6795C230.586 72.3917 230.202 72.2477 229.708 72.2477C229.345 72.2477 229.025 72.3239 228.751 72.4763C228.477 72.6287 228.265 72.8486 228.118 73.1364C227.971 73.4241 227.897 73.7708 227.897 74.1772V76.9797H227.166V71.6487H227.866V73.0905L227.753 72.8365C227.917 72.4507 228.183 72.1478 228.55 71.9278C228.917 71.7079 229.351 71.5977 229.852 71.5977C230.38 71.5977 230.83 71.7281 231.2 71.9886C231.571 72.2494 231.811 72.6403 231.92 73.1615L231.632 73.0499C231.79 72.6166 232.07 72.2664 232.471 71.9989C232.872 71.7314 233.354 71.5977 233.917 71.5977L233.917 71.5979ZM240.177 79.0005C239.957 79.0005 239.746 78.9718 239.544 78.914C239.341 78.8567 239.171 78.7703 239.034 78.6549L239.292 78.1067C239.511 78.2894 239.793 78.3807 240.136 78.3807C240.424 78.3807 240.645 78.2961 240.799 78.1267C240.954 77.9576 241.031 77.7071 241.031 77.3753V71.6482H241.762V77.3753C241.762 77.8695 241.626 78.2637 241.355 78.5582C241.084 78.8525 240.691 79 240.177 79V79.0005ZM241.401 70.4707C241.25 70.4707 241.124 70.4199 241.021 70.3185C240.918 70.2169 240.866 70.0951 240.866 69.9529C240.866 69.8108 240.918 69.6906 241.021 69.5925C241.123 69.4942 241.25 69.4452 241.401 69.4452C241.552 69.4452 241.679 69.4925 241.782 69.5874C241.885 69.6822 241.937 69.8006 241.937 69.9427C241.937 70.0918 241.887 70.2167 241.787 70.3185C241.688 70.4199 241.559 70.4707 241.401 70.4707ZM246.23 77.0305C245.771 77.0305 245.369 76.9459 245.026 76.7765C244.683 76.6073 244.418 76.3536 244.229 76.0148C244.04 75.6765 243.946 75.2532 243.946 74.7455V71.6485H244.676V74.6641C244.676 75.2329 244.819 75.6611 245.103 75.9489C245.388 76.2366 245.788 76.3804 246.302 76.3804C246.68 76.3804 247.007 76.3042 247.285 76.1518C247.563 75.9997 247.775 75.7779 247.923 75.4869C248.071 75.1958 248.144 74.8473 248.144 74.4409V71.6487H248.875V76.9797H248.175V75.5174L248.288 75.7814C248.117 76.174 247.851 76.4801 247.491 76.7003C247.13 76.9203 246.71 77.0302 246.23 77.0302L246.23 77.0305ZM252.562 77.0305C252.116 77.0305 251.694 76.968 251.296 76.8427C250.898 76.7173 250.586 76.56 250.359 76.3706L250.689 75.8019C250.908 75.9643 251.189 76.1048 251.532 76.2234C251.875 76.3417 252.235 76.4011 252.613 76.4011C253.128 76.4011 253.498 76.3215 253.724 76.1623C253.951 76.0032 254.064 75.7916 254.064 75.5279C254.064 75.3315 254 75.1774 253.873 75.0658C253.746 74.9542 253.58 74.8697 253.375 74.8119C253.169 74.7543 252.939 74.7054 252.685 74.6646C252.431 74.6241 252.179 74.5768 251.929 74.5225C251.678 74.4684 251.45 74.3887 251.244 74.2839C251.039 74.1788 250.872 74.0351 250.745 73.8521C250.618 73.6695 250.555 73.4255 250.555 73.121C250.555 72.83 250.637 72.5693 250.802 72.3391C250.967 72.1089 251.209 71.9278 251.528 71.7957C251.846 71.6638 252.236 71.5977 252.696 71.5977C253.045 71.5977 253.395 71.6436 253.745 71.7347C254.095 71.826 254.383 71.9462 254.61 72.0953L254.291 72.6741C254.051 72.5117 253.793 72.395 253.519 72.3239C253.244 72.2526 252.97 72.2172 252.696 72.2172C252.208 72.2172 251.85 72.3001 251.62 72.466C251.39 72.6319 251.275 72.8435 251.275 73.1007C251.275 73.3039 251.339 73.463 251.466 73.5779C251.593 73.693 251.761 73.7827 251.97 73.847C252.179 73.9113 252.409 73.9638 252.66 74.0045C252.91 74.0451 253.16 74.0942 253.411 74.1518C253.661 74.2091 253.891 74.2872 254.1 74.3852C254.309 74.4833 254.477 74.6222 254.605 74.8016C254.732 74.9813 254.795 75.2164 254.795 75.5074C254.795 75.8189 254.707 76.0878 254.532 76.3147C254.357 76.5414 254.104 76.7173 253.771 76.8427C253.438 76.968 253.035 77.0305 252.562 77.0305ZM258.039 77.0305C257.531 77.0305 257.141 76.8951 256.866 76.6244C256.592 76.3536 256.454 75.971 256.454 75.4768V70.4707H257.185V75.4363C257.185 75.7476 257.266 75.988 257.427 76.1572C257.588 76.3266 257.82 76.4112 258.121 76.4112C258.444 76.4112 258.711 76.3198 258.924 76.1372L259.182 76.6551C259.038 76.7837 258.864 76.8786 258.662 76.9394C258.46 77.0004 258.252 77.0307 258.039 77.0307L258.039 77.0305ZM255.487 72.2477V71.6487H258.831V72.2477H255.487ZM263.526 76.9797V70.9784C263.526 70.5047 263.667 70.1221 263.948 69.8308C264.23 69.5398 264.634 69.3942 265.163 69.3942C265.368 69.3942 265.567 69.4212 265.76 69.4755C265.952 69.5296 266.113 69.6144 266.243 69.7295L265.996 70.2677C265.893 70.1796 265.773 70.1135 265.636 70.0697C265.499 70.0256 265.351 70.0035 265.193 70.0035C264.885 70.0035 264.648 70.0881 264.483 70.2575C264.319 70.4269 264.236 70.6771 264.236 71.0089V71.8211L264.257 72.1562V76.9797H263.526ZM262.559 72.2477V71.6487H265.903V72.2477H262.559ZM269.199 77.0305C268.678 77.0305 268.209 76.9137 267.794 76.6803C267.379 76.4466 267.052 76.125 266.812 75.7154C266.571 75.3058 266.451 74.837 266.451 74.3091C266.451 73.7741 266.571 73.3039 266.812 72.8976C267.052 72.4914 267.378 72.1734 267.789 71.943C268.201 71.713 268.671 71.5977 269.199 71.5977C269.734 71.5977 270.209 71.713 270.624 71.943C271.039 72.1732 271.365 72.4914 271.602 72.8976C271.839 73.3039 271.957 73.7741 271.957 74.3091C271.957 74.837 271.839 75.3058 271.602 75.7154C271.365 76.125 271.038 76.4466 270.619 76.6803C270.201 76.9137 269.728 77.0305 269.199 77.0305H269.199ZM269.199 76.3909C269.59 76.3909 269.937 76.3045 270.238 76.1318C270.54 75.9591 270.779 75.7154 270.953 75.4007C271.128 75.0859 271.216 74.7219 271.216 74.3091C271.216 73.8894 271.128 73.5239 270.953 73.2123C270.779 72.9008 270.54 72.659 270.238 72.4863C269.936 72.3137 269.594 72.2272 269.209 72.2272C268.825 72.2272 268.482 72.3137 268.18 72.4863C267.878 72.659 267.638 72.9008 267.46 73.2123C267.282 73.5239 267.192 73.8894 267.192 74.3091C267.192 74.7219 267.282 75.0859 267.46 75.4007C267.638 75.7154 267.878 75.9591 268.18 76.1318C268.482 76.3045 268.822 76.3909 269.199 76.3909ZM273.647 76.9799V71.6489H274.347V73.101L274.275 72.847C274.426 72.4406 274.68 72.131 275.037 71.9178C275.393 71.7046 275.836 71.5979 276.364 71.5979V72.2985C276.337 72.2985 276.309 72.2969 276.282 72.2936C276.254 72.2901 276.227 72.2885 276.199 72.2885C275.63 72.2885 275.184 72.4593 274.861 72.8013C274.539 73.1431 274.378 73.6287 274.378 74.2585V76.9799H273.647H273.647Z" fill="#666666"/>
<path d="M280.709 79C280.456 79 280.214 78.9594 279.984 78.8781C279.754 78.7968 279.557 78.6752 279.392 78.5125L279.732 77.9745C279.869 78.1032 280.018 78.2029 280.179 78.2739C280.341 78.345 280.521 78.3804 280.72 78.3804C280.96 78.3804 281.167 78.3145 281.342 78.1824C281.517 78.0505 281.683 77.8187 281.841 77.4869L282.191 76.7049L282.274 76.5933L284.496 71.6482H285.217L282.51 77.6188C282.359 77.9641 282.193 78.2383 282.011 78.4412C281.829 78.6444 281.632 78.7882 281.419 78.873C281.207 78.9576 280.97 78.9997 280.709 78.9997V79ZM282.15 77.1316L279.66 71.6482H280.421L282.624 76.5425L282.15 77.1316H282.15ZM288.492 77.03C287.971 77.03 287.502 76.9132 287.087 76.6798C286.672 76.4461 286.345 76.1245 286.104 75.7149C285.864 75.3053 285.744 74.8365 285.744 74.3086C285.744 73.7736 285.864 73.3034 286.104 72.8971C286.345 72.4909 286.67 72.1729 287.082 71.9425C287.494 71.7125 287.964 71.5972 288.492 71.5972C289.027 71.5972 289.502 71.7125 289.917 71.9425C290.332 72.1727 290.658 72.4909 290.895 72.8971C291.132 73.3034 291.25 73.7736 291.25 74.3086C291.25 74.8365 291.132 75.3053 290.895 75.7149C290.658 76.1245 290.331 76.4461 289.912 76.6798C289.494 76.9132 289.02 77.03 288.492 77.03H288.492ZM288.492 76.3904C288.883 76.3904 289.23 76.304 289.531 76.1313C289.833 75.9587 290.072 75.7149 290.246 75.4002C290.421 75.0854 290.509 74.7214 290.509 74.3086C290.509 73.8889 290.421 73.5234 290.246 73.2118C290.072 72.9003 289.833 72.6585 289.531 72.4858C289.229 72.3132 288.887 72.2267 288.502 72.2267C288.118 72.2267 287.775 72.3132 287.473 72.4858C287.171 72.6585 286.931 72.9003 286.753 73.2118C286.575 73.5234 286.485 73.8889 286.485 74.3086C286.485 74.7214 286.575 75.0854 286.753 75.4002C286.931 75.7149 287.171 75.9587 287.473 76.1313C287.775 76.304 288.115 76.3904 288.492 76.3904ZM295.173 77.03C294.714 77.03 294.312 76.9454 293.969 76.776C293.627 76.6068 293.361 76.3531 293.172 76.0143C292.983 75.676 292.889 75.2527 292.889 74.745V71.648H293.619V74.6636C293.619 75.2324 293.762 75.6606 294.047 75.9484C294.331 76.2362 294.731 76.3799 295.245 76.3799C295.623 76.3799 295.95 76.3037 296.228 76.1513C296.506 75.9992 296.719 75.7774 296.866 75.4864C297.014 75.1954 297.087 74.8468 297.087 74.4404V71.6482H297.818V76.9792H297.118V75.5169L297.231 75.7809C297.06 76.1735 296.794 76.4796 296.434 76.6998C296.074 76.9198 295.653 77.0297 295.173 77.0297L295.173 77.03Z" fill="#666666"/>
<path fill-rule="evenodd" clip-rule="evenodd" d="M214.196 28.2414C216.108 25.7241 219.452 23.5016 223.66 21.4565C217.196 27.5201 213.134 32.9123 221.068 34.955C225.942 35.9993 230.71 35.614 235.358 33.5894C239.364 31.8443 241.375 29.6793 244.707 27.3833C245.706 26.6953 246.673 26.1566 247.591 25.8495C250.65 24.8262 250.137 26.3791 248.332 27.757C247.562 28.3447 245.864 29.2578 245.075 30.2485C244.437 31.0486 244.687 31.9356 245.612 32.1476C247.68 32.6211 249.966 31.608 252.172 29.9109C253.492 28.9341 254.735 27.5511 256.039 26.4902C256.632 26.0077 259.093 23.9769 258.793 25.8607C258.206 29.5267 250.789 34.7136 247.505 36.2601C245.449 37.2277 243.326 37.9793 241.136 38.519C235.749 39.8466 221.758 40.6444 215.473 36.8297C211.754 34.5729 211.716 31.5083 214.196 28.2414H214.196Z" fill="#760371"/>
<path fill-rule="evenodd" clip-rule="evenodd" d="M267.967 8.76514C260.689 8.17473 255.586 9.57877 251.506 11.0329C259.105 9.73698 265.401 9.281 269.099 10.4989C278.901 13.7271 267.479 22.55 261.465 24.8718C260.212 27.7801 258.552 30.3876 256.486 32.393C263.498 28.7829 270.307 24.7714 275.998 18.5541C277.335 16.5282 277.782 14.8827 277.52 13.5404C276.78 9.73744 271.194 9.0268 267.966 8.76514H267.967Z" fill="#F2C85D"/>
<path fill-rule="evenodd" clip-rule="evenodd" d="M233.213 33.8975C233.757 22.2052 231.382 11.5935 223.253 3.11053C231.351 2.36843 239.174 2.98354 246.73 4.91556C249.983 10.178 251.912 16.1666 252.726 22.766C253.531 15.9317 252.192 8.87489 247.847 1.50587C236.372 -0.683377 226.225 -0.250234 216.647 1.30526C227.431 10.0921 231.915 21.3659 233.212 33.8972L233.213 33.8975Z" fill="#F2C85D"/>
<path fill-rule="evenodd" clip-rule="evenodd" d="M231.688 32.0925C230.163 22.4487 226.947 13.7231 220.001 7.02167L216.85 8.62609C224.445 14.7574 228.703 23.0181 231.688 32.0925H231.688Z" fill="#F2C85D"/>
<path fill-rule="evenodd" clip-rule="evenodd" d="M230.164 31.992C227.846 24.2858 224.615 16.6284 217.867 11.4339L215.732 13.3391C222.099 18.1932 226.643 24.5973 230.164 31.992Z" fill="#760371"/>
<path fill-rule="evenodd" clip-rule="evenodd" d="M55.734 61.9173C51.4407 68.9445 44.2738 74.0679 35.8389 75.7056L42.2882 61.9173H55.734Z" fill="#F2C85D"/>
<path fill-rule="evenodd" clip-rule="evenodd" d="M59.6378 41.8928C59.8914 43.442 60.0253 45.0308 60.0253 46.6506C60.0253 48.8165 59.7875 50.9277 59.34 52.9613L46.353 52.9788L51.3976 41.8881L59.6375 41.8928H59.6378Z" fill="#F2C85D"/>
<path fill-rule="evenodd" clip-rule="evenodd" d="M30.013 17.0359C41.6814 17.0359 51.7943 23.6066 56.7595 33.2027L45.5759 33.1845L35.7456 54.9714L22.6087 33.2856L11.9724 33.1742L31.5194 64.1543L25.4701 75.9279C11.0503 73.7676 0.000488281 61.4825 0.000488281 46.6506C0.000488281 30.2948 13.4375 17.0356 30.0132 17.0356L30.013 17.0359Z" fill="#760371"/>
</g>
<defs>
<clipPath id="clip0_929_62">
<rect width="299" height="79" fill="white"/>
</clipPath>
</defs>
</svg>
